<?xml version="1.0" encoding="utf-8" standalone="no"?>
<!DOCTYPE svg PUBLIC "-//W3C//DTD SVG 1.1//EN"
  "http://www.w3.org/Graphics/SVG/1.1/DTD/svg11.dtd">
<svg xmlns:xlink="http://www.w3.org/1999/xlink" width="720pt" height="576pt" viewBox="0 0 720 576" xmlns="http://www.w3.org/2000/svg" version="1.1">
 <metadata>
  <rdf:RDF xmlns:dc="http://purl.org/dc/elements/1.1/" xmlns:cc="http://creativecommons.org/ns#" xmlns:rdf="http://www.w3.org/1999/02/22-rdf-syntax-ns#">
   <cc:Work>
    <dc:type rdf:resource="http://purl.org/dc/dcmitype/StillImage"/>
    <dc:date>2024-10-29T18:23:06.938684</dc:date>
    <dc:format>image/svg+xml</dc:format>
    <dc:creator>
     <cc:Agent>
      <dc:title>Matplotlib v3.9.2, https://matplotlib.org/</dc:title>
     </cc:Agent>
    </dc:creator>
   </cc:Work>
  </rdf:RDF>
 </metadata>
 <defs>
  <style type="text/css">*{stroke-linejoin: round; stroke-linecap: butt}</style>
 </defs>
 <g id="figure_1">
  <g id="patch_1">
   <path d="M 0 576 
L 720 576 
L 720 0 
L 0 0 
z
" style="fill: #ffffff"/>
  </g>
  <g id="axes_1">
   <g id="patch_2">
    <path d="M 54.02 534.04 
L 709.2 534.04 
L 709.2 26.88 
L 54.02 26.88 
z
" style="fill: #ffffff"/>
   </g>
   <g id="PolyCollection_1">
    <path d="M 83.800909 488.537714 
L 83.800909 510.987273 
L 84.400123 510.987273 
L 84.999336 510.987273 
L 85.598549 510.987273 
L 86.197763 510.987273 
L 86.796976 398.362574 
L 87.39619 398.362574 
L 87.995403 398.362574 
L 88.594617 398.362574 
L 89.19383 398.362574 
L 89.793044 333.793512 
L 90.392257 333.793512 
L 90.991471 333.793512 
L 91.590684 333.793512 
L 92.189898 333.793512 
L 92.789111 290.122003 
L 93.388324 290.122003 
L 93.987538 290.122003 
L 94.586751 290.122003 
L 95.185965 290.122003 
L 95.785178 193.360234 
L 96.384392 193.360234 
L 96.983605 193.360234 
L 97.582819 193.360234 
L 98.182032 193.360234 
L 98.781246 149.511303 
L 99.380459 149.511303 
L 99.979673 149.511303 
L 100.578886 149.511303 
L 101.1781 149.511303 
L 101.777313 124.312977 
L 102.376526 124.312977 
L 102.97574 124.312977 
L 103.574953 124.312977 
L 104.174167 124.312977 
L 104.77338 109.648465 
L 105.372594 109.648465 
L 105.971807 109.648465 
L 106.571021 109.648465 
L 107.170234 109.648465 
L 107.769448 103.302744 
L 108.368661 103.302744 
L 108.967875 103.302744 
L 109.567088 103.302744 
L 110.166301 103.302744 
L 110.765515 100.080149 
L 111.364728 100.080149 
L 111.963942 100.080149 
L 112.563155 100.080149 
L 113.162369 100.080149 
L 113.761582 98.308477 
L 114.360796 98.308477 
L 114.960009 98.308477 
L 115.559223 98.308477 
L 116.158436 98.308477 
L 116.75765 97.283561 
L 117.356863 97.283561 
L 117.956076 97.283561 
L 118.55529 97.283561 
L 119.154503 97.283561 
L 119.753717 96.661273 
L 120.35293 96.661273 
L 120.952144 96.661273 
L 121.551357 96.661273 
L 122.150571 96.661273 
L 122.749784 96.267447 
L 123.348998 96.267447 
L 123.948211 96.267447 
L 124.547425 96.267447 
L 125.146638 96.267447 
L 125.745851 96.00915 
L 126.345065 96.00915 
L 126.944278 96.00915 
L 127.543492 96.00915 
L 128.142705 96.00915 
L 128.741919 95.833478 
L 129.341132 95.833478 
L 129.940346 95.833478 
L 130.539559 95.833478 
L 131.138773 95.833478 
L 131.737986 95.710319 
L 132.3372 95.710319 
L 132.936413 95.710319 
L 133.535626 95.710319 
L 134.13484 95.710319 
L 134.734053 95.621676 
L 135.333267 95.621676 
L 135.93248 95.621676 
L 136.531694 95.621676 
L 137.130907 95.621676 
L 137.730121 95.5566 
L 138.329334 95.5566 
L 138.928548 95.5566 
L 139.527761 95.5566 
L 140.126975 95.5566 
L 140.726188 95.507557 
L 141.325401 95.507557 
L 141.924615 95.507557 
L 142.523828 95.507557 
L 143.123042 95.507557 
L 143.722255 95.470375 
L 144.321469 95.470375 
L 144.920682 95.470375 
L 145.519896 95.470375 
L 146.119109 95.470375 
L 146.718323 95.441902 
L 147.317536 95.441902 
L 147.91675 95.441902 
L 148.515963 95.441902 
L 149.115177 95.441902 
L 149.71439 95.419808 
L 150.313603 95.419808 
L 150.912817 95.419808 
L 151.51203 95.419808 
L 152.111244 95.419808 
L 152.710457 95.402605 
L 153.309671 95.402605 
L 153.908884 95.402605 
L 154.508098 95.402605 
L 155.107311 95.402605 
L 155.706525 95.389192 
L 156.305738 95.389192 
L 156.904952 95.389192 
L 157.504165 95.389192 
L 158.103378 95.389192 
L 158.702592 95.378749 
L 159.301805 95.378749 
L 159.901019 95.378749 
L 160.500232 95.378749 
L 161.099446 95.378749 
L 161.698659 95.370531 
L 162.297873 95.370531 
L 162.897086 95.370531 
L 163.4963 95.370531 
L 164.095513 95.370531 
L 164.694727 95.364078 
L 165.29394 95.364078 
L 165.893153 95.364078 
L 166.492367 95.364078 
L 167.09158 95.364078 
L 167.690794 95.358992 
L 168.290007 95.358992 
L 168.889221 95.358992 
L 169.488434 95.358992 
L 170.087648 95.358992 
L 170.686861 95.354936 
L 171.286075 95.354936 
L 171.885288 95.354936 
L 172.484502 95.354936 
L 173.083715 95.354936 
L 173.682928 95.351734 
L 174.282142 95.351734 
L 174.881355 95.351734 
L 175.480569 95.351734 
L 176.079782 95.351734 
L 176.678996 95.349188 
L 177.278209 95.349188 
L 177.877423 95.349188 
L 178.476636 95.349188 
L 179.07585 95.349188 
L 179.675063 95.347176 
L 180.274277 95.347176 
L 180.87349 95.347176 
L 181.472703 95.347176 
L 182.071917 95.347176 
L 182.67113 95.345585 
L 183.270344 95.345585 
L 183.869557 95.345585 
L 184.468771 95.345585 
L 185.067984 95.345585 
L 185.667198 95.34432 
L 186.266411 95.34432 
L 186.865625 95.34432 
L 187.464838 95.34432 
L 188.064052 95.34432 
L 188.663265 95.343323 
L 189.262479 95.343323 
L 189.861692 95.343323 
L 190.460905 95.343323 
L 191.060119 95.343323 
L 191.659332 95.342527 
L 192.258546 95.342527 
L 192.857759 95.342527 
L 193.456973 95.342527 
L 194.056186 95.342527 
L 194.6554 95.341897 
L 195.254613 95.341897 
L 195.853827 95.341897 
L 196.45304 95.341897 
L 197.052254 95.341897 
L 197.651467 95.341396 
L 198.25068 95.341396 
L 198.849894 95.341396 
L 199.449107 95.341396 
L 200.048321 95.341396 
L 200.647534 95.340994 
L 201.246748 95.340994 
L 201.845961 95.340994 
L 202.445175 95.340994 
L 203.044388 95.340994 
L 203.643602 95.340673 
L 204.242815 95.340673 
L 204.842029 95.340673 
L 205.441242 95.340673 
L 206.040455 95.340673 
L 206.639669 95.340418 
L 207.238882 95.340418 
L 207.838096 95.340418 
L 208.437309 95.340418 
L 209.036523 95.340418 
L 209.635736 95.340215 
L 210.23495 95.340215 
L 210.834163 95.340215 
L 211.433377 95.340215 
L 212.03259 95.340215 
L 212.631804 95.340055 
L 213.231017 95.340055 
L 213.83023 95.340055 
L 214.429444 95.340055 
L 215.028657 95.340055 
L 215.627871 95.339928 
L 216.227084 95.339928 
L 216.826298 95.339928 
L 217.425511 95.339928 
L 218.024725 95.339928 
L 218.623938 95.339827 
L 219.223152 95.339827 
L 219.822365 95.339827 
L 220.421579 95.339827 
L 221.020792 95.339827 
L 221.620005 95.339747 
L 222.219219 95.339747 
L 222.818432 95.339747 
L 223.417646 95.339747 
L 224.016859 95.339747 
L 224.616073 95.339682 
L 225.215286 95.339682 
L 225.8145 95.339682 
L 226.413713 95.339682 
L 227.012927 95.339682 
L 227.61214 95.339631 
L 228.211354 95.339631 
L 228.810567 95.339631 
L 229.409781 95.339631 
L 230.008994 95.339631 
L 230.608207 95.33959 
L 231.207421 95.33959 
L 231.806634 95.33959 
L 232.405848 95.33959 
L 233.005061 95.33959 
L 233.604275 95.339557 
L 234.203488 95.339557 
L 234.802702 95.339557 
L 235.401915 95.339557 
L 236.001129 95.339557 
L 236.600342 95.339531 
L 237.199556 95.339531 
L 237.798769 95.339531 
L 238.397982 95.339531 
L 238.997196 95.339531 
L 239.596409 95.33951 
L 240.195623 95.33951 
L 240.794836 95.33951 
L 241.39405 95.33951 
L 241.993263 95.33951 
L 242.592477 95.339494 
L 243.19169 95.339494 
L 243.790904 95.339494 
L 244.390117 95.339494 
L 244.989331 95.339494 
L 245.588544 95.33948 
L 246.187757 95.33948 
L 246.786971 95.33948 
L 247.386184 95.33948 
L 247.985398 95.33948 
L 248.584611 95.33947 
L 249.183825 95.33947 
L 249.783038 95.33947 
L 250.382252 95.33947 
L 250.981465 95.33947 
L 251.580679 95.339462 
L 252.179892 95.339462 
L 252.779106 95.339462 
L 253.378319 95.339462 
L 253.977532 95.339462 
L 254.576746 95.339455 
L 255.175959 95.339455 
L 255.775173 95.339455 
L 256.374386 95.339455 
L 256.9736 95.339455 
L 257.572813 95.339449 
L 258.172027 95.339449 
L 258.77124 95.339449 
L 259.370454 95.339449 
L 259.969667 95.339449 
L 260.568881 95.339445 
L 261.168094 95.339445 
L 261.767307 95.339445 
L 262.366521 95.339445 
L 262.965734 95.339445 
L 263.564948 95.339442 
L 264.164161 95.339442 
L 264.763375 95.339442 
L 265.362588 95.339442 
L 265.961802 95.339442 
L 266.561015 95.339439 
L 267.160229 95.339439 
L 267.759442 95.339439 
L 268.358656 95.339439 
L 268.957869 95.339439 
L 269.557082 95.339437 
L 270.156296 95.339437 
L 270.755509 95.339437 
L 271.354723 95.339437 
L 271.953936 95.339437 
L 272.55315 95.339435 
L 273.152363 95.339435 
L 273.751577 95.339435 
L 274.35079 95.339435 
L 274.950004 95.339435 
L 275.549217 95.339434 
L 276.148431 95.339434 
L 276.747644 95.339434 
L 277.346858 95.339434 
L 277.946071 95.339434 
L 278.545284 95.339433 
L 279.144498 95.339433 
L 279.743711 95.339433 
L 280.342925 95.339433 
L 280.942138 95.339433 
L 281.541352 95.339432 
L 282.140565 95.339432 
L 282.739779 95.339432 
L 283.338992 95.339432 
L 283.938206 95.339432 
L 284.537419 95.339431 
L 285.136633 95.339431 
L 285.735846 95.339431 
L 286.335059 95.339431 
L 286.934273 95.339431 
L 287.533486 95.33943 
L 288.1327 95.33943 
L 288.731913 95.33943 
L 289.331127 95.33943 
L 289.93034 95.33943 
L 290.529554 95.33943 
L 291.128767 95.33943 
L 291.727981 95.33943 
L 292.327194 95.33943 
L 292.926408 95.33943 
L 293.525621 95.33943 
L 294.124834 95.33943 
L 294.724048 95.33943 
L 295.323261 95.33943 
L 295.922475 95.33943 
L 296.521688 95.339429 
L 297.120902 95.339429 
L 297.720115 95.339429 
L 298.319329 95.339429 
L 298.918542 95.339429 
L 299.517756 95.339429 
L 300.116969 95.339429 
L 300.716183 95.339429 
L 301.315396 95.339429 
L 301.914609 95.339429 
L 302.513823 95.339429 
L 303.113036 95.339429 
L 303.71225 95.339429 
L 304.311463 95.339429 
L 304.910677 95.339429 
L 305.50989 95.339429 
L 306.109104 95.339429 
L 306.708317 95.339429 
L 307.307531 95.339429 
L 307.906744 95.339429 
L 308.505958 95.339429 
L 309.105171 95.339429 
L 309.704384 95.339429 
L 310.303598 95.339429 
L 310.902811 95.339429 
L 311.502025 95.339429 
L 312.101238 95.339429 
L 312.700452 95.339429 
L 313.299665 95.339429 
L 313.898879 95.339429 
L 314.498092 95.339428 
L 315.097306 95.339428 
L 315.696519 95.339428 
L 316.295733 95.339428 
L 316.894946 95.339428 
L 317.49416 95.339428 
L 318.093373 95.339428 
L 318.692586 95.339428 
L 319.2918 95.339428 
L 319.891013 95.339428 
L 320.490227 95.339428 
L 321.08944 95.339428 
L 321.688654 95.339428 
L 322.287867 95.339428 
L 322.887081 95.339428 
L 323.486294 95.339428 
L 324.085508 95.339428 
L 324.684721 95.339428 
L 325.283935 95.339428 
L 325.883148 95.339428 
L 326.482361 95.339428 
L 327.081575 95.339428 
L 327.680788 95.339428 
L 328.280002 95.339428 
L 328.879215 95.339428 
L 329.478429 95.339428 
L 330.077642 95.339428 
L 330.676856 95.339428 
L 331.276069 95.339428 
L 331.875283 95.339428 
L 332.474496 95.339428 
L 333.07371 95.339428 
L 333.672923 95.339428 
L 334.272136 95.339428 
L 334.87135 95.339428 
L 335.470563 95.339428 
L 336.069777 95.339428 
L 336.66899 95.339428 
L 337.268204 95.339428 
L 337.867417 95.339428 
L 338.466631 95.339428 
L 339.065844 95.339428 
L 339.665058 95.339428 
L 340.264271 95.339428 
L 340.863485 95.339428 
L 341.462698 95.339428 
L 342.061911 95.339428 
L 342.661125 95.339428 
L 343.260338 95.339428 
L 343.859552 95.339428 
L 344.458765 95.339428 
L 345.057979 95.339428 
L 345.657192 95.339428 
L 346.256406 95.339428 
L 346.855619 95.339428 
L 347.454833 95.339428 
L 348.054046 95.339428 
L 348.65326 95.339428 
L 349.252473 95.339428 
L 349.851686 95.339428 
L 350.4509 95.339428 
L 351.050113 95.339428 
L 351.649327 95.339428 
L 352.24854 95.339428 
L 352.847754 95.339428 
L 353.446967 95.339428 
L 354.046181 95.339428 
L 354.645394 95.339428 
L 355.244608 95.339428 
L 355.843821 95.339428 
L 356.443035 95.339428 
L 357.042248 95.339428 
L 357.641461 95.339428 
L 358.240675 95.339428 
L 358.839888 95.339428 
L 359.439102 95.339428 
L 360.038315 95.339428 
L 360.637529 95.339428 
L 361.236742 95.339428 
L 361.835956 95.339428 
L 362.435169 95.339428 
L 363.034383 95.339428 
L 363.633596 95.339428 
L 364.23281 95.339428 
L 364.832023 95.339428 
L 365.431237 95.339428 
L 366.03045 95.339428 
L 366.629663 95.339428 
L 367.228877 95.339428 
L 367.82809 95.339428 
L 368.427304 95.339428 
L 369.026517 95.339428 
L 369.625731 95.339428 
L 370.224944 95.339428 
L 370.824158 95.339428 
L 371.423371 95.339428 
L 372.022585 95.339428 
L 372.621798 95.339428 
L 373.221012 95.339428 
L 373.820225 95.339428 
L 374.419438 95.339428 
L 375.018652 95.339428 
L 375.617865 95.339428 
L 376.217079 95.339428 
L 376.816292 95.339428 
L 377.415506 95.339428 
L 378.014719 95.339428 
L 378.613933 95.339428 
L 379.213146 95.339428 
L 379.81236 95.339428 
L 380.411573 95.339428 
L 381.010787 95.339428 
L 381.61 95.339428 
L 382.209213 95.339428 
L 382.808427 95.339428 
L 383.40764 95.339428 
L 384.006854 95.339428 
L 384.606067 95.339428 
L 385.205281 95.339428 
L 385.804494 95.339428 
L 386.403708 95.339428 
L 387.002921 95.339428 
L 387.602135 95.339428 
L 388.201348 95.339428 
L 388.800562 95.339428 
L 389.399775 95.339428 
L 389.998988 95.339428 
L 390.598202 95.339428 
L 391.197415 95.339428 
L 391.796629 95.339428 
L 392.395842 95.339428 
L 392.995056 95.339428 
L 393.594269 95.339428 
L 394.193483 95.339428 
L 394.792696 95.339428 
L 395.39191 95.339428 
L 395.991123 95.339428 
L 396.590337 95.339428 
L 397.18955 95.339428 
L 397.788763 95.339428 
L 398.387977 95.339428 
L 398.98719 95.339428 
L 399.586404 95.339428 
L 400.185617 95.339428 
L 400.784831 95.339428 
L 401.384044 95.339428 
L 401.983258 95.339428 
L 402.582471 95.339428 
L 403.181685 95.339428 
L 403.780898 95.339428 
L 404.380112 95.339428 
L 404.979325 95.339428 
L 405.578539 95.339428 
L 406.177752 95.339428 
L 406.776965 95.339428 
L 407.376179 95.339428 
L 407.975392 95.339428 
L 408.574606 95.339428 
L 409.173819 95.339428 
L 409.773033 95.339428 
L 410.372246 95.339428 
L 410.97146 95.339428 
L 411.570673 95.339428 
L 412.169887 95.339428 
L 412.7691 95.339428 
L 413.368314 95.339428 
L 413.967527 95.339428 
L 414.56674 95.339428 
L 415.165954 95.339428 
L 415.765167 95.339428 
L 416.364381 95.339428 
L 416.963594 95.339428 
L 417.562808 95.339428 
L 418.162021 95.339428 
L 418.761235 95.339428 
L 419.360448 95.339428 
L 419.959662 95.339428 
L 420.558875 95.339428 
L 421.158089 95.339428 
L 421.757302 95.339428 
L 422.356515 95.339428 
L 422.955729 95.339428 
L 423.554942 95.339428 
L 424.154156 95.339428 
L 424.753369 95.339428 
L 425.352583 95.339428 
L 425.951796 95.339428 
L 426.55101 95.339428 
L 427.150223 95.339428 
L 427.749437 95.339428 
L 428.34865 95.339428 
L 428.947864 95.339428 
L 429.547077 95.339428 
L 430.14629 95.339428 
L 430.745504 95.339428 
L 431.344717 95.339428 
L 431.943931 95.339428 
L 432.543144 95.339428 
L 433.142358 95.339428 
L 433.741571 95.339428 
L 434.340785 95.339428 
L 434.939998 95.339428 
L 435.539212 95.339428 
L 436.138425 95.339428 
L 436.737639 95.339428 
L 437.336852 95.339428 
L 437.936065 95.339428 
L 438.535279 95.339428 
L 439.134492 95.339428 
L 439.733706 95.339428 
L 440.332919 95.339428 
L 440.932133 95.339428 
L 441.531346 95.339428 
L 442.13056 95.339428 
L 442.729773 95.339428 
L 443.328987 95.339428 
L 443.9282 95.339428 
L 444.527414 95.339428 
L 445.126627 95.339428 
L 445.72584 95.339428 
L 446.325054 95.339428 
L 446.924267 95.339428 
L 447.523481 95.339428 
L 448.122694 95.339428 
L 448.721908 95.339428 
L 449.321121 95.339428 
L 449.920335 95.339428 
L 450.519548 95.339428 
L 451.118762 95.339428 
L 451.717975 95.339428 
L 452.317189 95.339428 
L 452.916402 95.339428 
L 453.515616 95.339428 
L 454.114829 95.339428 
L 454.714042 95.339428 
L 455.313256 95.339428 
L 455.912469 95.339428 
L 456.511683 95.339428 
L 457.110896 95.339428 
L 457.71011 95.339428 
L 458.309323 95.339428 
L 458.908537 95.339428 
L 459.50775 95.339428 
L 460.106964 95.339428 
L 460.706177 95.339428 
L 461.305391 95.339428 
L 461.904604 95.339428 
L 462.503817 95.339428 
L 463.103031 95.339428 
L 463.702244 95.339428 
L 464.301458 95.339428 
L 464.900671 95.339428 
L 465.499885 95.339428 
L 466.099098 95.339428 
L 466.698312 95.339428 
L 467.297525 95.339428 
L 467.896739 95.339428 
L 468.495952 95.339428 
L 469.095166 95.339428 
L 469.694379 95.339428 
L 470.293592 95.339428 
L 470.892806 95.339428 
L 471.492019 95.339428 
L 472.091233 95.339428 
L 472.690446 95.339428 
L 473.28966 95.339428 
L 473.888873 95.339428 
L 474.488087 95.339428 
L 475.0873 95.339428 
L 475.686514 95.339428 
L 476.285727 95.339428 
L 476.884941 95.339428 
L 477.484154 95.339428 
L 478.083367 95.339428 
L 478.682581 95.339428 
L 479.281794 95.339428 
L 479.881008 95.339428 
L 480.480221 95.339428 
L 481.079435 95.339428 
L 481.678648 95.339428 
L 482.277862 95.339428 
L 482.877075 95.339428 
L 483.476289 95.339428 
L 484.075502 95.339428 
L 484.674716 95.339428 
L 485.273929 95.339428 
L 485.873142 95.339428 
L 486.472356 95.339428 
L 487.071569 95.339428 
L 487.670783 95.339428 
L 488.269996 95.339428 
L 488.86921 95.339428 
L 489.468423 95.339428 
L 490.067637 95.339428 
L 490.66685 95.339428 
L 491.266064 95.339428 
L 491.865277 95.339428 
L 492.464491 95.339428 
L 493.063704 95.339428 
L 493.662918 95.339428 
L 494.262131 95.339428 
L 494.861344 95.339428 
L 495.460558 95.339428 
L 496.059771 95.339428 
L 496.658985 95.339428 
L 497.258198 95.339428 
L 497.857412 95.339428 
L 498.456625 95.339428 
L 499.055839 95.339428 
L 499.655052 95.339428 
L 500.254266 95.339428 
L 500.853479 95.339428 
L 501.452693 95.339428 
L 502.051906 95.339428 
L 502.651119 95.339428 
L 503.250333 95.339428 
L 503.849546 95.339428 
L 504.44876 95.339428 
L 505.047973 95.339428 
L 505.647187 95.339428 
L 506.2464 95.339428 
L 506.845614 95.339428 
L 507.444827 95.339428 
L 508.044041 95.339428 
L 508.643254 95.339428 
L 509.242468 95.339428 
L 509.841681 95.339428 
L 510.440894 95.339428 
L 511.040108 95.339428 
L 511.639321 95.339428 
L 512.238535 95.339428 
L 512.837748 95.339428 
L 513.436962 95.339428 
L 514.036175 95.339428 
L 514.635389 95.339428 
L 515.234602 95.339428 
L 515.833816 95.339428 
L 516.433029 95.339428 
L 517.032243 95.339428 
L 517.631456 95.339428 
L 518.230669 95.339428 
L 518.829883 95.339428 
L 519.429096 95.339428 
L 520.02831 95.339428 
L 520.627523 95.339428 
L 521.226737 95.339428 
L 521.82595 95.339428 
L 522.425164 95.339428 
L 523.024377 95.339428 
L 523.623591 95.339428 
L 524.222804 95.339428 
L 524.822018 95.339428 
L 525.421231 95.339428 
L 526.020444 95.339428 
L 526.619658 95.339428 
L 527.218871 95.339428 
L 527.818085 95.339428 
L 528.417298 95.339428 
L 529.016512 95.339428 
L 529.615725 95.339428 
L 530.214939 95.339428 
L 530.814152 95.339428 
L 531.413366 95.339428 
L 532.012579 95.339428 
L 532.611793 95.339428 
L 533.211006 95.339428 
L 533.810219 95.339428 
L 534.409433 95.339428 
L 535.008646 95.339428 
L 535.60786 95.339428 
L 536.207073 95.339428 
L 536.806287 95.339428 
L 537.4055 95.339428 
L 538.004714 95.339428 
L 538.603927 95.339428 
L 539.203141 95.339428 
L 539.802354 95.339428 
L 540.401568 95.339428 
L 541.000781 95.339428 
L 541.599995 95.339428 
L 542.199208 95.339428 
L 542.798421 95.339428 
L 543.397635 95.339428 
L 543.996848 95.339428 
L 544.596062 95.339428 
L 545.195275 95.339428 
L 545.794489 95.339428 
L 546.393702 95.339428 
L 546.992916 95.339428 
L 547.592129 95.339428 
L 548.191343 95.339428 
L 548.790556 95.339428 
L 549.38977 95.339428 
L 549.988983 95.339428 
L 550.588196 95.339428 
L 551.18741 95.339428 
L 551.786623 95.339428 
L 552.385837 95.339428 
L 552.98505 95.339428 
L 553.584264 95.339428 
L 554.183477 95.339428 
L 554.782691 95.339428 
L 555.381904 95.339428 
L 555.981118 95.339428 
L 556.580331 95.339428 
L 557.179545 95.339428 
L 557.778758 95.339428 
L 558.377971 95.339428 
L 558.977185 95.339428 
L 559.576398 95.339428 
L 560.175612 95.339428 
L 560.774825 95.339428 
L 561.374039 95.339428 
L 561.973252 95.339428 
L 562.572466 95.339428 
L 563.171679 95.339428 
L 563.770893 95.339428 
L 564.370106 95.339428 
L 564.96932 95.339428 
L 565.568533 95.339428 
L 566.167746 95.339428 
L 566.76696 95.339428 
L 567.366173 95.339428 
L 567.965387 95.339428 
L 568.5646 95.339428 
L 569.163814 95.339428 
L 569.763027 95.339428 
L 570.362241 95.339428 
L 570.961454 95.339428 
L 571.560668 95.339428 
L 572.159881 95.339428 
L 572.759095 95.339428 
L 573.358308 95.339428 
L 573.957521 95.339428 
L 574.556735 95.339428 
L 575.155948 95.339428 
L 575.755162 95.339428 
L 576.354375 95.339428 
L 576.953589 95.339428 
L 577.552802 95.339428 
L 578.152016 95.339428 
L 578.751229 95.339428 
L 579.350443 95.339428 
L 579.949656 95.339428 
L 580.54887 95.339428 
L 581.148083 95.339428 
L 581.747297 95.339428 
L 582.34651 95.339428 
L 582.945723 95.339428 
L 583.544937 95.339428 
L 584.14415 95.339428 
L 584.743364 95.339428 
L 585.342577 95.339428 
L 585.941791 95.339428 
L 586.541004 95.339428 
L 587.140218 95.339428 
L 587.739431 95.339428 
L 588.338645 95.339428 
L 588.937858 95.339428 
L 589.537072 95.339428 
L 590.136285 95.339428 
L 590.735498 95.339428 
L 591.334712 95.339428 
L 591.933925 95.339428 
L 592.533139 95.339428 
L 593.132352 95.339428 
L 593.731566 95.339428 
L 594.330779 95.339428 
L 594.929993 95.339428 
L 595.529206 95.339428 
L 596.12842 95.339428 
L 596.727633 95.339428 
L 597.326847 95.339428 
L 597.92606 95.339428 
L 598.525273 95.339428 
L 599.124487 95.339428 
L 599.7237 95.339428 
L 600.322914 95.339428 
L 600.922127 95.339428 
L 601.521341 95.339428 
L 602.120554 95.339428 
L 602.719768 95.339428 
L 603.318981 95.339428 
L 603.918195 95.339428 
L 604.517408 95.339428 
L 605.116622 95.339428 
L 605.715835 95.339428 
L 606.315048 95.339428 
L 606.914262 95.339428 
L 607.513475 95.339428 
L 608.112689 95.339428 
L 608.711902 95.339428 
L 609.311116 95.339428 
L 609.910329 95.339428 
L 610.509543 95.339428 
L 611.108756 95.339428 
L 611.70797 95.339428 
L 612.307183 95.339428 
L 612.906397 95.339428 
L 613.50561 95.339428 
L 614.104823 95.339428 
L 614.704037 95.339428 
L 615.30325 95.339428 
L 615.902464 95.339428 
L 616.501677 95.339428 
L 617.100891 95.339428 
L 617.700104 95.339428 
L 618.299318 95.339428 
L 618.898531 95.339428 
L 619.497745 95.339428 
L 620.096958 95.339428 
L 620.696172 95.339428 
L 621.295385 95.339428 
L 621.894599 95.339428 
L 622.493812 95.339428 
L 623.093025 95.339428 
L 623.692239 95.339428 
L 624.291452 95.339428 
L 624.890666 95.339428 
L 625.489879 95.339428 
L 626.089093 95.339428 
L 626.688306 95.339428 
L 627.28752 95.339428 
L 627.886733 95.339428 
L 628.485947 95.339428 
L 629.08516 95.339428 
L 629.684374 95.339428 
L 630.283587 95.339428 
L 630.8828 95.339428 
L 631.482014 95.339428 
L 632.081227 95.339428 
L 632.680441 95.339428 
L 633.279654 95.339428 
L 633.878868 95.339428 
L 634.478081 95.339428 
L 635.077295 95.339428 
L 635.676508 95.339428 
L 636.275722 95.339428 
L 636.874935 95.339428 
L 637.474149 95.339428 
L 638.073362 95.339428 
L 638.672575 95.339428 
L 639.271789 95.339428 
L 639.871002 95.339428 
L 640.470216 95.339428 
L 641.069429 95.339428 
L 641.668643 95.339428 
L 642.267856 95.339428 
L 642.86707 95.339428 
L 643.466283 95.339428 
L 644.065497 95.339428 
L 644.66471 95.339428 
L 645.263924 95.339428 
L 645.863137 95.339428 
L 646.46235 95.339428 
L 647.061564 95.339428 
L 647.660777 95.339428 
L 648.259991 95.339428 
L 648.859204 95.339428 
L 649.458418 95.339428 
L 650.057631 95.339428 
L 650.656845 95.339428 
L 651.256058 95.339428 
L 651.855272 95.339428 
L 652.454485 95.339428 
L 653.053699 95.339428 
L 653.652912 95.339428 
L 654.252125 95.339428 
L 654.851339 95.339428 
L 655.450552 95.339428 
L 656.049766 95.339428 
L 656.648979 95.339428 
L 657.248193 95.339428 
L 657.847406 95.339428 
L 658.44662 95.339428 
L 659.045833 95.339428 
L 659.645047 95.339428 
L 660.24426 95.339428 
L 660.843474 95.339428 
L 661.442687 95.339428 
L 662.0419 95.339428 
L 662.641114 95.339428 
L 663.240327 95.339428 
L 663.839541 95.339428 
L 664.438754 95.339428 
L 665.037968 95.339428 
L 665.637181 95.339428 
L 666.236395 95.339428 
L 666.835608 95.339428 
L 667.434822 95.339428 
L 668.034035 95.339428 
L 668.633249 95.339428 
L 669.232462 95.339428 
L 669.831676 95.339428 
L 670.430889 95.339428 
L 671.030102 95.339428 
L 671.629316 95.339428 
L 672.228529 95.339428 
L 672.827743 95.339428 
L 673.426956 95.339428 
L 674.02617 95.339428 
L 674.625383 95.339428 
L 675.224597 95.339428 
L 675.82381 95.339428 
L 676.423024 95.339428 
L 677.022237 95.339428 
L 677.621451 95.339428 
L 678.220664 95.339428 
L 678.819877 95.339428 
L 679.419091 95.339428 
L 679.419091 49.932727 
L 679.419091 49.932727 
L 678.819877 49.932727 
L 678.220664 49.932727 
L 677.621451 49.932727 
L 677.022237 49.932727 
L 676.423024 49.932727 
L 675.82381 49.932727 
L 675.224597 49.932727 
L 674.625383 49.932727 
L 674.02617 49.932727 
L 673.426956 49.932727 
L 672.827743 49.932727 
L 672.228529 49.932727 
L 671.629316 49.932727 
L 671.030102 49.932727 
L 670.430889 49.932727 
L 669.831676 49.932727 
L 669.232462 49.932727 
L 668.633249 49.932727 
L 668.034035 49.932727 
L 667.434822 49.932727 
L 666.835608 49.932727 
L 666.236395 49.932727 
L 665.637181 49.932727 
L 665.037968 49.932727 
L 664.438754 49.932727 
L 663.839541 49.932727 
L 663.240327 49.932727 
L 662.641114 49.932727 
L 662.0419 49.932727 
L 661.442687 49.932727 
L 660.843474 49.932727 
L 660.24426 49.932727 
L 659.645047 49.932727 
L 659.045833 49.932727 
L 658.44662 49.932727 
L 657.847406 49.932727 
L 657.248193 49.932727 
L 656.648979 49.932727 
L 656.049766 49.932727 
L 655.450552 49.932727 
L 654.851339 49.932727 
L 654.252125 49.932727 
L 653.652912 49.932727 
L 653.053699 49.932727 
L 652.454485 49.932727 
L 651.855272 49.932727 
L 651.256058 49.932727 
L 650.656845 49.932727 
L 650.057631 49.932727 
L 649.458418 49.932727 
L 648.859204 49.932727 
L 648.259991 49.932727 
L 647.660777 49.932727 
L 647.061564 49.932727 
L 646.46235 49.932727 
L 645.863137 49.932727 
L 645.263924 49.932727 
L 644.66471 49.932727 
L 644.065497 49.932727 
L 643.466283 49.932727 
L 642.86707 49.932727 
L 642.267856 49.932727 
L 641.668643 49.932727 
L 641.069429 49.932727 
L 640.470216 49.932727 
L 639.871002 49.932727 
L 639.271789 49.932727 
L 638.672575 49.932727 
L 638.073362 49.932727 
L 637.474149 49.932727 
L 636.874935 49.932727 
L 636.275722 49.932727 
L 635.676508 49.932727 
L 635.077295 49.932727 
L 634.478081 49.932727 
L 633.878868 49.932727 
L 633.279654 49.932727 
L 632.680441 49.932727 
L 632.081227 49.932727 
L 631.482014 49.932727 
L 630.8828 49.932727 
L 630.283587 49.932727 
L 629.684374 49.932727 
L 629.08516 49.932727 
L 628.485947 49.932727 
L 627.886733 49.932727 
L 627.28752 49.932727 
L 626.688306 49.932727 
L 626.089093 49.932727 
L 625.489879 49.932727 
L 624.890666 49.932727 
L 624.291452 49.932727 
L 623.692239 49.932727 
L 623.093025 49.932727 
L 622.493812 49.932727 
L 621.894599 49.932727 
L 621.295385 49.932727 
L 620.696172 49.932727 
L 620.096958 49.932727 
L 619.497745 49.932727 
L 618.898531 49.932727 
L 618.299318 49.932727 
L 617.700104 49.932727 
L 617.100891 49.932727 
L 616.501677 49.932727 
L 615.902464 49.932727 
L 615.30325 49.932727 
L 614.704037 49.932727 
L 614.104823 49.932727 
L 613.50561 49.932727 
L 612.906397 49.932727 
L 612.307183 49.932727 
L 611.70797 49.932727 
L 611.108756 49.932727 
L 610.509543 49.932727 
L 609.910329 49.932727 
L 609.311116 49.932727 
L 608.711902 49.932727 
L 608.112689 49.932727 
L 607.513475 49.932727 
L 606.914262 49.932727 
L 606.315048 49.932727 
L 605.715835 49.932727 
L 605.116622 49.932727 
L 604.517408 49.932727 
L 603.918195 49.932727 
L 603.318981 49.932727 
L 602.719768 49.932727 
L 602.120554 49.932727 
L 601.521341 49.932727 
L 600.922127 49.932727 
L 600.322914 49.932727 
L 599.7237 49.932727 
L 599.124487 49.932727 
L 598.525273 49.932727 
L 597.92606 49.932727 
L 597.326847 49.932727 
L 596.727633 49.932727 
L 596.12842 49.932727 
L 595.529206 49.932727 
L 594.929993 49.932727 
L 594.330779 49.932727 
L 593.731566 49.932727 
L 593.132352 49.932727 
L 592.533139 49.932727 
L 591.933925 49.932727 
L 591.334712 49.932727 
L 590.735498 49.932727 
L 590.136285 49.932727 
L 589.537072 49.932727 
L 588.937858 49.932727 
L 588.338645 49.932727 
L 587.739431 49.932727 
L 587.140218 49.932727 
L 586.541004 49.932727 
L 585.941791 49.932727 
L 585.342577 49.932727 
L 584.743364 49.932727 
L 584.14415 49.932727 
L 583.544937 49.932727 
L 582.945723 49.932727 
L 582.34651 49.932727 
L 581.747297 49.932727 
L 581.148083 49.932727 
L 580.54887 49.932727 
L 579.949656 49.932727 
L 579.350443 49.932727 
L 578.751229 49.932727 
L 578.152016 49.932727 
L 577.552802 49.932727 
L 576.953589 49.932727 
L 576.354375 49.932727 
L 575.755162 49.932727 
L 575.155948 49.932727 
L 574.556735 49.932727 
L 573.957521 49.932727 
L 573.358308 49.932727 
L 572.759095 49.932727 
L 572.159881 49.932727 
L 571.560668 49.932727 
L 570.961454 49.932727 
L 570.362241 49.932727 
L 569.763027 49.932727 
L 569.163814 49.932727 
L 568.5646 49.932727 
L 567.965387 49.932727 
L 567.366173 49.932727 
L 566.76696 49.932727 
L 566.167746 49.932727 
L 565.568533 49.932727 
L 564.96932 49.932727 
L 564.370106 49.932727 
L 563.770893 49.932727 
L 563.171679 49.932727 
L 562.572466 49.932727 
L 561.973252 49.932727 
L 561.374039 49.932727 
L 560.774825 49.932727 
L 560.175612 49.932727 
L 559.576398 49.932727 
L 558.977185 49.932727 
L 558.377971 49.932727 
L 557.778758 49.932727 
L 557.179545 49.932727 
L 556.580331 49.932727 
L 555.981118 49.932727 
L 555.381904 49.932727 
L 554.782691 49.932727 
L 554.183477 49.932727 
L 553.584264 49.932727 
L 552.98505 49.932727 
L 552.385837 49.932727 
L 551.786623 49.932727 
L 551.18741 49.932727 
L 550.588196 49.932727 
L 549.988983 49.932727 
L 549.38977 49.932727 
L 548.790556 49.932727 
L 548.191343 49.932727 
L 547.592129 49.932727 
L 546.992916 49.932727 
L 546.393702 49.932727 
L 545.794489 49.932727 
L 545.195275 49.932727 
L 544.596062 49.932727 
L 543.996848 49.932727 
L 543.397635 49.932727 
L 542.798421 49.932727 
L 542.199208 49.932727 
L 541.599995 49.932727 
L 541.000781 49.932727 
L 540.401568 49.932727 
L 539.802354 49.932727 
L 539.203141 49.932727 
L 538.603927 49.932727 
L 538.004714 49.932727 
L 537.4055 49.932727 
L 536.806287 49.932727 
L 536.207073 49.932727 
L 535.60786 49.932727 
L 535.008646 49.932727 
L 534.409433 49.932727 
L 533.810219 49.932727 
L 533.211006 49.932727 
L 532.611793 49.932727 
L 532.012579 49.932727 
L 531.413366 49.932727 
L 530.814152 49.932727 
L 530.214939 49.932727 
L 529.615725 49.932727 
L 529.016512 49.932727 
L 528.417298 49.932727 
L 527.818085 49.932727 
L 527.218871 49.932727 
L 526.619658 49.932727 
L 526.020444 49.932727 
L 525.421231 49.932727 
L 524.822018 49.932727 
L 524.222804 49.932727 
L 523.623591 49.932727 
L 523.024377 49.932727 
L 522.425164 49.932727 
L 521.82595 49.932727 
L 521.226737 49.932727 
L 520.627523 49.932727 
L 520.02831 49.932727 
L 519.429096 49.932727 
L 518.829883 49.932727 
L 518.230669 49.932727 
L 517.631456 49.932727 
L 517.032243 49.932727 
L 516.433029 49.932727 
L 515.833816 49.932727 
L 515.234602 49.932727 
L 514.635389 49.932727 
L 514.036175 49.932727 
L 513.436962 49.932727 
L 512.837748 49.932727 
L 512.238535 49.932727 
L 511.639321 49.932727 
L 511.040108 49.932727 
L 510.440894 49.932727 
L 509.841681 49.932727 
L 509.242468 49.932727 
L 508.643254 49.932727 
L 508.044041 49.932727 
L 507.444827 49.932727 
L 506.845614 49.932727 
L 506.2464 49.932727 
L 505.647187 49.932727 
L 505.047973 49.932727 
L 504.44876 49.932727 
L 503.849546 49.932727 
L 503.250333 49.932727 
L 502.651119 49.932727 
L 502.051906 49.932727 
L 501.452693 49.932727 
L 500.853479 49.932727 
L 500.254266 49.932727 
L 499.655052 49.932727 
L 499.055839 49.932727 
L 498.456625 49.932727 
L 497.857412 49.932727 
L 497.258198 49.932727 
L 496.658985 49.932727 
L 496.059771 49.932727 
L 495.460558 49.932727 
L 494.861344 49.932727 
L 494.262131 49.932727 
L 493.662918 49.932727 
L 493.063704 49.932727 
L 492.464491 49.932727 
L 491.865277 49.932727 
L 491.266064 49.932727 
L 490.66685 49.932727 
L 490.067637 49.932727 
L 489.468423 49.932727 
L 488.86921 49.932727 
L 488.269996 49.932727 
L 487.670783 49.932727 
L 487.071569 49.932727 
L 486.472356 49.932727 
L 485.873142 49.932727 
L 485.273929 49.932727 
L 484.674716 49.932727 
L 484.075502 49.932727 
L 483.476289 49.932727 
L 482.877075 49.932727 
L 482.277862 49.932727 
L 481.678648 49.932727 
L 481.079435 49.932727 
L 480.480221 49.932727 
L 479.881008 49.932727 
L 479.281794 49.932727 
L 478.682581 49.932727 
L 478.083367 49.932727 
L 477.484154 49.932727 
L 476.884941 49.932727 
L 476.285727 49.932727 
L 475.686514 49.932727 
L 475.0873 49.932727 
L 474.488087 49.932727 
L 473.888873 49.932727 
L 473.28966 49.932727 
L 472.690446 49.932727 
L 472.091233 49.932727 
L 471.492019 49.932727 
L 470.892806 49.932727 
L 470.293592 49.932727 
L 469.694379 49.932727 
L 469.095166 49.932727 
L 468.495952 49.932727 
L 467.896739 49.932727 
L 467.297525 49.932727 
L 466.698312 49.932727 
L 466.099098 49.932727 
L 465.499885 49.932727 
L 464.900671 49.932727 
L 464.301458 49.932727 
L 463.702244 49.932727 
L 463.103031 49.932727 
L 462.503817 49.932727 
L 461.904604 49.932727 
L 461.305391 49.932727 
L 460.706177 49.932727 
L 460.106964 49.932727 
L 459.50775 49.932727 
L 458.908537 49.932727 
L 458.309323 49.932727 
L 457.71011 49.932727 
L 457.110896 49.932727 
L 456.511683 49.932727 
L 455.912469 49.932727 
L 455.313256 49.932727 
L 454.714042 49.932727 
L 454.114829 49.932727 
L 453.515616 49.932727 
L 452.916402 49.932727 
L 452.317189 49.932727 
L 451.717975 49.932727 
L 451.118762 49.932727 
L 450.519548 49.932727 
L 449.920335 49.932727 
L 449.321121 49.932727 
L 448.721908 49.932727 
L 448.122694 49.932727 
L 447.523481 49.932727 
L 446.924267 49.932727 
L 446.325054 49.932727 
L 445.72584 49.932727 
L 445.126627 49.932727 
L 444.527414 49.932727 
L 443.9282 49.932727 
L 443.328987 49.932727 
L 442.729773 49.932727 
L 442.13056 49.932727 
L 441.531346 49.932727 
L 440.932133 49.932727 
L 440.332919 49.932727 
L 439.733706 49.932727 
L 439.134492 49.932727 
L 438.535279 49.932727 
L 437.936065 49.932727 
L 437.336852 49.932727 
L 436.737639 49.932727 
L 436.138425 49.932727 
L 435.539212 49.932727 
L 434.939998 49.932727 
L 434.340785 49.932727 
L 433.741571 49.932727 
L 433.142358 49.932727 
L 432.543144 49.932727 
L 431.943931 49.932727 
L 431.344717 49.932727 
L 430.745504 49.932727 
L 430.14629 49.932727 
L 429.547077 49.932727 
L 428.947864 49.932727 
L 428.34865 49.932727 
L 427.749437 49.932727 
L 427.150223 49.932727 
L 426.55101 49.932727 
L 425.951796 49.932727 
L 425.352583 49.932727 
L 424.753369 49.932727 
L 424.154156 49.932727 
L 423.554942 49.932727 
L 422.955729 49.932727 
L 422.356515 49.932727 
L 421.757302 49.932727 
L 421.158089 49.932727 
L 420.558875 49.932727 
L 419.959662 49.932727 
L 419.360448 49.932727 
L 418.761235 49.932727 
L 418.162021 49.932727 
L 417.562808 49.932727 
L 416.963594 49.932727 
L 416.364381 49.932727 
L 415.765167 49.932727 
L 415.165954 49.932727 
L 414.56674 49.932727 
L 413.967527 49.932727 
L 413.368314 49.932727 
L 412.7691 49.932727 
L 412.169887 49.932727 
L 411.570673 49.932727 
L 410.97146 49.932727 
L 410.372246 49.932727 
L 409.773033 49.932727 
L 409.173819 49.932727 
L 408.574606 49.932727 
L 407.975392 49.932727 
L 407.376179 49.932727 
L 406.776965 49.932727 
L 406.177752 49.932727 
L 405.578539 49.932727 
L 404.979325 49.932727 
L 404.380112 49.932727 
L 403.780898 49.932727 
L 403.181685 49.932727 
L 402.582471 49.932727 
L 401.983258 49.932727 
L 401.384044 49.932727 
L 400.784831 49.932727 
L 400.185617 49.932727 
L 399.586404 49.932727 
L 398.98719 49.932727 
L 398.387977 49.932727 
L 397.788763 49.932727 
L 397.18955 49.932727 
L 396.590337 49.932727 
L 395.991123 49.932727 
L 395.39191 49.932727 
L 394.792696 49.932727 
L 394.193483 49.932727 
L 393.594269 49.932727 
L 392.995056 49.932727 
L 392.395842 49.932727 
L 391.796629 49.932727 
L 391.197415 49.932727 
L 390.598202 49.932727 
L 389.998988 49.932727 
L 389.399775 49.932727 
L 388.800562 49.932727 
L 388.201348 49.932727 
L 387.602135 49.932727 
L 387.002921 49.932727 
L 386.403708 49.932727 
L 385.804494 49.932727 
L 385.205281 49.932727 
L 384.606067 49.932727 
L 384.006854 49.932727 
L 383.40764 49.932727 
L 382.808427 49.932727 
L 382.209213 49.932727 
L 381.61 49.932727 
L 381.010787 49.932727 
L 380.411573 49.932727 
L 379.81236 49.932727 
L 379.213146 49.932727 
L 378.613933 49.932727 
L 378.014719 49.932727 
L 377.415506 49.932727 
L 376.816292 49.932727 
L 376.217079 49.932727 
L 375.617865 49.932727 
L 375.018652 49.932727 
L 374.419438 49.932727 
L 373.820225 49.932727 
L 373.221012 49.932727 
L 372.621798 49.932727 
L 372.022585 49.932727 
L 371.423371 49.932727 
L 370.824158 49.932727 
L 370.224944 49.932727 
L 369.625731 49.932727 
L 369.026517 49.932727 
L 368.427304 49.932727 
L 367.82809 49.932727 
L 367.228877 49.932727 
L 366.629663 49.932727 
L 366.03045 49.932727 
L 365.431237 49.932727 
L 364.832023 49.932727 
L 364.23281 49.932727 
L 363.633596 49.932727 
L 363.034383 49.932727 
L 362.435169 49.932727 
L 361.835956 49.932727 
L 361.236742 49.932727 
L 360.637529 49.932727 
L 360.038315 49.932727 
L 359.439102 49.932727 
L 358.839888 49.932727 
L 358.240675 49.932727 
L 357.641461 49.932727 
L 357.042248 49.932727 
L 356.443035 49.932727 
L 355.843821 49.932727 
L 355.244608 49.932727 
L 354.645394 49.932727 
L 354.046181 49.932727 
L 353.446967 49.932727 
L 352.847754 49.932727 
L 352.24854 49.932727 
L 351.649327 49.932727 
L 351.050113 49.932727 
L 350.4509 49.932727 
L 349.851686 49.932727 
L 349.252473 49.932727 
L 348.65326 49.932727 
L 348.054046 49.932727 
L 347.454833 49.932727 
L 346.855619 49.932727 
L 346.256406 49.932727 
L 345.657192 49.932727 
L 345.057979 49.932727 
L 344.458765 49.932727 
L 343.859552 49.932727 
L 343.260338 49.932727 
L 342.661125 49.932727 
L 342.061911 49.932727 
L 341.462698 49.932727 
L 340.863485 49.932727 
L 340.264271 49.932727 
L 339.665058 49.932727 
L 339.065844 49.932727 
L 338.466631 49.932727 
L 337.867417 49.932727 
L 337.268204 49.932727 
L 336.66899 49.932727 
L 336.069777 49.932727 
L 335.470563 49.932727 
L 334.87135 49.932727 
L 334.272136 49.932727 
L 333.672923 49.932727 
L 333.07371 49.932727 
L 332.474496 49.932727 
L 331.875283 49.932727 
L 331.276069 49.932727 
L 330.676856 49.932727 
L 330.077642 49.932727 
L 329.478429 49.932727 
L 328.879215 49.932727 
L 328.280002 49.932727 
L 327.680788 49.932727 
L 327.081575 49.932727 
L 326.482361 49.932727 
L 325.883148 49.932727 
L 325.283935 49.932727 
L 324.684721 49.932727 
L 324.085508 49.932727 
L 323.486294 49.932727 
L 322.887081 49.932727 
L 322.287867 49.932727 
L 321.688654 49.932727 
L 321.08944 49.932727 
L 320.490227 49.932727 
L 319.891013 49.932727 
L 319.2918 49.932727 
L 318.692586 49.932727 
L 318.093373 49.932727 
L 317.49416 49.932727 
L 316.894946 49.932728 
L 316.295733 49.932728 
L 315.696519 49.932728 
L 315.097306 49.932728 
L 314.498092 49.932728 
L 313.898879 49.932728 
L 313.299665 49.932728 
L 312.700452 49.932728 
L 312.101238 49.932728 
L 311.502025 49.932728 
L 310.902811 49.932728 
L 310.303598 49.932728 
L 309.704384 49.932728 
L 309.105171 49.932728 
L 308.505958 49.932728 
L 307.906744 49.932728 
L 307.307531 49.932728 
L 306.708317 49.932728 
L 306.109104 49.932728 
L 305.50989 49.932728 
L 304.910677 49.932728 
L 304.311463 49.932728 
L 303.71225 49.932728 
L 303.113036 49.932728 
L 302.513823 49.932728 
L 301.914609 49.932728 
L 301.315396 49.932728 
L 300.716183 49.932728 
L 300.116969 49.932728 
L 299.517756 49.932728 
L 298.918542 49.932728 
L 298.319329 49.932728 
L 297.720115 49.932728 
L 297.120902 49.932728 
L 296.521688 49.932728 
L 295.922475 49.932729 
L 295.323261 49.932729 
L 294.724048 49.932729 
L 294.124834 49.932729 
L 293.525621 49.932729 
L 292.926408 49.932729 
L 292.327194 49.932729 
L 291.727981 49.932729 
L 291.128767 49.932729 
L 290.529554 49.932729 
L 289.93034 49.932729 
L 289.331127 49.932729 
L 288.731913 49.932729 
L 288.1327 49.932729 
L 287.533486 49.932729 
L 286.934273 49.93273 
L 286.335059 49.93273 
L 285.735846 49.93273 
L 285.136633 49.93273 
L 284.537419 49.93273 
L 283.938206 49.93273 
L 283.338992 49.93273 
L 282.739779 49.93273 
L 282.140565 49.93273 
L 281.541352 49.93273 
L 280.942138 49.932731 
L 280.342925 49.932731 
L 279.743711 49.932731 
L 279.144498 49.932731 
L 278.545284 49.932731 
L 277.946071 49.932732 
L 277.346858 49.932732 
L 276.747644 49.932732 
L 276.148431 49.932732 
L 275.549217 49.932732 
L 274.950004 49.932733 
L 274.35079 49.932733 
L 273.751577 49.932733 
L 273.152363 49.932733 
L 272.55315 49.932733 
L 271.953936 49.932735 
L 271.354723 49.932735 
L 270.755509 49.932735 
L 270.156296 49.932735 
L 269.557082 49.932735 
L 268.957869 49.932737 
L 268.358656 49.932737 
L 267.759442 49.932737 
L 267.160229 49.932737 
L 266.561015 49.932737 
L 265.961802 49.932739 
L 265.362588 49.932739 
L 264.763375 49.932739 
L 264.164161 49.932739 
L 263.564948 49.932739 
L 262.965734 49.932742 
L 262.366521 49.932742 
L 261.767307 49.932742 
L 261.168094 49.932742 
L 260.568881 49.932742 
L 259.969667 49.932746 
L 259.370454 49.932746 
L 258.77124 49.932746 
L 258.172027 49.932746 
L 257.572813 49.932746 
L 256.9736 49.932751 
L 256.374386 49.932751 
L 255.775173 49.932751 
L 255.175959 49.932751 
L 254.576746 49.932751 
L 253.977532 49.932757 
L 253.378319 49.932757 
L 252.779106 49.932757 
L 252.179892 49.932757 
L 251.580679 49.932757 
L 250.981465 49.932765 
L 250.382252 49.932765 
L 249.783038 49.932765 
L 249.183825 49.932765 
L 248.584611 49.932765 
L 247.985398 49.932774 
L 247.386184 49.932774 
L 246.786971 49.932774 
L 246.187757 49.932774 
L 245.588544 49.932774 
L 244.989331 49.932787 
L 244.390117 49.932787 
L 243.790904 49.932787 
L 243.19169 49.932787 
L 242.592477 49.932787 
L 241.993263 49.932802 
L 241.39405 49.932802 
L 240.794836 49.932802 
L 240.195623 49.932802 
L 239.596409 49.932802 
L 238.997196 49.932821 
L 238.397982 49.932821 
L 237.798769 49.932821 
L 237.199556 49.932821 
L 236.600342 49.932821 
L 236.001129 49.932845 
L 235.401915 49.932845 
L 234.802702 49.932845 
L 234.203488 49.932845 
L 233.604275 49.932845 
L 233.005061 49.932875 
L 232.405848 49.932875 
L 231.806634 49.932875 
L 231.207421 49.932875 
L 230.608207 49.932875 
L 230.008994 49.932912 
L 229.409781 49.932912 
L 228.810567 49.932912 
L 228.211354 49.932912 
L 227.61214 49.932912 
L 227.012927 49.93296 
L 226.413713 49.93296 
L 225.8145 49.93296 
L 225.215286 49.93296 
L 224.616073 49.93296 
L 224.016859 49.93302 
L 223.417646 49.93302 
L 222.818432 49.93302 
L 222.219219 49.93302 
L 221.620005 49.93302 
L 221.020792 49.933094 
L 220.421579 49.933094 
L 219.822365 49.933094 
L 219.223152 49.933094 
L 218.623938 49.933094 
L 218.024725 49.933188 
L 217.425511 49.933188 
L 216.826298 49.933188 
L 216.227084 49.933188 
L 215.627871 49.933188 
L 215.028657 49.933307 
L 214.429444 49.933307 
L 213.83023 49.933307 
L 213.231017 49.933307 
L 212.631804 49.933307 
L 212.03259 49.933457 
L 211.433377 49.933457 
L 210.834163 49.933457 
L 210.23495 49.933457 
L 209.635736 49.933457 
L 209.036523 49.933648 
L 208.437309 49.933648 
L 207.838096 49.933648 
L 207.238882 49.933648 
L 206.639669 49.933648 
L 206.040455 49.933889 
L 205.441242 49.933889 
L 204.842029 49.933889 
L 204.242815 49.933889 
L 203.643602 49.933889 
L 203.044388 49.934192 
L 202.445175 49.934192 
L 201.845961 49.934192 
L 201.246748 49.934192 
L 200.647534 49.934192 
L 200.048321 49.934574 
L 199.449107 49.934574 
L 198.849894 49.934574 
L 198.25068 49.934574 
L 197.651467 49.934574 
L 197.052254 49.935049 
L 196.45304 49.935049 
L 195.853827 49.935049 
L 195.254613 49.935049 
L 194.6554 49.935049 
L 194.056186 49.93565 
L 193.456973 49.93565 
L 192.857759 49.93565 
L 192.258546 49.93565 
L 191.659332 49.93565 
L 191.060119 49.93641 
L 190.460905 49.93641 
L 189.861692 49.93641 
L 189.262479 49.93641 
L 188.663265 49.93641 
L 188.064052 49.937364 
L 187.464838 49.937364 
L 186.865625 49.937364 
L 186.266411 49.937364 
L 185.667198 49.937364 
L 185.067984 49.938581 
L 184.468771 49.938581 
L 183.869557 49.938581 
L 183.270344 49.938581 
L 182.67113 49.938581 
L 182.071917 49.940113 
L 181.472703 49.940113 
L 180.87349 49.940113 
L 180.274277 49.940113 
L 179.675063 49.940113 
L 179.07585 49.942057 
L 178.476636 49.942057 
L 177.877423 49.942057 
L 177.278209 49.942057 
L 176.678996 49.942057 
L 176.079782 49.94453 
L 175.480569 49.94453 
L 174.881355 49.94453 
L 174.282142 49.94453 
L 173.682928 49.94453 
L 173.083715 49.947654 
L 172.484502 49.947654 
L 171.885288 49.947654 
L 171.286075 49.947654 
L 170.686861 49.947654 
L 170.087648 49.95162 
L 169.488434 49.95162 
L 168.889221 49.95162 
L 168.290007 49.95162 
L 167.690794 49.95162 
L 167.09158 49.956622 
L 166.492367 49.956622 
L 165.893153 49.956622 
L 165.29394 49.956622 
L 164.694727 49.956622 
L 164.095513 49.96299 
L 163.4963 49.96299 
L 162.897086 49.96299 
L 162.297873 49.96299 
L 161.698659 49.96299 
L 161.099446 49.971146 
L 160.500232 49.971146 
L 159.901019 49.971146 
L 159.301805 49.971146 
L 158.702592 49.971146 
L 158.103378 49.981581 
L 157.504165 49.981581 
L 156.904952 49.981581 
L 156.305738 49.981581 
L 155.706525 49.981581 
L 155.107311 49.995037 
L 154.508098 49.995037 
L 153.908884 49.995037 
L 153.309671 49.995037 
L 152.710457 49.995037 
L 152.111244 50.012419 
L 151.51203 50.012419 
L 150.912817 50.012419 
L 150.313603 50.012419 
L 149.71439 50.012419 
L 149.115177 50.034871 
L 148.515963 50.034871 
L 147.91675 50.034871 
L 147.317536 50.034871 
L 146.718323 50.034871 
L 146.119109 50.063987 
L 145.519896 50.063987 
L 144.920682 50.063987 
L 144.321469 50.063987 
L 143.722255 50.063987 
L 143.123042 50.102212 
L 142.523828 50.102212 
L 141.924615 50.102212 
L 141.325401 50.102212 
L 140.726188 50.102212 
L 140.126975 50.152975 
L 139.527761 50.152975 
L 138.928548 50.152975 
L 138.329334 50.152975 
L 137.730121 50.152975 
L 137.130907 50.220645 
L 136.531694 50.220645 
L 135.93248 50.220645 
L 135.333267 50.220645 
L 134.734053 50.220645 
L 134.13484 50.313325 
L 133.535626 50.313325 
L 132.936413 50.313325 
L 132.3372 50.313325 
L 131.737986 50.313325 
L 131.138773 50.442577 
L 130.539559 50.442577 
L 129.940346 50.442577 
L 129.341132 50.442577 
L 128.741919 50.442577 
L 128.142705 50.62713 
L 127.543492 50.62713 
L 126.944278 50.62713 
L 126.345065 50.62713 
L 125.745851 50.62713 
L 125.146638 50.898417 
L 124.547425 50.898417 
L 123.948211 50.898417 
L 123.348998 50.898417 
L 122.749784 50.898417 
L 122.150571 51.309341 
L 121.551357 51.309341 
L 120.952144 51.309341 
L 120.35293 51.309341 
L 119.753717 51.309341 
L 119.154503 51.952465 
L 118.55529 51.952465 
L 117.956076 51.952465 
L 117.356863 51.952465 
L 116.75765 51.952465 
L 116.158436 52.999992 
L 115.559223 52.999992 
L 114.960009 52.999992 
L 114.360796 52.999992 
L 113.761582 52.999992 
L 113.162369 54.782011 
L 112.563155 54.782011 
L 111.963942 54.782011 
L 111.364728 54.782011 
L 110.765515 54.782011 
L 110.166301 57.968151 
L 109.567088 57.968151 
L 108.967875 57.968151 
L 108.368661 57.968151 
L 107.769448 57.968151 
L 107.170234 64.099402 
L 106.571021 64.099402 
L 105.971807 64.099402 
L 105.372594 64.099402 
L 104.77338 64.099402 
L 104.174167 77.695869 
L 103.574953 77.695869 
L 102.97574 77.695869 
L 102.376526 77.695869 
L 101.777313 77.695869 
L 101.1781 101.878035 
L 100.578886 101.878035 
L 99.979673 101.878035 
L 99.380459 101.878035 
L 98.781246 101.878035 
L 98.182032 146.52624 
L 97.582819 146.52624 
L 96.983605 146.52624 
L 96.384392 146.52624 
L 95.785178 146.52624 
L 95.185965 249.213971 
L 94.586751 249.213971 
L 93.987538 249.213971 
L 93.388324 249.213971 
L 92.789111 249.213971 
L 92.189898 295.764894 
L 91.590684 295.764894 
L 90.991471 295.764894 
L 90.392257 295.764894 
L 89.793044 295.764894 
L 89.19383 366.003213 
L 88.594617 366.003213 
L 87.995403 366.003213 
L 87.39619 366.003213 
L 86.796976 366.003213 
L 86.197763 488.537714 
L 85.598549 488.537714 
L 84.999336 488.537714 
L 84.400123 488.537714 
L 83.800909 488.537714 
z
" clip-path="url(#p7886dea4b1)" style="fill: #1f77b4; fill-opacity: 0.2"/>
   </g>
   <g id="matplotlib.axis_1">
    <g id="xtick_1">
     <g id="line2d_1">
      <path d="M 80.205628 534.04 
L 80.205628 26.88 
" clip-path="url(#p7886dea4b1)" style="fill: none; stroke: #b0b0b0; stroke-width: 0.8; stroke-linecap: square"/>
     </g>
     <g id="line2d_2">
      <defs>
       <path id="m7aad29b5af" d="M 0 0 
L 0 3.5 
" style="stroke: #000000; stroke-width: 0.8"/>
      </defs>
      <g>
       <use xlink:href="#m7aad29b5af" x="80.205628" y="534.04" style="stroke: #000000; stroke-width: 0.8"/>
      </g>
     </g>
     <g id="text_1">
      <!-- 0 -->
      <g transform="translate(77.024378 548.638438) scale(0.1 -0.1)">
       <defs>
        <path id="DejaVuSans-30" d="M 2034 4250 
Q 1547 4250 1301 3770 
Q 1056 3291 1056 2328 
Q 1056 1369 1301 889 
Q 1547 409 2034 409 
Q 2525 409 2770 889 
Q 3016 1369 3016 2328 
Q 3016 3291 2770 3770 
Q 2525 4250 2034 4250 
z
M 2034 4750 
Q 2819 4750 3233 4129 
Q 3647 3509 3647 2328 
Q 3647 1150 3233 529 
Q 2819 -91 2034 -91 
Q 1250 -91 836 529 
Q 422 1150 422 2328 
Q 422 3509 836 4129 
Q 1250 4750 2034 4750 
z
" transform="scale(0.015625)"/>
       </defs>
       <use xlink:href="#DejaVuSans-30"/>
      </g>
     </g>
    </g>
    <g id="xtick_2">
     <g id="line2d_3">
      <path d="M 200.048321 534.04 
L 200.048321 26.88 
" clip-path="url(#p7886dea4b1)" style="fill: none; stroke: #b0b0b0; stroke-width: 0.8; stroke-linecap: square"/>
     </g>
     <g id="line2d_4">
      <g>
       <use xlink:href="#m7aad29b5af" x="200.048321" y="534.04" style="stroke: #000000; stroke-width: 0.8"/>
      </g>
     </g>
     <g id="text_2">
      <!-- 200 -->
      <g transform="translate(190.504571 548.638438) scale(0.1 -0.1)">
       <defs>
        <path id="DejaVuSans-32" d="M 1228 531 
L 3431 531 
L 3431 0 
L 469 0 
L 469 531 
Q 828 903 1448 1529 
Q 2069 2156 2228 2338 
Q 2531 2678 2651 2914 
Q 2772 3150 2772 3378 
Q 2772 3750 2511 3984 
Q 2250 4219 1831 4219 
Q 1534 4219 1204 4116 
Q 875 4013 500 3803 
L 500 4441 
Q 881 4594 1212 4672 
Q 1544 4750 1819 4750 
Q 2544 4750 2975 4387 
Q 3406 4025 3406 3419 
Q 3406 3131 3298 2873 
Q 3191 2616 2906 2266 
Q 2828 2175 2409 1742 
Q 1991 1309 1228 531 
z
" transform="scale(0.015625)"/>
       </defs>
       <use xlink:href="#DejaVuSans-32"/>
       <use xlink:href="#DejaVuSans-30" x="63.623047"/>
       <use xlink:href="#DejaVuSans-30" x="127.246094"/>
      </g>
     </g>
    </g>
    <g id="xtick_3">
     <g id="line2d_5">
      <path d="M 319.891013 534.04 
L 319.891013 26.88 
" clip-path="url(#p7886dea4b1)" style="fill: none; stroke: #b0b0b0; stroke-width: 0.8; stroke-linecap: square"/>
     </g>
     <g id="line2d_6">
      <g>
       <use xlink:href="#m7aad29b5af" x="319.891013" y="534.04" style="stroke: #000000; stroke-width: 0.8"/>
      </g>
     </g>
     <g id="text_3">
      <!-- 400 -->
      <g transform="translate(310.347263 548.638438) scale(0.1 -0.1)">
       <defs>
        <path id="DejaVuSans-34" d="M 2419 4116 
L 825 1625 
L 2419 1625 
L 2419 4116 
z
M 2253 4666 
L 3047 4666 
L 3047 1625 
L 3713 1625 
L 3713 1100 
L 3047 1100 
L 3047 0 
L 2419 0 
L 2419 1100 
L 313 1100 
L 313 1709 
L 2253 4666 
z
" transform="scale(0.015625)"/>
       </defs>
       <use xlink:href="#DejaVuSans-34"/>
       <use xlink:href="#DejaVuSans-30" x="63.623047"/>
       <use xlink:href="#DejaVuSans-30" x="127.246094"/>
      </g>
     </g>
    </g>
    <g id="xtick_4">
     <g id="line2d_7">
      <path d="M 439.733706 534.04 
L 439.733706 26.88 
" clip-path="url(#p7886dea4b1)" style="fill: none; stroke: #b0b0b0; stroke-width: 0.8; stroke-linecap: square"/>
     </g>
     <g id="line2d_8">
      <g>
       <use xlink:href="#m7aad29b5af" x="439.733706" y="534.04" style="stroke: #000000; stroke-width: 0.8"/>
      </g>
     </g>
     <g id="text_4">
      <!-- 600 -->
      <g transform="translate(430.189956 548.638438) scale(0.1 -0.1)">
       <defs>
        <path id="DejaVuSans-36" d="M 2113 2584 
Q 1688 2584 1439 2293 
Q 1191 2003 1191 1497 
Q 1191 994 1439 701 
Q 1688 409 2113 409 
Q 2538 409 2786 701 
Q 3034 994 3034 1497 
Q 3034 2003 2786 2293 
Q 2538 2584 2113 2584 
z
M 3366 4563 
L 3366 3988 
Q 3128 4100 2886 4159 
Q 2644 4219 2406 4219 
Q 1781 4219 1451 3797 
Q 1122 3375 1075 2522 
Q 1259 2794 1537 2939 
Q 1816 3084 2150 3084 
Q 2853 3084 3261 2657 
Q 3669 2231 3669 1497 
Q 3669 778 3244 343 
Q 2819 -91 2113 -91 
Q 1303 -91 875 529 
Q 447 1150 447 2328 
Q 447 3434 972 4092 
Q 1497 4750 2381 4750 
Q 2619 4750 2861 4703 
Q 3103 4656 3366 4563 
z
" transform="scale(0.015625)"/>
       </defs>
       <use xlink:href="#DejaVuSans-36"/>
       <use xlink:href="#DejaVuSans-30" x="63.623047"/>
       <use xlink:href="#DejaVuSans-30" x="127.246094"/>
      </g>
     </g>
    </g>
    <g id="xtick_5">
     <g id="line2d_9">
      <path d="M 559.576398 534.04 
L 559.576398 26.88 
" clip-path="url(#p7886dea4b1)" style="fill: none; stroke: #b0b0b0; stroke-width: 0.8; stroke-linecap: square"/>
     </g>
     <g id="line2d_10">
      <g>
       <use xlink:href="#m7aad29b5af" x="559.576398" y="534.04" style="stroke: #000000; stroke-width: 0.8"/>
      </g>
     </g>
     <g id="text_5">
      <!-- 800 -->
      <g transform="translate(550.032648 548.638438) scale(0.1 -0.1)">
       <defs>
        <path id="DejaVuSans-38" d="M 2034 2216 
Q 1584 2216 1326 1975 
Q 1069 1734 1069 1313 
Q 1069 891 1326 650 
Q 1584 409 2034 409 
Q 2484 409 2743 651 
Q 3003 894 3003 1313 
Q 3003 1734 2745 1975 
Q 2488 2216 2034 2216 
z
M 1403 2484 
Q 997 2584 770 2862 
Q 544 3141 544 3541 
Q 544 4100 942 4425 
Q 1341 4750 2034 4750 
Q 2731 4750 3128 4425 
Q 3525 4100 3525 3541 
Q 3525 3141 3298 2862 
Q 3072 2584 2669 2484 
Q 3125 2378 3379 2068 
Q 3634 1759 3634 1313 
Q 3634 634 3220 271 
Q 2806 -91 2034 -91 
Q 1263 -91 848 271 
Q 434 634 434 1313 
Q 434 1759 690 2068 
Q 947 2378 1403 2484 
z
M 1172 3481 
Q 1172 3119 1398 2916 
Q 1625 2713 2034 2713 
Q 2441 2713 2670 2916 
Q 2900 3119 2900 3481 
Q 2900 3844 2670 4047 
Q 2441 4250 2034 4250 
Q 1625 4250 1398 4047 
Q 1172 3844 1172 3481 
z
" transform="scale(0.015625)"/>
       </defs>
       <use xlink:href="#DejaVuSans-38"/>
       <use xlink:href="#DejaVuSans-30" x="63.623047"/>
       <use xlink:href="#DejaVuSans-30" x="127.246094"/>
      </g>
     </g>
    </g>
    <g id="xtick_6">
     <g id="line2d_11">
      <path d="M 679.419091 534.04 
L 679.419091 26.88 
" clip-path="url(#p7886dea4b1)" style="fill: none; stroke: #b0b0b0; stroke-width: 0.8; stroke-linecap: square"/>
     </g>
     <g id="line2d_12">
      <g>
       <use xlink:href="#m7aad29b5af" x="679.419091" y="534.04" style="stroke: #000000; stroke-width: 0.8"/>
      </g>
     </g>
     <g id="text_6">
      <!-- 1000 -->
      <g transform="translate(666.694091 548.638438) scale(0.1 -0.1)">
       <defs>
        <path id="DejaVuSans-31" d="M 794 531 
L 1825 531 
L 1825 4091 
L 703 3866 
L 703 4441 
L 1819 4666 
L 2450 4666 
L 2450 531 
L 3481 531 
L 3481 0 
L 794 0 
L 794 531 
z
" transform="scale(0.015625)"/>
       </defs>
       <use xlink:href="#DejaVuSans-31"/>
       <use xlink:href="#DejaVuSans-30" x="63.623047"/>
       <use xlink:href="#DejaVuSans-30" x="127.246094"/>
       <use xlink:href="#DejaVuSans-30" x="190.869141"/>
      </g>
     </g>
    </g>
    <g id="text_7">
     <!-- Episodes -->
     <g transform="translate(359.367813 562.316562) scale(0.1 -0.1)">
      <defs>
       <path id="DejaVuSans-45" d="M 628 4666 
L 3578 4666 
L 3578 4134 
L 1259 4134 
L 1259 2753 
L 3481 2753 
L 3481 2222 
L 1259 2222 
L 1259 531 
L 3634 531 
L 3634 0 
L 628 0 
L 628 4666 
z
" transform="scale(0.015625)"/>
       <path id="DejaVuSans-70" d="M 1159 525 
L 1159 -1331 
L 581 -1331 
L 581 3500 
L 1159 3500 
L 1159 2969 
Q 1341 3281 1617 3432 
Q 1894 3584 2278 3584 
Q 2916 3584 3314 3078 
Q 3713 2572 3713 1747 
Q 3713 922 3314 415 
Q 2916 -91 2278 -91 
Q 1894 -91 1617 61 
Q 1341 213 1159 525 
z
M 3116 1747 
Q 3116 2381 2855 2742 
Q 2594 3103 2138 3103 
Q 1681 3103 1420 2742 
Q 1159 2381 1159 1747 
Q 1159 1113 1420 752 
Q 1681 391 2138 391 
Q 2594 391 2855 752 
Q 3116 1113 3116 1747 
z
" transform="scale(0.015625)"/>
       <path id="DejaVuSans-69" d="M 603 3500 
L 1178 3500 
L 1178 0 
L 603 0 
L 603 3500 
z
M 603 4863 
L 1178 4863 
L 1178 4134 
L 603 4134 
L 603 4863 
z
" transform="scale(0.015625)"/>
       <path id="DejaVuSans-73" d="M 2834 3397 
L 2834 2853 
Q 2591 2978 2328 3040 
Q 2066 3103 1784 3103 
Q 1356 3103 1142 2972 
Q 928 2841 928 2578 
Q 928 2378 1081 2264 
Q 1234 2150 1697 2047 
L 1894 2003 
Q 2506 1872 2764 1633 
Q 3022 1394 3022 966 
Q 3022 478 2636 193 
Q 2250 -91 1575 -91 
Q 1294 -91 989 -36 
Q 684 19 347 128 
L 347 722 
Q 666 556 975 473 
Q 1284 391 1588 391 
Q 1994 391 2212 530 
Q 2431 669 2431 922 
Q 2431 1156 2273 1281 
Q 2116 1406 1581 1522 
L 1381 1569 
Q 847 1681 609 1914 
Q 372 2147 372 2553 
Q 372 3047 722 3315 
Q 1072 3584 1716 3584 
Q 2034 3584 2315 3537 
Q 2597 3491 2834 3397 
z
" transform="scale(0.015625)"/>
       <path id="DejaVuSans-6f" d="M 1959 3097 
Q 1497 3097 1228 2736 
Q 959 2375 959 1747 
Q 959 1119 1226 758 
Q 1494 397 1959 397 
Q 2419 397 2687 759 
Q 2956 1122 2956 1747 
Q 2956 2369 2687 2733 
Q 2419 3097 1959 3097 
z
M 1959 3584 
Q 2709 3584 3137 3096 
Q 3566 2609 3566 1747 
Q 3566 888 3137 398 
Q 2709 -91 1959 -91 
Q 1206 -91 779 398 
Q 353 888 353 1747 
Q 353 2609 779 3096 
Q 1206 3584 1959 3584 
z
" transform="scale(0.015625)"/>
       <path id="DejaVuSans-64" d="M 2906 2969 
L 2906 4863 
L 3481 4863 
L 3481 0 
L 2906 0 
L 2906 525 
Q 2725 213 2448 61 
Q 2172 -91 1784 -91 
Q 1150 -91 751 415 
Q 353 922 353 1747 
Q 353 2572 751 3078 
Q 1150 3584 1784 3584 
Q 2172 3584 2448 3432 
Q 2725 3281 2906 2969 
z
M 947 1747 
Q 947 1113 1208 752 
Q 1469 391 1925 391 
Q 2381 391 2643 752 
Q 2906 1113 2906 1747 
Q 2906 2381 2643 2742 
Q 2381 3103 1925 3103 
Q 1469 3103 1208 2742 
Q 947 2381 947 1747 
z
" transform="scale(0.015625)"/>
       <path id="DejaVuSans-65" d="M 3597 1894 
L 3597 1613 
L 953 1613 
Q 991 1019 1311 708 
Q 1631 397 2203 397 
Q 2534 397 2845 478 
Q 3156 559 3463 722 
L 3463 178 
Q 3153 47 2828 -22 
Q 2503 -91 2169 -91 
Q 1331 -91 842 396 
Q 353 884 353 1716 
Q 353 2575 817 3079 
Q 1281 3584 2069 3584 
Q 2775 3584 3186 3129 
Q 3597 2675 3597 1894 
z
M 3022 2063 
Q 3016 2534 2758 2815 
Q 2500 3097 2075 3097 
Q 1594 3097 1305 2825 
Q 1016 2553 972 2059 
L 3022 2063 
z
" transform="scale(0.015625)"/>
      </defs>
      <use xlink:href="#DejaVuSans-45"/>
      <use xlink:href="#DejaVuSans-70" x="63.183594"/>
      <use xlink:href="#DejaVuSans-69" x="126.660156"/>
      <use xlink:href="#DejaVuSans-73" x="154.443359"/>
      <use xlink:href="#DejaVuSans-6f" x="206.542969"/>
      <use xlink:href="#DejaVuSans-64" x="267.724609"/>
      <use xlink:href="#DejaVuSans-65" x="331.201172"/>
      <use xlink:href="#DejaVuSans-73" x="392.724609"/>
     </g>
    </g>
   </g>
   <g id="matplotlib.axis_2">
    <g id="ytick_1">
     <g id="line2d_13">
      <path d="M 54.02 443.482722 
L 709.2 443.482722 
" clip-path="url(#p7886dea4b1)" style="fill: none; stroke: #b0b0b0; stroke-width: 0.8; stroke-linecap: square"/>
     </g>
     <g id="line2d_14">
      <defs>
       <path id="m1a93baf1bb" d="M 0 0 
L -3.5 0 
" style="stroke: #000000; stroke-width: 0.8"/>
      </defs>
      <g>
       <use xlink:href="#m1a93baf1bb" x="54.02" y="443.482722" style="stroke: #000000; stroke-width: 0.8"/>
      </g>
     </g>
     <g id="text_8">
      <!-- 0.50 -->
      <g transform="translate(24.754375 447.28194) scale(0.1 -0.1)">
       <defs>
        <path id="DejaVuSans-2e" d="M 684 794 
L 1344 794 
L 1344 0 
L 684 0 
L 684 794 
z
" transform="scale(0.015625)"/>
        <path id="DejaVuSans-35" d="M 691 4666 
L 3169 4666 
L 3169 4134 
L 1269 4134 
L 1269 2991 
Q 1406 3038 1543 3061 
Q 1681 3084 1819 3084 
Q 2600 3084 3056 2656 
Q 3513 2228 3513 1497 
Q 3513 744 3044 326 
Q 2575 -91 1722 -91 
Q 1428 -91 1123 -41 
Q 819 9 494 109 
L 494 744 
Q 775 591 1075 516 
Q 1375 441 1709 441 
Q 2250 441 2565 725 
Q 2881 1009 2881 1497 
Q 2881 1984 2565 2268 
Q 2250 2553 1709 2553 
Q 1456 2553 1204 2497 
Q 953 2441 691 2322 
L 691 4666 
z
" transform="scale(0.015625)"/>
       </defs>
       <use xlink:href="#DejaVuSans-30"/>
       <use xlink:href="#DejaVuSans-2e" x="63.623047"/>
       <use xlink:href="#DejaVuSans-35" x="95.410156"/>
       <use xlink:href="#DejaVuSans-30" x="159.033203"/>
      </g>
     </g>
    </g>
    <g id="ytick_2">
     <g id="line2d_15">
      <path d="M 54.02 351.805835 
L 709.2 351.805835 
" clip-path="url(#p7886dea4b1)" style="fill: none; stroke: #b0b0b0; stroke-width: 0.8; stroke-linecap: square"/>
     </g>
     <g id="line2d_16">
      <g>
       <use xlink:href="#m1a93baf1bb" x="54.02" y="351.805835" style="stroke: #000000; stroke-width: 0.8"/>
      </g>
     </g>
     <g id="text_9">
      <!-- 0.55 -->
      <g transform="translate(24.754375 355.605053) scale(0.1 -0.1)">
       <use xlink:href="#DejaVuSans-30"/>
       <use xlink:href="#DejaVuSans-2e" x="63.623047"/>
       <use xlink:href="#DejaVuSans-35" x="95.410156"/>
       <use xlink:href="#DejaVuSans-35" x="159.033203"/>
      </g>
     </g>
    </g>
    <g id="ytick_3">
     <g id="line2d_17">
      <path d="M 54.02 260.128948 
L 709.2 260.128948 
" clip-path="url(#p7886dea4b1)" style="fill: none; stroke: #b0b0b0; stroke-width: 0.8; stroke-linecap: square"/>
     </g>
     <g id="line2d_18">
      <g>
       <use xlink:href="#m1a93baf1bb" x="54.02" y="260.128948" style="stroke: #000000; stroke-width: 0.8"/>
      </g>
     </g>
     <g id="text_10">
      <!-- 0.60 -->
      <g transform="translate(24.754375 263.928166) scale(0.1 -0.1)">
       <use xlink:href="#DejaVuSans-30"/>
       <use xlink:href="#DejaVuSans-2e" x="63.623047"/>
       <use xlink:href="#DejaVuSans-36" x="95.410156"/>
       <use xlink:href="#DejaVuSans-30" x="159.033203"/>
      </g>
     </g>
    </g>
    <g id="ytick_4">
     <g id="line2d_19">
      <path d="M 54.02 168.452061 
L 709.2 168.452061 
" clip-path="url(#p7886dea4b1)" style="fill: none; stroke: #b0b0b0; stroke-width: 0.8; stroke-linecap: square"/>
     </g>
     <g id="line2d_20">
      <g>
       <use xlink:href="#m1a93baf1bb" x="54.02" y="168.452061" style="stroke: #000000; stroke-width: 0.8"/>
      </g>
     </g>
     <g id="text_11">
      <!-- 0.65 -->
      <g transform="translate(24.754375 172.251279) scale(0.1 -0.1)">
       <use xlink:href="#DejaVuSans-30"/>
       <use xlink:href="#DejaVuSans-2e" x="63.623047"/>
       <use xlink:href="#DejaVuSans-36" x="95.410156"/>
       <use xlink:href="#DejaVuSans-35" x="159.033203"/>
      </g>
     </g>
    </g>
    <g id="ytick_5">
     <g id="line2d_21">
      <path d="M 54.02 76.775174 
L 709.2 76.775174 
" clip-path="url(#p7886dea4b1)" style="fill: none; stroke: #b0b0b0; stroke-width: 0.8; stroke-linecap: square"/>
     </g>
     <g id="line2d_22">
      <g>
       <use xlink:href="#m1a93baf1bb" x="54.02" y="76.775174" style="stroke: #000000; stroke-width: 0.8"/>
      </g>
     </g>
     <g id="text_12">
      <!-- 0.70 -->
      <g transform="translate(24.754375 80.574392) scale(0.1 -0.1)">
       <defs>
        <path id="DejaVuSans-37" d="M 525 4666 
L 3525 4666 
L 3525 4397 
L 1831 0 
L 1172 0 
L 2766 4134 
L 525 4134 
L 525 4666 
z
" transform="scale(0.015625)"/>
       </defs>
       <use xlink:href="#DejaVuSans-30"/>
       <use xlink:href="#DejaVuSans-2e" x="63.623047"/>
       <use xlink:href="#DejaVuSans-37" x="95.410156"/>
       <use xlink:href="#DejaVuSans-30" x="159.033203"/>
      </g>
     </g>
    </g>
    <g id="text_13">
     <!-- Metric Value -->
     <g transform="translate(18.674688 311.324844) rotate(-90) scale(0.1 -0.1)">
      <defs>
       <path id="DejaVuSans-4d" d="M 628 4666 
L 1569 4666 
L 2759 1491 
L 3956 4666 
L 4897 4666 
L 4897 0 
L 4281 0 
L 4281 4097 
L 3078 897 
L 2444 897 
L 1241 4097 
L 1241 0 
L 628 0 
L 628 4666 
z
" transform="scale(0.015625)"/>
       <path id="DejaVuSans-74" d="M 1172 4494 
L 1172 3500 
L 2356 3500 
L 2356 3053 
L 1172 3053 
L 1172 1153 
Q 1172 725 1289 603 
Q 1406 481 1766 481 
L 2356 481 
L 2356 0 
L 1766 0 
Q 1100 0 847 248 
Q 594 497 594 1153 
L 594 3053 
L 172 3053 
L 172 3500 
L 594 3500 
L 594 4494 
L 1172 4494 
z
" transform="scale(0.015625)"/>
       <path id="DejaVuSans-72" d="M 2631 2963 
Q 2534 3019 2420 3045 
Q 2306 3072 2169 3072 
Q 1681 3072 1420 2755 
Q 1159 2438 1159 1844 
L 1159 0 
L 581 0 
L 581 3500 
L 1159 3500 
L 1159 2956 
Q 1341 3275 1631 3429 
Q 1922 3584 2338 3584 
Q 2397 3584 2469 3576 
Q 2541 3569 2628 3553 
L 2631 2963 
z
" transform="scale(0.015625)"/>
       <path id="DejaVuSans-63" d="M 3122 3366 
L 3122 2828 
Q 2878 2963 2633 3030 
Q 2388 3097 2138 3097 
Q 1578 3097 1268 2742 
Q 959 2388 959 1747 
Q 959 1106 1268 751 
Q 1578 397 2138 397 
Q 2388 397 2633 464 
Q 2878 531 3122 666 
L 3122 134 
Q 2881 22 2623 -34 
Q 2366 -91 2075 -91 
Q 1284 -91 818 406 
Q 353 903 353 1747 
Q 353 2603 823 3093 
Q 1294 3584 2113 3584 
Q 2378 3584 2631 3529 
Q 2884 3475 3122 3366 
z
" transform="scale(0.015625)"/>
       <path id="DejaVuSans-20" transform="scale(0.015625)"/>
       <path id="DejaVuSans-56" d="M 1831 0 
L 50 4666 
L 709 4666 
L 2188 738 
L 3669 4666 
L 4325 4666 
L 2547 0 
L 1831 0 
z
" transform="scale(0.015625)"/>
       <path id="DejaVuSans-61" d="M 2194 1759 
Q 1497 1759 1228 1600 
Q 959 1441 959 1056 
Q 959 750 1161 570 
Q 1363 391 1709 391 
Q 2188 391 2477 730 
Q 2766 1069 2766 1631 
L 2766 1759 
L 2194 1759 
z
M 3341 1997 
L 3341 0 
L 2766 0 
L 2766 531 
Q 2569 213 2275 61 
Q 1981 -91 1556 -91 
Q 1019 -91 701 211 
Q 384 513 384 1019 
Q 384 1609 779 1909 
Q 1175 2209 1959 2209 
L 2766 2209 
L 2766 2266 
Q 2766 2663 2505 2880 
Q 2244 3097 1772 3097 
Q 1472 3097 1187 3025 
Q 903 2953 641 2809 
L 641 3341 
Q 956 3463 1253 3523 
Q 1550 3584 1831 3584 
Q 2591 3584 2966 3190 
Q 3341 2797 3341 1997 
z
" transform="scale(0.015625)"/>
       <path id="DejaVuSans-6c" d="M 603 4863 
L 1178 4863 
L 1178 0 
L 603 0 
L 603 4863 
z
" transform="scale(0.015625)"/>
       <path id="DejaVuSans-75" d="M 544 1381 
L 544 3500 
L 1119 3500 
L 1119 1403 
Q 1119 906 1312 657 
Q 1506 409 1894 409 
Q 2359 409 2629 706 
Q 2900 1003 2900 1516 
L 2900 3500 
L 3475 3500 
L 3475 0 
L 2900 0 
L 2900 538 
Q 2691 219 2414 64 
Q 2138 -91 1772 -91 
Q 1169 -91 856 284 
Q 544 659 544 1381 
z
M 1991 3584 
L 1991 3584 
z
" transform="scale(0.015625)"/>
      </defs>
      <use xlink:href="#DejaVuSans-4d"/>
      <use xlink:href="#DejaVuSans-65" x="86.279297"/>
      <use xlink:href="#DejaVuSans-74" x="147.802734"/>
      <use xlink:href="#DejaVuSans-72" x="187.011719"/>
      <use xlink:href="#DejaVuSans-69" x="228.125"/>
      <use xlink:href="#DejaVuSans-63" x="255.908203"/>
      <use xlink:href="#DejaVuSans-20" x="310.888672"/>
      <use xlink:href="#DejaVuSans-56" x="342.675781"/>
      <use xlink:href="#DejaVuSans-61" x="403.333984"/>
      <use xlink:href="#DejaVuSans-6c" x="464.613281"/>
      <use xlink:href="#DejaVuSans-75" x="492.396484"/>
      <use xlink:href="#DejaVuSans-65" x="555.775391"/>
     </g>
    </g>
   </g>
   <g id="line2d_23">
    <path d="M 83.800909 499.762493 
L 86.197763 499.762493 
L 86.796976 382.182894 
L 89.19383 382.182894 
L 89.793044 314.779203 
L 92.189898 314.779203 
L 92.789111 269.667987 
L 95.185965 269.667987 
L 95.785178 169.943237 
L 98.182032 169.943237 
L 98.781246 125.694669 
L 101.1781 125.694669 
L 101.777313 101.004423 
L 104.174167 101.004423 
L 104.77338 86.873934 
L 107.170234 86.873934 
L 107.769448 80.635447 
L 110.166301 80.635447 
L 110.765515 77.43108 
L 113.162369 77.43108 
L 113.761582 75.654235 
L 116.158436 75.654235 
L 116.75765 74.618013 
L 119.154503 74.618013 
L 119.753717 73.985307 
L 122.150571 73.985307 
L 122.749784 73.582932 
L 125.146638 73.582932 
L 125.745851 73.31814 
L 128.142705 73.31814 
L 128.741919 73.138027 
L 131.138773 73.138027 
L 131.737986 73.011822 
L 137.130907 72.92116 
L 138.329334 72.854787 
L 146.119109 72.767181 
L 148.515963 72.738387 
L 679.419091 72.636078 
L 679.419091 72.636078 
" clip-path="url(#p7886dea4b1)" style="fill: none; stroke: #1f77b4; stroke-width: 1.5; stroke-linecap: square"/>
   </g>
   <g id="patch_3">
    <path d="M 54.02 534.04 
L 54.02 26.88 
" style="fill: none; stroke: #000000; stroke-width: 0.8; stroke-linejoin: miter; stroke-linecap: square"/>
   </g>
   <g id="patch_4">
    <path d="M 709.2 534.04 
L 709.2 26.88 
" style="fill: none; stroke: #000000; stroke-width: 0.8; stroke-linejoin: miter; stroke-linecap: square"/>
   </g>
   <g id="patch_5">
    <path d="M 54.02 534.04 
L 709.2 534.04 
" style="fill: none; stroke: #000000; stroke-width: 0.8; stroke-linejoin: miter; stroke-linecap: square"/>
   </g>
   <g id="patch_6">
    <path d="M 54.02 26.88 
L 709.2 26.88 
" style="fill: none; stroke: #000000; stroke-width: 0.8; stroke-linejoin: miter; stroke-linecap: square"/>
   </g>
   <g id="text_14">
    <!-- Global Alignment Across Runs -->
    <g transform="translate(291.826563 20.88) scale(0.12 -0.12)">
     <defs>
      <path id="DejaVuSans-47" d="M 3809 666 
L 3809 1919 
L 2778 1919 
L 2778 2438 
L 4434 2438 
L 4434 434 
Q 4069 175 3628 42 
Q 3188 -91 2688 -91 
Q 1594 -91 976 548 
Q 359 1188 359 2328 
Q 359 3472 976 4111 
Q 1594 4750 2688 4750 
Q 3144 4750 3555 4637 
Q 3966 4525 4313 4306 
L 4313 3634 
Q 3963 3931 3569 4081 
Q 3175 4231 2741 4231 
Q 1884 4231 1454 3753 
Q 1025 3275 1025 2328 
Q 1025 1384 1454 906 
Q 1884 428 2741 428 
Q 3075 428 3337 486 
Q 3600 544 3809 666 
z
" transform="scale(0.015625)"/>
      <path id="DejaVuSans-62" d="M 3116 1747 
Q 3116 2381 2855 2742 
Q 2594 3103 2138 3103 
Q 1681 3103 1420 2742 
Q 1159 2381 1159 1747 
Q 1159 1113 1420 752 
Q 1681 391 2138 391 
Q 2594 391 2855 752 
Q 3116 1113 3116 1747 
z
M 1159 2969 
Q 1341 3281 1617 3432 
Q 1894 3584 2278 3584 
Q 2916 3584 3314 3078 
Q 3713 2572 3713 1747 
Q 3713 922 3314 415 
Q 2916 -91 2278 -91 
Q 1894 -91 1617 61 
Q 1341 213 1159 525 
L 1159 0 
L 581 0 
L 581 4863 
L 1159 4863 
L 1159 2969 
z
" transform="scale(0.015625)"/>
      <path id="DejaVuSans-41" d="M 2188 4044 
L 1331 1722 
L 3047 1722 
L 2188 4044 
z
M 1831 4666 
L 2547 4666 
L 4325 0 
L 3669 0 
L 3244 1197 
L 1141 1197 
L 716 0 
L 50 0 
L 1831 4666 
z
" transform="scale(0.015625)"/>
      <path id="DejaVuSans-67" d="M 2906 1791 
Q 2906 2416 2648 2759 
Q 2391 3103 1925 3103 
Q 1463 3103 1205 2759 
Q 947 2416 947 1791 
Q 947 1169 1205 825 
Q 1463 481 1925 481 
Q 2391 481 2648 825 
Q 2906 1169 2906 1791 
z
M 3481 434 
Q 3481 -459 3084 -895 
Q 2688 -1331 1869 -1331 
Q 1566 -1331 1297 -1286 
Q 1028 -1241 775 -1147 
L 775 -588 
Q 1028 -725 1275 -790 
Q 1522 -856 1778 -856 
Q 2344 -856 2625 -561 
Q 2906 -266 2906 331 
L 2906 616 
Q 2728 306 2450 153 
Q 2172 0 1784 0 
Q 1141 0 747 490 
Q 353 981 353 1791 
Q 353 2603 747 3093 
Q 1141 3584 1784 3584 
Q 2172 3584 2450 3431 
Q 2728 3278 2906 2969 
L 2906 3500 
L 3481 3500 
L 3481 434 
z
" transform="scale(0.015625)"/>
      <path id="DejaVuSans-6e" d="M 3513 2113 
L 3513 0 
L 2938 0 
L 2938 2094 
Q 2938 2591 2744 2837 
Q 2550 3084 2163 3084 
Q 1697 3084 1428 2787 
Q 1159 2491 1159 1978 
L 1159 0 
L 581 0 
L 581 3500 
L 1159 3500 
L 1159 2956 
Q 1366 3272 1645 3428 
Q 1925 3584 2291 3584 
Q 2894 3584 3203 3211 
Q 3513 2838 3513 2113 
z
" transform="scale(0.015625)"/>
      <path id="DejaVuSans-6d" d="M 3328 2828 
Q 3544 3216 3844 3400 
Q 4144 3584 4550 3584 
Q 5097 3584 5394 3201 
Q 5691 2819 5691 2113 
L 5691 0 
L 5113 0 
L 5113 2094 
Q 5113 2597 4934 2840 
Q 4756 3084 4391 3084 
Q 3944 3084 3684 2787 
Q 3425 2491 3425 1978 
L 3425 0 
L 2847 0 
L 2847 2094 
Q 2847 2600 2669 2842 
Q 2491 3084 2119 3084 
Q 1678 3084 1418 2786 
Q 1159 2488 1159 1978 
L 1159 0 
L 581 0 
L 581 3500 
L 1159 3500 
L 1159 2956 
Q 1356 3278 1631 3431 
Q 1906 3584 2284 3584 
Q 2666 3584 2933 3390 
Q 3200 3197 3328 2828 
z
" transform="scale(0.015625)"/>
      <path id="DejaVuSans-52" d="M 2841 2188 
Q 3044 2119 3236 1894 
Q 3428 1669 3622 1275 
L 4263 0 
L 3584 0 
L 2988 1197 
Q 2756 1666 2539 1819 
Q 2322 1972 1947 1972 
L 1259 1972 
L 1259 0 
L 628 0 
L 628 4666 
L 2053 4666 
Q 2853 4666 3247 4331 
Q 3641 3997 3641 3322 
Q 3641 2881 3436 2590 
Q 3231 2300 2841 2188 
z
M 1259 4147 
L 1259 2491 
L 2053 2491 
Q 2509 2491 2742 2702 
Q 2975 2913 2975 3322 
Q 2975 3731 2742 3939 
Q 2509 4147 2053 4147 
L 1259 4147 
z
" transform="scale(0.015625)"/>
     </defs>
     <use xlink:href="#DejaVuSans-47"/>
     <use xlink:href="#DejaVuSans-6c" x="77.490234"/>
     <use xlink:href="#DejaVuSans-6f" x="105.273438"/>
     <use xlink:href="#DejaVuSans-62" x="166.455078"/>
     <use xlink:href="#DejaVuSans-61" x="229.931641"/>
     <use xlink:href="#DejaVuSans-6c" x="291.210938"/>
     <use xlink:href="#DejaVuSans-20" x="318.994141"/>
     <use xlink:href="#DejaVuSans-41" x="350.78125"/>
     <use xlink:href="#DejaVuSans-6c" x="419.189453"/>
     <use xlink:href="#DejaVuSans-69" x="446.972656"/>
     <use xlink:href="#DejaVuSans-67" x="474.755859"/>
     <use xlink:href="#DejaVuSans-6e" x="538.232422"/>
     <use xlink:href="#DejaVuSans-6d" x="601.611328"/>
     <use xlink:href="#DejaVuSans-65" x="699.023438"/>
     <use xlink:href="#DejaVuSans-6e" x="760.546875"/>
     <use xlink:href="#DejaVuSans-74" x="823.925781"/>
     <use xlink:href="#DejaVuSans-20" x="863.134766"/>
     <use xlink:href="#DejaVuSans-41" x="894.921875"/>
     <use xlink:href="#DejaVuSans-63" x="961.580078"/>
     <use xlink:href="#DejaVuSans-72" x="1016.560547"/>
     <use xlink:href="#DejaVuSans-6f" x="1055.423828"/>
     <use xlink:href="#DejaVuSans-73" x="1116.605469"/>
     <use xlink:href="#DejaVuSans-73" x="1168.705078"/>
     <use xlink:href="#DejaVuSans-20" x="1220.804688"/>
     <use xlink:href="#DejaVuSans-52" x="1252.591797"/>
     <use xlink:href="#DejaVuSans-75" x="1317.574219"/>
     <use xlink:href="#DejaVuSans-6e" x="1380.953125"/>
     <use xlink:href="#DejaVuSans-73" x="1444.332031"/>
    </g>
   </g>
  </g>
 </g>
 <defs>
  <clipPath id="p7886dea4b1">
   <rect x="54.02" y="26.88" width="655.18" height="507.16"/>
  </clipPath>
 </defs>
</svg>
