<?xml version="1.0" encoding="utf-8" standalone="no"?>
<!DOCTYPE svg PUBLIC "-//W3C//DTD SVG 1.1//EN"
  "http://www.w3.org/Graphics/SVG/1.1/DTD/svg11.dtd">
<svg xmlns:xlink="http://www.w3.org/1999/xlink" width="720pt" height="576pt" viewBox="0 0 720 576" xmlns="http://www.w3.org/2000/svg" version="1.1">
 <metadata>
  <rdf:RDF xmlns:dc="http://purl.org/dc/elements/1.1/" xmlns:cc="http://creativecommons.org/ns#" xmlns:rdf="http://www.w3.org/1999/02/22-rdf-syntax-ns#">
   <cc:Work>
    <dc:type rdf:resource="http://purl.org/dc/dcmitype/StillImage"/>
    <dc:date>2024-10-29T18:23:07.309802</dc:date>
    <dc:format>image/svg+xml</dc:format>
    <dc:creator>
     <cc:Agent>
      <dc:title>Matplotlib v3.9.2, https://matplotlib.org/</dc:title>
     </cc:Agent>
    </dc:creator>
   </cc:Work>
  </rdf:RDF>
 </metadata>
 <defs>
  <style type="text/css">*{stroke-linejoin: round; stroke-linecap: butt}</style>
 </defs>
 <g id="figure_1">
  <g id="patch_1">
   <path d="M 0 576 
L 720 576 
L 720 0 
L 0 0 
z
" style="fill: #ffffff"/>
  </g>
  <g id="axes_1">
   <g id="patch_2">
    <path d="M 54.11 534.04 
L 709.2 534.04 
L 709.2 26.88 
L 54.11 26.88 
z
" style="fill: #ffffff"/>
   </g>
   <g id="PolyCollection_1">
    <path d="M 83.886818 455.374409 
L 83.886818 510.987273 
L 84.485949 510.987273 
L 85.08508 510.987273 
L 85.684212 510.987273 
L 86.283343 510.987273 
L 86.882474 308.407585 
L 87.481605 308.407585 
L 88.080736 308.407585 
L 88.679867 308.407585 
L 89.278999 308.407585 
L 89.87813 240.881022 
L 90.477261 240.881022 
L 91.076392 240.881022 
L 91.675523 240.881022 
L 92.274654 240.881022 
L 92.873785 207.117741 
L 93.472917 207.117741 
L 94.072048 207.117741 
L 94.671179 207.117741 
L 95.27031 207.117741 
L 95.869441 97.812626 
L 96.468572 97.812626 
L 97.067703 97.812626 
L 97.666835 97.812626 
L 98.265966 97.812626 
L 98.865097 89.797355 
L 99.464228 89.797355 
L 100.063359 89.797355 
L 100.66249 89.797355 
L 101.261622 89.797355 
L 101.860753 81.782083 
L 102.459884 81.782083 
L 103.059015 81.782083 
L 103.658146 81.782083 
L 104.257277 81.782083 
L 104.856408 73.766812 
L 105.45554 73.766812 
L 106.054671 73.766812 
L 106.653802 73.766812 
L 107.252933 73.766812 
L 107.852064 73.766812 
L 108.451195 73.766812 
L 109.050327 73.766812 
L 109.649458 73.766812 
L 110.248589 73.766812 
L 110.84772 73.766812 
L 111.446851 73.766812 
L 112.045982 73.766812 
L 112.645113 73.766812 
L 113.244245 73.766812 
L 113.843376 73.766812 
L 114.442507 73.766812 
L 115.041638 73.766812 
L 115.640769 73.766812 
L 116.2399 73.766812 
L 116.839031 73.766812 
L 117.438163 73.766812 
L 118.037294 73.766812 
L 118.636425 73.766812 
L 119.235556 73.766812 
L 119.834687 73.766812 
L 120.433818 73.766812 
L 121.03295 73.766812 
L 121.632081 73.766812 
L 122.231212 73.766812 
L 122.830343 73.766812 
L 123.429474 73.766812 
L 124.028605 73.766812 
L 124.627736 73.766812 
L 125.226868 73.766812 
L 125.825999 73.766812 
L 126.42513 73.766812 
L 127.024261 73.766812 
L 127.623392 73.766812 
L 128.222523 73.766812 
L 128.821654 73.766812 
L 129.420786 73.766812 
L 130.019917 73.766812 
L 130.619048 73.766812 
L 131.218179 73.766812 
L 131.81731 73.766812 
L 132.416441 73.766812 
L 133.015573 73.766812 
L 133.614704 73.766812 
L 134.213835 73.766812 
L 134.812966 73.766812 
L 135.412097 73.766812 
L 136.011228 73.766812 
L 136.610359 73.766812 
L 137.209491 73.766812 
L 137.808622 73.766812 
L 138.407753 73.766812 
L 139.006884 73.766812 
L 139.606015 73.766812 
L 140.205146 73.766812 
L 140.804277 73.766812 
L 141.403409 73.766812 
L 142.00254 73.766812 
L 142.601671 73.766812 
L 143.200802 73.766812 
L 143.799933 73.766812 
L 144.399064 73.766812 
L 144.998196 73.766812 
L 145.597327 73.766812 
L 146.196458 73.766812 
L 146.795589 73.766812 
L 147.39472 73.766812 
L 147.993851 73.766812 
L 148.592982 73.766812 
L 149.192114 73.766812 
L 149.791245 73.766812 
L 150.390376 73.766812 
L 150.989507 73.766812 
L 151.588638 73.766812 
L 152.187769 73.766812 
L 152.7869 73.766812 
L 153.386032 73.766812 
L 153.985163 73.766812 
L 154.584294 73.766812 
L 155.183425 73.766812 
L 155.782556 73.766812 
L 156.381687 73.766812 
L 156.980819 73.766812 
L 157.57995 73.766812 
L 158.179081 73.766812 
L 158.778212 73.766812 
L 159.377343 73.766812 
L 159.976474 73.766812 
L 160.575605 73.766812 
L 161.174737 73.766812 
L 161.773868 73.766812 
L 162.372999 73.766812 
L 162.97213 73.766812 
L 163.571261 73.766812 
L 164.170392 73.766812 
L 164.769524 73.766812 
L 165.368655 73.766812 
L 165.967786 73.766812 
L 166.566917 73.766812 
L 167.166048 73.766812 
L 167.765179 73.766812 
L 168.36431 73.766812 
L 168.963442 73.766812 
L 169.562573 73.766812 
L 170.161704 73.766812 
L 170.760835 73.766812 
L 171.359966 73.766812 
L 171.959097 73.766812 
L 172.558228 73.766812 
L 173.15736 73.766812 
L 173.756491 73.766812 
L 174.355622 73.766812 
L 174.954753 73.766812 
L 175.553884 73.766812 
L 176.153015 73.766812 
L 176.752147 73.766812 
L 177.351278 73.766812 
L 177.950409 73.766812 
L 178.54954 73.766812 
L 179.148671 73.766812 
L 179.747802 73.766812 
L 180.346933 73.766812 
L 180.946065 73.766812 
L 181.545196 73.766812 
L 182.144327 73.766812 
L 182.743458 73.766812 
L 183.342589 73.766812 
L 183.94172 73.766812 
L 184.540851 73.766812 
L 185.139983 73.766812 
L 185.739114 73.766812 
L 186.338245 73.766812 
L 186.937376 73.766812 
L 187.536507 73.766812 
L 188.135638 73.766812 
L 188.73477 73.766812 
L 189.333901 73.766812 
L 189.933032 73.766812 
L 190.532163 73.766812 
L 191.131294 73.766812 
L 191.730425 73.766812 
L 192.329556 73.766812 
L 192.928688 73.766812 
L 193.527819 73.766812 
L 194.12695 73.766812 
L 194.726081 73.766812 
L 195.325212 73.766812 
L 195.924343 73.766812 
L 196.523474 73.766812 
L 197.122606 73.766812 
L 197.721737 73.766812 
L 198.320868 73.766812 
L 198.919999 73.766812 
L 199.51913 73.766812 
L 200.118261 73.766812 
L 200.717393 73.766812 
L 201.316524 73.766812 
L 201.915655 73.766812 
L 202.514786 73.766812 
L 203.113917 73.766812 
L 203.713048 73.766812 
L 204.312179 73.766812 
L 204.911311 73.766812 
L 205.510442 73.766812 
L 206.109573 73.766812 
L 206.708704 73.766812 
L 207.307835 73.766812 
L 207.906966 73.766812 
L 208.506097 73.766812 
L 209.105229 73.766812 
L 209.70436 73.766812 
L 210.303491 73.766812 
L 210.902622 73.766812 
L 211.501753 73.766812 
L 212.100884 73.766812 
L 212.700016 73.766812 
L 213.299147 73.766812 
L 213.898278 73.766812 
L 214.497409 73.766812 
L 215.09654 73.766812 
L 215.695671 73.766812 
L 216.294802 73.766812 
L 216.893934 73.766812 
L 217.493065 73.766812 
L 218.092196 73.766812 
L 218.691327 73.766812 
L 219.290458 73.766812 
L 219.889589 73.766812 
L 220.488721 73.766812 
L 221.087852 73.766812 
L 221.686983 73.766812 
L 222.286114 73.766812 
L 222.885245 73.766812 
L 223.484376 73.766812 
L 224.083507 73.766812 
L 224.682639 73.766812 
L 225.28177 73.766812 
L 225.880901 73.766812 
L 226.480032 73.766812 
L 227.079163 73.766812 
L 227.678294 73.766812 
L 228.277425 73.766812 
L 228.876557 73.766812 
L 229.475688 73.766812 
L 230.074819 73.766812 
L 230.67395 73.766812 
L 231.273081 73.766812 
L 231.872212 73.766812 
L 232.471344 73.766812 
L 233.070475 73.766812 
L 233.669606 73.766812 
L 234.268737 73.766812 
L 234.867868 73.766812 
L 235.466999 73.766812 
L 236.06613 73.766812 
L 236.665262 73.766812 
L 237.264393 73.766812 
L 237.863524 73.766812 
L 238.462655 73.766812 
L 239.061786 73.766812 
L 239.660917 73.766812 
L 240.260048 73.766812 
L 240.85918 73.766812 
L 241.458311 73.766812 
L 242.057442 73.766812 
L 242.656573 73.766812 
L 243.255704 73.766812 
L 243.854835 73.766812 
L 244.453967 73.766812 
L 245.053098 73.766812 
L 245.652229 73.766812 
L 246.25136 73.766812 
L 246.850491 73.766812 
L 247.449622 73.766812 
L 248.048753 73.766812 
L 248.647885 73.766812 
L 249.247016 73.766812 
L 249.846147 73.766812 
L 250.445278 73.766812 
L 251.044409 73.766812 
L 251.64354 73.766812 
L 252.242671 73.766812 
L 252.841803 73.766812 
L 253.440934 73.766812 
L 254.040065 73.766812 
L 254.639196 73.766812 
L 255.238327 73.766812 
L 255.837458 73.766812 
L 256.43659 73.766812 
L 257.035721 73.766812 
L 257.634852 73.766812 
L 258.233983 73.766812 
L 258.833114 73.766812 
L 259.432245 73.766812 
L 260.031376 73.766812 
L 260.630508 73.766812 
L 261.229639 73.766812 
L 261.82877 73.766812 
L 262.427901 73.766812 
L 263.027032 73.766812 
L 263.626163 73.766812 
L 264.225294 73.766812 
L 264.824426 73.766812 
L 265.423557 73.766812 
L 266.022688 73.766812 
L 266.621819 73.766812 
L 267.22095 73.766812 
L 267.820081 73.766812 
L 268.419213 73.766812 
L 269.018344 73.766812 
L 269.617475 73.766812 
L 270.216606 73.766812 
L 270.815737 73.766812 
L 271.414868 73.766812 
L 272.013999 73.766812 
L 272.613131 73.766812 
L 273.212262 73.766812 
L 273.811393 73.766812 
L 274.410524 73.766812 
L 275.009655 73.766812 
L 275.608786 73.766812 
L 276.207918 73.766812 
L 276.807049 73.766812 
L 277.40618 73.766812 
L 278.005311 73.766812 
L 278.604442 73.766812 
L 279.203573 73.766812 
L 279.802704 73.766812 
L 280.401836 73.766812 
L 281.000967 73.766812 
L 281.600098 73.766812 
L 282.199229 73.766812 
L 282.79836 73.766812 
L 283.397491 73.766812 
L 283.996622 73.766812 
L 284.595754 73.766812 
L 285.194885 73.766812 
L 285.794016 73.766812 
L 286.393147 73.766812 
L 286.992278 73.766812 
L 287.591409 73.766812 
L 288.190541 73.766812 
L 288.789672 73.766812 
L 289.388803 73.766812 
L 289.987934 73.766812 
L 290.587065 73.766812 
L 291.186196 73.766812 
L 291.785327 73.766812 
L 292.384459 73.766812 
L 292.98359 73.766812 
L 293.582721 73.766812 
L 294.181852 73.766812 
L 294.780983 73.766812 
L 295.380114 73.766812 
L 295.979245 73.766812 
L 296.578377 73.766812 
L 297.177508 73.766812 
L 297.776639 73.766812 
L 298.37577 73.766812 
L 298.974901 73.766812 
L 299.574032 73.766812 
L 300.173164 73.766812 
L 300.772295 73.766812 
L 301.371426 73.766812 
L 301.970557 73.766812 
L 302.569688 73.766812 
L 303.168819 73.766812 
L 303.76795 73.766812 
L 304.367082 73.766812 
L 304.966213 73.766812 
L 305.565344 73.766812 
L 306.164475 73.766812 
L 306.763606 73.766812 
L 307.362737 73.766812 
L 307.961868 73.766812 
L 308.561 73.766812 
L 309.160131 73.766812 
L 309.759262 73.766812 
L 310.358393 73.766812 
L 310.957524 73.766812 
L 311.556655 73.766812 
L 312.155787 73.766812 
L 312.754918 73.766812 
L 313.354049 73.766812 
L 313.95318 73.766812 
L 314.552311 73.766812 
L 315.151442 73.766812 
L 315.750573 73.766812 
L 316.349705 73.766812 
L 316.948836 73.766812 
L 317.547967 73.766812 
L 318.147098 73.766812 
L 318.746229 73.766812 
L 319.34536 73.766812 
L 319.944491 73.766812 
L 320.543623 73.766812 
L 321.142754 73.766812 
L 321.741885 73.766812 
L 322.341016 73.766812 
L 322.940147 73.766812 
L 323.539278 73.766812 
L 324.13841 73.766812 
L 324.737541 73.766812 
L 325.336672 73.766812 
L 325.935803 73.766812 
L 326.534934 73.766812 
L 327.134065 73.766812 
L 327.733196 73.766812 
L 328.332328 73.766812 
L 328.931459 73.766812 
L 329.53059 73.766812 
L 330.129721 73.766812 
L 330.728852 73.766812 
L 331.327983 73.766812 
L 331.927115 73.766812 
L 332.526246 73.766812 
L 333.125377 73.766812 
L 333.724508 73.766812 
L 334.323639 73.766812 
L 334.92277 73.766812 
L 335.521901 73.766812 
L 336.121033 73.766812 
L 336.720164 73.766812 
L 337.319295 73.766812 
L 337.918426 73.766812 
L 338.517557 73.766812 
L 339.116688 73.766812 
L 339.715819 73.766812 
L 340.314951 73.766812 
L 340.914082 73.766812 
L 341.513213 73.766812 
L 342.112344 73.766812 
L 342.711475 73.766812 
L 343.310606 73.766812 
L 343.909738 73.766812 
L 344.508869 73.766812 
L 345.108 73.766812 
L 345.707131 73.766812 
L 346.306262 73.766812 
L 346.905393 73.766812 
L 347.504524 73.766812 
L 348.103656 73.766812 
L 348.702787 73.766812 
L 349.301918 73.766812 
L 349.901049 73.766812 
L 350.50018 73.766812 
L 351.099311 73.766812 
L 351.698442 73.766812 
L 352.297574 73.766812 
L 352.896705 73.766812 
L 353.495836 73.766812 
L 354.094967 73.766812 
L 354.694098 73.766812 
L 355.293229 73.766812 
L 355.892361 73.766812 
L 356.491492 73.766812 
L 357.090623 73.766812 
L 357.689754 73.766812 
L 358.288885 73.766812 
L 358.888016 73.766812 
L 359.487147 73.766812 
L 360.086279 73.766812 
L 360.68541 73.766812 
L 361.284541 73.766812 
L 361.883672 73.766812 
L 362.482803 73.766812 
L 363.081934 73.766812 
L 363.681065 73.766812 
L 364.280197 73.766812 
L 364.879328 73.766812 
L 365.478459 73.766812 
L 366.07759 73.766812 
L 366.676721 73.766812 
L 367.275852 73.766812 
L 367.874984 73.766812 
L 368.474115 73.766812 
L 369.073246 73.766812 
L 369.672377 73.766812 
L 370.271508 73.766812 
L 370.870639 73.766812 
L 371.46977 73.766812 
L 372.068902 73.766812 
L 372.668033 73.766812 
L 373.267164 73.766812 
L 373.866295 73.766812 
L 374.465426 73.766812 
L 375.064557 73.766812 
L 375.663688 73.766812 
L 376.26282 73.766812 
L 376.861951 73.766812 
L 377.461082 73.766812 
L 378.060213 73.766812 
L 378.659344 73.766812 
L 379.258475 73.766812 
L 379.857607 73.766812 
L 380.456738 73.766812 
L 381.055869 73.766812 
L 381.655 73.766812 
L 382.254131 73.766812 
L 382.853262 73.766812 
L 383.452393 73.766812 
L 384.051525 73.766812 
L 384.650656 73.766812 
L 385.249787 73.766812 
L 385.848918 73.766812 
L 386.448049 73.766812 
L 387.04718 73.766812 
L 387.646312 73.766812 
L 388.245443 73.766812 
L 388.844574 73.766812 
L 389.443705 73.766812 
L 390.042836 73.766812 
L 390.641967 73.766812 
L 391.241098 73.766812 
L 391.84023 73.766812 
L 392.439361 73.766812 
L 393.038492 73.766812 
L 393.637623 73.766812 
L 394.236754 73.766812 
L 394.835885 73.766812 
L 395.435016 73.766812 
L 396.034148 73.766812 
L 396.633279 73.766812 
L 397.23241 73.766812 
L 397.831541 73.766812 
L 398.430672 73.766812 
L 399.029803 73.766812 
L 399.628935 73.766812 
L 400.228066 73.766812 
L 400.827197 73.766812 
L 401.426328 73.766812 
L 402.025459 73.766812 
L 402.62459 73.766812 
L 403.223721 73.766812 
L 403.822853 73.766812 
L 404.421984 73.766812 
L 405.021115 73.766812 
L 405.620246 73.766812 
L 406.219377 73.766812 
L 406.818508 73.766812 
L 407.417639 73.766812 
L 408.016771 73.766812 
L 408.615902 73.766812 
L 409.215033 73.766812 
L 409.814164 73.766812 
L 410.413295 73.766812 
L 411.012426 73.766812 
L 411.611558 73.766812 
L 412.210689 73.766812 
L 412.80982 73.766812 
L 413.408951 73.766812 
L 414.008082 73.766812 
L 414.607213 73.766812 
L 415.206344 73.766812 
L 415.805476 73.766812 
L 416.404607 73.766812 
L 417.003738 73.766812 
L 417.602869 73.766812 
L 418.202 73.766812 
L 418.801131 73.766812 
L 419.400262 73.766812 
L 419.999394 73.766812 
L 420.598525 73.766812 
L 421.197656 73.766812 
L 421.796787 73.766812 
L 422.395918 73.766812 
L 422.995049 73.766812 
L 423.594181 73.766812 
L 424.193312 73.766812 
L 424.792443 73.766812 
L 425.391574 73.766812 
L 425.990705 73.766812 
L 426.589836 73.766812 
L 427.188967 73.766812 
L 427.788099 73.766812 
L 428.38723 73.766812 
L 428.986361 73.766812 
L 429.585492 73.766812 
L 430.184623 73.766812 
L 430.783754 73.766812 
L 431.382885 73.766812 
L 431.982017 73.766812 
L 432.581148 73.766812 
L 433.180279 73.766812 
L 433.77941 73.766812 
L 434.378541 73.766812 
L 434.977672 73.766812 
L 435.576804 73.766812 
L 436.175935 73.766812 
L 436.775066 73.766812 
L 437.374197 73.766812 
L 437.973328 73.766812 
L 438.572459 73.766812 
L 439.17159 73.766812 
L 439.770722 73.766812 
L 440.369853 73.766812 
L 440.968984 73.766812 
L 441.568115 73.766812 
L 442.167246 73.766812 
L 442.766377 73.766812 
L 443.365509 73.766812 
L 443.96464 73.766812 
L 444.563771 73.766812 
L 445.162902 73.766812 
L 445.762033 73.766812 
L 446.361164 73.766812 
L 446.960295 73.766812 
L 447.559427 73.766812 
L 448.158558 73.766812 
L 448.757689 73.766812 
L 449.35682 73.766812 
L 449.955951 73.766812 
L 450.555082 73.766812 
L 451.154213 73.766812 
L 451.753345 73.766812 
L 452.352476 73.766812 
L 452.951607 73.766812 
L 453.550738 73.766812 
L 454.149869 73.766812 
L 454.749 73.766812 
L 455.348132 73.766812 
L 455.947263 73.766812 
L 456.546394 73.766812 
L 457.145525 73.766812 
L 457.744656 73.766812 
L 458.343787 73.766812 
L 458.942918 73.766812 
L 459.54205 73.766812 
L 460.141181 73.766812 
L 460.740312 73.766812 
L 461.339443 73.766812 
L 461.938574 73.766812 
L 462.537705 73.766812 
L 463.136836 73.766812 
L 463.735968 73.766812 
L 464.335099 73.766812 
L 464.93423 73.766812 
L 465.533361 73.766812 
L 466.132492 73.766812 
L 466.731623 73.766812 
L 467.330755 73.766812 
L 467.929886 73.766812 
L 468.529017 73.766812 
L 469.128148 73.766812 
L 469.727279 73.766812 
L 470.32641 73.766812 
L 470.925541 73.766812 
L 471.524673 73.766812 
L 472.123804 73.766812 
L 472.722935 73.766812 
L 473.322066 73.766812 
L 473.921197 73.766812 
L 474.520328 73.766812 
L 475.119459 73.766812 
L 475.718591 73.766812 
L 476.317722 73.766812 
L 476.916853 73.766812 
L 477.515984 73.766812 
L 478.115115 73.766812 
L 478.714246 73.766812 
L 479.313378 73.766812 
L 479.912509 73.766812 
L 480.51164 73.766812 
L 481.110771 73.766812 
L 481.709902 73.766812 
L 482.309033 73.766812 
L 482.908164 73.766812 
L 483.507296 73.766812 
L 484.106427 73.766812 
L 484.705558 73.766812 
L 485.304689 73.766812 
L 485.90382 73.766812 
L 486.502951 73.766812 
L 487.102082 73.766812 
L 487.701214 73.766812 
L 488.300345 73.766812 
L 488.899476 73.766812 
L 489.498607 73.766812 
L 490.097738 73.766812 
L 490.696869 73.766812 
L 491.296001 73.766812 
L 491.895132 73.766812 
L 492.494263 73.766812 
L 493.093394 73.766812 
L 493.692525 73.766812 
L 494.291656 73.766812 
L 494.890787 73.766812 
L 495.489919 73.766812 
L 496.08905 73.766812 
L 496.688181 73.766812 
L 497.287312 73.766812 
L 497.886443 73.766812 
L 498.485574 73.766812 
L 499.084706 73.766812 
L 499.683837 73.766812 
L 500.282968 73.766812 
L 500.882099 73.766812 
L 501.48123 73.766812 
L 502.080361 73.766812 
L 502.679492 73.766812 
L 503.278624 73.766812 
L 503.877755 73.766812 
L 504.476886 73.766812 
L 505.076017 73.766812 
L 505.675148 73.766812 
L 506.274279 73.766812 
L 506.87341 73.766812 
L 507.472542 73.766812 
L 508.071673 73.766812 
L 508.670804 73.766812 
L 509.269935 73.766812 
L 509.869066 73.766812 
L 510.468197 73.766812 
L 511.067329 73.766812 
L 511.66646 73.766812 
L 512.265591 73.766812 
L 512.864722 73.766812 
L 513.463853 73.766812 
L 514.062984 73.766812 
L 514.662115 73.766812 
L 515.261247 73.766812 
L 515.860378 73.766812 
L 516.459509 73.766812 
L 517.05864 73.766812 
L 517.657771 73.766812 
L 518.256902 73.766812 
L 518.856033 73.766812 
L 519.455165 73.766812 
L 520.054296 73.766812 
L 520.653427 73.766812 
L 521.252558 73.766812 
L 521.851689 73.766812 
L 522.45082 73.766812 
L 523.049952 73.766812 
L 523.649083 73.766812 
L 524.248214 73.766812 
L 524.847345 73.766812 
L 525.446476 73.766812 
L 526.045607 73.766812 
L 526.644738 73.766812 
L 527.24387 73.766812 
L 527.843001 73.766812 
L 528.442132 73.766812 
L 529.041263 73.766812 
L 529.640394 73.766812 
L 530.239525 73.766812 
L 530.838656 73.766812 
L 531.437788 73.766812 
L 532.036919 73.766812 
L 532.63605 73.766812 
L 533.235181 73.766812 
L 533.834312 73.766812 
L 534.433443 73.766812 
L 535.032575 73.766812 
L 535.631706 73.766812 
L 536.230837 73.766812 
L 536.829968 73.766812 
L 537.429099 73.766812 
L 538.02823 73.766812 
L 538.627361 73.766812 
L 539.226493 73.766812 
L 539.825624 73.766812 
L 540.424755 73.766812 
L 541.023886 73.766812 
L 541.623017 73.766812 
L 542.222148 73.766812 
L 542.821279 73.766812 
L 543.420411 73.766812 
L 544.019542 73.766812 
L 544.618673 73.766812 
L 545.217804 73.766812 
L 545.816935 73.766812 
L 546.416066 73.766812 
L 547.015198 73.766812 
L 547.614329 73.766812 
L 548.21346 73.766812 
L 548.812591 73.766812 
L 549.411722 73.766812 
L 550.010853 73.766812 
L 550.609984 73.766812 
L 551.209116 73.766812 
L 551.808247 73.766812 
L 552.407378 73.766812 
L 553.006509 73.766812 
L 553.60564 73.766812 
L 554.204771 73.766812 
L 554.803903 73.766812 
L 555.403034 73.766812 
L 556.002165 73.766812 
L 556.601296 73.766812 
L 557.200427 73.766812 
L 557.799558 73.766812 
L 558.398689 73.766812 
L 558.997821 73.766812 
L 559.596952 73.766812 
L 560.196083 73.766812 
L 560.795214 73.766812 
L 561.394345 73.766812 
L 561.993476 73.766812 
L 562.592607 73.766812 
L 563.191739 73.766812 
L 563.79087 73.766812 
L 564.390001 73.766812 
L 564.989132 73.766812 
L 565.588263 73.766812 
L 566.187394 73.766812 
L 566.786526 73.766812 
L 567.385657 73.766812 
L 567.984788 73.766812 
L 568.583919 73.766812 
L 569.18305 73.766812 
L 569.782181 73.766812 
L 570.381312 73.766812 
L 570.980444 73.766812 
L 571.579575 73.766812 
L 572.178706 73.766812 
L 572.777837 73.766812 
L 573.376968 73.766812 
L 573.976099 73.766812 
L 574.57523 73.766812 
L 575.174362 73.766812 
L 575.773493 73.766812 
L 576.372624 73.766812 
L 576.971755 73.766812 
L 577.570886 73.766812 
L 578.170017 73.766812 
L 578.769149 73.766812 
L 579.36828 73.766812 
L 579.967411 73.766812 
L 580.566542 73.766812 
L 581.165673 73.766812 
L 581.764804 73.766812 
L 582.363935 73.766812 
L 582.963067 73.766812 
L 583.562198 73.766812 
L 584.161329 73.766812 
L 584.76046 73.766812 
L 585.359591 73.766812 
L 585.958722 73.766812 
L 586.557853 73.766812 
L 587.156985 73.766812 
L 587.756116 73.766812 
L 588.355247 73.766812 
L 588.954378 73.766812 
L 589.553509 73.766812 
L 590.15264 73.766812 
L 590.751772 73.766812 
L 591.350903 73.766812 
L 591.950034 73.766812 
L 592.549165 73.766812 
L 593.148296 73.766812 
L 593.747427 73.766812 
L 594.346558 73.766812 
L 594.94569 73.766812 
L 595.544821 73.766812 
L 596.143952 73.766812 
L 596.743083 73.766812 
L 597.342214 73.766812 
L 597.941345 73.766812 
L 598.540476 73.766812 
L 599.139608 73.766812 
L 599.738739 73.766812 
L 600.33787 73.766812 
L 600.937001 73.766812 
L 601.536132 73.766812 
L 602.135263 73.766812 
L 602.734395 73.766812 
L 603.333526 73.766812 
L 603.932657 73.766812 
L 604.531788 73.766812 
L 605.130919 73.766812 
L 605.73005 73.766812 
L 606.329181 73.766812 
L 606.928313 73.766812 
L 607.527444 73.766812 
L 608.126575 73.766812 
L 608.725706 73.766812 
L 609.324837 73.766812 
L 609.923968 73.766812 
L 610.5231 73.766812 
L 611.122231 73.766812 
L 611.721362 73.766812 
L 612.320493 73.766812 
L 612.919624 73.766812 
L 613.518755 73.766812 
L 614.117886 73.766812 
L 614.717018 73.766812 
L 615.316149 73.766812 
L 615.91528 73.766812 
L 616.514411 73.766812 
L 617.113542 73.766812 
L 617.712673 73.766812 
L 618.311804 73.766812 
L 618.910936 73.766812 
L 619.510067 73.766812 
L 620.109198 73.766812 
L 620.708329 73.766812 
L 621.30746 73.766812 
L 621.906591 73.766812 
L 622.505723 73.766812 
L 623.104854 73.766812 
L 623.703985 73.766812 
L 624.303116 73.766812 
L 624.902247 73.766812 
L 625.501378 73.766812 
L 626.100509 73.766812 
L 626.699641 73.766812 
L 627.298772 73.766812 
L 627.897903 73.766812 
L 628.497034 73.766812 
L 629.096165 73.766812 
L 629.695296 73.766812 
L 630.294427 73.766812 
L 630.893559 73.766812 
L 631.49269 73.766812 
L 632.091821 73.766812 
L 632.690952 73.766812 
L 633.290083 73.766812 
L 633.889214 73.766812 
L 634.488346 73.766812 
L 635.087477 73.766812 
L 635.686608 73.766812 
L 636.285739 73.766812 
L 636.88487 73.766812 
L 637.484001 73.766812 
L 638.083132 73.766812 
L 638.682264 73.766812 
L 639.281395 73.766812 
L 639.880526 73.766812 
L 640.479657 73.766812 
L 641.078788 73.766812 
L 641.677919 73.766812 
L 642.27705 73.766812 
L 642.876182 73.766812 
L 643.475313 73.766812 
L 644.074444 73.766812 
L 644.673575 73.766812 
L 645.272706 73.766812 
L 645.871837 73.766812 
L 646.470969 73.766812 
L 647.0701 73.766812 
L 647.669231 73.766812 
L 648.268362 73.766812 
L 648.867493 73.766812 
L 649.466624 73.766812 
L 650.065755 73.766812 
L 650.664887 73.766812 
L 651.264018 73.766812 
L 651.863149 73.766812 
L 652.46228 73.766812 
L 653.061411 73.766812 
L 653.660542 73.766812 
L 654.259673 73.766812 
L 654.858805 73.766812 
L 655.457936 73.766812 
L 656.057067 73.766812 
L 656.656198 73.766812 
L 657.255329 73.766812 
L 657.85446 73.766812 
L 658.453592 73.766812 
L 659.052723 73.766812 
L 659.651854 73.766812 
L 660.250985 73.766812 
L 660.850116 73.766812 
L 661.449247 73.766812 
L 662.048378 73.766812 
L 662.64751 73.766812 
L 663.246641 73.766812 
L 663.845772 73.766812 
L 664.444903 73.766812 
L 665.044034 73.766812 
L 665.643165 73.766812 
L 666.242297 73.766812 
L 666.841428 73.766812 
L 667.440559 73.766812 
L 668.03969 73.766812 
L 668.638821 73.766812 
L 669.237952 73.766812 
L 669.837083 73.766812 
L 670.436215 73.766812 
L 671.035346 73.766812 
L 671.634477 73.766812 
L 672.233608 73.766812 
L 672.832739 73.766812 
L 673.43187 73.766812 
L 674.031001 73.766812 
L 674.630133 73.766812 
L 675.229264 73.766812 
L 675.828395 73.766812 
L 676.427526 73.766812 
L 677.026657 73.766812 
L 677.625788 73.766812 
L 678.22492 73.766812 
L 678.824051 73.766812 
L 679.423182 73.766812 
L 679.423182 49.932727 
L 679.423182 49.932727 
L 678.824051 49.932727 
L 678.22492 49.932727 
L 677.625788 49.932727 
L 677.026657 49.932727 
L 676.427526 49.932727 
L 675.828395 49.932727 
L 675.229264 49.932727 
L 674.630133 49.932727 
L 674.031001 49.932727 
L 673.43187 49.932727 
L 672.832739 49.932727 
L 672.233608 49.932727 
L 671.634477 49.932727 
L 671.035346 49.932727 
L 670.436215 49.932727 
L 669.837083 49.932727 
L 669.237952 49.932727 
L 668.638821 49.932727 
L 668.03969 49.932727 
L 667.440559 49.932727 
L 666.841428 49.932727 
L 666.242297 49.932727 
L 665.643165 49.932727 
L 665.044034 49.932727 
L 664.444903 49.932727 
L 663.845772 49.932727 
L 663.246641 49.932727 
L 662.64751 49.932727 
L 662.048378 49.932727 
L 661.449247 49.932727 
L 660.850116 49.932727 
L 660.250985 49.932727 
L 659.651854 49.932727 
L 659.052723 49.932727 
L 658.453592 49.932727 
L 657.85446 49.932727 
L 657.255329 49.932727 
L 656.656198 49.932727 
L 656.057067 49.932727 
L 655.457936 49.932727 
L 654.858805 49.932727 
L 654.259673 49.932727 
L 653.660542 49.932727 
L 653.061411 49.932727 
L 652.46228 49.932727 
L 651.863149 49.932727 
L 651.264018 49.932727 
L 650.664887 49.932727 
L 650.065755 49.932727 
L 649.466624 49.932727 
L 648.867493 49.932727 
L 648.268362 49.932727 
L 647.669231 49.932727 
L 647.0701 49.932727 
L 646.470969 49.932727 
L 645.871837 49.932727 
L 645.272706 49.932727 
L 644.673575 49.932727 
L 644.074444 49.932727 
L 643.475313 49.932727 
L 642.876182 49.932727 
L 642.27705 49.932727 
L 641.677919 49.932727 
L 641.078788 49.932727 
L 640.479657 49.932727 
L 639.880526 49.932727 
L 639.281395 49.932727 
L 638.682264 49.932727 
L 638.083132 49.932727 
L 637.484001 49.932727 
L 636.88487 49.932727 
L 636.285739 49.932727 
L 635.686608 49.932727 
L 635.087477 49.932727 
L 634.488346 49.932727 
L 633.889214 49.932727 
L 633.290083 49.932727 
L 632.690952 49.932727 
L 632.091821 49.932727 
L 631.49269 49.932727 
L 630.893559 49.932727 
L 630.294427 49.932727 
L 629.695296 49.932727 
L 629.096165 49.932727 
L 628.497034 49.932727 
L 627.897903 49.932727 
L 627.298772 49.932727 
L 626.699641 49.932727 
L 626.100509 49.932727 
L 625.501378 49.932727 
L 624.902247 49.932727 
L 624.303116 49.932727 
L 623.703985 49.932727 
L 623.104854 49.932727 
L 622.505723 49.932727 
L 621.906591 49.932727 
L 621.30746 49.932727 
L 620.708329 49.932727 
L 620.109198 49.932727 
L 619.510067 49.932727 
L 618.910936 49.932727 
L 618.311804 49.932727 
L 617.712673 49.932727 
L 617.113542 49.932727 
L 616.514411 49.932727 
L 615.91528 49.932727 
L 615.316149 49.932727 
L 614.717018 49.932727 
L 614.117886 49.932727 
L 613.518755 49.932727 
L 612.919624 49.932727 
L 612.320493 49.932727 
L 611.721362 49.932727 
L 611.122231 49.932727 
L 610.5231 49.932727 
L 609.923968 49.932727 
L 609.324837 49.932727 
L 608.725706 49.932727 
L 608.126575 49.932727 
L 607.527444 49.932727 
L 606.928313 49.932727 
L 606.329181 49.932727 
L 605.73005 49.932727 
L 605.130919 49.932727 
L 604.531788 49.932727 
L 603.932657 49.932727 
L 603.333526 49.932727 
L 602.734395 49.932727 
L 602.135263 49.932727 
L 601.536132 49.932727 
L 600.937001 49.932727 
L 600.33787 49.932727 
L 599.738739 49.932727 
L 599.139608 49.932727 
L 598.540476 49.932727 
L 597.941345 49.932727 
L 597.342214 49.932727 
L 596.743083 49.932727 
L 596.143952 49.932727 
L 595.544821 49.932727 
L 594.94569 49.932727 
L 594.346558 49.932727 
L 593.747427 49.932727 
L 593.148296 49.932727 
L 592.549165 49.932727 
L 591.950034 49.932727 
L 591.350903 49.932727 
L 590.751772 49.932727 
L 590.15264 49.932727 
L 589.553509 49.932727 
L 588.954378 49.932727 
L 588.355247 49.932727 
L 587.756116 49.932727 
L 587.156985 49.932727 
L 586.557853 49.932727 
L 585.958722 49.932727 
L 585.359591 49.932727 
L 584.76046 49.932727 
L 584.161329 49.932727 
L 583.562198 49.932727 
L 582.963067 49.932727 
L 582.363935 49.932727 
L 581.764804 49.932727 
L 581.165673 49.932727 
L 580.566542 49.932727 
L 579.967411 49.932727 
L 579.36828 49.932727 
L 578.769149 49.932727 
L 578.170017 49.932727 
L 577.570886 49.932727 
L 576.971755 49.932727 
L 576.372624 49.932727 
L 575.773493 49.932727 
L 575.174362 49.932727 
L 574.57523 49.932727 
L 573.976099 49.932727 
L 573.376968 49.932727 
L 572.777837 49.932727 
L 572.178706 49.932727 
L 571.579575 49.932727 
L 570.980444 49.932727 
L 570.381312 49.932727 
L 569.782181 49.932727 
L 569.18305 49.932727 
L 568.583919 49.932727 
L 567.984788 49.932727 
L 567.385657 49.932727 
L 566.786526 49.932727 
L 566.187394 49.932727 
L 565.588263 49.932727 
L 564.989132 49.932727 
L 564.390001 49.932727 
L 563.79087 49.932727 
L 563.191739 49.932727 
L 562.592607 49.932727 
L 561.993476 49.932727 
L 561.394345 49.932727 
L 560.795214 49.932727 
L 560.196083 49.932727 
L 559.596952 49.932727 
L 558.997821 49.932727 
L 558.398689 49.932727 
L 557.799558 49.932727 
L 557.200427 49.932727 
L 556.601296 49.932727 
L 556.002165 49.932727 
L 555.403034 49.932727 
L 554.803903 49.932727 
L 554.204771 49.932727 
L 553.60564 49.932727 
L 553.006509 49.932727 
L 552.407378 49.932727 
L 551.808247 49.932727 
L 551.209116 49.932727 
L 550.609984 49.932727 
L 550.010853 49.932727 
L 549.411722 49.932727 
L 548.812591 49.932727 
L 548.21346 49.932727 
L 547.614329 49.932727 
L 547.015198 49.932727 
L 546.416066 49.932727 
L 545.816935 49.932727 
L 545.217804 49.932727 
L 544.618673 49.932727 
L 544.019542 49.932727 
L 543.420411 49.932727 
L 542.821279 49.932727 
L 542.222148 49.932727 
L 541.623017 49.932727 
L 541.023886 49.932727 
L 540.424755 49.932727 
L 539.825624 49.932727 
L 539.226493 49.932727 
L 538.627361 49.932727 
L 538.02823 49.932727 
L 537.429099 49.932727 
L 536.829968 49.932727 
L 536.230837 49.932727 
L 535.631706 49.932727 
L 535.032575 49.932727 
L 534.433443 49.932727 
L 533.834312 49.932727 
L 533.235181 49.932727 
L 532.63605 49.932727 
L 532.036919 49.932727 
L 531.437788 49.932727 
L 530.838656 49.932727 
L 530.239525 49.932727 
L 529.640394 49.932727 
L 529.041263 49.932727 
L 528.442132 49.932727 
L 527.843001 49.932727 
L 527.24387 49.932727 
L 526.644738 49.932727 
L 526.045607 49.932727 
L 525.446476 49.932727 
L 524.847345 49.932727 
L 524.248214 49.932727 
L 523.649083 49.932727 
L 523.049952 49.932727 
L 522.45082 49.932727 
L 521.851689 49.932727 
L 521.252558 49.932727 
L 520.653427 49.932727 
L 520.054296 49.932727 
L 519.455165 49.932727 
L 518.856033 49.932727 
L 518.256902 49.932727 
L 517.657771 49.932727 
L 517.05864 49.932727 
L 516.459509 49.932727 
L 515.860378 49.932727 
L 515.261247 49.932727 
L 514.662115 49.932727 
L 514.062984 49.932727 
L 513.463853 49.932727 
L 512.864722 49.932727 
L 512.265591 49.932727 
L 511.66646 49.932727 
L 511.067329 49.932727 
L 510.468197 49.932727 
L 509.869066 49.932727 
L 509.269935 49.932727 
L 508.670804 49.932727 
L 508.071673 49.932727 
L 507.472542 49.932727 
L 506.87341 49.932727 
L 506.274279 49.932727 
L 505.675148 49.932727 
L 505.076017 49.932727 
L 504.476886 49.932727 
L 503.877755 49.932727 
L 503.278624 49.932727 
L 502.679492 49.932727 
L 502.080361 49.932727 
L 501.48123 49.932727 
L 500.882099 49.932727 
L 500.282968 49.932727 
L 499.683837 49.932727 
L 499.084706 49.932727 
L 498.485574 49.932727 
L 497.886443 49.932727 
L 497.287312 49.932727 
L 496.688181 49.932727 
L 496.08905 49.932727 
L 495.489919 49.932727 
L 494.890787 49.932727 
L 494.291656 49.932727 
L 493.692525 49.932727 
L 493.093394 49.932727 
L 492.494263 49.932727 
L 491.895132 49.932727 
L 491.296001 49.932727 
L 490.696869 49.932727 
L 490.097738 49.932727 
L 489.498607 49.932727 
L 488.899476 49.932727 
L 488.300345 49.932727 
L 487.701214 49.932727 
L 487.102082 49.932727 
L 486.502951 49.932727 
L 485.90382 49.932727 
L 485.304689 49.932727 
L 484.705558 49.932727 
L 484.106427 49.932727 
L 483.507296 49.932727 
L 482.908164 49.932727 
L 482.309033 49.932727 
L 481.709902 49.932727 
L 481.110771 49.932727 
L 480.51164 49.932727 
L 479.912509 49.932727 
L 479.313378 49.932727 
L 478.714246 49.932727 
L 478.115115 49.932727 
L 477.515984 49.932727 
L 476.916853 49.932727 
L 476.317722 49.932727 
L 475.718591 49.932727 
L 475.119459 49.932727 
L 474.520328 49.932727 
L 473.921197 49.932727 
L 473.322066 49.932727 
L 472.722935 49.932727 
L 472.123804 49.932727 
L 471.524673 49.932727 
L 470.925541 49.932727 
L 470.32641 49.932727 
L 469.727279 49.932727 
L 469.128148 49.932727 
L 468.529017 49.932727 
L 467.929886 49.932727 
L 467.330755 49.932727 
L 466.731623 49.932727 
L 466.132492 49.932727 
L 465.533361 49.932727 
L 464.93423 49.932727 
L 464.335099 49.932727 
L 463.735968 49.932727 
L 463.136836 49.932727 
L 462.537705 49.932727 
L 461.938574 49.932727 
L 461.339443 49.932727 
L 460.740312 49.932727 
L 460.141181 49.932727 
L 459.54205 49.932727 
L 458.942918 49.932727 
L 458.343787 49.932727 
L 457.744656 49.932727 
L 457.145525 49.932727 
L 456.546394 49.932727 
L 455.947263 49.932727 
L 455.348132 49.932727 
L 454.749 49.932727 
L 454.149869 49.932727 
L 453.550738 49.932727 
L 452.951607 49.932727 
L 452.352476 49.932727 
L 451.753345 49.932727 
L 451.154213 49.932727 
L 450.555082 49.932727 
L 449.955951 49.932727 
L 449.35682 49.932727 
L 448.757689 49.932727 
L 448.158558 49.932727 
L 447.559427 49.932727 
L 446.960295 49.932727 
L 446.361164 49.932727 
L 445.762033 49.932727 
L 445.162902 49.932727 
L 444.563771 49.932727 
L 443.96464 49.932727 
L 443.365509 49.932727 
L 442.766377 49.932727 
L 442.167246 49.932727 
L 441.568115 49.932727 
L 440.968984 49.932727 
L 440.369853 49.932727 
L 439.770722 49.932727 
L 439.17159 49.932727 
L 438.572459 49.932727 
L 437.973328 49.932727 
L 437.374197 49.932727 
L 436.775066 49.932727 
L 436.175935 49.932727 
L 435.576804 49.932727 
L 434.977672 49.932727 
L 434.378541 49.932727 
L 433.77941 49.932727 
L 433.180279 49.932727 
L 432.581148 49.932727 
L 431.982017 49.932727 
L 431.382885 49.932727 
L 430.783754 49.932727 
L 430.184623 49.932727 
L 429.585492 49.932727 
L 428.986361 49.932727 
L 428.38723 49.932727 
L 427.788099 49.932727 
L 427.188967 49.932727 
L 426.589836 49.932727 
L 425.990705 49.932727 
L 425.391574 49.932727 
L 424.792443 49.932727 
L 424.193312 49.932727 
L 423.594181 49.932727 
L 422.995049 49.932727 
L 422.395918 49.932727 
L 421.796787 49.932727 
L 421.197656 49.932727 
L 420.598525 49.932727 
L 419.999394 49.932727 
L 419.400262 49.932727 
L 418.801131 49.932727 
L 418.202 49.932727 
L 417.602869 49.932727 
L 417.003738 49.932727 
L 416.404607 49.932727 
L 415.805476 49.932727 
L 415.206344 49.932727 
L 414.607213 49.932727 
L 414.008082 49.932727 
L 413.408951 49.932727 
L 412.80982 49.932727 
L 412.210689 49.932727 
L 411.611558 49.932727 
L 411.012426 49.932727 
L 410.413295 49.932727 
L 409.814164 49.932727 
L 409.215033 49.932727 
L 408.615902 49.932727 
L 408.016771 49.932727 
L 407.417639 49.932727 
L 406.818508 49.932727 
L 406.219377 49.932727 
L 405.620246 49.932727 
L 405.021115 49.932727 
L 404.421984 49.932727 
L 403.822853 49.932727 
L 403.223721 49.932727 
L 402.62459 49.932727 
L 402.025459 49.932727 
L 401.426328 49.932727 
L 400.827197 49.932727 
L 400.228066 49.932727 
L 399.628935 49.932727 
L 399.029803 49.932727 
L 398.430672 49.932727 
L 397.831541 49.932727 
L 397.23241 49.932727 
L 396.633279 49.932727 
L 396.034148 49.932727 
L 395.435016 49.932727 
L 394.835885 49.932727 
L 394.236754 49.932727 
L 393.637623 49.932727 
L 393.038492 49.932727 
L 392.439361 49.932727 
L 391.84023 49.932727 
L 391.241098 49.932727 
L 390.641967 49.932727 
L 390.042836 49.932727 
L 389.443705 49.932727 
L 388.844574 49.932727 
L 388.245443 49.932727 
L 387.646312 49.932727 
L 387.04718 49.932727 
L 386.448049 49.932727 
L 385.848918 49.932727 
L 385.249787 49.932727 
L 384.650656 49.932727 
L 384.051525 49.932727 
L 383.452393 49.932727 
L 382.853262 49.932727 
L 382.254131 49.932727 
L 381.655 49.932727 
L 381.055869 49.932727 
L 380.456738 49.932727 
L 379.857607 49.932727 
L 379.258475 49.932727 
L 378.659344 49.932727 
L 378.060213 49.932727 
L 377.461082 49.932727 
L 376.861951 49.932727 
L 376.26282 49.932727 
L 375.663688 49.932727 
L 375.064557 49.932727 
L 374.465426 49.932727 
L 373.866295 49.932727 
L 373.267164 49.932727 
L 372.668033 49.932727 
L 372.068902 49.932727 
L 371.46977 49.932727 
L 370.870639 49.932727 
L 370.271508 49.932727 
L 369.672377 49.932727 
L 369.073246 49.932727 
L 368.474115 49.932727 
L 367.874984 49.932727 
L 367.275852 49.932727 
L 366.676721 49.932727 
L 366.07759 49.932727 
L 365.478459 49.932727 
L 364.879328 49.932727 
L 364.280197 49.932727 
L 363.681065 49.932727 
L 363.081934 49.932727 
L 362.482803 49.932727 
L 361.883672 49.932727 
L 361.284541 49.932727 
L 360.68541 49.932727 
L 360.086279 49.932727 
L 359.487147 49.932727 
L 358.888016 49.932727 
L 358.288885 49.932727 
L 357.689754 49.932727 
L 357.090623 49.932727 
L 356.491492 49.932727 
L 355.892361 49.932727 
L 355.293229 49.932727 
L 354.694098 49.932727 
L 354.094967 49.932727 
L 353.495836 49.932727 
L 352.896705 49.932727 
L 352.297574 49.932727 
L 351.698442 49.932727 
L 351.099311 49.932727 
L 350.50018 49.932727 
L 349.901049 49.932727 
L 349.301918 49.932727 
L 348.702787 49.932727 
L 348.103656 49.932727 
L 347.504524 49.932727 
L 346.905393 49.932727 
L 346.306262 49.932727 
L 345.707131 49.932727 
L 345.108 49.932727 
L 344.508869 49.932727 
L 343.909738 49.932727 
L 343.310606 49.932727 
L 342.711475 49.932727 
L 342.112344 49.932727 
L 341.513213 49.932727 
L 340.914082 49.932727 
L 340.314951 49.932727 
L 339.715819 49.932727 
L 339.116688 49.932727 
L 338.517557 49.932727 
L 337.918426 49.932727 
L 337.319295 49.932727 
L 336.720164 49.932727 
L 336.121033 49.932727 
L 335.521901 49.932727 
L 334.92277 49.932727 
L 334.323639 49.932727 
L 333.724508 49.932727 
L 333.125377 49.932727 
L 332.526246 49.932727 
L 331.927115 49.932727 
L 331.327983 49.932727 
L 330.728852 49.932727 
L 330.129721 49.932727 
L 329.53059 49.932727 
L 328.931459 49.932727 
L 328.332328 49.932727 
L 327.733196 49.932727 
L 327.134065 49.932727 
L 326.534934 49.932727 
L 325.935803 49.932727 
L 325.336672 49.932727 
L 324.737541 49.932727 
L 324.13841 49.932727 
L 323.539278 49.932727 
L 322.940147 49.932727 
L 322.341016 49.932727 
L 321.741885 49.932727 
L 321.142754 49.932727 
L 320.543623 49.932727 
L 319.944491 49.932727 
L 319.34536 49.932727 
L 318.746229 49.932727 
L 318.147098 49.932727 
L 317.547967 49.932727 
L 316.948836 49.932727 
L 316.349705 49.932727 
L 315.750573 49.932727 
L 315.151442 49.932727 
L 314.552311 49.932727 
L 313.95318 49.932727 
L 313.354049 49.932727 
L 312.754918 49.932727 
L 312.155787 49.932727 
L 311.556655 49.932727 
L 310.957524 49.932727 
L 310.358393 49.932727 
L 309.759262 49.932727 
L 309.160131 49.932727 
L 308.561 49.932727 
L 307.961868 49.932727 
L 307.362737 49.932727 
L 306.763606 49.932727 
L 306.164475 49.932727 
L 305.565344 49.932727 
L 304.966213 49.932727 
L 304.367082 49.932727 
L 303.76795 49.932727 
L 303.168819 49.932727 
L 302.569688 49.932727 
L 301.970557 49.932727 
L 301.371426 49.932727 
L 300.772295 49.932727 
L 300.173164 49.932727 
L 299.574032 49.932727 
L 298.974901 49.932727 
L 298.37577 49.932727 
L 297.776639 49.932727 
L 297.177508 49.932727 
L 296.578377 49.932727 
L 295.979245 49.932727 
L 295.380114 49.932727 
L 294.780983 49.932727 
L 294.181852 49.932727 
L 293.582721 49.932727 
L 292.98359 49.932727 
L 292.384459 49.932727 
L 291.785327 49.932727 
L 291.186196 49.932727 
L 290.587065 49.932727 
L 289.987934 49.932727 
L 289.388803 49.932727 
L 288.789672 49.932727 
L 288.190541 49.932727 
L 287.591409 49.932727 
L 286.992278 49.932727 
L 286.393147 49.932727 
L 285.794016 49.932727 
L 285.194885 49.932727 
L 284.595754 49.932727 
L 283.996622 49.932727 
L 283.397491 49.932727 
L 282.79836 49.932727 
L 282.199229 49.932727 
L 281.600098 49.932727 
L 281.000967 49.932727 
L 280.401836 49.932727 
L 279.802704 49.932727 
L 279.203573 49.932727 
L 278.604442 49.932727 
L 278.005311 49.932727 
L 277.40618 49.932727 
L 276.807049 49.932727 
L 276.207918 49.932727 
L 275.608786 49.932727 
L 275.009655 49.932727 
L 274.410524 49.932727 
L 273.811393 49.932727 
L 273.212262 49.932727 
L 272.613131 49.932727 
L 272.013999 49.932727 
L 271.414868 49.932727 
L 270.815737 49.932727 
L 270.216606 49.932727 
L 269.617475 49.932727 
L 269.018344 49.932727 
L 268.419213 49.932727 
L 267.820081 49.932727 
L 267.22095 49.932727 
L 266.621819 49.932727 
L 266.022688 49.932727 
L 265.423557 49.932727 
L 264.824426 49.932727 
L 264.225294 49.932727 
L 263.626163 49.932727 
L 263.027032 49.932727 
L 262.427901 49.932727 
L 261.82877 49.932727 
L 261.229639 49.932727 
L 260.630508 49.932727 
L 260.031376 49.932727 
L 259.432245 49.932727 
L 258.833114 49.932727 
L 258.233983 49.932727 
L 257.634852 49.932727 
L 257.035721 49.932727 
L 256.43659 49.932727 
L 255.837458 49.932727 
L 255.238327 49.932727 
L 254.639196 49.932727 
L 254.040065 49.932727 
L 253.440934 49.932727 
L 252.841803 49.932727 
L 252.242671 49.932727 
L 251.64354 49.932727 
L 251.044409 49.932727 
L 250.445278 49.932727 
L 249.846147 49.932727 
L 249.247016 49.932727 
L 248.647885 49.932727 
L 248.048753 49.932727 
L 247.449622 49.932727 
L 246.850491 49.932727 
L 246.25136 49.932727 
L 245.652229 49.932727 
L 245.053098 49.932727 
L 244.453967 49.932727 
L 243.854835 49.932727 
L 243.255704 49.932727 
L 242.656573 49.932727 
L 242.057442 49.932727 
L 241.458311 49.932727 
L 240.85918 49.932727 
L 240.260048 49.932727 
L 239.660917 49.932727 
L 239.061786 49.932727 
L 238.462655 49.932727 
L 237.863524 49.932727 
L 237.264393 49.932727 
L 236.665262 49.932727 
L 236.06613 49.932727 
L 235.466999 49.932727 
L 234.867868 49.932727 
L 234.268737 49.932727 
L 233.669606 49.932727 
L 233.070475 49.932727 
L 232.471344 49.932727 
L 231.872212 49.932727 
L 231.273081 49.932727 
L 230.67395 49.932727 
L 230.074819 49.932727 
L 229.475688 49.932727 
L 228.876557 49.932727 
L 228.277425 49.932727 
L 227.678294 49.932727 
L 227.079163 49.932727 
L 226.480032 49.932727 
L 225.880901 49.932727 
L 225.28177 49.932727 
L 224.682639 49.932727 
L 224.083507 49.932727 
L 223.484376 49.932727 
L 222.885245 49.932727 
L 222.286114 49.932727 
L 221.686983 49.932727 
L 221.087852 49.932727 
L 220.488721 49.932727 
L 219.889589 49.932727 
L 219.290458 49.932727 
L 218.691327 49.932727 
L 218.092196 49.932727 
L 217.493065 49.932727 
L 216.893934 49.932727 
L 216.294802 49.932727 
L 215.695671 49.932727 
L 215.09654 49.932727 
L 214.497409 49.932727 
L 213.898278 49.932727 
L 213.299147 49.932727 
L 212.700016 49.932727 
L 212.100884 49.932727 
L 211.501753 49.932727 
L 210.902622 49.932727 
L 210.303491 49.932727 
L 209.70436 49.932727 
L 209.105229 49.932727 
L 208.506097 49.932727 
L 207.906966 49.932727 
L 207.307835 49.932727 
L 206.708704 49.932727 
L 206.109573 49.932727 
L 205.510442 49.932727 
L 204.911311 49.932727 
L 204.312179 49.932727 
L 203.713048 49.932727 
L 203.113917 49.932727 
L 202.514786 49.932727 
L 201.915655 49.932727 
L 201.316524 49.932727 
L 200.717393 49.932727 
L 200.118261 49.932727 
L 199.51913 49.932727 
L 198.919999 49.932727 
L 198.320868 49.932727 
L 197.721737 49.932727 
L 197.122606 49.932727 
L 196.523474 49.932727 
L 195.924343 49.932727 
L 195.325212 49.932727 
L 194.726081 49.932727 
L 194.12695 49.932727 
L 193.527819 49.932727 
L 192.928688 49.932727 
L 192.329556 49.932727 
L 191.730425 49.932727 
L 191.131294 49.932727 
L 190.532163 49.932727 
L 189.933032 49.932727 
L 189.333901 49.932727 
L 188.73477 49.932727 
L 188.135638 49.932727 
L 187.536507 49.932727 
L 186.937376 49.932727 
L 186.338245 49.932727 
L 185.739114 49.932727 
L 185.139983 49.932727 
L 184.540851 49.932727 
L 183.94172 49.932727 
L 183.342589 49.932727 
L 182.743458 49.932727 
L 182.144327 49.932727 
L 181.545196 49.932727 
L 180.946065 49.932727 
L 180.346933 49.932727 
L 179.747802 49.932727 
L 179.148671 49.932727 
L 178.54954 49.932727 
L 177.950409 49.932727 
L 177.351278 49.932727 
L 176.752147 49.932727 
L 176.153015 49.932727 
L 175.553884 49.932727 
L 174.954753 49.932727 
L 174.355622 49.932727 
L 173.756491 49.932727 
L 173.15736 49.932727 
L 172.558228 49.932727 
L 171.959097 49.932727 
L 171.359966 49.932727 
L 170.760835 49.932727 
L 170.161704 49.932727 
L 169.562573 49.932727 
L 168.963442 49.932727 
L 168.36431 49.932727 
L 167.765179 49.932727 
L 167.166048 49.932727 
L 166.566917 49.932727 
L 165.967786 49.932727 
L 165.368655 49.932727 
L 164.769524 49.932727 
L 164.170392 49.932727 
L 163.571261 49.932727 
L 162.97213 49.932727 
L 162.372999 49.932727 
L 161.773868 49.932727 
L 161.174737 49.932727 
L 160.575605 49.932727 
L 159.976474 49.932727 
L 159.377343 49.932727 
L 158.778212 49.932727 
L 158.179081 49.932727 
L 157.57995 49.932727 
L 156.980819 49.932727 
L 156.381687 49.932727 
L 155.782556 49.932727 
L 155.183425 49.932727 
L 154.584294 49.932727 
L 153.985163 49.932727 
L 153.386032 49.932727 
L 152.7869 49.932727 
L 152.187769 49.932727 
L 151.588638 49.932727 
L 150.989507 49.932727 
L 150.390376 49.932727 
L 149.791245 49.932727 
L 149.192114 49.932727 
L 148.592982 49.932727 
L 147.993851 49.932727 
L 147.39472 49.932727 
L 146.795589 49.932727 
L 146.196458 49.932727 
L 145.597327 49.932727 
L 144.998196 49.932727 
L 144.399064 49.932727 
L 143.799933 49.932727 
L 143.200802 49.932727 
L 142.601671 49.932727 
L 142.00254 49.932727 
L 141.403409 49.932727 
L 140.804277 49.932727 
L 140.205146 49.932727 
L 139.606015 49.932727 
L 139.006884 49.932727 
L 138.407753 49.932727 
L 137.808622 49.932727 
L 137.209491 49.932727 
L 136.610359 49.932727 
L 136.011228 49.932727 
L 135.412097 49.932727 
L 134.812966 49.932727 
L 134.213835 49.932727 
L 133.614704 49.932727 
L 133.015573 49.932727 
L 132.416441 49.932727 
L 131.81731 49.932727 
L 131.218179 49.932727 
L 130.619048 49.932727 
L 130.019917 49.932727 
L 129.420786 49.932727 
L 128.821654 49.932727 
L 128.222523 49.932727 
L 127.623392 49.932727 
L 127.024261 49.932727 
L 126.42513 49.932727 
L 125.825999 49.932727 
L 125.226868 49.932727 
L 124.627736 49.932727 
L 124.028605 49.932727 
L 123.429474 49.932727 
L 122.830343 49.932727 
L 122.231212 49.932727 
L 121.632081 49.932727 
L 121.03295 49.932727 
L 120.433818 49.932727 
L 119.834687 49.932727 
L 119.235556 49.932727 
L 118.636425 49.932727 
L 118.037294 49.932727 
L 117.438163 49.932727 
L 116.839031 49.932727 
L 116.2399 49.932727 
L 115.640769 49.932727 
L 115.041638 49.932727 
L 114.442507 49.932727 
L 113.843376 49.932727 
L 113.244245 49.932727 
L 112.645113 49.932727 
L 112.045982 49.932727 
L 111.446851 49.932727 
L 110.84772 49.932727 
L 110.248589 49.932727 
L 109.649458 49.932727 
L 109.050327 49.932727 
L 108.451195 49.932727 
L 107.852064 49.932727 
L 107.252933 49.932727 
L 106.653802 49.932727 
L 106.054671 49.932727 
L 105.45554 49.932727 
L 104.856408 49.932727 
L 104.257277 55.961825 
L 103.658146 55.961825 
L 103.059015 55.961825 
L 102.459884 55.961825 
L 101.860753 55.961825 
L 101.261622 61.990923 
L 100.66249 61.990923 
L 100.063359 61.990923 
L 99.464228 61.990923 
L 98.865097 61.990923 
L 98.265966 68.02002 
L 97.666835 68.02002 
L 97.067703 68.02002 
L 96.468572 68.02002 
L 95.869441 68.02002 
L 95.27031 169.380441 
L 94.671179 169.380441 
L 94.072048 169.380441 
L 93.472917 169.380441 
L 92.873785 169.380441 
L 92.274654 201.157548 
L 91.675523 201.157548 
L 91.076392 201.157548 
L 90.477261 201.157548 
L 89.87813 201.157548 
L 89.278999 264.711763 
L 88.679867 264.711763 
L 88.080736 264.711763 
L 87.481605 264.711763 
L 86.882474 264.711763 
L 86.283343 455.374409 
L 85.684212 455.374409 
L 85.08508 455.374409 
L 84.485949 455.374409 
L 83.886818 455.374409 
z
" clip-path="url(#pd875a060c5)" style="fill: #1f77b4; fill-opacity: 0.2"/>
   </g>
   <g id="matplotlib.axis_1">
    <g id="xtick_1">
     <g id="line2d_1">
      <path d="M 80.292031 534.04 
L 80.292031 26.88 
" clip-path="url(#pd875a060c5)" style="fill: none; stroke: #b0b0b0; stroke-width: 0.8; stroke-linecap: square"/>
     </g>
     <g id="line2d_2">
      <defs>
       <path id="m7e6cc3468b" d="M 0 0 
L 0 3.5 
" style="stroke: #000000; stroke-width: 0.8"/>
      </defs>
      <g>
       <use xlink:href="#m7e6cc3468b" x="80.292031" y="534.04" style="stroke: #000000; stroke-width: 0.8"/>
      </g>
     </g>
     <g id="text_1">
      <!-- 0 -->
      <g transform="translate(77.110781 548.638438) scale(0.1 -0.1)">
       <defs>
        <path id="DejaVuSans-30" d="M 2034 4250 
Q 1547 4250 1301 3770 
Q 1056 3291 1056 2328 
Q 1056 1369 1301 889 
Q 1547 409 2034 409 
Q 2525 409 2770 889 
Q 3016 1369 3016 2328 
Q 3016 3291 2770 3770 
Q 2525 4250 2034 4250 
z
M 2034 4750 
Q 2819 4750 3233 4129 
Q 3647 3509 3647 2328 
Q 3647 1150 3233 529 
Q 2819 -91 2034 -91 
Q 1250 -91 836 529 
Q 422 1150 422 2328 
Q 422 3509 836 4129 
Q 1250 4750 2034 4750 
z
" transform="scale(0.015625)"/>
       </defs>
       <use xlink:href="#DejaVuSans-30"/>
      </g>
     </g>
    </g>
    <g id="xtick_2">
     <g id="line2d_3">
      <path d="M 200.118261 534.04 
L 200.118261 26.88 
" clip-path="url(#pd875a060c5)" style="fill: none; stroke: #b0b0b0; stroke-width: 0.8; stroke-linecap: square"/>
     </g>
     <g id="line2d_4">
      <g>
       <use xlink:href="#m7e6cc3468b" x="200.118261" y="534.04" style="stroke: #000000; stroke-width: 0.8"/>
      </g>
     </g>
     <g id="text_2">
      <!-- 200 -->
      <g transform="translate(190.574511 548.638438) scale(0.1 -0.1)">
       <defs>
        <path id="DejaVuSans-32" d="M 1228 531 
L 3431 531 
L 3431 0 
L 469 0 
L 469 531 
Q 828 903 1448 1529 
Q 2069 2156 2228 2338 
Q 2531 2678 2651 2914 
Q 2772 3150 2772 3378 
Q 2772 3750 2511 3984 
Q 2250 4219 1831 4219 
Q 1534 4219 1204 4116 
Q 875 4013 500 3803 
L 500 4441 
Q 881 4594 1212 4672 
Q 1544 4750 1819 4750 
Q 2544 4750 2975 4387 
Q 3406 4025 3406 3419 
Q 3406 3131 3298 2873 
Q 3191 2616 2906 2266 
Q 2828 2175 2409 1742 
Q 1991 1309 1228 531 
z
" transform="scale(0.015625)"/>
       </defs>
       <use xlink:href="#DejaVuSans-32"/>
       <use xlink:href="#DejaVuSans-30" x="63.623047"/>
       <use xlink:href="#DejaVuSans-30" x="127.246094"/>
      </g>
     </g>
    </g>
    <g id="xtick_3">
     <g id="line2d_5">
      <path d="M 319.944491 534.04 
L 319.944491 26.88 
" clip-path="url(#pd875a060c5)" style="fill: none; stroke: #b0b0b0; stroke-width: 0.8; stroke-linecap: square"/>
     </g>
     <g id="line2d_6">
      <g>
       <use xlink:href="#m7e6cc3468b" x="319.944491" y="534.04" style="stroke: #000000; stroke-width: 0.8"/>
      </g>
     </g>
     <g id="text_3">
      <!-- 400 -->
      <g transform="translate(310.400741 548.638438) scale(0.1 -0.1)">
       <defs>
        <path id="DejaVuSans-34" d="M 2419 4116 
L 825 1625 
L 2419 1625 
L 2419 4116 
z
M 2253 4666 
L 3047 4666 
L 3047 1625 
L 3713 1625 
L 3713 1100 
L 3047 1100 
L 3047 0 
L 2419 0 
L 2419 1100 
L 313 1100 
L 313 1709 
L 2253 4666 
z
" transform="scale(0.015625)"/>
       </defs>
       <use xlink:href="#DejaVuSans-34"/>
       <use xlink:href="#DejaVuSans-30" x="63.623047"/>
       <use xlink:href="#DejaVuSans-30" x="127.246094"/>
      </g>
     </g>
    </g>
    <g id="xtick_4">
     <g id="line2d_7">
      <path d="M 439.770722 534.04 
L 439.770722 26.88 
" clip-path="url(#pd875a060c5)" style="fill: none; stroke: #b0b0b0; stroke-width: 0.8; stroke-linecap: square"/>
     </g>
     <g id="line2d_8">
      <g>
       <use xlink:href="#m7e6cc3468b" x="439.770722" y="534.04" style="stroke: #000000; stroke-width: 0.8"/>
      </g>
     </g>
     <g id="text_4">
      <!-- 600 -->
      <g transform="translate(430.226972 548.638438) scale(0.1 -0.1)">
       <defs>
        <path id="DejaVuSans-36" d="M 2113 2584 
Q 1688 2584 1439 2293 
Q 1191 2003 1191 1497 
Q 1191 994 1439 701 
Q 1688 409 2113 409 
Q 2538 409 2786 701 
Q 3034 994 3034 1497 
Q 3034 2003 2786 2293 
Q 2538 2584 2113 2584 
z
M 3366 4563 
L 3366 3988 
Q 3128 4100 2886 4159 
Q 2644 4219 2406 4219 
Q 1781 4219 1451 3797 
Q 1122 3375 1075 2522 
Q 1259 2794 1537 2939 
Q 1816 3084 2150 3084 
Q 2853 3084 3261 2657 
Q 3669 2231 3669 1497 
Q 3669 778 3244 343 
Q 2819 -91 2113 -91 
Q 1303 -91 875 529 
Q 447 1150 447 2328 
Q 447 3434 972 4092 
Q 1497 4750 2381 4750 
Q 2619 4750 2861 4703 
Q 3103 4656 3366 4563 
z
" transform="scale(0.015625)"/>
       </defs>
       <use xlink:href="#DejaVuSans-36"/>
       <use xlink:href="#DejaVuSans-30" x="63.623047"/>
       <use xlink:href="#DejaVuSans-30" x="127.246094"/>
      </g>
     </g>
    </g>
    <g id="xtick_5">
     <g id="line2d_9">
      <path d="M 559.596952 534.04 
L 559.596952 26.88 
" clip-path="url(#pd875a060c5)" style="fill: none; stroke: #b0b0b0; stroke-width: 0.8; stroke-linecap: square"/>
     </g>
     <g id="line2d_10">
      <g>
       <use xlink:href="#m7e6cc3468b" x="559.596952" y="534.04" style="stroke: #000000; stroke-width: 0.8"/>
      </g>
     </g>
     <g id="text_5">
      <!-- 800 -->
      <g transform="translate(550.053202 548.638438) scale(0.1 -0.1)">
       <defs>
        <path id="DejaVuSans-38" d="M 2034 2216 
Q 1584 2216 1326 1975 
Q 1069 1734 1069 1313 
Q 1069 891 1326 650 
Q 1584 409 2034 409 
Q 2484 409 2743 651 
Q 3003 894 3003 1313 
Q 3003 1734 2745 1975 
Q 2488 2216 2034 2216 
z
M 1403 2484 
Q 997 2584 770 2862 
Q 544 3141 544 3541 
Q 544 4100 942 4425 
Q 1341 4750 2034 4750 
Q 2731 4750 3128 4425 
Q 3525 4100 3525 3541 
Q 3525 3141 3298 2862 
Q 3072 2584 2669 2484 
Q 3125 2378 3379 2068 
Q 3634 1759 3634 1313 
Q 3634 634 3220 271 
Q 2806 -91 2034 -91 
Q 1263 -91 848 271 
Q 434 634 434 1313 
Q 434 1759 690 2068 
Q 947 2378 1403 2484 
z
M 1172 3481 
Q 1172 3119 1398 2916 
Q 1625 2713 2034 2713 
Q 2441 2713 2670 2916 
Q 2900 3119 2900 3481 
Q 2900 3844 2670 4047 
Q 2441 4250 2034 4250 
Q 1625 4250 1398 4047 
Q 1172 3844 1172 3481 
z
" transform="scale(0.015625)"/>
       </defs>
       <use xlink:href="#DejaVuSans-38"/>
       <use xlink:href="#DejaVuSans-30" x="63.623047"/>
       <use xlink:href="#DejaVuSans-30" x="127.246094"/>
      </g>
     </g>
    </g>
    <g id="xtick_6">
     <g id="line2d_11">
      <path d="M 679.423182 534.04 
L 679.423182 26.88 
" clip-path="url(#pd875a060c5)" style="fill: none; stroke: #b0b0b0; stroke-width: 0.8; stroke-linecap: square"/>
     </g>
     <g id="line2d_12">
      <g>
       <use xlink:href="#m7e6cc3468b" x="679.423182" y="534.04" style="stroke: #000000; stroke-width: 0.8"/>
      </g>
     </g>
     <g id="text_6">
      <!-- 1000 -->
      <g transform="translate(666.698182 548.638438) scale(0.1 -0.1)">
       <defs>
        <path id="DejaVuSans-31" d="M 794 531 
L 1825 531 
L 1825 4091 
L 703 3866 
L 703 4441 
L 1819 4666 
L 2450 4666 
L 2450 531 
L 3481 531 
L 3481 0 
L 794 0 
L 794 531 
z
" transform="scale(0.015625)"/>
       </defs>
       <use xlink:href="#DejaVuSans-31"/>
       <use xlink:href="#DejaVuSans-30" x="63.623047"/>
       <use xlink:href="#DejaVuSans-30" x="127.246094"/>
       <use xlink:href="#DejaVuSans-30" x="190.869141"/>
      </g>
     </g>
    </g>
    <g id="text_7">
     <!-- Episodes -->
     <g transform="translate(359.412813 562.316562) scale(0.1 -0.1)">
      <defs>
       <path id="DejaVuSans-45" d="M 628 4666 
L 3578 4666 
L 3578 4134 
L 1259 4134 
L 1259 2753 
L 3481 2753 
L 3481 2222 
L 1259 2222 
L 1259 531 
L 3634 531 
L 3634 0 
L 628 0 
L 628 4666 
z
" transform="scale(0.015625)"/>
       <path id="DejaVuSans-70" d="M 1159 525 
L 1159 -1331 
L 581 -1331 
L 581 3500 
L 1159 3500 
L 1159 2969 
Q 1341 3281 1617 3432 
Q 1894 3584 2278 3584 
Q 2916 3584 3314 3078 
Q 3713 2572 3713 1747 
Q 3713 922 3314 415 
Q 2916 -91 2278 -91 
Q 1894 -91 1617 61 
Q 1341 213 1159 525 
z
M 3116 1747 
Q 3116 2381 2855 2742 
Q 2594 3103 2138 3103 
Q 1681 3103 1420 2742 
Q 1159 2381 1159 1747 
Q 1159 1113 1420 752 
Q 1681 391 2138 391 
Q 2594 391 2855 752 
Q 3116 1113 3116 1747 
z
" transform="scale(0.015625)"/>
       <path id="DejaVuSans-69" d="M 603 3500 
L 1178 3500 
L 1178 0 
L 603 0 
L 603 3500 
z
M 603 4863 
L 1178 4863 
L 1178 4134 
L 603 4134 
L 603 4863 
z
" transform="scale(0.015625)"/>
       <path id="DejaVuSans-73" d="M 2834 3397 
L 2834 2853 
Q 2591 2978 2328 3040 
Q 2066 3103 1784 3103 
Q 1356 3103 1142 2972 
Q 928 2841 928 2578 
Q 928 2378 1081 2264 
Q 1234 2150 1697 2047 
L 1894 2003 
Q 2506 1872 2764 1633 
Q 3022 1394 3022 966 
Q 3022 478 2636 193 
Q 2250 -91 1575 -91 
Q 1294 -91 989 -36 
Q 684 19 347 128 
L 347 722 
Q 666 556 975 473 
Q 1284 391 1588 391 
Q 1994 391 2212 530 
Q 2431 669 2431 922 
Q 2431 1156 2273 1281 
Q 2116 1406 1581 1522 
L 1381 1569 
Q 847 1681 609 1914 
Q 372 2147 372 2553 
Q 372 3047 722 3315 
Q 1072 3584 1716 3584 
Q 2034 3584 2315 3537 
Q 2597 3491 2834 3397 
z
" transform="scale(0.015625)"/>
       <path id="DejaVuSans-6f" d="M 1959 3097 
Q 1497 3097 1228 2736 
Q 959 2375 959 1747 
Q 959 1119 1226 758 
Q 1494 397 1959 397 
Q 2419 397 2687 759 
Q 2956 1122 2956 1747 
Q 2956 2369 2687 2733 
Q 2419 3097 1959 3097 
z
M 1959 3584 
Q 2709 3584 3137 3096 
Q 3566 2609 3566 1747 
Q 3566 888 3137 398 
Q 2709 -91 1959 -91 
Q 1206 -91 779 398 
Q 353 888 353 1747 
Q 353 2609 779 3096 
Q 1206 3584 1959 3584 
z
" transform="scale(0.015625)"/>
       <path id="DejaVuSans-64" d="M 2906 2969 
L 2906 4863 
L 3481 4863 
L 3481 0 
L 2906 0 
L 2906 525 
Q 2725 213 2448 61 
Q 2172 -91 1784 -91 
Q 1150 -91 751 415 
Q 353 922 353 1747 
Q 353 2572 751 3078 
Q 1150 3584 1784 3584 
Q 2172 3584 2448 3432 
Q 2725 3281 2906 2969 
z
M 947 1747 
Q 947 1113 1208 752 
Q 1469 391 1925 391 
Q 2381 391 2643 752 
Q 2906 1113 2906 1747 
Q 2906 2381 2643 2742 
Q 2381 3103 1925 3103 
Q 1469 3103 1208 2742 
Q 947 2381 947 1747 
z
" transform="scale(0.015625)"/>
       <path id="DejaVuSans-65" d="M 3597 1894 
L 3597 1613 
L 953 1613 
Q 991 1019 1311 708 
Q 1631 397 2203 397 
Q 2534 397 2845 478 
Q 3156 559 3463 722 
L 3463 178 
Q 3153 47 2828 -22 
Q 2503 -91 2169 -91 
Q 1331 -91 842 396 
Q 353 884 353 1716 
Q 353 2575 817 3079 
Q 1281 3584 2069 3584 
Q 2775 3584 3186 3129 
Q 3597 2675 3597 1894 
z
M 3022 2063 
Q 3016 2534 2758 2815 
Q 2500 3097 2075 3097 
Q 1594 3097 1305 2825 
Q 1016 2553 972 2059 
L 3022 2063 
z
" transform="scale(0.015625)"/>
      </defs>
      <use xlink:href="#DejaVuSans-45"/>
      <use xlink:href="#DejaVuSans-70" x="63.183594"/>
      <use xlink:href="#DejaVuSans-69" x="126.660156"/>
      <use xlink:href="#DejaVuSans-73" x="154.443359"/>
      <use xlink:href="#DejaVuSans-6f" x="206.542969"/>
      <use xlink:href="#DejaVuSans-64" x="267.724609"/>
      <use xlink:href="#DejaVuSans-65" x="331.201172"/>
      <use xlink:href="#DejaVuSans-73" x="392.724609"/>
     </g>
    </g>
   </g>
   <g id="matplotlib.axis_2">
    <g id="ytick_1">
     <g id="line2d_13">
      <path d="M 54.11 488.798588 
L 709.2 488.798588 
" clip-path="url(#pd875a060c5)" style="fill: none; stroke: #b0b0b0; stroke-width: 0.8; stroke-linecap: square"/>
     </g>
     <g id="line2d_14">
      <defs>
       <path id="m8648fcf374" d="M 0 0 
L -3.5 0 
" style="stroke: #000000; stroke-width: 0.8"/>
      </defs>
      <g>
       <use xlink:href="#m8648fcf374" x="54.11" y="488.798588" style="stroke: #000000; stroke-width: 0.8"/>
      </g>
     </g>
     <g id="text_8">
      <!-- 0.80 -->
      <g transform="translate(24.844375 492.597807) scale(0.1 -0.1)">
       <defs>
        <path id="DejaVuSans-2e" d="M 684 794 
L 1344 794 
L 1344 0 
L 684 0 
L 684 794 
z
" transform="scale(0.015625)"/>
       </defs>
       <use xlink:href="#DejaVuSans-30"/>
       <use xlink:href="#DejaVuSans-2e" x="63.623047"/>
       <use xlink:href="#DejaVuSans-38" x="95.410156"/>
       <use xlink:href="#DejaVuSans-30" x="159.033203"/>
      </g>
     </g>
    </g>
    <g id="ytick_2">
     <g id="line2d_15">
      <path d="M 54.11 378.690735 
L 709.2 378.690735 
" clip-path="url(#pd875a060c5)" style="fill: none; stroke: #b0b0b0; stroke-width: 0.8; stroke-linecap: square"/>
     </g>
     <g id="line2d_16">
      <g>
       <use xlink:href="#m8648fcf374" x="54.11" y="378.690735" style="stroke: #000000; stroke-width: 0.8"/>
      </g>
     </g>
     <g id="text_9">
      <!-- 0.82 -->
      <g transform="translate(24.844375 382.489954) scale(0.1 -0.1)">
       <use xlink:href="#DejaVuSans-30"/>
       <use xlink:href="#DejaVuSans-2e" x="63.623047"/>
       <use xlink:href="#DejaVuSans-38" x="95.410156"/>
       <use xlink:href="#DejaVuSans-32" x="159.033203"/>
      </g>
     </g>
    </g>
    <g id="ytick_3">
     <g id="line2d_17">
      <path d="M 54.11 268.582882 
L 709.2 268.582882 
" clip-path="url(#pd875a060c5)" style="fill: none; stroke: #b0b0b0; stroke-width: 0.8; stroke-linecap: square"/>
     </g>
     <g id="line2d_18">
      <g>
       <use xlink:href="#m8648fcf374" x="54.11" y="268.582882" style="stroke: #000000; stroke-width: 0.8"/>
      </g>
     </g>
     <g id="text_10">
      <!-- 0.84 -->
      <g transform="translate(24.844375 272.382101) scale(0.1 -0.1)">
       <use xlink:href="#DejaVuSans-30"/>
       <use xlink:href="#DejaVuSans-2e" x="63.623047"/>
       <use xlink:href="#DejaVuSans-38" x="95.410156"/>
       <use xlink:href="#DejaVuSans-34" x="159.033203"/>
      </g>
     </g>
    </g>
    <g id="ytick_4">
     <g id="line2d_19">
      <path d="M 54.11 158.475029 
L 709.2 158.475029 
" clip-path="url(#pd875a060c5)" style="fill: none; stroke: #b0b0b0; stroke-width: 0.8; stroke-linecap: square"/>
     </g>
     <g id="line2d_20">
      <g>
       <use xlink:href="#m8648fcf374" x="54.11" y="158.475029" style="stroke: #000000; stroke-width: 0.8"/>
      </g>
     </g>
     <g id="text_11">
      <!-- 0.86 -->
      <g transform="translate(24.844375 162.274247) scale(0.1 -0.1)">
       <use xlink:href="#DejaVuSans-30"/>
       <use xlink:href="#DejaVuSans-2e" x="63.623047"/>
       <use xlink:href="#DejaVuSans-38" x="95.410156"/>
       <use xlink:href="#DejaVuSans-36" x="159.033203"/>
      </g>
     </g>
    </g>
    <g id="ytick_5">
     <g id="line2d_21">
      <path d="M 54.11 48.367175 
L 709.2 48.367175 
" clip-path="url(#pd875a060c5)" style="fill: none; stroke: #b0b0b0; stroke-width: 0.8; stroke-linecap: square"/>
     </g>
     <g id="line2d_22">
      <g>
       <use xlink:href="#m8648fcf374" x="54.11" y="48.367175" style="stroke: #000000; stroke-width: 0.8"/>
      </g>
     </g>
     <g id="text_12">
      <!-- 0.88 -->
      <g transform="translate(24.844375 52.166394) scale(0.1 -0.1)">
       <use xlink:href="#DejaVuSans-30"/>
       <use xlink:href="#DejaVuSans-2e" x="63.623047"/>
       <use xlink:href="#DejaVuSans-38" x="95.410156"/>
       <use xlink:href="#DejaVuSans-38" x="159.033203"/>
      </g>
     </g>
    </g>
    <g id="text_13">
     <!-- Metric Value -->
     <g transform="translate(18.764688 311.324844) rotate(-90) scale(0.1 -0.1)">
      <defs>
       <path id="DejaVuSans-4d" d="M 628 4666 
L 1569 4666 
L 2759 1491 
L 3956 4666 
L 4897 4666 
L 4897 0 
L 4281 0 
L 4281 4097 
L 3078 897 
L 2444 897 
L 1241 4097 
L 1241 0 
L 628 0 
L 628 4666 
z
" transform="scale(0.015625)"/>
       <path id="DejaVuSans-74" d="M 1172 4494 
L 1172 3500 
L 2356 3500 
L 2356 3053 
L 1172 3053 
L 1172 1153 
Q 1172 725 1289 603 
Q 1406 481 1766 481 
L 2356 481 
L 2356 0 
L 1766 0 
Q 1100 0 847 248 
Q 594 497 594 1153 
L 594 3053 
L 172 3053 
L 172 3500 
L 594 3500 
L 594 4494 
L 1172 4494 
z
" transform="scale(0.015625)"/>
       <path id="DejaVuSans-72" d="M 2631 2963 
Q 2534 3019 2420 3045 
Q 2306 3072 2169 3072 
Q 1681 3072 1420 2755 
Q 1159 2438 1159 1844 
L 1159 0 
L 581 0 
L 581 3500 
L 1159 3500 
L 1159 2956 
Q 1341 3275 1631 3429 
Q 1922 3584 2338 3584 
Q 2397 3584 2469 3576 
Q 2541 3569 2628 3553 
L 2631 2963 
z
" transform="scale(0.015625)"/>
       <path id="DejaVuSans-63" d="M 3122 3366 
L 3122 2828 
Q 2878 2963 2633 3030 
Q 2388 3097 2138 3097 
Q 1578 3097 1268 2742 
Q 959 2388 959 1747 
Q 959 1106 1268 751 
Q 1578 397 2138 397 
Q 2388 397 2633 464 
Q 2878 531 3122 666 
L 3122 134 
Q 2881 22 2623 -34 
Q 2366 -91 2075 -91 
Q 1284 -91 818 406 
Q 353 903 353 1747 
Q 353 2603 823 3093 
Q 1294 3584 2113 3584 
Q 2378 3584 2631 3529 
Q 2884 3475 3122 3366 
z
" transform="scale(0.015625)"/>
       <path id="DejaVuSans-20" transform="scale(0.015625)"/>
       <path id="DejaVuSans-56" d="M 1831 0 
L 50 4666 
L 709 4666 
L 2188 738 
L 3669 4666 
L 4325 4666 
L 2547 0 
L 1831 0 
z
" transform="scale(0.015625)"/>
       <path id="DejaVuSans-61" d="M 2194 1759 
Q 1497 1759 1228 1600 
Q 959 1441 959 1056 
Q 959 750 1161 570 
Q 1363 391 1709 391 
Q 2188 391 2477 730 
Q 2766 1069 2766 1631 
L 2766 1759 
L 2194 1759 
z
M 3341 1997 
L 3341 0 
L 2766 0 
L 2766 531 
Q 2569 213 2275 61 
Q 1981 -91 1556 -91 
Q 1019 -91 701 211 
Q 384 513 384 1019 
Q 384 1609 779 1909 
Q 1175 2209 1959 2209 
L 2766 2209 
L 2766 2266 
Q 2766 2663 2505 2880 
Q 2244 3097 1772 3097 
Q 1472 3097 1187 3025 
Q 903 2953 641 2809 
L 641 3341 
Q 956 3463 1253 3523 
Q 1550 3584 1831 3584 
Q 2591 3584 2966 3190 
Q 3341 2797 3341 1997 
z
" transform="scale(0.015625)"/>
       <path id="DejaVuSans-6c" d="M 603 4863 
L 1178 4863 
L 1178 0 
L 603 0 
L 603 4863 
z
" transform="scale(0.015625)"/>
       <path id="DejaVuSans-75" d="M 544 1381 
L 544 3500 
L 1119 3500 
L 1119 1403 
Q 1119 906 1312 657 
Q 1506 409 1894 409 
Q 2359 409 2629 706 
Q 2900 1003 2900 1516 
L 2900 3500 
L 3475 3500 
L 3475 0 
L 2900 0 
L 2900 538 
Q 2691 219 2414 64 
Q 2138 -91 1772 -91 
Q 1169 -91 856 284 
Q 544 659 544 1381 
z
M 1991 3584 
L 1991 3584 
z
" transform="scale(0.015625)"/>
      </defs>
      <use xlink:href="#DejaVuSans-4d"/>
      <use xlink:href="#DejaVuSans-65" x="86.279297"/>
      <use xlink:href="#DejaVuSans-74" x="147.802734"/>
      <use xlink:href="#DejaVuSans-72" x="187.011719"/>
      <use xlink:href="#DejaVuSans-69" x="228.125"/>
      <use xlink:href="#DejaVuSans-63" x="255.908203"/>
      <use xlink:href="#DejaVuSans-20" x="310.888672"/>
      <use xlink:href="#DejaVuSans-56" x="342.675781"/>
      <use xlink:href="#DejaVuSans-61" x="403.333984"/>
      <use xlink:href="#DejaVuSans-6c" x="464.613281"/>
      <use xlink:href="#DejaVuSans-75" x="492.396484"/>
      <use xlink:href="#DejaVuSans-65" x="555.775391"/>
     </g>
    </g>
   </g>
   <g id="line2d_23">
    <path d="M 83.886818 483.180841 
L 86.283343 483.180841 
L 86.882474 286.559674 
L 89.278999 286.559674 
L 89.87813 221.019285 
L 92.274654 221.019285 
L 92.873785 188.249091 
L 95.27031 188.249091 
L 95.869441 82.916323 
L 98.265966 82.916323 
L 98.865097 75.894139 
L 101.261622 75.894139 
L 101.860753 68.871954 
L 104.257277 68.871954 
L 104.856408 61.84977 
L 679.423182 61.84977 
L 679.423182 61.84977 
" clip-path="url(#pd875a060c5)" style="fill: none; stroke: #1f77b4; stroke-width: 1.5; stroke-linecap: square"/>
   </g>
   <g id="patch_3">
    <path d="M 54.11 534.04 
L 54.11 26.88 
" style="fill: none; stroke: #000000; stroke-width: 0.8; stroke-linejoin: miter; stroke-linecap: square"/>
   </g>
   <g id="patch_4">
    <path d="M 709.2 534.04 
L 709.2 26.88 
" style="fill: none; stroke: #000000; stroke-width: 0.8; stroke-linejoin: miter; stroke-linecap: square"/>
   </g>
   <g id="patch_5">
    <path d="M 54.11 534.04 
L 709.2 534.04 
" style="fill: none; stroke: #000000; stroke-width: 0.8; stroke-linejoin: miter; stroke-linecap: square"/>
   </g>
   <g id="patch_6">
    <path d="M 54.11 26.88 
L 709.2 26.88 
" style="fill: none; stroke: #000000; stroke-width: 0.8; stroke-linejoin: miter; stroke-linecap: square"/>
   </g>
   <g id="text_14">
    <!-- Homophily Index Across Runs -->
    <g transform="translate(293.036875 20.88) scale(0.12 -0.12)">
     <defs>
      <path id="DejaVuSans-48" d="M 628 4666 
L 1259 4666 
L 1259 2753 
L 3553 2753 
L 3553 4666 
L 4184 4666 
L 4184 0 
L 3553 0 
L 3553 2222 
L 1259 2222 
L 1259 0 
L 628 0 
L 628 4666 
z
" transform="scale(0.015625)"/>
      <path id="DejaVuSans-6d" d="M 3328 2828 
Q 3544 3216 3844 3400 
Q 4144 3584 4550 3584 
Q 5097 3584 5394 3201 
Q 5691 2819 5691 2113 
L 5691 0 
L 5113 0 
L 5113 2094 
Q 5113 2597 4934 2840 
Q 4756 3084 4391 3084 
Q 3944 3084 3684 2787 
Q 3425 2491 3425 1978 
L 3425 0 
L 2847 0 
L 2847 2094 
Q 2847 2600 2669 2842 
Q 2491 3084 2119 3084 
Q 1678 3084 1418 2786 
Q 1159 2488 1159 1978 
L 1159 0 
L 581 0 
L 581 3500 
L 1159 3500 
L 1159 2956 
Q 1356 3278 1631 3431 
Q 1906 3584 2284 3584 
Q 2666 3584 2933 3390 
Q 3200 3197 3328 2828 
z
" transform="scale(0.015625)"/>
      <path id="DejaVuSans-68" d="M 3513 2113 
L 3513 0 
L 2938 0 
L 2938 2094 
Q 2938 2591 2744 2837 
Q 2550 3084 2163 3084 
Q 1697 3084 1428 2787 
Q 1159 2491 1159 1978 
L 1159 0 
L 581 0 
L 581 4863 
L 1159 4863 
L 1159 2956 
Q 1366 3272 1645 3428 
Q 1925 3584 2291 3584 
Q 2894 3584 3203 3211 
Q 3513 2838 3513 2113 
z
" transform="scale(0.015625)"/>
      <path id="DejaVuSans-79" d="M 2059 -325 
Q 1816 -950 1584 -1140 
Q 1353 -1331 966 -1331 
L 506 -1331 
L 506 -850 
L 844 -850 
Q 1081 -850 1212 -737 
Q 1344 -625 1503 -206 
L 1606 56 
L 191 3500 
L 800 3500 
L 1894 763 
L 2988 3500 
L 3597 3500 
L 2059 -325 
z
" transform="scale(0.015625)"/>
      <path id="DejaVuSans-49" d="M 628 4666 
L 1259 4666 
L 1259 0 
L 628 0 
L 628 4666 
z
" transform="scale(0.015625)"/>
      <path id="DejaVuSans-6e" d="M 3513 2113 
L 3513 0 
L 2938 0 
L 2938 2094 
Q 2938 2591 2744 2837 
Q 2550 3084 2163 3084 
Q 1697 3084 1428 2787 
Q 1159 2491 1159 1978 
L 1159 0 
L 581 0 
L 581 3500 
L 1159 3500 
L 1159 2956 
Q 1366 3272 1645 3428 
Q 1925 3584 2291 3584 
Q 2894 3584 3203 3211 
Q 3513 2838 3513 2113 
z
" transform="scale(0.015625)"/>
      <path id="DejaVuSans-78" d="M 3513 3500 
L 2247 1797 
L 3578 0 
L 2900 0 
L 1881 1375 
L 863 0 
L 184 0 
L 1544 1831 
L 300 3500 
L 978 3500 
L 1906 2253 
L 2834 3500 
L 3513 3500 
z
" transform="scale(0.015625)"/>
      <path id="DejaVuSans-41" d="M 2188 4044 
L 1331 1722 
L 3047 1722 
L 2188 4044 
z
M 1831 4666 
L 2547 4666 
L 4325 0 
L 3669 0 
L 3244 1197 
L 1141 1197 
L 716 0 
L 50 0 
L 1831 4666 
z
" transform="scale(0.015625)"/>
      <path id="DejaVuSans-52" d="M 2841 2188 
Q 3044 2119 3236 1894 
Q 3428 1669 3622 1275 
L 4263 0 
L 3584 0 
L 2988 1197 
Q 2756 1666 2539 1819 
Q 2322 1972 1947 1972 
L 1259 1972 
L 1259 0 
L 628 0 
L 628 4666 
L 2053 4666 
Q 2853 4666 3247 4331 
Q 3641 3997 3641 3322 
Q 3641 2881 3436 2590 
Q 3231 2300 2841 2188 
z
M 1259 4147 
L 1259 2491 
L 2053 2491 
Q 2509 2491 2742 2702 
Q 2975 2913 2975 3322 
Q 2975 3731 2742 3939 
Q 2509 4147 2053 4147 
L 1259 4147 
z
" transform="scale(0.015625)"/>
     </defs>
     <use xlink:href="#DejaVuSans-48"/>
     <use xlink:href="#DejaVuSans-6f" x="75.195312"/>
     <use xlink:href="#DejaVuSans-6d" x="136.376953"/>
     <use xlink:href="#DejaVuSans-6f" x="233.789062"/>
     <use xlink:href="#DejaVuSans-70" x="294.970703"/>
     <use xlink:href="#DejaVuSans-68" x="358.447266"/>
     <use xlink:href="#DejaVuSans-69" x="421.826172"/>
     <use xlink:href="#DejaVuSans-6c" x="449.609375"/>
     <use xlink:href="#DejaVuSans-79" x="477.392578"/>
     <use xlink:href="#DejaVuSans-20" x="536.572266"/>
     <use xlink:href="#DejaVuSans-49" x="568.359375"/>
     <use xlink:href="#DejaVuSans-6e" x="597.851562"/>
     <use xlink:href="#DejaVuSans-64" x="661.230469"/>
     <use xlink:href="#DejaVuSans-65" x="724.707031"/>
     <use xlink:href="#DejaVuSans-78" x="784.480469"/>
     <use xlink:href="#DejaVuSans-20" x="843.660156"/>
     <use xlink:href="#DejaVuSans-41" x="875.447266"/>
     <use xlink:href="#DejaVuSans-63" x="942.105469"/>
     <use xlink:href="#DejaVuSans-72" x="997.085938"/>
     <use xlink:href="#DejaVuSans-6f" x="1035.949219"/>
     <use xlink:href="#DejaVuSans-73" x="1097.130859"/>
     <use xlink:href="#DejaVuSans-73" x="1149.230469"/>
     <use xlink:href="#DejaVuSans-20" x="1201.330078"/>
     <use xlink:href="#DejaVuSans-52" x="1233.117188"/>
     <use xlink:href="#DejaVuSans-75" x="1298.099609"/>
     <use xlink:href="#DejaVuSans-6e" x="1361.478516"/>
     <use xlink:href="#DejaVuSans-73" x="1424.857422"/>
    </g>
   </g>
  </g>
 </g>
 <defs>
  <clipPath id="pd875a060c5">
   <rect x="54.11" y="26.88" width="655.09" height="507.16"/>
  </clipPath>
 </defs>
</svg>
