<?xml version="1.0" encoding="utf-8" standalone="no"?>
<!DOCTYPE svg PUBLIC "-//W3C//DTD SVG 1.1//EN"
  "http://www.w3.org/Graphics/SVG/1.1/DTD/svg11.dtd">
<svg xmlns:xlink="http://www.w3.org/1999/xlink" width="720pt" height="576pt" viewBox="0 0 720 576" xmlns="http://www.w3.org/2000/svg" version="1.1">
 <metadata>
  <rdf:RDF xmlns:dc="http://purl.org/dc/elements/1.1/" xmlns:cc="http://creativecommons.org/ns#" xmlns:rdf="http://www.w3.org/1999/02/22-rdf-syntax-ns#">
   <cc:Work>
    <dc:type rdf:resource="http://purl.org/dc/dcmitype/StillImage"/>
    <dc:date>2024-10-29T18:23:07.439672</dc:date>
    <dc:format>image/svg+xml</dc:format>
    <dc:creator>
     <cc:Agent>
      <dc:title>Matplotlib v3.9.2, https://matplotlib.org/</dc:title>
     </cc:Agent>
    </dc:creator>
   </cc:Work>
  </rdf:RDF>
 </metadata>
 <defs>
  <style type="text/css">*{stroke-linejoin: round; stroke-linecap: butt}</style>
 </defs>
 <g id="figure_1">
  <g id="patch_1">
   <path d="M 0 576 
L 720 576 
L 720 0 
L 0 0 
z
" style="fill: #ffffff"/>
  </g>
  <g id="axes_1">
   <g id="patch_2">
    <path d="M 54.02 534.04 
L 709.2 534.04 
L 709.2 26.88 
L 54.02 26.88 
z
" style="fill: #ffffff"/>
   </g>
   <g id="PolyCollection_1">
    <path d="M 83.800909 446.737561 
L 83.800909 510.987273 
L 84.397721 490.936715 
L 84.994533 466.950595 
L 85.591345 441.543387 
L 86.188156 420.218182 
L 86.784968 402.223023 
L 87.38178 384.871634 
L 87.978592 368.297061 
L 88.575404 353.369761 
L 89.172215 339.711906 
L 89.769027 327.141529 
L 90.365839 315.566967 
L 90.962651 304.929791 
L 91.559463 295.091685 
L 92.156274 286.045328 
L 92.753086 277.762305 
L 93.349898 270.081485 
L 93.94671 262.938074 
L 94.543522 256.255907 
L 95.140333 250.025036 
L 95.737145 230.71637 
L 96.333957 213.199216 
L 96.930769 198.091117 
L 97.527581 185.500513 
L 98.124392 174.292872 
L 98.721204 164.088815 
L 99.318016 155.344094 
L 99.914828 147.911977 
L 100.51164 141.302244 
L 101.108451 135.450332 
L 101.705263 130.2769 
L 102.302075 125.67702 
L 102.898887 121.545273 
L 103.495699 117.841679 
L 104.09251 114.456821 
L 104.689322 111.293818 
L 105.286134 108.380471 
L 105.882946 105.692143 
L 106.479758 103.218058 
L 107.07657 100.912865 
L 107.673381 98.893168 
L 108.270193 97.032632 
L 108.867005 95.313086 
L 109.463817 93.715152 
L 110.060629 92.212078 
L 110.65744 90.794058 
L 111.254252 89.448578 
L 111.851064 88.178734 
L 112.447876 86.968166 
L 113.044688 85.827586 
L 113.641499 84.74242 
L 114.238311 83.713057 
L 114.835123 82.732108 
L 115.431935 81.799819 
L 116.028747 80.911714 
L 116.625558 80.068897 
L 117.22237 79.269302 
L 117.819182 78.505235 
L 118.415994 77.781009 
L 119.012806 77.083397 
L 119.609617 76.422302 
L 120.206429 75.794859 
L 120.803241 75.193804 
L 121.400053 74.618146 
L 121.996865 74.069815 
L 122.593676 73.549646 
L 123.190488 73.058065 
L 123.7873 72.588068 
L 124.384112 72.138867 
L 124.980924 71.706236 
L 125.577735 71.29436 
L 126.174547 70.900364 
L 126.771359 70.526069 
L 127.368171 70.168488 
L 127.964983 69.82781 
L 128.561794 69.504353 
L 129.158606 69.195238 
L 129.755418 68.900301 
L 130.35223 68.619279 
L 130.949042 68.351828 
L 131.545854 68.095143 
L 132.142665 67.851963 
L 132.739477 67.620337 
L 133.336289 67.400034 
L 133.933101 67.187902 
L 134.529913 66.986506 
L 135.126724 66.79259 
L 135.723536 66.607588 
L 136.320348 66.430728 
L 136.91716 66.262103 
L 137.513972 66.101578 
L 138.110783 65.948566 
L 138.707595 65.803095 
L 139.304407 65.663889 
L 139.901219 65.530832 
L 140.498031 65.403464 
L 141.094842 65.281671 
L 141.691654 65.165825 
L 142.288466 65.054709 
L 142.885278 64.94805 
L 143.48209 64.846531 
L 144.078901 64.749262 
L 144.675713 64.656452 
L 145.272525 64.567961 
L 145.869337 64.483693 
L 146.466149 64.403058 
L 147.06296 64.326265 
L 147.659772 64.252733 
L 148.256584 64.1826 
L 148.853396 64.11579 
L 149.450208 64.051958 
L 150.047019 63.99099 
L 150.643831 63.93273 
L 151.240643 63.877378 
L 151.837455 63.824314 
L 152.434267 63.773552 
L 153.031079 63.724913 
L 153.62789 63.678673 
L 154.224702 63.634552 
L 154.821514 63.592479 
L 155.418326 63.552491 
L 156.015138 63.514298 
L 156.611949 63.477944 
L 157.208761 63.443234 
L 157.805573 63.410195 
L 158.402385 63.37856 
L 158.999197 63.34841 
L 159.596008 63.319804 
L 160.19282 63.292614 
L 160.789632 63.266679 
L 161.386444 63.241926 
L 161.983256 63.218377 
L 162.580067 63.195818 
L 163.176879 63.174283 
L 163.773691 63.153876 
L 164.370503 63.134466 
L 164.967315 63.115997 
L 165.564126 63.098339 
L 166.160938 63.08145 
L 166.75775 63.065419 
L 167.354562 63.050129 
L 167.951374 63.035559 
L 168.548185 63.021628 
L 169.144997 63.00835 
L 169.741809 62.995684 
L 170.338621 62.983579 
L 170.935433 62.972023 
L 171.532244 62.960989 
L 172.129056 62.950412 
L 172.725868 62.940341 
L 173.32268 62.930742 
L 173.919492 62.921608 
L 174.516304 62.912867 
L 175.113115 62.904518 
L 175.709927 62.896538 
L 176.306739 62.888944 
L 176.903551 62.881696 
L 177.500363 62.874769 
L 178.097174 62.868176 
L 178.693986 62.861863 
L 179.290798 62.855848 
L 179.88761 62.85012 
L 180.484422 62.844692 
L 181.081233 62.839498 
L 181.678045 62.834544 
L 182.274857 62.829814 
L 182.871669 62.82532 
L 183.468481 62.821047 
L 184.065292 62.816963 
L 184.662104 62.813061 
L 185.258916 62.809329 
L 185.855728 62.805763 
L 186.45254 62.802371 
L 187.049351 62.799127 
L 187.646163 62.796027 
L 188.242975 62.793069 
L 188.839787 62.790249 
L 189.436599 62.787558 
L 190.03341 62.785001 
L 190.630222 62.782573 
L 191.227034 62.78026 
L 191.823846 62.77805 
L 192.420658 62.775938 
L 193.017469 62.773917 
L 193.614281 62.771989 
L 194.211093 62.770149 
L 194.807905 62.768396 
L 195.404717 62.766717 
L 196.001529 62.765115 
L 196.59834 62.763593 
L 197.195152 62.762146 
L 197.791964 62.760763 
L 198.388776 62.759438 
L 198.985588 62.758177 
L 199.582399 62.756975 
L 200.179211 62.755828 
L 200.776023 62.754729 
L 201.372835 62.753677 
L 201.969647 62.752673 
L 202.566458 62.75171 
L 203.16327 62.750789 
L 203.760082 62.749907 
L 204.356894 62.749068 
L 204.953706 62.748267 
L 205.550517 62.747503 
L 206.147329 62.746776 
L 206.744141 62.746081 
L 207.340953 62.745419 
L 207.937765 62.744786 
L 208.534576 62.74418 
L 209.131388 62.743603 
L 209.7282 62.743051 
L 210.325012 62.742525 
L 210.921824 62.742023 
L 211.518635 62.741545 
L 212.115447 62.74109 
L 212.712259 62.740658 
L 213.309071 62.740248 
L 213.905883 62.739854 
L 214.502694 62.739479 
L 215.099506 62.739122 
L 215.696318 62.738783 
L 216.29313 62.738459 
L 216.889942 62.73815 
L 217.486754 62.737855 
L 218.083565 62.737574 
L 218.680377 62.737306 
L 219.277189 62.737051 
L 219.874001 62.736808 
L 220.470813 62.736575 
L 221.067624 62.736354 
L 221.664436 62.736142 
L 222.261248 62.73594 
L 222.85806 62.735746 
L 223.454872 62.735562 
L 224.051683 62.735385 
L 224.648495 62.735216 
L 225.245307 62.735054 
L 225.842119 62.734899 
L 226.438931 62.734752 
L 227.035742 62.73461 
L 227.632554 62.734475 
L 228.229366 62.734347 
L 228.826178 62.734225 
L 229.42299 62.734108 
L 230.019801 62.733997 
L 230.616613 62.73389 
L 231.213425 62.733789 
L 231.810237 62.733692 
L 232.407049 62.733599 
L 233.00386 62.73351 
L 233.600672 62.733426 
L 234.197484 62.733345 
L 234.794296 62.733268 
L 235.391108 62.733195 
L 235.987919 62.733125 
L 236.584731 62.733058 
L 237.181543 62.732994 
L 237.778355 62.732933 
L 238.375167 62.732875 
L 238.971979 62.732819 
L 239.56879 62.732766 
L 240.165602 62.732715 
L 240.762414 62.732666 
L 241.359226 62.73262 
L 241.956038 62.732576 
L 242.552849 62.732533 
L 243.149661 62.732493 
L 243.746473 62.732454 
L 244.343285 62.732417 
L 244.940097 62.732382 
L 245.536908 62.732348 
L 246.13372 62.732316 
L 246.730532 62.732286 
L 247.327344 62.732256 
L 247.924156 62.732228 
L 248.520967 62.732202 
L 249.117779 62.732176 
L 249.714591 62.732152 
L 250.311403 62.732129 
L 250.908215 62.732106 
L 251.505026 62.732085 
L 252.101838 62.732065 
L 252.69865 62.732046 
L 253.295462 62.732028 
L 253.892274 62.73201 
L 254.489085 62.731993 
L 255.085897 62.731977 
L 255.682709 62.731962 
L 256.279521 62.731948 
L 256.876333 62.731934 
L 257.473144 62.73192 
L 258.069956 62.731908 
L 258.666768 62.731895 
L 259.26358 62.731884 
L 259.860392 62.731873 
L 260.457203 62.731862 
L 261.054015 62.731852 
L 261.650827 62.731842 
L 262.247639 62.731833 
L 262.844451 62.731824 
L 263.441263 62.731815 
L 264.038074 62.731807 
L 264.634886 62.7318 
L 265.231698 62.731792 
L 265.82851 62.731785 
L 266.425322 62.731778 
L 267.022133 62.731772 
L 267.618945 62.731766 
L 268.215757 62.73176 
L 268.812569 62.731754 
L 269.409381 62.731749 
L 270.006192 62.731744 
L 270.603004 62.731739 
L 271.199816 62.731734 
L 271.796628 62.73173 
L 272.39344 62.731726 
L 272.990251 62.731721 
L 273.587063 62.731718 
L 274.183875 62.731714 
L 274.780687 62.73171 
L 275.377499 62.731707 
L 275.97431 62.731704 
L 276.571122 62.731701 
L 277.167934 62.731698 
L 277.764746 62.731695 
L 278.361558 62.731692 
L 278.958369 62.73169 
L 279.555181 62.731687 
L 280.151993 62.731685 
L 280.748805 62.731683 
L 281.345617 62.731681 
L 281.942428 62.731679 
L 282.53924 62.731677 
L 283.136052 62.731675 
L 283.732864 62.731673 
L 284.329676 62.731671 
L 284.926488 62.73167 
L 285.523299 62.731668 
L 286.120111 62.731667 
L 286.716923 62.731665 
L 287.313735 62.731664 
L 287.910547 62.731663 
L 288.507358 62.731662 
L 289.10417 62.73166 
L 289.700982 62.731659 
L 290.297794 62.731658 
L 290.894606 62.731657 
L 291.491417 62.731656 
L 292.088229 62.731655 
L 292.685041 62.731654 
L 293.281853 62.731654 
L 293.878665 62.731653 
L 294.475476 62.731652 
L 295.072288 62.731651 
L 295.6691 62.731651 
L 296.265912 62.73165 
L 296.862724 62.731649 
L 297.459535 62.731649 
L 298.056347 62.731648 
L 298.653159 62.731647 
L 299.249971 62.731647 
L 299.846783 62.731646 
L 300.443594 62.731646 
L 301.040406 62.731645 
L 301.637218 62.731645 
L 302.23403 62.731645 
L 302.830842 62.731644 
L 303.427653 62.731644 
L 304.024465 62.731643 
L 304.621277 62.731643 
L 305.218089 62.731643 
L 305.814901 62.731642 
L 306.411713 62.731642 
L 307.008524 62.731642 
L 307.605336 62.731641 
L 308.202148 62.731641 
L 308.79896 62.731641 
L 309.395772 62.731641 
L 309.992583 62.73164 
L 310.589395 62.73164 
L 311.186207 62.73164 
L 311.783019 62.73164 
L 312.379831 62.73164 
L 312.976642 62.731639 
L 313.573454 62.731639 
L 314.170266 62.731639 
L 314.767078 62.731639 
L 315.36389 62.731639 
L 315.960701 62.731639 
L 316.557513 62.731638 
L 317.154325 62.731638 
L 317.751137 62.731638 
L 318.347949 62.731638 
L 318.94476 62.731638 
L 319.541572 62.731638 
L 320.138384 62.731638 
L 320.735196 62.731638 
L 321.332008 62.731637 
L 321.928819 62.731637 
L 322.525631 62.731637 
L 323.122443 62.731637 
L 323.719255 62.731637 
L 324.316067 62.731637 
L 324.912878 62.731637 
L 325.50969 62.731637 
L 326.106502 62.731637 
L 326.703314 62.731637 
L 327.300126 62.731637 
L 327.896938 62.731637 
L 328.493749 62.731637 
L 329.090561 62.731637 
L 329.687373 62.731636 
L 330.284185 62.731636 
L 330.880997 62.731636 
L 331.477808 62.731636 
L 332.07462 62.731636 
L 332.671432 62.731636 
L 333.268244 62.731636 
L 333.865056 62.731636 
L 334.461867 62.731636 
L 335.058679 62.731636 
L 335.655491 62.731636 
L 336.252303 62.731636 
L 336.849115 62.731636 
L 337.445926 62.731636 
L 338.042738 62.731636 
L 338.63955 62.731636 
L 339.236362 62.731636 
L 339.833174 62.731636 
L 340.429985 62.731636 
L 341.026797 62.731636 
L 341.623609 62.731636 
L 342.220421 62.731636 
L 342.817233 62.731636 
L 343.414044 62.731636 
L 344.010856 62.731636 
L 344.607668 62.731636 
L 345.20448 62.731636 
L 345.801292 62.731636 
L 346.398103 62.731636 
L 346.994915 62.731636 
L 347.591727 62.731636 
L 348.188539 62.731636 
L 348.785351 62.731636 
L 349.382163 62.731636 
L 349.978974 62.731636 
L 350.575786 62.731636 
L 351.172598 62.731636 
L 351.76941 62.731636 
L 352.366222 62.731636 
L 352.963033 62.731636 
L 353.559845 62.731636 
L 354.156657 62.731636 
L 354.753469 62.731636 
L 355.350281 62.731636 
L 355.947092 62.731636 
L 356.543904 62.731636 
L 357.140716 62.731635 
L 357.737528 62.731635 
L 358.33434 62.731635 
L 358.931151 62.731635 
L 359.527963 62.731635 
L 360.124775 62.731635 
L 360.721587 62.731635 
L 361.318399 62.731635 
L 361.91521 62.731635 
L 362.512022 62.731635 
L 363.108834 62.731635 
L 363.705646 62.731635 
L 364.302458 62.731635 
L 364.899269 62.731635 
L 365.496081 62.731635 
L 366.092893 62.731635 
L 366.689705 62.731635 
L 367.286517 62.731635 
L 367.883328 62.731635 
L 368.48014 62.731635 
L 369.076952 62.731635 
L 369.673764 62.731635 
L 370.270576 62.731635 
L 370.867388 62.731635 
L 371.464199 62.731635 
L 372.061011 62.731635 
L 372.657823 62.731635 
L 373.254635 62.731635 
L 373.851447 62.731635 
L 374.448258 62.731635 
L 375.04507 62.731635 
L 375.641882 62.731635 
L 376.238694 62.731635 
L 376.835506 62.731635 
L 377.432317 62.731635 
L 378.029129 62.731635 
L 378.625941 62.731635 
L 379.222753 62.731635 
L 379.819565 62.731635 
L 380.416376 62.731635 
L 381.013188 62.731635 
L 381.61 62.731635 
L 382.206812 62.731635 
L 382.803624 62.731635 
L 383.400435 62.731635 
L 383.997247 62.731635 
L 384.594059 62.731635 
L 385.190871 62.731635 
L 385.787683 62.731635 
L 386.384494 62.731635 
L 386.981306 62.731635 
L 387.578118 62.731635 
L 388.17493 62.731635 
L 388.771742 62.731635 
L 389.368553 62.731635 
L 389.965365 62.731635 
L 390.562177 62.731635 
L 391.158989 62.731635 
L 391.755801 62.731635 
L 392.352612 62.731635 
L 392.949424 62.731635 
L 393.546236 62.731635 
L 394.143048 62.731635 
L 394.73986 62.731635 
L 395.336672 62.731635 
L 395.933483 62.731635 
L 396.530295 62.731635 
L 397.127107 62.731635 
L 397.723919 62.731635 
L 398.320731 62.731635 
L 398.917542 62.731635 
L 399.514354 62.731635 
L 400.111166 62.731635 
L 400.707978 62.731635 
L 401.30479 62.731635 
L 401.901601 62.731635 
L 402.498413 62.731635 
L 403.095225 62.731635 
L 403.692037 62.731635 
L 404.288849 62.731635 
L 404.88566 62.731635 
L 405.482472 62.731635 
L 406.079284 62.731635 
L 406.676096 62.731635 
L 407.272908 62.731635 
L 407.869719 62.731635 
L 408.466531 62.731635 
L 409.063343 62.731635 
L 409.660155 62.731635 
L 410.256967 62.731635 
L 410.853778 62.731635 
L 411.45059 62.731635 
L 412.047402 62.731635 
L 412.644214 62.731635 
L 413.241026 62.731635 
L 413.837837 62.731635 
L 414.434649 62.731635 
L 415.031461 62.731635 
L 415.628273 62.731635 
L 416.225085 62.731635 
L 416.821897 62.731635 
L 417.418708 62.731635 
L 418.01552 62.731635 
L 418.612332 62.731635 
L 419.209144 62.731635 
L 419.805956 62.731635 
L 420.402767 62.731635 
L 420.999579 62.731635 
L 421.596391 62.731635 
L 422.193203 62.731635 
L 422.790015 62.731635 
L 423.386826 62.731635 
L 423.983638 62.731635 
L 424.58045 62.731635 
L 425.177262 62.731635 
L 425.774074 62.731635 
L 426.370885 62.731635 
L 426.967697 62.731635 
L 427.564509 62.731635 
L 428.161321 62.731635 
L 428.758133 62.731635 
L 429.354944 62.731635 
L 429.951756 62.731635 
L 430.548568 62.731635 
L 431.14538 62.731635 
L 431.742192 62.731635 
L 432.339003 62.731635 
L 432.935815 62.731635 
L 433.532627 62.731635 
L 434.129439 62.731635 
L 434.726251 62.731635 
L 435.323062 62.731635 
L 435.919874 62.731635 
L 436.516686 62.731635 
L 437.113498 62.731635 
L 437.71031 62.731635 
L 438.307122 62.731635 
L 438.903933 62.731635 
L 439.500745 62.731635 
L 440.097557 62.731635 
L 440.694369 62.731635 
L 441.291181 62.731635 
L 441.887992 62.731635 
L 442.484804 62.731635 
L 443.081616 62.731635 
L 443.678428 62.731635 
L 444.27524 62.731635 
L 444.872051 62.731635 
L 445.468863 62.731635 
L 446.065675 62.731635 
L 446.662487 62.731635 
L 447.259299 62.731635 
L 447.85611 62.731635 
L 448.452922 62.731635 
L 449.049734 62.731635 
L 449.646546 62.731635 
L 450.243358 62.731635 
L 450.840169 62.731635 
L 451.436981 62.731635 
L 452.033793 62.731635 
L 452.630605 62.731635 
L 453.227417 62.731635 
L 453.824228 62.731635 
L 454.42104 62.731635 
L 455.017852 62.731635 
L 455.614664 62.731635 
L 456.211476 62.731635 
L 456.808287 62.731635 
L 457.405099 62.731635 
L 458.001911 62.731635 
L 458.598723 62.731635 
L 459.195535 62.731635 
L 459.792347 62.731635 
L 460.389158 62.731635 
L 460.98597 62.731635 
L 461.582782 62.731635 
L 462.179594 62.731635 
L 462.776406 62.731635 
L 463.373217 62.731635 
L 463.970029 62.731635 
L 464.566841 62.731635 
L 465.163653 62.731635 
L 465.760465 62.731635 
L 466.357276 62.731635 
L 466.954088 62.731635 
L 467.5509 62.731635 
L 468.147712 62.731635 
L 468.744524 62.731635 
L 469.341335 62.731635 
L 469.938147 62.731635 
L 470.534959 62.731635 
L 471.131771 62.731635 
L 471.728583 62.731635 
L 472.325394 62.731635 
L 472.922206 62.731635 
L 473.519018 62.731635 
L 474.11583 62.731635 
L 474.712642 62.731635 
L 475.309453 62.731635 
L 475.906265 62.731635 
L 476.503077 62.731635 
L 477.099889 62.731635 
L 477.696701 62.731635 
L 478.293512 62.731635 
L 478.890324 62.731635 
L 479.487136 62.731635 
L 480.083948 62.731635 
L 480.68076 62.731635 
L 481.277572 62.731635 
L 481.874383 62.731635 
L 482.471195 62.731635 
L 483.068007 62.731635 
L 483.664819 62.731635 
L 484.261631 62.731635 
L 484.858442 62.731635 
L 485.455254 62.731635 
L 486.052066 62.731635 
L 486.648878 62.731635 
L 487.24569 62.731635 
L 487.842501 62.731635 
L 488.439313 62.731635 
L 489.036125 62.731635 
L 489.632937 62.731635 
L 490.229749 62.731635 
L 490.82656 62.731635 
L 491.423372 62.731635 
L 492.020184 62.731635 
L 492.616996 62.731635 
L 493.213808 62.731635 
L 493.810619 62.731635 
L 494.407431 62.731635 
L 495.004243 62.731635 
L 495.601055 62.731635 
L 496.197867 62.731635 
L 496.794678 62.731635 
L 497.39149 62.731635 
L 497.988302 62.731635 
L 498.585114 62.731635 
L 499.181926 62.731635 
L 499.778737 62.731635 
L 500.375549 62.731635 
L 500.972361 62.731635 
L 501.569173 62.731635 
L 502.165985 62.731635 
L 502.762797 62.731635 
L 503.359608 62.731635 
L 503.95642 62.731635 
L 504.553232 62.731635 
L 505.150044 62.731635 
L 505.746856 62.731635 
L 506.343667 62.731635 
L 506.940479 62.731635 
L 507.537291 62.731635 
L 508.134103 62.731635 
L 508.730915 62.731635 
L 509.327726 62.731635 
L 509.924538 62.731635 
L 510.52135 62.731635 
L 511.118162 62.731635 
L 511.714974 62.731635 
L 512.311785 62.731635 
L 512.908597 62.731635 
L 513.505409 62.731635 
L 514.102221 62.731635 
L 514.699033 62.731635 
L 515.295844 62.731635 
L 515.892656 62.731635 
L 516.489468 62.731635 
L 517.08628 62.731635 
L 517.683092 62.731635 
L 518.279903 62.731635 
L 518.876715 62.731635 
L 519.473527 62.731635 
L 520.070339 62.731635 
L 520.667151 62.731635 
L 521.263962 62.731635 
L 521.860774 62.731635 
L 522.457586 62.731635 
L 523.054398 62.731635 
L 523.65121 62.731635 
L 524.248021 62.731635 
L 524.844833 62.731635 
L 525.441645 62.731635 
L 526.038457 62.731635 
L 526.635269 62.731635 
L 527.232081 62.731635 
L 527.828892 62.731635 
L 528.425704 62.731635 
L 529.022516 62.731635 
L 529.619328 62.731635 
L 530.21614 62.731635 
L 530.812951 62.731635 
L 531.409763 62.731635 
L 532.006575 62.731635 
L 532.603387 62.731635 
L 533.200199 62.731635 
L 533.79701 62.731635 
L 534.393822 62.731635 
L 534.990634 62.731635 
L 535.587446 62.731635 
L 536.184258 62.731635 
L 536.781069 62.731635 
L 537.377881 62.731635 
L 537.974693 62.731635 
L 538.571505 62.731635 
L 539.168317 62.731635 
L 539.765128 62.731635 
L 540.36194 62.731635 
L 540.958752 62.731635 
L 541.555564 62.731635 
L 542.152376 62.731635 
L 542.749187 62.731635 
L 543.345999 62.731635 
L 543.942811 62.731635 
L 544.539623 62.731635 
L 545.136435 62.731635 
L 545.733246 62.731635 
L 546.330058 62.731635 
L 546.92687 62.731635 
L 547.523682 62.731635 
L 548.120494 62.731635 
L 548.717306 62.731635 
L 549.314117 62.731635 
L 549.910929 62.731635 
L 550.507741 62.731635 
L 551.104553 62.731635 
L 551.701365 62.731635 
L 552.298176 62.731635 
L 552.894988 62.731635 
L 553.4918 62.731635 
L 554.088612 62.731635 
L 554.685424 62.731635 
L 555.282235 62.731635 
L 555.879047 62.731635 
L 556.475859 62.731635 
L 557.072671 62.731635 
L 557.669483 62.731635 
L 558.266294 62.731635 
L 558.863106 62.731635 
L 559.459918 62.731635 
L 560.05673 62.731635 
L 560.653542 62.731635 
L 561.250353 62.731635 
L 561.847165 62.731635 
L 562.443977 62.731635 
L 563.040789 62.731635 
L 563.637601 62.731635 
L 564.234412 62.731635 
L 564.831224 62.731635 
L 565.428036 62.731635 
L 566.024848 62.731635 
L 566.62166 62.731635 
L 567.218471 62.731635 
L 567.815283 62.731635 
L 568.412095 62.731635 
L 569.008907 62.731635 
L 569.605719 62.731635 
L 570.202531 62.731635 
L 570.799342 62.731635 
L 571.396154 62.731635 
L 571.992966 62.731635 
L 572.589778 62.731635 
L 573.18659 62.731635 
L 573.783401 62.731635 
L 574.380213 62.731635 
L 574.977025 62.731635 
L 575.573837 62.731635 
L 576.170649 62.731635 
L 576.76746 62.731635 
L 577.364272 62.731635 
L 577.961084 62.731635 
L 578.557896 62.731635 
L 579.154708 62.731635 
L 579.751519 62.731635 
L 580.348331 62.731635 
L 580.945143 62.731635 
L 581.541955 62.731635 
L 582.138767 62.731635 
L 582.735578 62.731635 
L 583.33239 62.731635 
L 583.929202 62.731635 
L 584.526014 62.731635 
L 585.122826 62.731635 
L 585.719637 62.731635 
L 586.316449 62.731635 
L 586.913261 62.731635 
L 587.510073 62.731635 
L 588.106885 62.731635 
L 588.703696 62.731635 
L 589.300508 62.731635 
L 589.89732 62.731635 
L 590.494132 62.731635 
L 591.090944 62.731635 
L 591.687756 62.731635 
L 592.284567 62.731635 
L 592.881379 62.731635 
L 593.478191 62.731635 
L 594.075003 62.731635 
L 594.671815 62.731635 
L 595.268626 62.731635 
L 595.865438 62.731635 
L 596.46225 62.731635 
L 597.059062 62.731635 
L 597.655874 62.731635 
L 598.252685 62.731635 
L 598.849497 62.731635 
L 599.446309 62.731635 
L 600.043121 62.731635 
L 600.639933 62.731635 
L 601.236744 62.731635 
L 601.833556 62.731635 
L 602.430368 62.731635 
L 603.02718 62.731635 
L 603.623992 62.731635 
L 604.220803 62.731635 
L 604.817615 62.731635 
L 605.414427 62.731635 
L 606.011239 62.731635 
L 606.608051 62.731635 
L 607.204862 62.731635 
L 607.801674 62.731635 
L 608.398486 62.731635 
L 608.995298 62.731635 
L 609.59211 62.731635 
L 610.188921 62.731635 
L 610.785733 62.731635 
L 611.382545 62.731635 
L 611.979357 62.731635 
L 612.576169 62.731635 
L 613.172981 62.731635 
L 613.769792 62.731635 
L 614.366604 62.731635 
L 614.963416 62.731635 
L 615.560228 62.731635 
L 616.15704 62.731635 
L 616.753851 62.731635 
L 617.350663 62.731635 
L 617.947475 62.731635 
L 618.544287 62.731635 
L 619.141099 62.731635 
L 619.73791 62.731635 
L 620.334722 62.731635 
L 620.931534 62.731635 
L 621.528346 62.731635 
L 622.125158 62.731635 
L 622.721969 62.731635 
L 623.318781 62.731635 
L 623.915593 62.731635 
L 624.512405 62.731635 
L 625.109217 62.731635 
L 625.706028 62.731635 
L 626.30284 62.731635 
L 626.899652 62.731635 
L 627.496464 62.731635 
L 628.093276 62.731635 
L 628.690087 62.731635 
L 629.286899 62.731635 
L 629.883711 62.731635 
L 630.480523 62.731635 
L 631.077335 62.731635 
L 631.674146 62.731635 
L 632.270958 62.731635 
L 632.86777 62.731635 
L 633.464582 62.731635 
L 634.061394 62.731635 
L 634.658206 62.731635 
L 635.255017 62.731635 
L 635.851829 62.731635 
L 636.448641 62.731635 
L 637.045453 62.731635 
L 637.642265 62.731635 
L 638.239076 62.731635 
L 638.835888 62.731635 
L 639.4327 62.731635 
L 640.029512 62.731635 
L 640.626324 62.731635 
L 641.223135 62.731635 
L 641.819947 62.731635 
L 642.416759 62.731635 
L 643.013571 62.731635 
L 643.610383 62.731635 
L 644.207194 62.731635 
L 644.804006 62.731635 
L 645.400818 62.731635 
L 645.99763 62.731635 
L 646.594442 62.731635 
L 647.191253 62.731635 
L 647.788065 62.731635 
L 648.384877 62.731635 
L 648.981689 62.731635 
L 649.578501 62.731635 
L 650.175312 62.731635 
L 650.772124 62.731635 
L 651.368936 62.731635 
L 651.965748 62.731635 
L 652.56256 62.731635 
L 653.159371 62.731635 
L 653.756183 62.731635 
L 654.352995 62.731635 
L 654.949807 62.731635 
L 655.546619 62.731635 
L 656.14343 62.731635 
L 656.740242 62.731635 
L 657.337054 62.731635 
L 657.933866 62.731635 
L 658.530678 62.731635 
L 659.12749 62.731635 
L 659.724301 62.731635 
L 660.321113 62.731635 
L 660.917925 62.731635 
L 661.514737 62.731635 
L 662.111549 62.731635 
L 662.70836 62.731635 
L 663.305172 62.731635 
L 663.901984 62.731635 
L 664.498796 62.731635 
L 665.095608 62.731635 
L 665.692419 62.731635 
L 666.289231 62.731635 
L 666.886043 62.731635 
L 667.482855 62.731635 
L 668.079667 62.731635 
L 668.676478 62.731635 
L 669.27329 62.731635 
L 669.870102 62.731635 
L 670.466914 62.731635 
L 671.063726 62.731635 
L 671.660537 62.731635 
L 672.257349 62.731635 
L 672.854161 62.731635 
L 673.450973 62.731635 
L 674.047785 62.731635 
L 674.644596 62.731635 
L 675.241408 62.731635 
L 675.83822 62.731635 
L 676.435032 62.731635 
L 677.031844 62.731635 
L 677.628655 62.731635 
L 678.225467 62.731635 
L 678.822279 62.731635 
L 679.419091 62.731635 
L 679.419091 49.932727 
L 679.419091 49.932727 
L 678.822279 49.932727 
L 678.225467 49.932727 
L 677.628655 49.932727 
L 677.031844 49.932727 
L 676.435032 49.932727 
L 675.83822 49.932727 
L 675.241408 49.932727 
L 674.644596 49.932727 
L 674.047785 49.932727 
L 673.450973 49.932727 
L 672.854161 49.932727 
L 672.257349 49.932727 
L 671.660537 49.932727 
L 671.063726 49.932727 
L 670.466914 49.932727 
L 669.870102 49.932727 
L 669.27329 49.932727 
L 668.676478 49.932727 
L 668.079667 49.932727 
L 667.482855 49.932727 
L 666.886043 49.932727 
L 666.289231 49.932727 
L 665.692419 49.932727 
L 665.095608 49.932727 
L 664.498796 49.932727 
L 663.901984 49.932727 
L 663.305172 49.932727 
L 662.70836 49.932727 
L 662.111549 49.932727 
L 661.514737 49.932727 
L 660.917925 49.932727 
L 660.321113 49.932727 
L 659.724301 49.932727 
L 659.12749 49.932727 
L 658.530678 49.932727 
L 657.933866 49.932727 
L 657.337054 49.932727 
L 656.740242 49.932727 
L 656.14343 49.932727 
L 655.546619 49.932727 
L 654.949807 49.932727 
L 654.352995 49.932727 
L 653.756183 49.932727 
L 653.159371 49.932727 
L 652.56256 49.932727 
L 651.965748 49.932727 
L 651.368936 49.932727 
L 650.772124 49.932727 
L 650.175312 49.932727 
L 649.578501 49.932727 
L 648.981689 49.932727 
L 648.384877 49.932727 
L 647.788065 49.932727 
L 647.191253 49.932727 
L 646.594442 49.932727 
L 645.99763 49.932727 
L 645.400818 49.932727 
L 644.804006 49.932727 
L 644.207194 49.932727 
L 643.610383 49.932727 
L 643.013571 49.932727 
L 642.416759 49.932727 
L 641.819947 49.932727 
L 641.223135 49.932727 
L 640.626324 49.932727 
L 640.029512 49.932727 
L 639.4327 49.932727 
L 638.835888 49.932727 
L 638.239076 49.932727 
L 637.642265 49.932727 
L 637.045453 49.932727 
L 636.448641 49.932727 
L 635.851829 49.932727 
L 635.255017 49.932727 
L 634.658206 49.932727 
L 634.061394 49.932727 
L 633.464582 49.932727 
L 632.86777 49.932727 
L 632.270958 49.932727 
L 631.674146 49.932727 
L 631.077335 49.932727 
L 630.480523 49.932727 
L 629.883711 49.932727 
L 629.286899 49.932727 
L 628.690087 49.932727 
L 628.093276 49.932727 
L 627.496464 49.932727 
L 626.899652 49.932727 
L 626.30284 49.932727 
L 625.706028 49.932727 
L 625.109217 49.932727 
L 624.512405 49.932727 
L 623.915593 49.932727 
L 623.318781 49.932727 
L 622.721969 49.932727 
L 622.125158 49.932727 
L 621.528346 49.932727 
L 620.931534 49.932727 
L 620.334722 49.932727 
L 619.73791 49.932727 
L 619.141099 49.932727 
L 618.544287 49.932727 
L 617.947475 49.932727 
L 617.350663 49.932727 
L 616.753851 49.932727 
L 616.15704 49.932727 
L 615.560228 49.932727 
L 614.963416 49.932727 
L 614.366604 49.932727 
L 613.769792 49.932727 
L 613.172981 49.932727 
L 612.576169 49.932727 
L 611.979357 49.932727 
L 611.382545 49.932727 
L 610.785733 49.932727 
L 610.188921 49.932727 
L 609.59211 49.932727 
L 608.995298 49.932727 
L 608.398486 49.932727 
L 607.801674 49.932727 
L 607.204862 49.932727 
L 606.608051 49.932727 
L 606.011239 49.932727 
L 605.414427 49.932727 
L 604.817615 49.932727 
L 604.220803 49.932727 
L 603.623992 49.932727 
L 603.02718 49.932727 
L 602.430368 49.932727 
L 601.833556 49.932727 
L 601.236744 49.932727 
L 600.639933 49.932727 
L 600.043121 49.932727 
L 599.446309 49.932727 
L 598.849497 49.932727 
L 598.252685 49.932727 
L 597.655874 49.932727 
L 597.059062 49.932727 
L 596.46225 49.932727 
L 595.865438 49.932727 
L 595.268626 49.932727 
L 594.671815 49.932727 
L 594.075003 49.932727 
L 593.478191 49.932727 
L 592.881379 49.932727 
L 592.284567 49.932727 
L 591.687756 49.932727 
L 591.090944 49.932727 
L 590.494132 49.932727 
L 589.89732 49.932727 
L 589.300508 49.932727 
L 588.703696 49.932727 
L 588.106885 49.932727 
L 587.510073 49.932727 
L 586.913261 49.932727 
L 586.316449 49.932727 
L 585.719637 49.932727 
L 585.122826 49.932727 
L 584.526014 49.932727 
L 583.929202 49.932727 
L 583.33239 49.932727 
L 582.735578 49.932727 
L 582.138767 49.932727 
L 581.541955 49.932727 
L 580.945143 49.932727 
L 580.348331 49.932727 
L 579.751519 49.932727 
L 579.154708 49.932727 
L 578.557896 49.932727 
L 577.961084 49.932727 
L 577.364272 49.932727 
L 576.76746 49.932727 
L 576.170649 49.932727 
L 575.573837 49.932727 
L 574.977025 49.932727 
L 574.380213 49.932727 
L 573.783401 49.932727 
L 573.18659 49.932727 
L 572.589778 49.932727 
L 571.992966 49.932727 
L 571.396154 49.932727 
L 570.799342 49.932727 
L 570.202531 49.932727 
L 569.605719 49.932727 
L 569.008907 49.932727 
L 568.412095 49.932727 
L 567.815283 49.932727 
L 567.218471 49.932727 
L 566.62166 49.932727 
L 566.024848 49.932727 
L 565.428036 49.932727 
L 564.831224 49.932727 
L 564.234412 49.932727 
L 563.637601 49.932727 
L 563.040789 49.932727 
L 562.443977 49.932727 
L 561.847165 49.932727 
L 561.250353 49.932727 
L 560.653542 49.932727 
L 560.05673 49.932727 
L 559.459918 49.932727 
L 558.863106 49.932727 
L 558.266294 49.932727 
L 557.669483 49.932727 
L 557.072671 49.932727 
L 556.475859 49.932727 
L 555.879047 49.932727 
L 555.282235 49.932727 
L 554.685424 49.932727 
L 554.088612 49.932727 
L 553.4918 49.932727 
L 552.894988 49.932727 
L 552.298176 49.932727 
L 551.701365 49.932727 
L 551.104553 49.932727 
L 550.507741 49.932727 
L 549.910929 49.932727 
L 549.314117 49.932727 
L 548.717306 49.932727 
L 548.120494 49.932727 
L 547.523682 49.932727 
L 546.92687 49.932727 
L 546.330058 49.932727 
L 545.733246 49.932727 
L 545.136435 49.932727 
L 544.539623 49.932727 
L 543.942811 49.932727 
L 543.345999 49.932727 
L 542.749187 49.932727 
L 542.152376 49.932727 
L 541.555564 49.932727 
L 540.958752 49.932727 
L 540.36194 49.932727 
L 539.765128 49.932727 
L 539.168317 49.932727 
L 538.571505 49.932727 
L 537.974693 49.932727 
L 537.377881 49.932727 
L 536.781069 49.932727 
L 536.184258 49.932727 
L 535.587446 49.932727 
L 534.990634 49.932727 
L 534.393822 49.932727 
L 533.79701 49.932727 
L 533.200199 49.932727 
L 532.603387 49.932727 
L 532.006575 49.932727 
L 531.409763 49.932727 
L 530.812951 49.932727 
L 530.21614 49.932727 
L 529.619328 49.932727 
L 529.022516 49.932727 
L 528.425704 49.932727 
L 527.828892 49.932727 
L 527.232081 49.932727 
L 526.635269 49.932727 
L 526.038457 49.932727 
L 525.441645 49.932727 
L 524.844833 49.932727 
L 524.248021 49.932727 
L 523.65121 49.932727 
L 523.054398 49.932727 
L 522.457586 49.932727 
L 521.860774 49.932727 
L 521.263962 49.932727 
L 520.667151 49.932727 
L 520.070339 49.932727 
L 519.473527 49.932727 
L 518.876715 49.932727 
L 518.279903 49.932727 
L 517.683092 49.932727 
L 517.08628 49.932727 
L 516.489468 49.932727 
L 515.892656 49.932727 
L 515.295844 49.932727 
L 514.699033 49.932727 
L 514.102221 49.932727 
L 513.505409 49.932727 
L 512.908597 49.932727 
L 512.311785 49.932727 
L 511.714974 49.932727 
L 511.118162 49.932727 
L 510.52135 49.932727 
L 509.924538 49.932727 
L 509.327726 49.932727 
L 508.730915 49.932727 
L 508.134103 49.932727 
L 507.537291 49.932727 
L 506.940479 49.932727 
L 506.343667 49.932727 
L 505.746856 49.932727 
L 505.150044 49.932727 
L 504.553232 49.932727 
L 503.95642 49.932727 
L 503.359608 49.932727 
L 502.762797 49.932727 
L 502.165985 49.932727 
L 501.569173 49.932727 
L 500.972361 49.932727 
L 500.375549 49.932727 
L 499.778737 49.932727 
L 499.181926 49.932727 
L 498.585114 49.932727 
L 497.988302 49.932727 
L 497.39149 49.932727 
L 496.794678 49.932727 
L 496.197867 49.932727 
L 495.601055 49.932727 
L 495.004243 49.932727 
L 494.407431 49.932727 
L 493.810619 49.932727 
L 493.213808 49.932727 
L 492.616996 49.932727 
L 492.020184 49.932727 
L 491.423372 49.932727 
L 490.82656 49.932727 
L 490.229749 49.932727 
L 489.632937 49.932727 
L 489.036125 49.932727 
L 488.439313 49.932727 
L 487.842501 49.932727 
L 487.24569 49.932727 
L 486.648878 49.932727 
L 486.052066 49.932727 
L 485.455254 49.932727 
L 484.858442 49.932727 
L 484.261631 49.932727 
L 483.664819 49.932727 
L 483.068007 49.932727 
L 482.471195 49.932727 
L 481.874383 49.932727 
L 481.277572 49.932727 
L 480.68076 49.932727 
L 480.083948 49.932727 
L 479.487136 49.932727 
L 478.890324 49.932727 
L 478.293512 49.932727 
L 477.696701 49.932727 
L 477.099889 49.932727 
L 476.503077 49.932727 
L 475.906265 49.932727 
L 475.309453 49.932727 
L 474.712642 49.932727 
L 474.11583 49.932727 
L 473.519018 49.932727 
L 472.922206 49.932727 
L 472.325394 49.932727 
L 471.728583 49.932727 
L 471.131771 49.932727 
L 470.534959 49.932727 
L 469.938147 49.932727 
L 469.341335 49.932727 
L 468.744524 49.932727 
L 468.147712 49.932727 
L 467.5509 49.932727 
L 466.954088 49.932727 
L 466.357276 49.932727 
L 465.760465 49.932727 
L 465.163653 49.932727 
L 464.566841 49.932727 
L 463.970029 49.932727 
L 463.373217 49.932727 
L 462.776406 49.932727 
L 462.179594 49.932727 
L 461.582782 49.932727 
L 460.98597 49.932727 
L 460.389158 49.932727 
L 459.792347 49.932727 
L 459.195535 49.932727 
L 458.598723 49.932727 
L 458.001911 49.932727 
L 457.405099 49.932727 
L 456.808287 49.932727 
L 456.211476 49.932727 
L 455.614664 49.932727 
L 455.017852 49.932727 
L 454.42104 49.932727 
L 453.824228 49.932727 
L 453.227417 49.932727 
L 452.630605 49.932727 
L 452.033793 49.932727 
L 451.436981 49.932727 
L 450.840169 49.932727 
L 450.243358 49.932727 
L 449.646546 49.932727 
L 449.049734 49.932727 
L 448.452922 49.932727 
L 447.85611 49.932727 
L 447.259299 49.932727 
L 446.662487 49.932727 
L 446.065675 49.932727 
L 445.468863 49.932727 
L 444.872051 49.932727 
L 444.27524 49.932727 
L 443.678428 49.932727 
L 443.081616 49.932727 
L 442.484804 49.932727 
L 441.887992 49.932727 
L 441.291181 49.932727 
L 440.694369 49.932727 
L 440.097557 49.932727 
L 439.500745 49.932727 
L 438.903933 49.932727 
L 438.307122 49.932727 
L 437.71031 49.932727 
L 437.113498 49.932727 
L 436.516686 49.932727 
L 435.919874 49.932727 
L 435.323062 49.932727 
L 434.726251 49.932727 
L 434.129439 49.932727 
L 433.532627 49.932727 
L 432.935815 49.932727 
L 432.339003 49.932727 
L 431.742192 49.932727 
L 431.14538 49.932727 
L 430.548568 49.932727 
L 429.951756 49.932727 
L 429.354944 49.932727 
L 428.758133 49.932727 
L 428.161321 49.932727 
L 427.564509 49.932727 
L 426.967697 49.932727 
L 426.370885 49.932727 
L 425.774074 49.932727 
L 425.177262 49.932727 
L 424.58045 49.932727 
L 423.983638 49.932727 
L 423.386826 49.932727 
L 422.790015 49.932727 
L 422.193203 49.932727 
L 421.596391 49.932727 
L 420.999579 49.932727 
L 420.402767 49.932727 
L 419.805956 49.932727 
L 419.209144 49.932727 
L 418.612332 49.932727 
L 418.01552 49.932727 
L 417.418708 49.932727 
L 416.821897 49.932727 
L 416.225085 49.932727 
L 415.628273 49.932727 
L 415.031461 49.932727 
L 414.434649 49.932727 
L 413.837837 49.932727 
L 413.241026 49.932727 
L 412.644214 49.932727 
L 412.047402 49.932727 
L 411.45059 49.932727 
L 410.853778 49.932727 
L 410.256967 49.932727 
L 409.660155 49.932727 
L 409.063343 49.932727 
L 408.466531 49.932727 
L 407.869719 49.932727 
L 407.272908 49.932727 
L 406.676096 49.932727 
L 406.079284 49.932727 
L 405.482472 49.932727 
L 404.88566 49.932727 
L 404.288849 49.932727 
L 403.692037 49.932727 
L 403.095225 49.932727 
L 402.498413 49.932727 
L 401.901601 49.932727 
L 401.30479 49.932727 
L 400.707978 49.932727 
L 400.111166 49.932727 
L 399.514354 49.932727 
L 398.917542 49.932727 
L 398.320731 49.932727 
L 397.723919 49.932727 
L 397.127107 49.932727 
L 396.530295 49.932727 
L 395.933483 49.932727 
L 395.336672 49.932727 
L 394.73986 49.932727 
L 394.143048 49.932727 
L 393.546236 49.932727 
L 392.949424 49.932727 
L 392.352612 49.932727 
L 391.755801 49.932727 
L 391.158989 49.932727 
L 390.562177 49.932727 
L 389.965365 49.932727 
L 389.368553 49.932727 
L 388.771742 49.932727 
L 388.17493 49.932727 
L 387.578118 49.932727 
L 386.981306 49.932727 
L 386.384494 49.932727 
L 385.787683 49.932727 
L 385.190871 49.932727 
L 384.594059 49.932727 
L 383.997247 49.932727 
L 383.400435 49.932727 
L 382.803624 49.932727 
L 382.206812 49.932727 
L 381.61 49.932727 
L 381.013188 49.932727 
L 380.416376 49.932727 
L 379.819565 49.932727 
L 379.222753 49.932727 
L 378.625941 49.932727 
L 378.029129 49.932727 
L 377.432317 49.932727 
L 376.835506 49.932727 
L 376.238694 49.932727 
L 375.641882 49.932727 
L 375.04507 49.932727 
L 374.448258 49.932727 
L 373.851447 49.932727 
L 373.254635 49.932727 
L 372.657823 49.932727 
L 372.061011 49.932727 
L 371.464199 49.932727 
L 370.867388 49.932727 
L 370.270576 49.932727 
L 369.673764 49.932727 
L 369.076952 49.932727 
L 368.48014 49.932727 
L 367.883328 49.932727 
L 367.286517 49.932727 
L 366.689705 49.932727 
L 366.092893 49.932727 
L 365.496081 49.932727 
L 364.899269 49.932727 
L 364.302458 49.932727 
L 363.705646 49.932727 
L 363.108834 49.932727 
L 362.512022 49.932727 
L 361.91521 49.932727 
L 361.318399 49.932727 
L 360.721587 49.932727 
L 360.124775 49.932727 
L 359.527963 49.932727 
L 358.931151 49.932727 
L 358.33434 49.932727 
L 357.737528 49.932727 
L 357.140716 49.932727 
L 356.543904 49.932727 
L 355.947092 49.932727 
L 355.350281 49.932727 
L 354.753469 49.932727 
L 354.156657 49.932727 
L 353.559845 49.932727 
L 352.963033 49.932728 
L 352.366222 49.932728 
L 351.76941 49.932728 
L 351.172598 49.932728 
L 350.575786 49.932728 
L 349.978974 49.932728 
L 349.382163 49.932728 
L 348.785351 49.932728 
L 348.188539 49.932728 
L 347.591727 49.932728 
L 346.994915 49.932728 
L 346.398103 49.932728 
L 345.801292 49.932728 
L 345.20448 49.932728 
L 344.607668 49.932728 
L 344.010856 49.932728 
L 343.414044 49.932728 
L 342.817233 49.932728 
L 342.220421 49.932728 
L 341.623609 49.932728 
L 341.026797 49.932728 
L 340.429985 49.932728 
L 339.833174 49.932728 
L 339.236362 49.932728 
L 338.63955 49.932728 
L 338.042738 49.932728 
L 337.445926 49.932728 
L 336.849115 49.932728 
L 336.252303 49.932728 
L 335.655491 49.932728 
L 335.058679 49.932728 
L 334.461867 49.932728 
L 333.865056 49.932728 
L 333.268244 49.932728 
L 332.671432 49.932728 
L 332.07462 49.932728 
L 331.477808 49.932728 
L 330.880997 49.932728 
L 330.284185 49.932729 
L 329.687373 49.932729 
L 329.090561 49.932729 
L 328.493749 49.932729 
L 327.896938 49.932729 
L 327.300126 49.932729 
L 326.703314 49.932729 
L 326.106502 49.932729 
L 325.50969 49.932729 
L 324.912878 49.932729 
L 324.316067 49.932729 
L 323.719255 49.932729 
L 323.122443 49.932729 
L 322.525631 49.93273 
L 321.928819 49.93273 
L 321.332008 49.93273 
L 320.735196 49.93273 
L 320.138384 49.93273 
L 319.541572 49.93273 
L 318.94476 49.93273 
L 318.347949 49.93273 
L 317.751137 49.932731 
L 317.154325 49.932731 
L 316.557513 49.932731 
L 315.960701 49.932731 
L 315.36389 49.932731 
L 314.767078 49.932731 
L 314.170266 49.932732 
L 313.573454 49.932732 
L 312.976642 49.932732 
L 312.379831 49.932732 
L 311.783019 49.932732 
L 311.186207 49.932733 
L 310.589395 49.932733 
L 309.992583 49.932733 
L 309.395772 49.932733 
L 308.79896 49.932734 
L 308.202148 49.932734 
L 307.605336 49.932734 
L 307.008524 49.932735 
L 306.411713 49.932735 
L 305.814901 49.932735 
L 305.218089 49.932736 
L 304.621277 49.932736 
L 304.024465 49.932736 
L 303.427653 49.932737 
L 302.830842 49.932737 
L 302.23403 49.932738 
L 301.637218 49.932738 
L 301.040406 49.932739 
L 300.443594 49.932739 
L 299.846783 49.93274 
L 299.249971 49.93274 
L 298.653159 49.932741 
L 298.056347 49.932742 
L 297.459535 49.932742 
L 296.862724 49.932743 
L 296.265912 49.932744 
L 295.6691 49.932745 
L 295.072288 49.932745 
L 294.475476 49.932746 
L 293.878665 49.932747 
L 293.281853 49.932748 
L 292.685041 49.932749 
L 292.088229 49.93275 
L 291.491417 49.932751 
L 290.894606 49.932752 
L 290.297794 49.932753 
L 289.700982 49.932754 
L 289.10417 49.932756 
L 288.507358 49.932757 
L 287.910547 49.932758 
L 287.313735 49.93276 
L 286.716923 49.932761 
L 286.120111 49.932763 
L 285.523299 49.932764 
L 284.926488 49.932766 
L 284.329676 49.932768 
L 283.732864 49.93277 
L 283.136052 49.932772 
L 282.53924 49.932774 
L 281.942428 49.932776 
L 281.345617 49.932778 
L 280.748805 49.93278 
L 280.151993 49.932783 
L 279.555181 49.932785 
L 278.958369 49.932788 
L 278.361558 49.932791 
L 277.764746 49.932794 
L 277.167934 49.932797 
L 276.571122 49.9328 
L 275.97431 49.932804 
L 275.377499 49.932807 
L 274.780687 49.932811 
L 274.183875 49.932815 
L 273.587063 49.932819 
L 272.990251 49.932823 
L 272.39344 49.932828 
L 271.796628 49.932832 
L 271.199816 49.932837 
L 270.603004 49.932842 
L 270.006192 49.932848 
L 269.409381 49.932853 
L 268.812569 49.932859 
L 268.215757 49.932865 
L 267.618945 49.932872 
L 267.022133 49.932879 
L 266.425322 49.932886 
L 265.82851 49.932893 
L 265.231698 49.932901 
L 264.634886 49.932909 
L 264.038074 49.932917 
L 263.441263 49.932926 
L 262.844451 49.932935 
L 262.247639 49.932945 
L 261.650827 49.932955 
L 261.054015 49.932966 
L 260.457203 49.932977 
L 259.860392 49.932989 
L 259.26358 49.933001 
L 258.666768 49.933013 
L 258.069956 49.933027 
L 257.473144 49.93304 
L 256.876333 49.933055 
L 256.279521 49.93307 
L 255.682709 49.933086 
L 255.085897 49.933103 
L 254.489085 49.93312 
L 253.892274 49.933138 
L 253.295462 49.933157 
L 252.69865 49.933177 
L 252.101838 49.933198 
L 251.505026 49.93322 
L 250.908215 49.933242 
L 250.311403 49.933266 
L 249.714591 49.933291 
L 249.117779 49.933317 
L 248.520967 49.933345 
L 247.924156 49.933374 
L 247.327344 49.933404 
L 246.730532 49.933435 
L 246.13372 49.933468 
L 245.536908 49.933503 
L 244.940097 49.933539 
L 244.343285 49.933576 
L 243.746473 49.933616 
L 243.149661 49.933657 
L 242.552849 49.933701 
L 241.956038 49.933746 
L 241.359226 49.933793 
L 240.762414 49.933843 
L 240.165602 49.933895 
L 239.56879 49.93395 
L 238.971979 49.934007 
L 238.375167 49.934066 
L 237.778355 49.934128 
L 237.181543 49.934193 
L 236.584731 49.934261 
L 235.987919 49.934332 
L 235.391108 49.934407 
L 234.794296 49.934485 
L 234.197484 49.934567 
L 233.600672 49.934653 
L 233.00386 49.934743 
L 232.407049 49.934837 
L 231.810237 49.934935 
L 231.213425 49.935038 
L 230.616613 49.935146 
L 230.019801 49.935258 
L 229.42299 49.935376 
L 228.826178 49.9355 
L 228.229366 49.935629 
L 227.632554 49.935765 
L 227.035742 49.935907 
L 226.438931 49.936056 
L 225.842119 49.936212 
L 225.245307 49.936375 
L 224.648495 49.936545 
L 224.051683 49.936724 
L 223.454872 49.93691 
L 222.85806 49.937104 
L 222.261248 49.937307 
L 221.664436 49.93752 
L 221.067624 49.937742 
L 220.470813 49.937975 
L 219.874001 49.938218 
L 219.277189 49.938474 
L 218.680377 49.938742 
L 218.083565 49.939023 
L 217.486754 49.939317 
L 216.889942 49.939626 
L 216.29313 49.939949 
L 215.696318 49.940287 
L 215.099506 49.940641 
L 214.502694 49.941013 
L 213.905883 49.941404 
L 213.309071 49.941814 
L 212.712259 49.942242 
L 212.115447 49.942691 
L 211.518635 49.943163 
L 210.921824 49.943659 
L 210.325012 49.944178 
L 209.7282 49.944722 
L 209.131388 49.945293 
L 208.534576 49.945891 
L 207.937765 49.946516 
L 207.340953 49.947169 
L 206.744141 49.947852 
L 206.147329 49.948568 
L 205.550517 49.949318 
L 204.953706 49.950104 
L 204.356894 49.950929 
L 203.760082 49.951791 
L 203.16327 49.952696 
L 202.566458 49.953643 
L 201.969647 49.954631 
L 201.372835 49.955662 
L 200.776023 49.956741 
L 200.179211 49.957869 
L 199.582399 49.959046 
L 198.985588 49.960279 
L 198.388776 49.961571 
L 197.791964 49.962927 
L 197.195152 49.964343 
L 196.59834 49.965823 
L 196.001529 49.967379 
L 195.404717 49.969015 
L 194.807905 49.970729 
L 194.211093 49.972517 
L 193.614281 49.974394 
L 193.017469 49.97636 
L 192.420658 49.978419 
L 191.823846 49.980569 
L 191.227034 49.982819 
L 190.630222 49.985172 
L 190.03341 49.987641 
L 189.436599 49.990236 
L 188.839787 49.992966 
L 188.242975 49.995826 
L 187.646163 49.998824 
L 187.049351 50.001961 
L 186.45254 50.005242 
L 185.855728 50.008675 
L 185.258916 50.012279 
L 184.662104 50.01605 
L 184.065292 50.019995 
L 183.468481 50.024124 
L 182.871669 50.028439 
L 182.274857 50.032971 
L 181.678045 50.037741 
L 181.081233 50.042734 
L 180.484422 50.047963 
L 179.88761 50.053427 
L 179.290798 50.059183 
L 178.693986 50.065228 
L 178.097174 50.071562 
L 177.500363 50.078174 
L 176.903551 50.085112 
L 176.306739 50.092367 
L 175.709927 50.099969 
L 175.113115 50.107942 
L 174.516304 50.116283 
L 173.919492 50.125009 
L 173.32268 50.134135 
L 172.725868 50.143727 
L 172.129056 50.153784 
L 171.532244 50.164337 
L 170.935433 50.175343 
L 170.338621 50.186855 
L 169.741809 50.1989 
L 169.144997 50.21149 
L 168.548185 50.224675 
L 167.951374 50.238495 
L 167.354562 50.252942 
L 166.75775 50.268104 
L 166.160938 50.284007 
L 165.564126 50.300742 
L 164.967315 50.318237 
L 164.370503 50.336529 
L 163.773691 50.355731 
L 163.176879 50.375901 
L 162.580067 50.397143 
L 161.983256 50.419387 
L 161.386444 50.442593 
L 160.789632 50.466944 
L 160.19282 50.492442 
L 159.596008 50.519183 
L 158.999197 50.547312 
L 158.402385 50.576946 
L 157.805573 50.607984 
L 157.208761 50.640427 
L 156.611949 50.674474 
L 156.015138 50.710112 
L 155.418326 50.747509 
L 154.821514 50.786672 
L 154.224702 50.827768 
L 153.62789 50.870833 
L 153.031079 50.915903 
L 152.434267 50.963304 
L 151.837455 51.012803 
L 151.240643 51.064477 
L 150.643831 51.118399 
L 150.047019 51.175071 
L 149.450208 51.234359 
L 148.853396 51.296325 
L 148.256584 51.361184 
L 147.659772 51.429198 
L 147.06296 51.500485 
L 146.466149 51.574954 
L 145.869337 51.653091 
L 145.272525 51.734759 
L 144.675713 51.820364 
L 144.078901 51.910083 
L 143.48209 52.004098 
L 142.885278 52.102143 
L 142.288466 52.205089 
L 141.691654 52.312351 
L 141.094842 52.424315 
L 140.498031 52.541844 
L 139.901219 52.664563 
L 139.304407 52.792736 
L 138.707595 52.926663 
L 138.110783 53.066345 
L 137.513972 53.21302 
L 136.91716 53.366847 
L 136.320348 53.528299 
L 135.723536 53.697496 
L 135.126724 53.874037 
L 134.529913 54.058748 
L 133.933101 54.250471 
L 133.336289 54.451887 
L 132.739477 54.661021 
L 132.142665 54.880545 
L 131.545854 55.110484 
L 130.949042 55.352624 
L 130.35223 55.604686 
L 129.755418 55.868743 
L 129.158606 56.145047 
L 128.561794 56.433944 
L 127.964983 56.736011 
L 127.368171 57.053497 
L 126.771359 57.385951 
L 126.174547 57.733269 
L 125.577735 58.098125 
L 124.980924 58.478721 
L 124.384112 58.877748 
L 123.7873 59.29112 
L 123.190488 59.722213 
L 122.593676 60.171566 
L 121.996865 60.645996 
L 121.400053 61.145025 
L 120.803241 61.666645 
L 120.206429 62.209336 
L 119.609617 62.773086 
L 119.012806 63.364669 
L 118.415994 63.986022 
L 117.819182 64.62959 
L 117.22237 65.3058 
L 116.625558 66.011593 
L 116.028747 66.750653 
L 115.431935 67.526785 
L 114.835123 68.336921 
L 114.238311 69.185454 
L 113.641499 70.070937 
L 113.044688 70.999911 
L 112.447876 71.96913 
L 111.851064 72.992712 
L 111.254252 74.05792 
L 110.65744 75.179857 
L 110.060629 76.351848 
L 109.463817 77.589886 
L 108.867005 78.898728 
L 108.270193 80.298762 
L 107.673381 81.815406 
L 107.07657 83.47231 
L 106.479758 85.435775 
L 105.882946 87.532432 
L 105.286134 89.807666 
L 104.689322 92.263549 
L 104.09251 94.918317 
L 103.495699 97.716226 
L 102.898887 100.773935 
L 102.302075 104.18978 
L 101.705263 107.990744 
L 101.108451 112.275388 
L 100.51164 117.147845 
L 99.914828 122.682851 
L 99.318016 128.945781 
L 98.721204 136.410913 
L 98.124392 145.298682 
L 97.527581 155.153903 
L 96.930769 166.41087 
L 96.333957 180.121759 
L 95.737145 195.974647 
L 95.140333 213.161926 
L 94.543522 218.587394 
L 93.94671 224.421249 
L 93.349898 230.669118 
L 92.753086 237.407913 
L 92.156274 244.706424 
L 91.559463 252.75496 
L 90.962651 261.551807 
L 90.365839 271.112214 
L 89.769027 281.591147 
L 89.172215 293.056611 
L 88.575404 305.6057 
L 87.978592 319.431548 
L 87.38178 334.921799 
L 86.784968 351.27246 
L 86.188156 368.120325 
L 85.591345 388.023893 
L 84.994533 411.133943 
L 84.397721 431.520981 
L 83.800909 446.737561 
z
" clip-path="url(#p5fb4d6fa68)" style="fill: #1f77b4; fill-opacity: 0.2"/>
   </g>
   <g id="matplotlib.axis_1">
    <g id="xtick_1">
     <g id="line2d_1">
      <path d="M 82.607285 534.04 
L 82.607285 26.88 
" clip-path="url(#p5fb4d6fa68)" style="fill: none; stroke: #b0b0b0; stroke-width: 0.8; stroke-linecap: square"/>
     </g>
     <g id="line2d_2">
      <defs>
       <path id="m872e3484cd" d="M 0 0 
L 0 3.5 
" style="stroke: #000000; stroke-width: 0.8"/>
      </defs>
      <g>
       <use xlink:href="#m872e3484cd" x="82.607285" y="534.04" style="stroke: #000000; stroke-width: 0.8"/>
      </g>
     </g>
     <g id="text_1">
      <!-- 0 -->
      <g transform="translate(79.426035 548.638438) scale(0.1 -0.1)">
       <defs>
        <path id="DejaVuSans-30" d="M 2034 4250 
Q 1547 4250 1301 3770 
Q 1056 3291 1056 2328 
Q 1056 1369 1301 889 
Q 1547 409 2034 409 
Q 2525 409 2770 889 
Q 3016 1369 3016 2328 
Q 3016 3291 2770 3770 
Q 2525 4250 2034 4250 
z
M 2034 4750 
Q 2819 4750 3233 4129 
Q 3647 3509 3647 2328 
Q 3647 1150 3233 529 
Q 2819 -91 2034 -91 
Q 1250 -91 836 529 
Q 422 1150 422 2328 
Q 422 3509 836 4129 
Q 1250 4750 2034 4750 
z
" transform="scale(0.015625)"/>
       </defs>
       <use xlink:href="#DejaVuSans-30"/>
      </g>
     </g>
    </g>
    <g id="xtick_2">
     <g id="line2d_3">
      <path d="M 201.969647 534.04 
L 201.969647 26.88 
" clip-path="url(#p5fb4d6fa68)" style="fill: none; stroke: #b0b0b0; stroke-width: 0.8; stroke-linecap: square"/>
     </g>
     <g id="line2d_4">
      <g>
       <use xlink:href="#m872e3484cd" x="201.969647" y="534.04" style="stroke: #000000; stroke-width: 0.8"/>
      </g>
     </g>
     <g id="text_2">
      <!-- 200 -->
      <g transform="translate(192.425897 548.638438) scale(0.1 -0.1)">
       <defs>
        <path id="DejaVuSans-32" d="M 1228 531 
L 3431 531 
L 3431 0 
L 469 0 
L 469 531 
Q 828 903 1448 1529 
Q 2069 2156 2228 2338 
Q 2531 2678 2651 2914 
Q 2772 3150 2772 3378 
Q 2772 3750 2511 3984 
Q 2250 4219 1831 4219 
Q 1534 4219 1204 4116 
Q 875 4013 500 3803 
L 500 4441 
Q 881 4594 1212 4672 
Q 1544 4750 1819 4750 
Q 2544 4750 2975 4387 
Q 3406 4025 3406 3419 
Q 3406 3131 3298 2873 
Q 3191 2616 2906 2266 
Q 2828 2175 2409 1742 
Q 1991 1309 1228 531 
z
" transform="scale(0.015625)"/>
       </defs>
       <use xlink:href="#DejaVuSans-32"/>
       <use xlink:href="#DejaVuSans-30" x="63.623047"/>
       <use xlink:href="#DejaVuSans-30" x="127.246094"/>
      </g>
     </g>
    </g>
    <g id="xtick_3">
     <g id="line2d_5">
      <path d="M 321.332008 534.04 
L 321.332008 26.88 
" clip-path="url(#p5fb4d6fa68)" style="fill: none; stroke: #b0b0b0; stroke-width: 0.8; stroke-linecap: square"/>
     </g>
     <g id="line2d_6">
      <g>
       <use xlink:href="#m872e3484cd" x="321.332008" y="534.04" style="stroke: #000000; stroke-width: 0.8"/>
      </g>
     </g>
     <g id="text_3">
      <!-- 400 -->
      <g transform="translate(311.788258 548.638438) scale(0.1 -0.1)">
       <defs>
        <path id="DejaVuSans-34" d="M 2419 4116 
L 825 1625 
L 2419 1625 
L 2419 4116 
z
M 2253 4666 
L 3047 4666 
L 3047 1625 
L 3713 1625 
L 3713 1100 
L 3047 1100 
L 3047 0 
L 2419 0 
L 2419 1100 
L 313 1100 
L 313 1709 
L 2253 4666 
z
" transform="scale(0.015625)"/>
       </defs>
       <use xlink:href="#DejaVuSans-34"/>
       <use xlink:href="#DejaVuSans-30" x="63.623047"/>
       <use xlink:href="#DejaVuSans-30" x="127.246094"/>
      </g>
     </g>
    </g>
    <g id="xtick_4">
     <g id="line2d_7">
      <path d="M 440.694369 534.04 
L 440.694369 26.88 
" clip-path="url(#p5fb4d6fa68)" style="fill: none; stroke: #b0b0b0; stroke-width: 0.8; stroke-linecap: square"/>
     </g>
     <g id="line2d_8">
      <g>
       <use xlink:href="#m872e3484cd" x="440.694369" y="534.04" style="stroke: #000000; stroke-width: 0.8"/>
      </g>
     </g>
     <g id="text_4">
      <!-- 600 -->
      <g transform="translate(431.150619 548.638438) scale(0.1 -0.1)">
       <defs>
        <path id="DejaVuSans-36" d="M 2113 2584 
Q 1688 2584 1439 2293 
Q 1191 2003 1191 1497 
Q 1191 994 1439 701 
Q 1688 409 2113 409 
Q 2538 409 2786 701 
Q 3034 994 3034 1497 
Q 3034 2003 2786 2293 
Q 2538 2584 2113 2584 
z
M 3366 4563 
L 3366 3988 
Q 3128 4100 2886 4159 
Q 2644 4219 2406 4219 
Q 1781 4219 1451 3797 
Q 1122 3375 1075 2522 
Q 1259 2794 1537 2939 
Q 1816 3084 2150 3084 
Q 2853 3084 3261 2657 
Q 3669 2231 3669 1497 
Q 3669 778 3244 343 
Q 2819 -91 2113 -91 
Q 1303 -91 875 529 
Q 447 1150 447 2328 
Q 447 3434 972 4092 
Q 1497 4750 2381 4750 
Q 2619 4750 2861 4703 
Q 3103 4656 3366 4563 
z
" transform="scale(0.015625)"/>
       </defs>
       <use xlink:href="#DejaVuSans-36"/>
       <use xlink:href="#DejaVuSans-30" x="63.623047"/>
       <use xlink:href="#DejaVuSans-30" x="127.246094"/>
      </g>
     </g>
    </g>
    <g id="xtick_5">
     <g id="line2d_9">
      <path d="M 560.05673 534.04 
L 560.05673 26.88 
" clip-path="url(#p5fb4d6fa68)" style="fill: none; stroke: #b0b0b0; stroke-width: 0.8; stroke-linecap: square"/>
     </g>
     <g id="line2d_10">
      <g>
       <use xlink:href="#m872e3484cd" x="560.05673" y="534.04" style="stroke: #000000; stroke-width: 0.8"/>
      </g>
     </g>
     <g id="text_5">
      <!-- 800 -->
      <g transform="translate(550.51298 548.638438) scale(0.1 -0.1)">
       <defs>
        <path id="DejaVuSans-38" d="M 2034 2216 
Q 1584 2216 1326 1975 
Q 1069 1734 1069 1313 
Q 1069 891 1326 650 
Q 1584 409 2034 409 
Q 2484 409 2743 651 
Q 3003 894 3003 1313 
Q 3003 1734 2745 1975 
Q 2488 2216 2034 2216 
z
M 1403 2484 
Q 997 2584 770 2862 
Q 544 3141 544 3541 
Q 544 4100 942 4425 
Q 1341 4750 2034 4750 
Q 2731 4750 3128 4425 
Q 3525 4100 3525 3541 
Q 3525 3141 3298 2862 
Q 3072 2584 2669 2484 
Q 3125 2378 3379 2068 
Q 3634 1759 3634 1313 
Q 3634 634 3220 271 
Q 2806 -91 2034 -91 
Q 1263 -91 848 271 
Q 434 634 434 1313 
Q 434 1759 690 2068 
Q 947 2378 1403 2484 
z
M 1172 3481 
Q 1172 3119 1398 2916 
Q 1625 2713 2034 2713 
Q 2441 2713 2670 2916 
Q 2900 3119 2900 3481 
Q 2900 3844 2670 4047 
Q 2441 4250 2034 4250 
Q 1625 4250 1398 4047 
Q 1172 3844 1172 3481 
z
" transform="scale(0.015625)"/>
       </defs>
       <use xlink:href="#DejaVuSans-38"/>
       <use xlink:href="#DejaVuSans-30" x="63.623047"/>
       <use xlink:href="#DejaVuSans-30" x="127.246094"/>
      </g>
     </g>
    </g>
    <g id="xtick_6">
     <g id="line2d_11">
      <path d="M 679.419091 534.04 
L 679.419091 26.88 
" clip-path="url(#p5fb4d6fa68)" style="fill: none; stroke: #b0b0b0; stroke-width: 0.8; stroke-linecap: square"/>
     </g>
     <g id="line2d_12">
      <g>
       <use xlink:href="#m872e3484cd" x="679.419091" y="534.04" style="stroke: #000000; stroke-width: 0.8"/>
      </g>
     </g>
     <g id="text_6">
      <!-- 1000 -->
      <g transform="translate(666.694091 548.638438) scale(0.1 -0.1)">
       <defs>
        <path id="DejaVuSans-31" d="M 794 531 
L 1825 531 
L 1825 4091 
L 703 3866 
L 703 4441 
L 1819 4666 
L 2450 4666 
L 2450 531 
L 3481 531 
L 3481 0 
L 794 0 
L 794 531 
z
" transform="scale(0.015625)"/>
       </defs>
       <use xlink:href="#DejaVuSans-31"/>
       <use xlink:href="#DejaVuSans-30" x="63.623047"/>
       <use xlink:href="#DejaVuSans-30" x="127.246094"/>
       <use xlink:href="#DejaVuSans-30" x="190.869141"/>
      </g>
     </g>
    </g>
    <g id="text_7">
     <!-- Episodes -->
     <g transform="translate(359.367813 562.316562) scale(0.1 -0.1)">
      <defs>
       <path id="DejaVuSans-45" d="M 628 4666 
L 3578 4666 
L 3578 4134 
L 1259 4134 
L 1259 2753 
L 3481 2753 
L 3481 2222 
L 1259 2222 
L 1259 531 
L 3634 531 
L 3634 0 
L 628 0 
L 628 4666 
z
" transform="scale(0.015625)"/>
       <path id="DejaVuSans-70" d="M 1159 525 
L 1159 -1331 
L 581 -1331 
L 581 3500 
L 1159 3500 
L 1159 2969 
Q 1341 3281 1617 3432 
Q 1894 3584 2278 3584 
Q 2916 3584 3314 3078 
Q 3713 2572 3713 1747 
Q 3713 922 3314 415 
Q 2916 -91 2278 -91 
Q 1894 -91 1617 61 
Q 1341 213 1159 525 
z
M 3116 1747 
Q 3116 2381 2855 2742 
Q 2594 3103 2138 3103 
Q 1681 3103 1420 2742 
Q 1159 2381 1159 1747 
Q 1159 1113 1420 752 
Q 1681 391 2138 391 
Q 2594 391 2855 752 
Q 3116 1113 3116 1747 
z
" transform="scale(0.015625)"/>
       <path id="DejaVuSans-69" d="M 603 3500 
L 1178 3500 
L 1178 0 
L 603 0 
L 603 3500 
z
M 603 4863 
L 1178 4863 
L 1178 4134 
L 603 4134 
L 603 4863 
z
" transform="scale(0.015625)"/>
       <path id="DejaVuSans-73" d="M 2834 3397 
L 2834 2853 
Q 2591 2978 2328 3040 
Q 2066 3103 1784 3103 
Q 1356 3103 1142 2972 
Q 928 2841 928 2578 
Q 928 2378 1081 2264 
Q 1234 2150 1697 2047 
L 1894 2003 
Q 2506 1872 2764 1633 
Q 3022 1394 3022 966 
Q 3022 478 2636 193 
Q 2250 -91 1575 -91 
Q 1294 -91 989 -36 
Q 684 19 347 128 
L 347 722 
Q 666 556 975 473 
Q 1284 391 1588 391 
Q 1994 391 2212 530 
Q 2431 669 2431 922 
Q 2431 1156 2273 1281 
Q 2116 1406 1581 1522 
L 1381 1569 
Q 847 1681 609 1914 
Q 372 2147 372 2553 
Q 372 3047 722 3315 
Q 1072 3584 1716 3584 
Q 2034 3584 2315 3537 
Q 2597 3491 2834 3397 
z
" transform="scale(0.015625)"/>
       <path id="DejaVuSans-6f" d="M 1959 3097 
Q 1497 3097 1228 2736 
Q 959 2375 959 1747 
Q 959 1119 1226 758 
Q 1494 397 1959 397 
Q 2419 397 2687 759 
Q 2956 1122 2956 1747 
Q 2956 2369 2687 2733 
Q 2419 3097 1959 3097 
z
M 1959 3584 
Q 2709 3584 3137 3096 
Q 3566 2609 3566 1747 
Q 3566 888 3137 398 
Q 2709 -91 1959 -91 
Q 1206 -91 779 398 
Q 353 888 353 1747 
Q 353 2609 779 3096 
Q 1206 3584 1959 3584 
z
" transform="scale(0.015625)"/>
       <path id="DejaVuSans-64" d="M 2906 2969 
L 2906 4863 
L 3481 4863 
L 3481 0 
L 2906 0 
L 2906 525 
Q 2725 213 2448 61 
Q 2172 -91 1784 -91 
Q 1150 -91 751 415 
Q 353 922 353 1747 
Q 353 2572 751 3078 
Q 1150 3584 1784 3584 
Q 2172 3584 2448 3432 
Q 2725 3281 2906 2969 
z
M 947 1747 
Q 947 1113 1208 752 
Q 1469 391 1925 391 
Q 2381 391 2643 752 
Q 2906 1113 2906 1747 
Q 2906 2381 2643 2742 
Q 2381 3103 1925 3103 
Q 1469 3103 1208 2742 
Q 947 2381 947 1747 
z
" transform="scale(0.015625)"/>
       <path id="DejaVuSans-65" d="M 3597 1894 
L 3597 1613 
L 953 1613 
Q 991 1019 1311 708 
Q 1631 397 2203 397 
Q 2534 397 2845 478 
Q 3156 559 3463 722 
L 3463 178 
Q 3153 47 2828 -22 
Q 2503 -91 2169 -91 
Q 1331 -91 842 396 
Q 353 884 353 1716 
Q 353 2575 817 3079 
Q 1281 3584 2069 3584 
Q 2775 3584 3186 3129 
Q 3597 2675 3597 1894 
z
M 3022 2063 
Q 3016 2534 2758 2815 
Q 2500 3097 2075 3097 
Q 1594 3097 1305 2825 
Q 1016 2553 972 2059 
L 3022 2063 
z
" transform="scale(0.015625)"/>
      </defs>
      <use xlink:href="#DejaVuSans-45"/>
      <use xlink:href="#DejaVuSans-70" x="63.183594"/>
      <use xlink:href="#DejaVuSans-69" x="126.660156"/>
      <use xlink:href="#DejaVuSans-73" x="154.443359"/>
      <use xlink:href="#DejaVuSans-6f" x="206.542969"/>
      <use xlink:href="#DejaVuSans-64" x="267.724609"/>
      <use xlink:href="#DejaVuSans-65" x="331.201172"/>
      <use xlink:href="#DejaVuSans-73" x="392.724609"/>
     </g>
    </g>
   </g>
   <g id="matplotlib.axis_2">
    <g id="ytick_1">
     <g id="line2d_13">
      <path d="M 54.02 516.937424 
L 709.2 516.937424 
" clip-path="url(#p5fb4d6fa68)" style="fill: none; stroke: #b0b0b0; stroke-width: 0.8; stroke-linecap: square"/>
     </g>
     <g id="line2d_14">
      <defs>
       <path id="m275b86d41e" d="M 0 0 
L -3.5 0 
" style="stroke: #000000; stroke-width: 0.8"/>
      </defs>
      <g>
       <use xlink:href="#m275b86d41e" x="54.02" y="516.937424" style="stroke: #000000; stroke-width: 0.8"/>
      </g>
     </g>
     <g id="text_8">
      <!-- 0.53 -->
      <g transform="translate(24.754375 520.736643) scale(0.1 -0.1)">
       <defs>
        <path id="DejaVuSans-2e" d="M 684 794 
L 1344 794 
L 1344 0 
L 684 0 
L 684 794 
z
" transform="scale(0.015625)"/>
        <path id="DejaVuSans-35" d="M 691 4666 
L 3169 4666 
L 3169 4134 
L 1269 4134 
L 1269 2991 
Q 1406 3038 1543 3061 
Q 1681 3084 1819 3084 
Q 2600 3084 3056 2656 
Q 3513 2228 3513 1497 
Q 3513 744 3044 326 
Q 2575 -91 1722 -91 
Q 1428 -91 1123 -41 
Q 819 9 494 109 
L 494 744 
Q 775 591 1075 516 
Q 1375 441 1709 441 
Q 2250 441 2565 725 
Q 2881 1009 2881 1497 
Q 2881 1984 2565 2268 
Q 2250 2553 1709 2553 
Q 1456 2553 1204 2497 
Q 953 2441 691 2322 
L 691 4666 
z
" transform="scale(0.015625)"/>
        <path id="DejaVuSans-33" d="M 2597 2516 
Q 3050 2419 3304 2112 
Q 3559 1806 3559 1356 
Q 3559 666 3084 287 
Q 2609 -91 1734 -91 
Q 1441 -91 1130 -33 
Q 819 25 488 141 
L 488 750 
Q 750 597 1062 519 
Q 1375 441 1716 441 
Q 2309 441 2620 675 
Q 2931 909 2931 1356 
Q 2931 1769 2642 2001 
Q 2353 2234 1838 2234 
L 1294 2234 
L 1294 2753 
L 1863 2753 
Q 2328 2753 2575 2939 
Q 2822 3125 2822 3475 
Q 2822 3834 2567 4026 
Q 2313 4219 1838 4219 
Q 1578 4219 1281 4162 
Q 984 4106 628 3988 
L 628 4550 
Q 988 4650 1302 4700 
Q 1616 4750 1894 4750 
Q 2613 4750 3031 4423 
Q 3450 4097 3450 3541 
Q 3450 3153 3228 2886 
Q 3006 2619 2597 2516 
z
" transform="scale(0.015625)"/>
       </defs>
       <use xlink:href="#DejaVuSans-30"/>
       <use xlink:href="#DejaVuSans-2e" x="63.623047"/>
       <use xlink:href="#DejaVuSans-35" x="95.410156"/>
       <use xlink:href="#DejaVuSans-33" x="159.033203"/>
      </g>
     </g>
    </g>
    <g id="ytick_2">
     <g id="line2d_15">
      <path d="M 54.02 450.367631 
L 709.2 450.367631 
" clip-path="url(#p5fb4d6fa68)" style="fill: none; stroke: #b0b0b0; stroke-width: 0.8; stroke-linecap: square"/>
     </g>
     <g id="line2d_16">
      <g>
       <use xlink:href="#m275b86d41e" x="54.02" y="450.367631" style="stroke: #000000; stroke-width: 0.8"/>
      </g>
     </g>
     <g id="text_9">
      <!-- 0.54 -->
      <g transform="translate(24.754375 454.16685) scale(0.1 -0.1)">
       <use xlink:href="#DejaVuSans-30"/>
       <use xlink:href="#DejaVuSans-2e" x="63.623047"/>
       <use xlink:href="#DejaVuSans-35" x="95.410156"/>
       <use xlink:href="#DejaVuSans-34" x="159.033203"/>
      </g>
     </g>
    </g>
    <g id="ytick_3">
     <g id="line2d_17">
      <path d="M 54.02 383.797837 
L 709.2 383.797837 
" clip-path="url(#p5fb4d6fa68)" style="fill: none; stroke: #b0b0b0; stroke-width: 0.8; stroke-linecap: square"/>
     </g>
     <g id="line2d_18">
      <g>
       <use xlink:href="#m275b86d41e" x="54.02" y="383.797837" style="stroke: #000000; stroke-width: 0.8"/>
      </g>
     </g>
     <g id="text_10">
      <!-- 0.55 -->
      <g transform="translate(24.754375 387.597056) scale(0.1 -0.1)">
       <use xlink:href="#DejaVuSans-30"/>
       <use xlink:href="#DejaVuSans-2e" x="63.623047"/>
       <use xlink:href="#DejaVuSans-35" x="95.410156"/>
       <use xlink:href="#DejaVuSans-35" x="159.033203"/>
      </g>
     </g>
    </g>
    <g id="ytick_4">
     <g id="line2d_19">
      <path d="M 54.02 317.228044 
L 709.2 317.228044 
" clip-path="url(#p5fb4d6fa68)" style="fill: none; stroke: #b0b0b0; stroke-width: 0.8; stroke-linecap: square"/>
     </g>
     <g id="line2d_20">
      <g>
       <use xlink:href="#m275b86d41e" x="54.02" y="317.228044" style="stroke: #000000; stroke-width: 0.8"/>
      </g>
     </g>
     <g id="text_11">
      <!-- 0.56 -->
      <g transform="translate(24.754375 321.027263) scale(0.1 -0.1)">
       <use xlink:href="#DejaVuSans-30"/>
       <use xlink:href="#DejaVuSans-2e" x="63.623047"/>
       <use xlink:href="#DejaVuSans-35" x="95.410156"/>
       <use xlink:href="#DejaVuSans-36" x="159.033203"/>
      </g>
     </g>
    </g>
    <g id="ytick_5">
     <g id="line2d_21">
      <path d="M 54.02 250.658251 
L 709.2 250.658251 
" clip-path="url(#p5fb4d6fa68)" style="fill: none; stroke: #b0b0b0; stroke-width: 0.8; stroke-linecap: square"/>
     </g>
     <g id="line2d_22">
      <g>
       <use xlink:href="#m275b86d41e" x="54.02" y="250.658251" style="stroke: #000000; stroke-width: 0.8"/>
      </g>
     </g>
     <g id="text_12">
      <!-- 0.57 -->
      <g transform="translate(24.754375 254.45747) scale(0.1 -0.1)">
       <defs>
        <path id="DejaVuSans-37" d="M 525 4666 
L 3525 4666 
L 3525 4397 
L 1831 0 
L 1172 0 
L 2766 4134 
L 525 4134 
L 525 4666 
z
" transform="scale(0.015625)"/>
       </defs>
       <use xlink:href="#DejaVuSans-30"/>
       <use xlink:href="#DejaVuSans-2e" x="63.623047"/>
       <use xlink:href="#DejaVuSans-35" x="95.410156"/>
       <use xlink:href="#DejaVuSans-37" x="159.033203"/>
      </g>
     </g>
    </g>
    <g id="ytick_6">
     <g id="line2d_23">
      <path d="M 54.02 184.088458 
L 709.2 184.088458 
" clip-path="url(#p5fb4d6fa68)" style="fill: none; stroke: #b0b0b0; stroke-width: 0.8; stroke-linecap: square"/>
     </g>
     <g id="line2d_24">
      <g>
       <use xlink:href="#m275b86d41e" x="54.02" y="184.088458" style="stroke: #000000; stroke-width: 0.8"/>
      </g>
     </g>
     <g id="text_13">
      <!-- 0.58 -->
      <g transform="translate(24.754375 187.887676) scale(0.1 -0.1)">
       <use xlink:href="#DejaVuSans-30"/>
       <use xlink:href="#DejaVuSans-2e" x="63.623047"/>
       <use xlink:href="#DejaVuSans-35" x="95.410156"/>
       <use xlink:href="#DejaVuSans-38" x="159.033203"/>
      </g>
     </g>
    </g>
    <g id="ytick_7">
     <g id="line2d_25">
      <path d="M 54.02 117.518664 
L 709.2 117.518664 
" clip-path="url(#p5fb4d6fa68)" style="fill: none; stroke: #b0b0b0; stroke-width: 0.8; stroke-linecap: square"/>
     </g>
     <g id="line2d_26">
      <g>
       <use xlink:href="#m275b86d41e" x="54.02" y="117.518664" style="stroke: #000000; stroke-width: 0.8"/>
      </g>
     </g>
     <g id="text_14">
      <!-- 0.59 -->
      <g transform="translate(24.754375 121.317883) scale(0.1 -0.1)">
       <defs>
        <path id="DejaVuSans-39" d="M 703 97 
L 703 672 
Q 941 559 1184 500 
Q 1428 441 1663 441 
Q 2288 441 2617 861 
Q 2947 1281 2994 2138 
Q 2813 1869 2534 1725 
Q 2256 1581 1919 1581 
Q 1219 1581 811 2004 
Q 403 2428 403 3163 
Q 403 3881 828 4315 
Q 1253 4750 1959 4750 
Q 2769 4750 3195 4129 
Q 3622 3509 3622 2328 
Q 3622 1225 3098 567 
Q 2575 -91 1691 -91 
Q 1453 -91 1209 -44 
Q 966 3 703 97 
z
M 1959 2075 
Q 2384 2075 2632 2365 
Q 2881 2656 2881 3163 
Q 2881 3666 2632 3958 
Q 2384 4250 1959 4250 
Q 1534 4250 1286 3958 
Q 1038 3666 1038 3163 
Q 1038 2656 1286 2365 
Q 1534 2075 1959 2075 
z
" transform="scale(0.015625)"/>
       </defs>
       <use xlink:href="#DejaVuSans-30"/>
       <use xlink:href="#DejaVuSans-2e" x="63.623047"/>
       <use xlink:href="#DejaVuSans-35" x="95.410156"/>
       <use xlink:href="#DejaVuSans-39" x="159.033203"/>
      </g>
     </g>
    </g>
    <g id="ytick_8">
     <g id="line2d_27">
      <path d="M 54.02 50.948871 
L 709.2 50.948871 
" clip-path="url(#p5fb4d6fa68)" style="fill: none; stroke: #b0b0b0; stroke-width: 0.8; stroke-linecap: square"/>
     </g>
     <g id="line2d_28">
      <g>
       <use xlink:href="#m275b86d41e" x="54.02" y="50.948871" style="stroke: #000000; stroke-width: 0.8"/>
      </g>
     </g>
     <g id="text_15">
      <!-- 0.60 -->
      <g transform="translate(24.754375 54.74809) scale(0.1 -0.1)">
       <use xlink:href="#DejaVuSans-30"/>
       <use xlink:href="#DejaVuSans-2e" x="63.623047"/>
       <use xlink:href="#DejaVuSans-36" x="95.410156"/>
       <use xlink:href="#DejaVuSans-30" x="159.033203"/>
      </g>
     </g>
    </g>
    <g id="text_16">
     <!-- Metric Value -->
     <g transform="translate(18.674688 311.324844) rotate(-90) scale(0.1 -0.1)">
      <defs>
       <path id="DejaVuSans-4d" d="M 628 4666 
L 1569 4666 
L 2759 1491 
L 3956 4666 
L 4897 4666 
L 4897 0 
L 4281 0 
L 4281 4097 
L 3078 897 
L 2444 897 
L 1241 4097 
L 1241 0 
L 628 0 
L 628 4666 
z
" transform="scale(0.015625)"/>
       <path id="DejaVuSans-74" d="M 1172 4494 
L 1172 3500 
L 2356 3500 
L 2356 3053 
L 1172 3053 
L 1172 1153 
Q 1172 725 1289 603 
Q 1406 481 1766 481 
L 2356 481 
L 2356 0 
L 1766 0 
Q 1100 0 847 248 
Q 594 497 594 1153 
L 594 3053 
L 172 3053 
L 172 3500 
L 594 3500 
L 594 4494 
L 1172 4494 
z
" transform="scale(0.015625)"/>
       <path id="DejaVuSans-72" d="M 2631 2963 
Q 2534 3019 2420 3045 
Q 2306 3072 2169 3072 
Q 1681 3072 1420 2755 
Q 1159 2438 1159 1844 
L 1159 0 
L 581 0 
L 581 3500 
L 1159 3500 
L 1159 2956 
Q 1341 3275 1631 3429 
Q 1922 3584 2338 3584 
Q 2397 3584 2469 3576 
Q 2541 3569 2628 3553 
L 2631 2963 
z
" transform="scale(0.015625)"/>
       <path id="DejaVuSans-63" d="M 3122 3366 
L 3122 2828 
Q 2878 2963 2633 3030 
Q 2388 3097 2138 3097 
Q 1578 3097 1268 2742 
Q 959 2388 959 1747 
Q 959 1106 1268 751 
Q 1578 397 2138 397 
Q 2388 397 2633 464 
Q 2878 531 3122 666 
L 3122 134 
Q 2881 22 2623 -34 
Q 2366 -91 2075 -91 
Q 1284 -91 818 406 
Q 353 903 353 1747 
Q 353 2603 823 3093 
Q 1294 3584 2113 3584 
Q 2378 3584 2631 3529 
Q 2884 3475 3122 3366 
z
" transform="scale(0.015625)"/>
       <path id="DejaVuSans-20" transform="scale(0.015625)"/>
       <path id="DejaVuSans-56" d="M 1831 0 
L 50 4666 
L 709 4666 
L 2188 738 
L 3669 4666 
L 4325 4666 
L 2547 0 
L 1831 0 
z
" transform="scale(0.015625)"/>
       <path id="DejaVuSans-61" d="M 2194 1759 
Q 1497 1759 1228 1600 
Q 959 1441 959 1056 
Q 959 750 1161 570 
Q 1363 391 1709 391 
Q 2188 391 2477 730 
Q 2766 1069 2766 1631 
L 2766 1759 
L 2194 1759 
z
M 3341 1997 
L 3341 0 
L 2766 0 
L 2766 531 
Q 2569 213 2275 61 
Q 1981 -91 1556 -91 
Q 1019 -91 701 211 
Q 384 513 384 1019 
Q 384 1609 779 1909 
Q 1175 2209 1959 2209 
L 2766 2209 
L 2766 2266 
Q 2766 2663 2505 2880 
Q 2244 3097 1772 3097 
Q 1472 3097 1187 3025 
Q 903 2953 641 2809 
L 641 3341 
Q 956 3463 1253 3523 
Q 1550 3584 1831 3584 
Q 2591 3584 2966 3190 
Q 3341 2797 3341 1997 
z
" transform="scale(0.015625)"/>
       <path id="DejaVuSans-6c" d="M 603 4863 
L 1178 4863 
L 1178 0 
L 603 0 
L 603 4863 
z
" transform="scale(0.015625)"/>
       <path id="DejaVuSans-75" d="M 544 1381 
L 544 3500 
L 1119 3500 
L 1119 1403 
Q 1119 906 1312 657 
Q 1506 409 1894 409 
Q 2359 409 2629 706 
Q 2900 1003 2900 1516 
L 2900 3500 
L 3475 3500 
L 3475 0 
L 2900 0 
L 2900 538 
Q 2691 219 2414 64 
Q 2138 -91 1772 -91 
Q 1169 -91 856 284 
Q 544 659 544 1381 
z
M 1991 3584 
L 1991 3584 
z
" transform="scale(0.015625)"/>
      </defs>
      <use xlink:href="#DejaVuSans-4d"/>
      <use xlink:href="#DejaVuSans-65" x="86.279297"/>
      <use xlink:href="#DejaVuSans-74" x="147.802734"/>
      <use xlink:href="#DejaVuSans-72" x="187.011719"/>
      <use xlink:href="#DejaVuSans-69" x="228.125"/>
      <use xlink:href="#DejaVuSans-63" x="255.908203"/>
      <use xlink:href="#DejaVuSans-20" x="310.888672"/>
      <use xlink:href="#DejaVuSans-56" x="342.675781"/>
      <use xlink:href="#DejaVuSans-61" x="403.333984"/>
      <use xlink:href="#DejaVuSans-6c" x="464.613281"/>
      <use xlink:href="#DejaVuSans-75" x="492.396484"/>
      <use xlink:href="#DejaVuSans-65" x="555.775391"/>
     </g>
    </g>
   </g>
   <g id="line2d_29">
    <path d="M 83.800909 478.862417 
L 84.397721 461.228848 
L 86.188156 394.169254 
L 87.978592 343.864304 
L 89.172215 316.384258 
L 90.365839 293.339591 
L 91.559463 273.923323 
L 92.753086 257.585109 
L 93.94671 243.679662 
L 95.140333 231.593481 
L 96.333957 196.660487 
L 97.527581 170.327208 
L 98.721204 150.249864 
L 99.914828 135.297414 
L 101.108451 123.86286 
L 102.302075 114.9334 
L 103.495699 107.778953 
L 104.689322 101.778683 
L 105.882946 96.612287 
L 107.07657 92.192587 
L 108.270193 88.665697 
L 110.060629 84.281963 
L 111.851064 80.585723 
L 113.641499 77.406679 
L 115.431935 74.663302 
L 117.22237 72.287551 
L 119.012806 70.224033 
L 120.803241 68.430224 
L 122.593676 66.860606 
L 124.980924 65.092478 
L 127.368171 63.610992 
L 129.755418 62.384522 
L 132.739477 61.140679 
L 135.723536 60.152542 
L 139.304407 59.228313 
L 143.48209 58.425315 
L 148.256584 57.771892 
L 153.62789 57.274753 
L 160.19282 56.892528 
L 169.144997 56.60992 
L 182.871669 56.42688 
L 209.7282 56.343886 
L 346.398103 56.332182 
L 679.419091 56.332181 
L 679.419091 56.332181 
" clip-path="url(#p5fb4d6fa68)" style="fill: none; stroke: #1f77b4; stroke-width: 1.5; stroke-linecap: square"/>
   </g>
   <g id="patch_3">
    <path d="M 54.02 534.04 
L 54.02 26.88 
" style="fill: none; stroke: #000000; stroke-width: 0.8; stroke-linejoin: miter; stroke-linecap: square"/>
   </g>
   <g id="patch_4">
    <path d="M 709.2 534.04 
L 709.2 26.88 
" style="fill: none; stroke: #000000; stroke-width: 0.8; stroke-linejoin: miter; stroke-linecap: square"/>
   </g>
   <g id="patch_5">
    <path d="M 54.02 534.04 
L 709.2 534.04 
" style="fill: none; stroke: #000000; stroke-width: 0.8; stroke-linejoin: miter; stroke-linecap: square"/>
   </g>
   <g id="patch_6">
    <path d="M 54.02 26.88 
L 709.2 26.88 
" style="fill: none; stroke: #000000; stroke-width: 0.8; stroke-linejoin: miter; stroke-linecap: square"/>
   </g>
   <g id="text_17">
    <!-- Mean Opinion Magnitude Across Runs -->
    <g transform="translate(268.522188 20.88) scale(0.12 -0.12)">
     <defs>
      <path id="DejaVuSans-6e" d="M 3513 2113 
L 3513 0 
L 2938 0 
L 2938 2094 
Q 2938 2591 2744 2837 
Q 2550 3084 2163 3084 
Q 1697 3084 1428 2787 
Q 1159 2491 1159 1978 
L 1159 0 
L 581 0 
L 581 3500 
L 1159 3500 
L 1159 2956 
Q 1366 3272 1645 3428 
Q 1925 3584 2291 3584 
Q 2894 3584 3203 3211 
Q 3513 2838 3513 2113 
z
" transform="scale(0.015625)"/>
      <path id="DejaVuSans-4f" d="M 2522 4238 
Q 1834 4238 1429 3725 
Q 1025 3213 1025 2328 
Q 1025 1447 1429 934 
Q 1834 422 2522 422 
Q 3209 422 3611 934 
Q 4013 1447 4013 2328 
Q 4013 3213 3611 3725 
Q 3209 4238 2522 4238 
z
M 2522 4750 
Q 3503 4750 4090 4092 
Q 4678 3434 4678 2328 
Q 4678 1225 4090 567 
Q 3503 -91 2522 -91 
Q 1538 -91 948 565 
Q 359 1222 359 2328 
Q 359 3434 948 4092 
Q 1538 4750 2522 4750 
z
" transform="scale(0.015625)"/>
      <path id="DejaVuSans-67" d="M 2906 1791 
Q 2906 2416 2648 2759 
Q 2391 3103 1925 3103 
Q 1463 3103 1205 2759 
Q 947 2416 947 1791 
Q 947 1169 1205 825 
Q 1463 481 1925 481 
Q 2391 481 2648 825 
Q 2906 1169 2906 1791 
z
M 3481 434 
Q 3481 -459 3084 -895 
Q 2688 -1331 1869 -1331 
Q 1566 -1331 1297 -1286 
Q 1028 -1241 775 -1147 
L 775 -588 
Q 1028 -725 1275 -790 
Q 1522 -856 1778 -856 
Q 2344 -856 2625 -561 
Q 2906 -266 2906 331 
L 2906 616 
Q 2728 306 2450 153 
Q 2172 0 1784 0 
Q 1141 0 747 490 
Q 353 981 353 1791 
Q 353 2603 747 3093 
Q 1141 3584 1784 3584 
Q 2172 3584 2450 3431 
Q 2728 3278 2906 2969 
L 2906 3500 
L 3481 3500 
L 3481 434 
z
" transform="scale(0.015625)"/>
      <path id="DejaVuSans-41" d="M 2188 4044 
L 1331 1722 
L 3047 1722 
L 2188 4044 
z
M 1831 4666 
L 2547 4666 
L 4325 0 
L 3669 0 
L 3244 1197 
L 1141 1197 
L 716 0 
L 50 0 
L 1831 4666 
z
" transform="scale(0.015625)"/>
      <path id="DejaVuSans-52" d="M 2841 2188 
Q 3044 2119 3236 1894 
Q 3428 1669 3622 1275 
L 4263 0 
L 3584 0 
L 2988 1197 
Q 2756 1666 2539 1819 
Q 2322 1972 1947 1972 
L 1259 1972 
L 1259 0 
L 628 0 
L 628 4666 
L 2053 4666 
Q 2853 4666 3247 4331 
Q 3641 3997 3641 3322 
Q 3641 2881 3436 2590 
Q 3231 2300 2841 2188 
z
M 1259 4147 
L 1259 2491 
L 2053 2491 
Q 2509 2491 2742 2702 
Q 2975 2913 2975 3322 
Q 2975 3731 2742 3939 
Q 2509 4147 2053 4147 
L 1259 4147 
z
" transform="scale(0.015625)"/>
     </defs>
     <use xlink:href="#DejaVuSans-4d"/>
     <use xlink:href="#DejaVuSans-65" x="86.279297"/>
     <use xlink:href="#DejaVuSans-61" x="147.802734"/>
     <use xlink:href="#DejaVuSans-6e" x="209.082031"/>
     <use xlink:href="#DejaVuSans-20" x="272.460938"/>
     <use xlink:href="#DejaVuSans-4f" x="304.248047"/>
     <use xlink:href="#DejaVuSans-70" x="382.958984"/>
     <use xlink:href="#DejaVuSans-69" x="446.435547"/>
     <use xlink:href="#DejaVuSans-6e" x="474.21875"/>
     <use xlink:href="#DejaVuSans-69" x="537.597656"/>
     <use xlink:href="#DejaVuSans-6f" x="565.380859"/>
     <use xlink:href="#DejaVuSans-6e" x="626.5625"/>
     <use xlink:href="#DejaVuSans-20" x="689.941406"/>
     <use xlink:href="#DejaVuSans-4d" x="721.728516"/>
     <use xlink:href="#DejaVuSans-61" x="808.007812"/>
     <use xlink:href="#DejaVuSans-67" x="869.287109"/>
     <use xlink:href="#DejaVuSans-6e" x="932.763672"/>
     <use xlink:href="#DejaVuSans-69" x="996.142578"/>
     <use xlink:href="#DejaVuSans-74" x="1023.925781"/>
     <use xlink:href="#DejaVuSans-75" x="1063.134766"/>
     <use xlink:href="#DejaVuSans-64" x="1126.513672"/>
     <use xlink:href="#DejaVuSans-65" x="1189.990234"/>
     <use xlink:href="#DejaVuSans-20" x="1251.513672"/>
     <use xlink:href="#DejaVuSans-41" x="1283.300781"/>
     <use xlink:href="#DejaVuSans-63" x="1349.958984"/>
     <use xlink:href="#DejaVuSans-72" x="1404.939453"/>
     <use xlink:href="#DejaVuSans-6f" x="1443.802734"/>
     <use xlink:href="#DejaVuSans-73" x="1504.984375"/>
     <use xlink:href="#DejaVuSans-73" x="1557.083984"/>
     <use xlink:href="#DejaVuSans-20" x="1609.183594"/>
     <use xlink:href="#DejaVuSans-52" x="1640.970703"/>
     <use xlink:href="#DejaVuSans-75" x="1705.953125"/>
     <use xlink:href="#DejaVuSans-6e" x="1769.332031"/>
     <use xlink:href="#DejaVuSans-73" x="1832.710938"/>
    </g>
   </g>
  </g>
 </g>
 <defs>
  <clipPath id="p5fb4d6fa68">
   <rect x="54.02" y="26.88" width="655.18" height="507.16"/>
  </clipPath>
 </defs>
</svg>
