<?xml version="1.0" encoding="utf-8" standalone="no"?>
<!DOCTYPE svg PUBLIC "-//W3C//DTD SVG 1.1//EN"
  "http://www.w3.org/Graphics/SVG/1.1/DTD/svg11.dtd">
<svg xmlns:xlink="http://www.w3.org/1999/xlink" width="720pt" height="576pt" viewBox="0 0 720 576" xmlns="http://www.w3.org/2000/svg" version="1.1">
 <metadata>
  <rdf:RDF xmlns:dc="http://purl.org/dc/elements/1.1/" xmlns:cc="http://creativecommons.org/ns#" xmlns:rdf="http://www.w3.org/1999/02/22-rdf-syntax-ns#">
   <cc:Work>
    <dc:type rdf:resource="http://purl.org/dc/dcmitype/StillImage"/>
    <dc:date>2024-10-29T18:23:07.098478</dc:date>
    <dc:format>image/svg+xml</dc:format>
    <dc:creator>
     <cc:Agent>
      <dc:title>Matplotlib v3.9.2, https://matplotlib.org/</dc:title>
     </cc:Agent>
    </dc:creator>
   </cc:Work>
  </rdf:RDF>
 </metadata>
 <defs>
  <style type="text/css">*{stroke-linejoin: round; stroke-linecap: butt}</style>
 </defs>
 <g id="figure_1">
  <g id="patch_1">
   <path d="M 0 576 
L 720 576 
L 720 0 
L 0 0 
z
" style="fill: #ffffff"/>
  </g>
  <g id="axes_1">
   <g id="patch_2">
    <path d="M 54.02 534.04 
L 709.2 534.04 
L 709.2 26.88 
L 54.02 26.88 
z
" style="fill: #ffffff"/>
   </g>
   <g id="PolyCollection_1">
    <path d="M 83.800909 507.410516 
L 83.800909 510.987273 
L 84.397721 509.068336 
L 84.994533 504.375114 
L 85.591345 497.304839 
L 86.188156 488.051799 
L 86.784968 477.612195 
L 87.38178 466.787145 
L 87.978592 455.219387 
L 88.575404 442.347184 
L 89.172215 429.087228 
L 89.769027 416.088186 
L 90.365839 403.605716 
L 90.962651 391.763441 
L 91.559463 380.56978 
L 92.156274 370.030512 
L 92.753086 360.110945 
L 93.349898 350.922083 
L 93.94671 342.380201 
L 94.543522 334.423467 
L 95.140333 326.978503 
L 95.737145 310.648485 
L 96.333957 294.461176 
L 96.930769 278.786537 
L 97.527581 263.906969 
L 98.124392 250.098559 
L 98.721204 237.36672 
L 99.318016 225.603744 
L 99.914828 215.008542 
L 100.51164 205.953595 
L 101.108451 198.186635 
L 101.705263 191.413233 
L 102.302075 185.453509 
L 102.898887 180.161709 
L 103.495699 175.445781 
L 104.09251 171.213495 
L 104.689322 167.403684 
L 105.286134 163.835436 
L 105.882946 160.482676 
L 106.479758 157.317121 
L 107.07657 154.329684 
L 107.673381 151.299504 
L 108.270193 148.224557 
L 108.867005 145.158281 
L 109.463817 142.159928 
L 110.060629 139.267012 
L 110.65744 136.505955 
L 111.254252 133.886656 
L 111.851064 131.416011 
L 112.447876 129.0885 
L 113.044688 126.897808 
L 113.641499 124.842349 
L 114.238311 122.913775 
L 114.835123 121.102517 
L 115.431935 119.401203 
L 116.028747 117.802657 
L 116.625558 116.301103 
L 117.22237 114.891291 
L 117.819182 113.567812 
L 118.415994 112.3224 
L 119.012806 111.151586 
L 119.609617 110.050699 
L 120.206429 109.015995 
L 120.803241 108.041569 
L 121.400053 107.124052 
L 121.996865 106.259285 
L 122.593676 105.445282 
L 123.190488 104.678731 
L 123.7873 103.955597 
L 124.384112 103.274089 
L 124.980924 102.631306 
L 125.577735 102.02555 
L 126.174547 101.453353 
L 126.771359 100.913161 
L 127.368171 100.403271 
L 127.964983 99.922262 
L 128.561794 99.467157 
L 129.158606 99.037829 
L 129.755418 98.632043 
L 130.35223 98.248615 
L 130.949042 97.88641 
L 131.545854 97.544312 
L 132.142665 97.221027 
L 132.739477 96.915615 
L 133.336289 96.626987 
L 133.933101 96.354031 
L 134.529913 96.095868 
L 135.126724 95.851562 
L 135.723536 95.620498 
L 136.320348 95.402035 
L 136.91716 95.195162 
L 137.513972 94.99946 
L 138.110783 94.814298 
L 138.707595 94.638972 
L 139.304407 94.472995 
L 139.901219 94.31581 
L 140.498031 94.167096 
L 141.094842 94.026115 
L 141.691654 93.892559 
L 142.288466 93.765979 
L 142.885278 93.645896 
L 143.48209 93.532135 
L 144.078901 93.42426 
L 144.675713 93.322008 
L 145.272525 93.225004 
L 145.869337 93.133033 
L 146.466149 93.045821 
L 147.06296 92.963138 
L 147.659772 92.884696 
L 148.256584 92.810213 
L 148.853396 92.739629 
L 149.450208 92.672609 
L 150.047019 92.609036 
L 150.643831 92.548717 
L 151.240643 92.491465 
L 151.837455 92.437113 
L 152.434267 92.385556 
L 153.031079 92.336598 
L 153.62789 92.290076 
L 154.224702 92.245954 
L 154.821514 92.204072 
L 155.418326 92.164262 
L 156.015138 92.126421 
L 156.611949 92.090452 
L 157.208761 92.056282 
L 157.805573 92.023813 
L 158.402385 91.992957 
L 158.999197 91.963645 
L 159.596008 91.93577 
L 160.19282 91.909306 
L 160.789632 91.884177 
L 161.386444 91.860274 
L 161.983256 91.83755 
L 162.580067 91.81597 
L 163.176879 91.795438 
L 163.773691 91.775916 
L 164.370503 91.757374 
L 164.967315 91.739757 
L 165.564126 91.723026 
L 166.160938 91.707111 
L 166.75775 91.691971 
L 167.354562 91.67758 
L 167.951374 91.663884 
L 168.548185 91.650844 
L 169.144997 91.638434 
L 169.741809 91.626643 
L 170.338621 91.615429 
L 170.935433 91.604761 
L 171.532244 91.594614 
L 172.129056 91.58497 
L 172.725868 91.57579 
L 173.32268 91.567062 
L 173.919492 91.558762 
L 174.516304 91.550864 
L 175.113115 91.543357 
L 175.709927 91.536212 
L 176.306739 91.529411 
L 176.903551 91.522933 
L 177.500363 91.516766 
L 178.097174 91.5109 
L 178.693986 91.505314 
L 179.290798 91.500003 
L 179.88761 91.494949 
L 180.484422 91.490137 
L 181.081233 91.485561 
L 181.678045 91.4812 
L 182.274857 91.477053 
L 182.871669 91.473103 
L 183.468481 91.469341 
L 184.065292 91.465759 
L 184.662104 91.462351 
L 185.258916 91.459106 
L 185.855728 91.456015 
L 186.45254 91.453072 
L 187.049351 91.450269 
L 187.646163 91.4476 
L 188.242975 91.44506 
L 188.839787 91.442642 
L 189.436599 91.44034 
L 190.03341 91.438146 
L 190.630222 91.436058 
L 191.227034 91.434066 
L 191.823846 91.432167 
L 192.420658 91.430358 
L 193.017469 91.428635 
L 193.614281 91.426994 
L 194.211093 91.425432 
L 194.807905 91.423942 
L 195.404717 91.422524 
L 196.001529 91.421172 
L 196.59834 91.419883 
L 197.195152 91.418656 
L 197.791964 91.417488 
L 198.388776 91.416375 
L 198.985588 91.415314 
L 199.582399 91.414305 
L 200.179211 91.413342 
L 200.776023 91.412424 
L 201.372835 91.411548 
L 201.969647 91.410714 
L 202.566458 91.40992 
L 203.16327 91.409163 
L 203.760082 91.408443 
L 204.356894 91.407757 
L 204.953706 91.407103 
L 205.550517 91.406478 
L 206.147329 91.405883 
L 206.744141 91.405317 
L 207.340953 91.404777 
L 207.937765 91.404263 
L 208.534576 91.403773 
L 209.131388 91.403307 
L 209.7282 91.402862 
L 210.325012 91.402438 
L 210.921824 91.402034 
L 211.518635 91.401648 
L 212.115447 91.401281 
L 212.712259 91.400931 
L 213.309071 91.400598 
L 213.905883 91.40028 
L 214.502694 91.399977 
L 215.099506 91.399688 
L 215.696318 91.399413 
L 216.29313 91.39915 
L 216.889942 91.3989 
L 217.486754 91.398662 
L 218.083565 91.398434 
L 218.680377 91.398217 
L 219.277189 91.398011 
L 219.874001 91.397813 
L 220.470813 91.397625 
L 221.067624 91.397445 
L 221.664436 91.397274 
L 222.261248 91.397111 
L 222.85806 91.396956 
L 223.454872 91.396808 
L 224.051683 91.396666 
L 224.648495 91.396532 
L 225.245307 91.396403 
L 225.842119 91.396281 
L 226.438931 91.396164 
L 227.035742 91.396053 
L 227.632554 91.395946 
L 228.229366 91.395845 
L 228.826178 91.395748 
L 229.42299 91.395656 
L 230.019801 91.395568 
L 230.616613 91.395484 
L 231.213425 91.395404 
L 231.810237 91.395328 
L 232.407049 91.395256 
L 233.00386 91.395186 
L 233.600672 91.39512 
L 234.197484 91.395058 
L 234.794296 91.394997 
L 235.391108 91.39494 
L 235.987919 91.394886 
L 236.584731 91.394833 
L 237.181543 91.394784 
L 237.778355 91.394736 
L 238.375167 91.394691 
L 238.971979 91.394648 
L 239.56879 91.394607 
L 240.165602 91.394567 
L 240.762414 91.39453 
L 241.359226 91.394494 
L 241.956038 91.39446 
L 242.552849 91.394428 
L 243.149661 91.394397 
L 243.746473 91.394367 
L 244.343285 91.394339 
L 244.940097 91.394312 
L 245.536908 91.394286 
L 246.13372 91.394261 
L 246.730532 91.394238 
L 247.327344 91.394216 
L 247.924156 91.394194 
L 248.520967 91.394174 
L 249.117779 91.394154 
L 249.714591 91.394136 
L 250.311403 91.394118 
L 250.908215 91.394101 
L 251.505026 91.394085 
L 252.101838 91.39407 
L 252.69865 91.394055 
L 253.295462 91.394041 
L 253.892274 91.394027 
L 254.489085 91.394015 
L 255.085897 91.394003 
L 255.682709 91.393991 
L 256.279521 91.39398 
L 256.876333 91.393969 
L 257.473144 91.393959 
L 258.069956 91.393949 
L 258.666768 91.39394 
L 259.26358 91.393931 
L 259.860392 91.393923 
L 260.457203 91.393915 
L 261.054015 91.393907 
L 261.650827 91.3939 
L 262.247639 91.393893 
L 262.844451 91.393886 
L 263.441263 91.39388 
L 264.038074 91.393874 
L 264.634886 91.393868 
L 265.231698 91.393863 
L 265.82851 91.393858 
L 266.425322 91.393852 
L 267.022133 91.393848 
L 267.618945 91.393843 
L 268.215757 91.393839 
L 268.812569 91.393835 
L 269.409381 91.393831 
L 270.006192 91.393827 
L 270.603004 91.393823 
L 271.199816 91.39382 
L 271.796628 91.393816 
L 272.39344 91.393813 
L 272.990251 91.39381 
L 273.587063 91.393807 
L 274.183875 91.393805 
L 274.780687 91.393802 
L 275.377499 91.393799 
L 275.97431 91.393797 
L 276.571122 91.393795 
L 277.167934 91.393793 
L 277.764746 91.39379 
L 278.361558 91.393788 
L 278.958369 91.393787 
L 279.555181 91.393785 
L 280.151993 91.393783 
L 280.748805 91.393781 
L 281.345617 91.39378 
L 281.942428 91.393778 
L 282.53924 91.393777 
L 283.136052 91.393776 
L 283.732864 91.393774 
L 284.329676 91.393773 
L 284.926488 91.393772 
L 285.523299 91.393771 
L 286.120111 91.39377 
L 286.716923 91.393769 
L 287.313735 91.393768 
L 287.910547 91.393767 
L 288.507358 91.393766 
L 289.10417 91.393765 
L 289.700982 91.393764 
L 290.297794 91.393763 
L 290.894606 91.393763 
L 291.491417 91.393762 
L 292.088229 91.393761 
L 292.685041 91.393761 
L 293.281853 91.39376 
L 293.878665 91.393759 
L 294.475476 91.393759 
L 295.072288 91.393758 
L 295.6691 91.393758 
L 296.265912 91.393757 
L 296.862724 91.393757 
L 297.459535 91.393757 
L 298.056347 91.393756 
L 298.653159 91.393756 
L 299.249971 91.393755 
L 299.846783 91.393755 
L 300.443594 91.393755 
L 301.040406 91.393755 
L 301.637218 91.393754 
L 302.23403 91.393754 
L 302.830842 91.393754 
L 303.427653 91.393754 
L 304.024465 91.393753 
L 304.621277 91.393753 
L 305.218089 91.393753 
L 305.814901 91.393753 
L 306.411713 91.393753 
L 307.008524 91.393753 
L 307.605336 91.393753 
L 308.202148 91.393752 
L 308.79896 91.393752 
L 309.395772 91.393752 
L 309.992583 91.393752 
L 310.589395 91.393752 
L 311.186207 91.393752 
L 311.783019 91.393752 
L 312.379831 91.393752 
L 312.976642 91.393752 
L 313.573454 91.393752 
L 314.170266 91.393752 
L 314.767078 91.393751 
L 315.36389 91.393751 
L 315.960701 91.393751 
L 316.557513 91.393751 
L 317.154325 91.393751 
L 317.751137 91.393751 
L 318.347949 91.393751 
L 318.94476 91.393751 
L 319.541572 91.393751 
L 320.138384 91.393751 
L 320.735196 91.393751 
L 321.332008 91.393751 
L 321.928819 91.393751 
L 322.525631 91.393751 
L 323.122443 91.393751 
L 323.719255 91.393751 
L 324.316067 91.393751 
L 324.912878 91.393751 
L 325.50969 91.393751 
L 326.106502 91.393751 
L 326.703314 91.393751 
L 327.300126 91.393751 
L 327.896938 91.393751 
L 328.493749 91.393751 
L 329.090561 91.393751 
L 329.687373 91.393751 
L 330.284185 91.393751 
L 330.880997 91.393751 
L 331.477808 91.393751 
L 332.07462 91.393751 
L 332.671432 91.393751 
L 333.268244 91.393751 
L 333.865056 91.393751 
L 334.461867 91.393751 
L 335.058679 91.393751 
L 335.655491 91.393751 
L 336.252303 91.393751 
L 336.849115 91.393751 
L 337.445926 91.393751 
L 338.042738 91.393751 
L 338.63955 91.393751 
L 339.236362 91.393751 
L 339.833174 91.393751 
L 340.429985 91.393751 
L 341.026797 91.393751 
L 341.623609 91.393751 
L 342.220421 91.393751 
L 342.817233 91.393751 
L 343.414044 91.393751 
L 344.010856 91.393751 
L 344.607668 91.393751 
L 345.20448 91.393751 
L 345.801292 91.393751 
L 346.398103 91.393751 
L 346.994915 91.393751 
L 347.591727 91.393751 
L 348.188539 91.393751 
L 348.785351 91.393751 
L 349.382163 91.393751 
L 349.978974 91.393751 
L 350.575786 91.393751 
L 351.172598 91.393751 
L 351.76941 91.393751 
L 352.366222 91.393751 
L 352.963033 91.393751 
L 353.559845 91.393751 
L 354.156657 91.393751 
L 354.753469 91.393751 
L 355.350281 91.393751 
L 355.947092 91.393751 
L 356.543904 91.393751 
L 357.140716 91.393751 
L 357.737528 91.393751 
L 358.33434 91.393751 
L 358.931151 91.393751 
L 359.527963 91.393751 
L 360.124775 91.393751 
L 360.721587 91.393751 
L 361.318399 91.393751 
L 361.91521 91.393751 
L 362.512022 91.393751 
L 363.108834 91.393751 
L 363.705646 91.393751 
L 364.302458 91.393751 
L 364.899269 91.393751 
L 365.496081 91.393751 
L 366.092893 91.393751 
L 366.689705 91.393751 
L 367.286517 91.393751 
L 367.883328 91.393751 
L 368.48014 91.393751 
L 369.076952 91.393751 
L 369.673764 91.393751 
L 370.270576 91.393751 
L 370.867388 91.393751 
L 371.464199 91.393751 
L 372.061011 91.393751 
L 372.657823 91.393751 
L 373.254635 91.393751 
L 373.851447 91.393751 
L 374.448258 91.393751 
L 375.04507 91.393751 
L 375.641882 91.393751 
L 376.238694 91.393751 
L 376.835506 91.393751 
L 377.432317 91.393751 
L 378.029129 91.393751 
L 378.625941 91.393751 
L 379.222753 91.393751 
L 379.819565 91.393751 
L 380.416376 91.393751 
L 381.013188 91.393751 
L 381.61 91.393751 
L 382.206812 91.393751 
L 382.803624 91.393751 
L 383.400435 91.393751 
L 383.997247 91.393751 
L 384.594059 91.393751 
L 385.190871 91.393751 
L 385.787683 91.393751 
L 386.384494 91.393751 
L 386.981306 91.393751 
L 387.578118 91.393751 
L 388.17493 91.393751 
L 388.771742 91.393751 
L 389.368553 91.393751 
L 389.965365 91.393751 
L 390.562177 91.393751 
L 391.158989 91.393751 
L 391.755801 91.393751 
L 392.352612 91.393751 
L 392.949424 91.393751 
L 393.546236 91.393751 
L 394.143048 91.393751 
L 394.73986 91.393751 
L 395.336672 91.393751 
L 395.933483 91.393751 
L 396.530295 91.393751 
L 397.127107 91.393751 
L 397.723919 91.393751 
L 398.320731 91.393751 
L 398.917542 91.393751 
L 399.514354 91.393751 
L 400.111166 91.393751 
L 400.707978 91.393751 
L 401.30479 91.393751 
L 401.901601 91.393751 
L 402.498413 91.393751 
L 403.095225 91.393751 
L 403.692037 91.393751 
L 404.288849 91.393751 
L 404.88566 91.393751 
L 405.482472 91.393751 
L 406.079284 91.393751 
L 406.676096 91.393751 
L 407.272908 91.393751 
L 407.869719 91.393751 
L 408.466531 91.393751 
L 409.063343 91.393751 
L 409.660155 91.393751 
L 410.256967 91.393751 
L 410.853778 91.393751 
L 411.45059 91.393751 
L 412.047402 91.393751 
L 412.644214 91.393751 
L 413.241026 91.393751 
L 413.837837 91.393751 
L 414.434649 91.393751 
L 415.031461 91.393751 
L 415.628273 91.393751 
L 416.225085 91.393751 
L 416.821897 91.393751 
L 417.418708 91.393751 
L 418.01552 91.393751 
L 418.612332 91.393751 
L 419.209144 91.393751 
L 419.805956 91.393751 
L 420.402767 91.393751 
L 420.999579 91.393751 
L 421.596391 91.393751 
L 422.193203 91.393751 
L 422.790015 91.393751 
L 423.386826 91.393751 
L 423.983638 91.393751 
L 424.58045 91.393751 
L 425.177262 91.393751 
L 425.774074 91.393751 
L 426.370885 91.393751 
L 426.967697 91.393751 
L 427.564509 91.393751 
L 428.161321 91.393751 
L 428.758133 91.393751 
L 429.354944 91.393751 
L 429.951756 91.393751 
L 430.548568 91.393751 
L 431.14538 91.393751 
L 431.742192 91.393751 
L 432.339003 91.393751 
L 432.935815 91.393751 
L 433.532627 91.393751 
L 434.129439 91.393751 
L 434.726251 91.393751 
L 435.323062 91.393751 
L 435.919874 91.393751 
L 436.516686 91.393751 
L 437.113498 91.393751 
L 437.71031 91.39375 
L 438.307122 91.393751 
L 438.903933 91.393751 
L 439.500745 91.393751 
L 440.097557 91.393751 
L 440.694369 91.393751 
L 441.291181 91.393751 
L 441.887992 91.393751 
L 442.484804 91.393751 
L 443.081616 91.393751 
L 443.678428 91.393751 
L 444.27524 91.393751 
L 444.872051 91.393751 
L 445.468863 91.393751 
L 446.065675 91.393751 
L 446.662487 91.393751 
L 447.259299 91.393751 
L 447.85611 91.393751 
L 448.452922 91.393751 
L 449.049734 91.393751 
L 449.646546 91.393751 
L 450.243358 91.393751 
L 450.840169 91.393751 
L 451.436981 91.393751 
L 452.033793 91.393751 
L 452.630605 91.393751 
L 453.227417 91.393751 
L 453.824228 91.393751 
L 454.42104 91.393751 
L 455.017852 91.39375 
L 455.614664 91.39375 
L 456.211476 91.393751 
L 456.808287 91.39375 
L 457.405099 91.393751 
L 458.001911 91.39375 
L 458.598723 91.39375 
L 459.195535 91.39375 
L 459.792347 91.39375 
L 460.389158 91.39375 
L 460.98597 91.39375 
L 461.582782 91.39375 
L 462.179594 91.39375 
L 462.776406 91.39375 
L 463.373217 91.39375 
L 463.970029 91.39375 
L 464.566841 91.39375 
L 465.163653 91.39375 
L 465.760465 91.39375 
L 466.357276 91.39375 
L 466.954088 91.39375 
L 467.5509 91.39375 
L 468.147712 91.39375 
L 468.744524 91.39375 
L 469.341335 91.39375 
L 469.938147 91.39375 
L 470.534959 91.39375 
L 471.131771 91.393751 
L 471.728583 91.39375 
L 472.325394 91.39375 
L 472.922206 91.39375 
L 473.519018 91.39375 
L 474.11583 91.39375 
L 474.712642 91.39375 
L 475.309453 91.39375 
L 475.906265 91.39375 
L 476.503077 91.39375 
L 477.099889 91.39375 
L 477.696701 91.39375 
L 478.293512 91.39375 
L 478.890324 91.39375 
L 479.487136 91.39375 
L 480.083948 91.39375 
L 480.68076 91.39375 
L 481.277572 91.39375 
L 481.874383 91.39375 
L 482.471195 91.39375 
L 483.068007 91.39375 
L 483.664819 91.39375 
L 484.261631 91.39375 
L 484.858442 91.39375 
L 485.455254 91.393751 
L 486.052066 91.393751 
L 486.648878 91.393751 
L 487.24569 91.393751 
L 487.842501 91.393751 
L 488.439313 91.393751 
L 489.036125 91.393751 
L 489.632937 91.393751 
L 490.229749 91.393751 
L 490.82656 91.393751 
L 491.423372 91.393751 
L 492.020184 91.393751 
L 492.616996 91.393751 
L 493.213808 91.393751 
L 493.810619 91.393751 
L 494.407431 91.393751 
L 495.004243 91.393751 
L 495.601055 91.393751 
L 496.197867 91.393751 
L 496.794678 91.393751 
L 497.39149 91.393751 
L 497.988302 91.393751 
L 498.585114 91.393751 
L 499.181926 91.393751 
L 499.778737 91.393751 
L 500.375549 91.393751 
L 500.972361 91.393751 
L 501.569173 91.393751 
L 502.165985 91.393751 
L 502.762797 91.393751 
L 503.359608 91.393751 
L 503.95642 91.393751 
L 504.553232 91.393751 
L 505.150044 91.393751 
L 505.746856 91.393751 
L 506.343667 91.393751 
L 506.940479 91.393751 
L 507.537291 91.393751 
L 508.134103 91.393751 
L 508.730915 91.393751 
L 509.327726 91.393751 
L 509.924538 91.393751 
L 510.52135 91.393751 
L 511.118162 91.393751 
L 511.714974 91.393751 
L 512.311785 91.393751 
L 512.908597 91.393751 
L 513.505409 91.393751 
L 514.102221 91.393751 
L 514.699033 91.39375 
L 515.295844 91.393751 
L 515.892656 91.393751 
L 516.489468 91.39375 
L 517.08628 91.393751 
L 517.683092 91.393751 
L 518.279903 91.393751 
L 518.876715 91.39375 
L 519.473527 91.39375 
L 520.070339 91.39375 
L 520.667151 91.39375 
L 521.263962 91.39375 
L 521.860774 91.39375 
L 522.457586 91.39375 
L 523.054398 91.39375 
L 523.65121 91.39375 
L 524.248021 91.39375 
L 524.844833 91.39375 
L 525.441645 91.39375 
L 526.038457 91.39375 
L 526.635269 91.39375 
L 527.232081 91.39375 
L 527.828892 91.393751 
L 528.425704 91.393751 
L 529.022516 91.393751 
L 529.619328 91.393751 
L 530.21614 91.393751 
L 530.812951 91.393751 
L 531.409763 91.393751 
L 532.006575 91.393751 
L 532.603387 91.393751 
L 533.200199 91.393751 
L 533.79701 91.393751 
L 534.393822 91.393751 
L 534.990634 91.393751 
L 535.587446 91.393751 
L 536.184258 91.393751 
L 536.781069 91.393751 
L 537.377881 91.393751 
L 537.974693 91.393751 
L 538.571505 91.393751 
L 539.168317 91.393751 
L 539.765128 91.393751 
L 540.36194 91.393751 
L 540.958752 91.393751 
L 541.555564 91.393751 
L 542.152376 91.393751 
L 542.749187 91.393751 
L 543.345999 91.393751 
L 543.942811 91.393751 
L 544.539623 91.393751 
L 545.136435 91.393751 
L 545.733246 91.393751 
L 546.330058 91.393751 
L 546.92687 91.393751 
L 547.523682 91.393751 
L 548.120494 91.393751 
L 548.717306 91.393751 
L 549.314117 91.393751 
L 549.910929 91.393751 
L 550.507741 91.393751 
L 551.104553 91.393751 
L 551.701365 91.393751 
L 552.298176 91.393751 
L 552.894988 91.393751 
L 553.4918 91.393751 
L 554.088612 91.393751 
L 554.685424 91.393751 
L 555.282235 91.393751 
L 555.879047 91.393751 
L 556.475859 91.393751 
L 557.072671 91.393751 
L 557.669483 91.393751 
L 558.266294 91.393751 
L 558.863106 91.393751 
L 559.459918 91.393751 
L 560.05673 91.393751 
L 560.653542 91.393751 
L 561.250353 91.393751 
L 561.847165 91.393751 
L 562.443977 91.393751 
L 563.040789 91.393751 
L 563.637601 91.393751 
L 564.234412 91.393751 
L 564.831224 91.393751 
L 565.428036 91.393751 
L 566.024848 91.393751 
L 566.62166 91.393751 
L 567.218471 91.393751 
L 567.815283 91.393751 
L 568.412095 91.393751 
L 569.008907 91.393751 
L 569.605719 91.393751 
L 570.202531 91.393751 
L 570.799342 91.393751 
L 571.396154 91.393751 
L 571.992966 91.393751 
L 572.589778 91.393751 
L 573.18659 91.393751 
L 573.783401 91.393751 
L 574.380213 91.393751 
L 574.977025 91.393751 
L 575.573837 91.393751 
L 576.170649 91.393751 
L 576.76746 91.393751 
L 577.364272 91.393751 
L 577.961084 91.393751 
L 578.557896 91.393751 
L 579.154708 91.393751 
L 579.751519 91.393751 
L 580.348331 91.393751 
L 580.945143 91.393751 
L 581.541955 91.393751 
L 582.138767 91.393751 
L 582.735578 91.393751 
L 583.33239 91.393751 
L 583.929202 91.393751 
L 584.526014 91.393751 
L 585.122826 91.393751 
L 585.719637 91.393751 
L 586.316449 91.393751 
L 586.913261 91.393751 
L 587.510073 91.393751 
L 588.106885 91.393751 
L 588.703696 91.393751 
L 589.300508 91.393751 
L 589.89732 91.393751 
L 590.494132 91.393751 
L 591.090944 91.393751 
L 591.687756 91.393751 
L 592.284567 91.393751 
L 592.881379 91.393751 
L 593.478191 91.393751 
L 594.075003 91.393751 
L 594.671815 91.393751 
L 595.268626 91.393751 
L 595.865438 91.393751 
L 596.46225 91.393751 
L 597.059062 91.393751 
L 597.655874 91.393751 
L 598.252685 91.393751 
L 598.849497 91.393751 
L 599.446309 91.393751 
L 600.043121 91.393751 
L 600.639933 91.393751 
L 601.236744 91.393751 
L 601.833556 91.393751 
L 602.430368 91.393751 
L 603.02718 91.393751 
L 603.623992 91.393751 
L 604.220803 91.393751 
L 604.817615 91.393751 
L 605.414427 91.393751 
L 606.011239 91.393751 
L 606.608051 91.393751 
L 607.204862 91.393751 
L 607.801674 91.393751 
L 608.398486 91.393751 
L 608.995298 91.393751 
L 609.59211 91.393751 
L 610.188921 91.393751 
L 610.785733 91.393751 
L 611.382545 91.393751 
L 611.979357 91.393751 
L 612.576169 91.393751 
L 613.172981 91.393751 
L 613.769792 91.393751 
L 614.366604 91.393751 
L 614.963416 91.393751 
L 615.560228 91.393751 
L 616.15704 91.393751 
L 616.753851 91.393751 
L 617.350663 91.393751 
L 617.947475 91.393751 
L 618.544287 91.393751 
L 619.141099 91.393751 
L 619.73791 91.393751 
L 620.334722 91.393751 
L 620.931534 91.393751 
L 621.528346 91.393751 
L 622.125158 91.393751 
L 622.721969 91.393751 
L 623.318781 91.393751 
L 623.915593 91.393751 
L 624.512405 91.393751 
L 625.109217 91.393751 
L 625.706028 91.393751 
L 626.30284 91.393751 
L 626.899652 91.393751 
L 627.496464 91.393751 
L 628.093276 91.393751 
L 628.690087 91.393751 
L 629.286899 91.393751 
L 629.883711 91.393751 
L 630.480523 91.393751 
L 631.077335 91.393751 
L 631.674146 91.393751 
L 632.270958 91.393751 
L 632.86777 91.393751 
L 633.464582 91.393751 
L 634.061394 91.393751 
L 634.658206 91.393751 
L 635.255017 91.393751 
L 635.851829 91.393751 
L 636.448641 91.393751 
L 637.045453 91.393751 
L 637.642265 91.393751 
L 638.239076 91.393751 
L 638.835888 91.393751 
L 639.4327 91.393751 
L 640.029512 91.393751 
L 640.626324 91.393751 
L 641.223135 91.393751 
L 641.819947 91.393751 
L 642.416759 91.393751 
L 643.013571 91.393751 
L 643.610383 91.393751 
L 644.207194 91.393751 
L 644.804006 91.393751 
L 645.400818 91.393751 
L 645.99763 91.393751 
L 646.594442 91.393751 
L 647.191253 91.393751 
L 647.788065 91.393751 
L 648.384877 91.393751 
L 648.981689 91.393751 
L 649.578501 91.393751 
L 650.175312 91.393751 
L 650.772124 91.393751 
L 651.368936 91.393751 
L 651.965748 91.393751 
L 652.56256 91.393751 
L 653.159371 91.393751 
L 653.756183 91.393751 
L 654.352995 91.393751 
L 654.949807 91.393751 
L 655.546619 91.393751 
L 656.14343 91.393751 
L 656.740242 91.393751 
L 657.337054 91.393751 
L 657.933866 91.393751 
L 658.530678 91.393751 
L 659.12749 91.393751 
L 659.724301 91.393751 
L 660.321113 91.393751 
L 660.917925 91.393751 
L 661.514737 91.393751 
L 662.111549 91.393751 
L 662.70836 91.393751 
L 663.305172 91.393751 
L 663.901984 91.393751 
L 664.498796 91.393751 
L 665.095608 91.393751 
L 665.692419 91.393751 
L 666.289231 91.393751 
L 666.886043 91.393751 
L 667.482855 91.393751 
L 668.079667 91.393751 
L 668.676478 91.393751 
L 669.27329 91.393751 
L 669.870102 91.393751 
L 670.466914 91.393751 
L 671.063726 91.393751 
L 671.660537 91.393751 
L 672.257349 91.393751 
L 672.854161 91.393751 
L 673.450973 91.393751 
L 674.047785 91.393751 
L 674.644596 91.393751 
L 675.241408 91.393751 
L 675.83822 91.393751 
L 676.435032 91.393751 
L 677.031844 91.393751 
L 677.628655 91.393751 
L 678.225467 91.393751 
L 678.822279 91.393751 
L 679.419091 91.393751 
L 679.419091 49.932728 
L 679.419091 49.932728 
L 678.822279 49.932728 
L 678.225467 49.932728 
L 677.628655 49.932728 
L 677.031844 49.932728 
L 676.435032 49.932728 
L 675.83822 49.932728 
L 675.241408 49.932728 
L 674.644596 49.932728 
L 674.047785 49.932728 
L 673.450973 49.932728 
L 672.854161 49.932728 
L 672.257349 49.932728 
L 671.660537 49.932728 
L 671.063726 49.932728 
L 670.466914 49.932728 
L 669.870102 49.932728 
L 669.27329 49.932728 
L 668.676478 49.932728 
L 668.079667 49.932728 
L 667.482855 49.932728 
L 666.886043 49.932728 
L 666.289231 49.932728 
L 665.692419 49.932728 
L 665.095608 49.932728 
L 664.498796 49.932728 
L 663.901984 49.932728 
L 663.305172 49.932728 
L 662.70836 49.932728 
L 662.111549 49.932728 
L 661.514737 49.932728 
L 660.917925 49.932728 
L 660.321113 49.932728 
L 659.724301 49.932728 
L 659.12749 49.932728 
L 658.530678 49.932728 
L 657.933866 49.932728 
L 657.337054 49.932728 
L 656.740242 49.932728 
L 656.14343 49.932728 
L 655.546619 49.932728 
L 654.949807 49.932728 
L 654.352995 49.932728 
L 653.756183 49.932728 
L 653.159371 49.932728 
L 652.56256 49.932728 
L 651.965748 49.932728 
L 651.368936 49.932728 
L 650.772124 49.932728 
L 650.175312 49.932728 
L 649.578501 49.932728 
L 648.981689 49.932728 
L 648.384877 49.932728 
L 647.788065 49.932728 
L 647.191253 49.932728 
L 646.594442 49.932728 
L 645.99763 49.932728 
L 645.400818 49.932728 
L 644.804006 49.932728 
L 644.207194 49.932728 
L 643.610383 49.932728 
L 643.013571 49.932728 
L 642.416759 49.932728 
L 641.819947 49.932728 
L 641.223135 49.932728 
L 640.626324 49.932728 
L 640.029512 49.932728 
L 639.4327 49.932728 
L 638.835888 49.932728 
L 638.239076 49.932728 
L 637.642265 49.932728 
L 637.045453 49.932728 
L 636.448641 49.932728 
L 635.851829 49.932728 
L 635.255017 49.932728 
L 634.658206 49.932728 
L 634.061394 49.932728 
L 633.464582 49.932728 
L 632.86777 49.932728 
L 632.270958 49.932728 
L 631.674146 49.932728 
L 631.077335 49.932728 
L 630.480523 49.932728 
L 629.883711 49.932728 
L 629.286899 49.932728 
L 628.690087 49.932728 
L 628.093276 49.932728 
L 627.496464 49.932728 
L 626.899652 49.932728 
L 626.30284 49.932728 
L 625.706028 49.932728 
L 625.109217 49.932728 
L 624.512405 49.932728 
L 623.915593 49.932728 
L 623.318781 49.932728 
L 622.721969 49.932728 
L 622.125158 49.932728 
L 621.528346 49.932728 
L 620.931534 49.932728 
L 620.334722 49.932728 
L 619.73791 49.932728 
L 619.141099 49.932728 
L 618.544287 49.932728 
L 617.947475 49.932728 
L 617.350663 49.932728 
L 616.753851 49.932728 
L 616.15704 49.932728 
L 615.560228 49.932728 
L 614.963416 49.932728 
L 614.366604 49.932728 
L 613.769792 49.932728 
L 613.172981 49.932728 
L 612.576169 49.932728 
L 611.979357 49.932728 
L 611.382545 49.932728 
L 610.785733 49.932728 
L 610.188921 49.932728 
L 609.59211 49.932728 
L 608.995298 49.932728 
L 608.398486 49.932728 
L 607.801674 49.932728 
L 607.204862 49.932728 
L 606.608051 49.932728 
L 606.011239 49.932728 
L 605.414427 49.932728 
L 604.817615 49.932728 
L 604.220803 49.932728 
L 603.623992 49.932728 
L 603.02718 49.932728 
L 602.430368 49.932728 
L 601.833556 49.932728 
L 601.236744 49.932728 
L 600.639933 49.932728 
L 600.043121 49.932728 
L 599.446309 49.932728 
L 598.849497 49.932728 
L 598.252685 49.932728 
L 597.655874 49.932728 
L 597.059062 49.932728 
L 596.46225 49.932728 
L 595.865438 49.932728 
L 595.268626 49.932728 
L 594.671815 49.932728 
L 594.075003 49.932728 
L 593.478191 49.932728 
L 592.881379 49.932728 
L 592.284567 49.932728 
L 591.687756 49.932728 
L 591.090944 49.932728 
L 590.494132 49.932728 
L 589.89732 49.932728 
L 589.300508 49.932728 
L 588.703696 49.932728 
L 588.106885 49.932728 
L 587.510073 49.932728 
L 586.913261 49.932728 
L 586.316449 49.932728 
L 585.719637 49.932728 
L 585.122826 49.932728 
L 584.526014 49.932728 
L 583.929202 49.932728 
L 583.33239 49.932728 
L 582.735578 49.932728 
L 582.138767 49.932728 
L 581.541955 49.932728 
L 580.945143 49.932728 
L 580.348331 49.932728 
L 579.751519 49.932728 
L 579.154708 49.932728 
L 578.557896 49.932728 
L 577.961084 49.932728 
L 577.364272 49.932728 
L 576.76746 49.932728 
L 576.170649 49.932728 
L 575.573837 49.932728 
L 574.977025 49.932728 
L 574.380213 49.932728 
L 573.783401 49.932728 
L 573.18659 49.932728 
L 572.589778 49.932728 
L 571.992966 49.932728 
L 571.396154 49.932728 
L 570.799342 49.932728 
L 570.202531 49.932728 
L 569.605719 49.932728 
L 569.008907 49.932728 
L 568.412095 49.932728 
L 567.815283 49.932728 
L 567.218471 49.932728 
L 566.62166 49.932728 
L 566.024848 49.932728 
L 565.428036 49.932728 
L 564.831224 49.932728 
L 564.234412 49.932728 
L 563.637601 49.932728 
L 563.040789 49.932728 
L 562.443977 49.932728 
L 561.847165 49.932728 
L 561.250353 49.932728 
L 560.653542 49.932728 
L 560.05673 49.932728 
L 559.459918 49.932728 
L 558.863106 49.932728 
L 558.266294 49.932728 
L 557.669483 49.932728 
L 557.072671 49.932728 
L 556.475859 49.932728 
L 555.879047 49.932728 
L 555.282235 49.932728 
L 554.685424 49.932728 
L 554.088612 49.932728 
L 553.4918 49.932728 
L 552.894988 49.932728 
L 552.298176 49.932728 
L 551.701365 49.932728 
L 551.104553 49.932728 
L 550.507741 49.932728 
L 549.910929 49.932728 
L 549.314117 49.932728 
L 548.717306 49.932728 
L 548.120494 49.932728 
L 547.523682 49.932728 
L 546.92687 49.932728 
L 546.330058 49.932728 
L 545.733246 49.932728 
L 545.136435 49.932728 
L 544.539623 49.932728 
L 543.942811 49.932728 
L 543.345999 49.932728 
L 542.749187 49.932728 
L 542.152376 49.932728 
L 541.555564 49.932728 
L 540.958752 49.932728 
L 540.36194 49.932728 
L 539.765128 49.932728 
L 539.168317 49.932728 
L 538.571505 49.932728 
L 537.974693 49.932728 
L 537.377881 49.932728 
L 536.781069 49.932728 
L 536.184258 49.932728 
L 535.587446 49.932728 
L 534.990634 49.932728 
L 534.393822 49.932728 
L 533.79701 49.932728 
L 533.200199 49.932728 
L 532.603387 49.932728 
L 532.006575 49.932728 
L 531.409763 49.932728 
L 530.812951 49.932727 
L 530.21614 49.932727 
L 529.619328 49.932727 
L 529.022516 49.932727 
L 528.425704 49.932727 
L 527.828892 49.932727 
L 527.232081 49.932727 
L 526.635269 49.932727 
L 526.038457 49.932727 
L 525.441645 49.932727 
L 524.844833 49.932727 
L 524.248021 49.932727 
L 523.65121 49.932727 
L 523.054398 49.932727 
L 522.457586 49.932727 
L 521.860774 49.932727 
L 521.263962 49.932727 
L 520.667151 49.932727 
L 520.070339 49.932727 
L 519.473527 49.932727 
L 518.876715 49.932727 
L 518.279903 49.932727 
L 517.683092 49.932727 
L 517.08628 49.932727 
L 516.489468 49.932727 
L 515.892656 49.932727 
L 515.295844 49.932727 
L 514.699033 49.932727 
L 514.102221 49.932727 
L 513.505409 49.932727 
L 512.908597 49.932727 
L 512.311785 49.932728 
L 511.714974 49.932728 
L 511.118162 49.932728 
L 510.52135 49.932728 
L 509.924538 49.932728 
L 509.327726 49.932728 
L 508.730915 49.932728 
L 508.134103 49.932728 
L 507.537291 49.932728 
L 506.940479 49.932728 
L 506.343667 49.932728 
L 505.746856 49.932728 
L 505.150044 49.932728 
L 504.553232 49.932728 
L 503.95642 49.932728 
L 503.359608 49.932728 
L 502.762797 49.932728 
L 502.165985 49.932728 
L 501.569173 49.932728 
L 500.972361 49.932728 
L 500.375549 49.932728 
L 499.778737 49.932728 
L 499.181926 49.932728 
L 498.585114 49.932728 
L 497.988302 49.932728 
L 497.39149 49.932728 
L 496.794678 49.932728 
L 496.197867 49.932728 
L 495.601055 49.932728 
L 495.004243 49.932728 
L 494.407431 49.932728 
L 493.810619 49.932728 
L 493.213808 49.932728 
L 492.616996 49.932728 
L 492.020184 49.932728 
L 491.423372 49.932728 
L 490.82656 49.932728 
L 490.229749 49.932728 
L 489.632937 49.932728 
L 489.036125 49.932728 
L 488.439313 49.932728 
L 487.842501 49.932728 
L 487.24569 49.932728 
L 486.648878 49.932728 
L 486.052066 49.932728 
L 485.455254 49.932727 
L 484.858442 49.932727 
L 484.261631 49.932727 
L 483.664819 49.932727 
L 483.068007 49.932727 
L 482.471195 49.932727 
L 481.874383 49.932727 
L 481.277572 49.932727 
L 480.68076 49.932727 
L 480.083948 49.932727 
L 479.487136 49.932727 
L 478.890324 49.932727 
L 478.293512 49.932727 
L 477.696701 49.932727 
L 477.099889 49.932727 
L 476.503077 49.932727 
L 475.906265 49.932727 
L 475.309453 49.932727 
L 474.712642 49.932727 
L 474.11583 49.932727 
L 473.519018 49.932727 
L 472.922206 49.932727 
L 472.325394 49.932727 
L 471.728583 49.932727 
L 471.131771 49.932727 
L 470.534959 49.932727 
L 469.938147 49.932727 
L 469.341335 49.932727 
L 468.744524 49.932727 
L 468.147712 49.932727 
L 467.5509 49.932727 
L 466.954088 49.932727 
L 466.357276 49.932727 
L 465.760465 49.932727 
L 465.163653 49.932727 
L 464.566841 49.932727 
L 463.970029 49.932727 
L 463.373217 49.932727 
L 462.776406 49.932727 
L 462.179594 49.932727 
L 461.582782 49.932727 
L 460.98597 49.932727 
L 460.389158 49.932727 
L 459.792347 49.932727 
L 459.195535 49.932727 
L 458.598723 49.932727 
L 458.001911 49.932727 
L 457.405099 49.932727 
L 456.808287 49.932727 
L 456.211476 49.932727 
L 455.614664 49.932727 
L 455.017852 49.932727 
L 454.42104 49.932727 
L 453.824228 49.932728 
L 453.227417 49.932728 
L 452.630605 49.932728 
L 452.033793 49.932728 
L 451.436981 49.932728 
L 450.840169 49.932728 
L 450.243358 49.932728 
L 449.646546 49.932728 
L 449.049734 49.932728 
L 448.452922 49.932728 
L 447.85611 49.932728 
L 447.259299 49.932728 
L 446.662487 49.932728 
L 446.065675 49.932728 
L 445.468863 49.932728 
L 444.872051 49.932728 
L 444.27524 49.932728 
L 443.678428 49.932728 
L 443.081616 49.932728 
L 442.484804 49.932728 
L 441.887992 49.932728 
L 441.291181 49.932728 
L 440.694369 49.932728 
L 440.097557 49.932728 
L 439.500745 49.932728 
L 438.903933 49.932727 
L 438.307122 49.932727 
L 437.71031 49.932727 
L 437.113498 49.932727 
L 436.516686 49.932727 
L 435.919874 49.932728 
L 435.323062 49.932728 
L 434.726251 49.932728 
L 434.129439 49.932728 
L 433.532627 49.932728 
L 432.935815 49.932728 
L 432.339003 49.932728 
L 431.742192 49.932728 
L 431.14538 49.932728 
L 430.548568 49.932728 
L 429.951756 49.932728 
L 429.354944 49.932728 
L 428.758133 49.932728 
L 428.161321 49.932728 
L 427.564509 49.932728 
L 426.967697 49.932728 
L 426.370885 49.932728 
L 425.774074 49.932728 
L 425.177262 49.932728 
L 424.58045 49.932728 
L 423.983638 49.932728 
L 423.386826 49.932728 
L 422.790015 49.932728 
L 422.193203 49.932728 
L 421.596391 49.932728 
L 420.999579 49.932728 
L 420.402767 49.932728 
L 419.805956 49.932728 
L 419.209144 49.932728 
L 418.612332 49.932728 
L 418.01552 49.932728 
L 417.418708 49.932728 
L 416.821897 49.932728 
L 416.225085 49.932728 
L 415.628273 49.932728 
L 415.031461 49.932728 
L 414.434649 49.932728 
L 413.837837 49.932728 
L 413.241026 49.932728 
L 412.644214 49.932728 
L 412.047402 49.932728 
L 411.45059 49.932728 
L 410.853778 49.932728 
L 410.256967 49.932728 
L 409.660155 49.932728 
L 409.063343 49.932728 
L 408.466531 49.932728 
L 407.869719 49.932727 
L 407.272908 49.932728 
L 406.676096 49.932728 
L 406.079284 49.932728 
L 405.482472 49.932728 
L 404.88566 49.932728 
L 404.288849 49.932728 
L 403.692037 49.932728 
L 403.095225 49.932727 
L 402.498413 49.932727 
L 401.901601 49.932727 
L 401.30479 49.932728 
L 400.707978 49.932728 
L 400.111166 49.932728 
L 399.514354 49.932727 
L 398.917542 49.932727 
L 398.320731 49.932728 
L 397.723919 49.932728 
L 397.127107 49.932728 
L 396.530295 49.932728 
L 395.933483 49.932728 
L 395.336672 49.932728 
L 394.73986 49.932728 
L 394.143048 49.932728 
L 393.546236 49.932728 
L 392.949424 49.932728 
L 392.352612 49.932728 
L 391.755801 49.932728 
L 391.158989 49.932728 
L 390.562177 49.932728 
L 389.965365 49.932728 
L 389.368553 49.932728 
L 388.771742 49.932728 
L 388.17493 49.932728 
L 387.578118 49.932728 
L 386.981306 49.932728 
L 386.384494 49.932728 
L 385.787683 49.932728 
L 385.190871 49.932728 
L 384.594059 49.932728 
L 383.997247 49.932728 
L 383.400435 49.932728 
L 382.803624 49.932728 
L 382.206812 49.932728 
L 381.61 49.932728 
L 381.013188 49.932728 
L 380.416376 49.932728 
L 379.819565 49.932728 
L 379.222753 49.932728 
L 378.625941 49.932728 
L 378.029129 49.932728 
L 377.432317 49.932728 
L 376.835506 49.932728 
L 376.238694 49.932728 
L 375.641882 49.932728 
L 375.04507 49.932728 
L 374.448258 49.932728 
L 373.851447 49.932728 
L 373.254635 49.932728 
L 372.657823 49.932728 
L 372.061011 49.932728 
L 371.464199 49.932728 
L 370.867388 49.932728 
L 370.270576 49.932728 
L 369.673764 49.932728 
L 369.076952 49.932728 
L 368.48014 49.932728 
L 367.883328 49.932728 
L 367.286517 49.932728 
L 366.689705 49.932728 
L 366.092893 49.932728 
L 365.496081 49.932728 
L 364.899269 49.932728 
L 364.302458 49.932728 
L 363.705646 49.932728 
L 363.108834 49.932728 
L 362.512022 49.932728 
L 361.91521 49.932728 
L 361.318399 49.932728 
L 360.721587 49.932728 
L 360.124775 49.932728 
L 359.527963 49.932728 
L 358.931151 49.932728 
L 358.33434 49.932728 
L 357.737528 49.932728 
L 357.140716 49.932728 
L 356.543904 49.932728 
L 355.947092 49.932727 
L 355.350281 49.932727 
L 354.753469 49.932728 
L 354.156657 49.932727 
L 353.559845 49.932727 
L 352.963033 49.932728 
L 352.366222 49.932727 
L 351.76941 49.932727 
L 351.172598 49.932728 
L 350.575786 49.932727 
L 349.978974 49.932728 
L 349.382163 49.932728 
L 348.785351 49.932728 
L 348.188539 49.932728 
L 347.591727 49.932728 
L 346.994915 49.932728 
L 346.398103 49.932728 
L 345.801292 49.932728 
L 345.20448 49.932728 
L 344.607668 49.932728 
L 344.010856 49.932728 
L 343.414044 49.932728 
L 342.817233 49.932728 
L 342.220421 49.932728 
L 341.623609 49.932728 
L 341.026797 49.932728 
L 340.429985 49.932728 
L 339.833174 49.932728 
L 339.236362 49.932728 
L 338.63955 49.932728 
L 338.042738 49.932728 
L 337.445926 49.932728 
L 336.849115 49.932728 
L 336.252303 49.932728 
L 335.655491 49.932728 
L 335.058679 49.932728 
L 334.461867 49.932728 
L 333.865056 49.932728 
L 333.268244 49.932728 
L 332.671432 49.932728 
L 332.07462 49.932728 
L 331.477808 49.932728 
L 330.880997 49.932728 
L 330.284185 49.932728 
L 329.687373 49.932728 
L 329.090561 49.932728 
L 328.493749 49.932728 
L 327.896938 49.932728 
L 327.300126 49.932728 
L 326.703314 49.932728 
L 326.106502 49.932728 
L 325.50969 49.932728 
L 324.912878 49.932728 
L 324.316067 49.932728 
L 323.719255 49.932728 
L 323.122443 49.932728 
L 322.525631 49.932728 
L 321.928819 49.932728 
L 321.332008 49.932728 
L 320.735196 49.932728 
L 320.138384 49.932728 
L 319.541572 49.932728 
L 318.94476 49.932728 
L 318.347949 49.932728 
L 317.751137 49.932728 
L 317.154325 49.932728 
L 316.557513 49.932728 
L 315.960701 49.932728 
L 315.36389 49.932729 
L 314.767078 49.932729 
L 314.170266 49.932729 
L 313.573454 49.932729 
L 312.976642 49.932729 
L 312.379831 49.932729 
L 311.783019 49.932729 
L 311.186207 49.932729 
L 310.589395 49.932729 
L 309.992583 49.932729 
L 309.395772 49.932729 
L 308.79896 49.93273 
L 308.202148 49.93273 
L 307.605336 49.93273 
L 307.008524 49.93273 
L 306.411713 49.93273 
L 305.814901 49.93273 
L 305.218089 49.93273 
L 304.621277 49.932731 
L 304.024465 49.932731 
L 303.427653 49.932731 
L 302.830842 49.932731 
L 302.23403 49.932731 
L 301.637218 49.932732 
L 301.040406 49.932732 
L 300.443594 49.932732 
L 299.846783 49.932732 
L 299.249971 49.932733 
L 298.653159 49.932733 
L 298.056347 49.932734 
L 297.459535 49.932734 
L 296.862724 49.932734 
L 296.265912 49.932735 
L 295.6691 49.932735 
L 295.072288 49.932736 
L 294.475476 49.932736 
L 293.878665 49.932737 
L 293.281853 49.932738 
L 292.685041 49.932738 
L 292.088229 49.932739 
L 291.491417 49.93274 
L 290.894606 49.93274 
L 290.297794 49.932741 
L 289.700982 49.932742 
L 289.10417 49.932743 
L 288.507358 49.932744 
L 287.910547 49.932745 
L 287.313735 49.932746 
L 286.716923 49.932747 
L 286.120111 49.932748 
L 285.523299 49.932749 
L 284.926488 49.93275 
L 284.329676 49.932751 
L 283.732864 49.932753 
L 283.136052 49.932754 
L 282.53924 49.932756 
L 281.942428 49.932757 
L 281.345617 49.932759 
L 280.748805 49.93276 
L 280.151993 49.932762 
L 279.555181 49.932764 
L 278.958369 49.932766 
L 278.361558 49.932768 
L 277.764746 49.93277 
L 277.167934 49.932772 
L 276.571122 49.932775 
L 275.97431 49.932777 
L 275.377499 49.93278 
L 274.780687 49.932782 
L 274.183875 49.932785 
L 273.587063 49.932788 
L 272.990251 49.932791 
L 272.39344 49.932794 
L 271.796628 49.932798 
L 271.199816 49.932801 
L 270.603004 49.932805 
L 270.006192 49.932809 
L 269.409381 49.932813 
L 268.812569 49.932817 
L 268.215757 49.932822 
L 267.618945 49.932826 
L 267.022133 49.932831 
L 266.425322 49.932836 
L 265.82851 49.932842 
L 265.231698 49.932848 
L 264.634886 49.932853 
L 264.038074 49.93286 
L 263.441263 49.932866 
L 262.844451 49.932873 
L 262.247639 49.93288 
L 261.650827 49.932888 
L 261.054015 49.932895 
L 260.457203 49.932904 
L 259.860392 49.932912 
L 259.26358 49.932921 
L 258.666768 49.932931 
L 258.069956 49.932941 
L 257.473144 49.932951 
L 256.876333 49.932962 
L 256.279521 49.932973 
L 255.682709 49.932985 
L 255.085897 49.932998 
L 254.489085 49.933011 
L 253.892274 49.933025 
L 253.295462 49.933039 
L 252.69865 49.933054 
L 252.101838 49.93307 
L 251.505026 49.933087 
L 250.908215 49.933104 
L 250.311403 49.933122 
L 249.714591 49.933141 
L 249.117779 49.933161 
L 248.520967 49.933182 
L 247.924156 49.933204 
L 247.327344 49.933227 
L 246.730532 49.933251 
L 246.13372 49.933277 
L 245.536908 49.933303 
L 244.940097 49.933331 
L 244.343285 49.93336 
L 243.746473 49.933391 
L 243.149661 49.933423 
L 242.552849 49.933456 
L 241.956038 49.933491 
L 241.359226 49.933528 
L 240.762414 49.933566 
L 240.165602 49.933607 
L 239.56879 49.933649 
L 238.971979 49.933694 
L 238.375167 49.93374 
L 237.778355 49.933789 
L 237.181543 49.93384 
L 236.584731 49.933894 
L 235.987919 49.93395 
L 235.391108 49.934009 
L 234.794296 49.934071 
L 234.197484 49.934135 
L 233.600672 49.934203 
L 233.00386 49.934275 
L 232.407049 49.934349 
L 231.810237 49.934428 
L 231.213425 49.93451 
L 230.616613 49.934596 
L 230.019801 49.934687 
L 229.42299 49.934782 
L 228.826178 49.934881 
L 228.229366 49.934986 
L 227.632554 49.935095 
L 227.035742 49.93521 
L 226.438931 49.93533 
L 225.842119 49.935456 
L 225.245307 49.935588 
L 224.648495 49.935727 
L 224.051683 49.935873 
L 223.454872 49.936025 
L 222.85806 49.936185 
L 222.261248 49.936353 
L 221.664436 49.936529 
L 221.067624 49.936713 
L 220.470813 49.936907 
L 219.874001 49.93711 
L 219.277189 49.937323 
L 218.680377 49.937546 
L 218.083565 49.93778 
L 217.486754 49.938026 
L 216.889942 49.938283 
L 216.29313 49.938553 
L 215.696318 49.938836 
L 215.099506 49.939133 
L 214.502694 49.939445 
L 213.905883 49.939772 
L 213.309071 49.940115 
L 212.712259 49.940474 
L 212.115447 49.940851 
L 211.518635 49.941247 
L 210.921824 49.941663 
L 210.325012 49.942099 
L 209.7282 49.942556 
L 209.131388 49.943036 
L 208.534576 49.943539 
L 207.937765 49.944066 
L 207.340953 49.944621 
L 206.744141 49.945203 
L 206.147329 49.945813 
L 205.550517 49.946454 
L 204.953706 49.947127 
L 204.356894 49.947831 
L 203.760082 49.94857 
L 203.16327 49.949346 
L 202.566458 49.95016 
L 201.969647 49.951015 
L 201.372835 49.951913 
L 200.776023 49.952856 
L 200.179211 49.953843 
L 199.582399 49.954878 
L 198.985588 49.955963 
L 198.388776 49.957104 
L 197.791964 49.9583 
L 197.195152 49.959556 
L 196.59834 49.960874 
L 196.001529 49.962258 
L 195.404717 49.96371 
L 194.807905 49.965233 
L 194.211093 49.966831 
L 193.614281 49.968509 
L 193.017469 49.970269 
L 192.420658 49.972117 
L 191.823846 49.974057 
L 191.227034 49.976093 
L 190.630222 49.978229 
L 190.03341 49.980465 
L 189.436599 49.982815 
L 188.839787 49.98528 
L 188.242975 49.987868 
L 187.646163 49.990587 
L 187.049351 49.993442 
L 186.45254 49.996439 
L 185.855728 49.999587 
L 185.258916 50.002889 
L 184.662104 50.006354 
L 184.065292 50.009992 
L 183.468481 50.013816 
L 182.871669 50.01783 
L 182.274857 50.022043 
L 181.678045 50.026466 
L 181.081233 50.031114 
L 180.484422 50.035988 
L 179.88761 50.041114 
L 179.290798 50.046495 
L 178.693986 50.052147 
L 178.097174 50.058089 
L 177.500363 50.064329 
L 176.903551 50.070883 
L 176.306739 50.077764 
L 175.709927 50.084985 
L 175.113115 50.092565 
L 174.516304 50.100526 
L 173.919492 50.108897 
L 173.32268 50.117694 
L 172.725868 50.12694 
L 172.129056 50.136662 
L 171.532244 50.146872 
L 170.935433 50.15761 
L 170.338621 50.168893 
L 169.741809 50.180748 
L 169.144997 50.193204 
L 168.548185 50.20631 
L 167.951374 50.220069 
L 167.354562 50.234511 
L 166.75775 50.249679 
L 166.160938 50.26563 
L 165.564126 50.282391 
L 164.967315 50.299997 
L 164.370503 50.318526 
L 163.773691 50.338022 
L 163.176879 50.358543 
L 162.580067 50.380107 
L 161.983256 50.402758 
L 161.386444 50.426594 
L 160.789632 50.45165 
L 160.19282 50.477967 
L 159.596008 50.505672 
L 158.999197 50.534832 
L 158.402385 50.565469 
L 157.805573 50.597699 
L 157.208761 50.631595 
L 156.611949 50.667232 
L 156.015138 50.704728 
L 155.418326 50.74414 
L 154.821514 50.78556 
L 154.224702 50.829082 
L 153.62789 50.874902 
L 153.031079 50.923171 
L 152.434267 50.973939 
L 151.837455 51.027346 
L 151.240643 51.083587 
L 150.643831 51.142772 
L 150.047019 51.205075 
L 149.450208 51.270695 
L 148.853396 51.339791 
L 148.256584 51.412495 
L 147.659772 51.489148 
L 147.06296 51.569803 
L 146.466149 51.654754 
L 145.869337 51.744251 
L 145.272525 51.838565 
L 144.675713 51.93796 
L 144.078901 52.042624 
L 143.48209 52.152935 
L 142.885278 52.269171 
L 142.288466 52.391761 
L 141.691654 52.520849 
L 141.094842 52.656917 
L 140.498031 52.800385 
L 139.901219 52.951545 
L 139.304407 53.111142 
L 138.707595 53.279513 
L 138.110783 53.457173 
L 137.513972 53.644544 
L 136.91716 53.842421 
L 136.320348 54.051418 
L 135.723536 54.271882 
L 135.126724 54.504842 
L 134.529913 54.750858 
L 133.933101 55.010558 
L 133.336289 55.284821 
L 132.739477 55.574554 
L 132.142665 55.88085 
L 131.545854 56.204791 
L 130.949042 56.54731 
L 130.35223 56.90956 
L 129.755418 57.292732 
L 129.158606 57.697838 
L 128.561794 58.126067 
L 127.964983 58.579814 
L 127.368171 59.059022 
L 126.771359 59.566472 
L 126.174547 60.103416 
L 125.577735 60.671781 
L 124.980924 61.273123 
L 124.384112 61.910713 
L 123.7873 62.586086 
L 123.190488 63.302211 
L 122.593676 64.060845 
L 121.996865 64.86593 
L 121.400053 65.720775 
L 120.803241 66.627234 
L 120.206429 67.589218 
L 119.609617 68.610152 
L 119.012806 69.6964 
L 118.415994 70.851727 
L 117.819182 72.080513 
L 117.22237 73.386024 
L 116.625558 74.776358 
L 116.028747 76.257129 
L 115.431935 77.834252 
L 114.835123 79.513213 
L 114.238311 81.302807 
L 113.641499 83.209954 
L 113.044688 85.245044 
L 112.447876 87.417447 
L 111.851064 89.730454 
L 111.254252 92.193076 
L 110.65744 94.813243 
L 110.060629 97.589462 
L 109.463817 100.520317 
L 108.867005 103.589931 
L 108.270193 106.778774 
L 107.673381 110.047377 
L 107.07657 113.363397 
L 106.479758 116.734424 
L 105.882946 120.341656 
L 105.286134 124.199359 
L 104.689322 128.343537 
L 104.09251 132.809208 
L 103.495699 137.749557 
L 102.898887 143.22723 
L 102.302075 149.331213 
L 101.705263 156.15549 
L 101.108451 163.855254 
L 100.51164 172.616777 
L 99.914828 182.737122 
L 99.318016 194.443271 
L 98.721204 207.368287 
L 98.124392 221.474933 
L 97.527581 236.832988 
L 96.930769 253.408054 
L 96.333957 270.911439 
L 95.737145 288.884165 
L 95.140333 306.831333 
L 94.543522 315.004696 
L 93.94671 323.707692 
L 93.349898 333.011146 
L 92.753086 342.970325 
L 92.156274 353.658336 
L 91.559463 365.002683 
L 90.962651 377.04497 
L 90.365839 389.793331 
L 89.769027 403.252021 
L 89.172215 417.297802 
L 88.575404 431.682502 
L 87.978592 445.776392 
L 87.38178 458.768656 
L 86.784968 471.296279 
L 86.188156 483.215495 
L 85.591345 493.705265 
L 84.994533 501.650244 
L 84.397721 506.262103 
L 83.800909 507.410516 
z
" clip-path="url(#p38b5e9f6fe)" style="fill: #1f77b4; fill-opacity: 0.2"/>
   </g>
   <g id="matplotlib.axis_1">
    <g id="xtick_1">
     <g id="line2d_1">
      <path d="M 82.607285 534.04 
L 82.607285 26.88 
" clip-path="url(#p38b5e9f6fe)" style="fill: none; stroke: #b0b0b0; stroke-width: 0.8; stroke-linecap: square"/>
     </g>
     <g id="line2d_2">
      <defs>
       <path id="m33f7103d2d" d="M 0 0 
L 0 3.5 
" style="stroke: #000000; stroke-width: 0.8"/>
      </defs>
      <g>
       <use xlink:href="#m33f7103d2d" x="82.607285" y="534.04" style="stroke: #000000; stroke-width: 0.8"/>
      </g>
     </g>
     <g id="text_1">
      <!-- 0 -->
      <g transform="translate(79.426035 548.638438) scale(0.1 -0.1)">
       <defs>
        <path id="DejaVuSans-30" d="M 2034 4250 
Q 1547 4250 1301 3770 
Q 1056 3291 1056 2328 
Q 1056 1369 1301 889 
Q 1547 409 2034 409 
Q 2525 409 2770 889 
Q 3016 1369 3016 2328 
Q 3016 3291 2770 3770 
Q 2525 4250 2034 4250 
z
M 2034 4750 
Q 2819 4750 3233 4129 
Q 3647 3509 3647 2328 
Q 3647 1150 3233 529 
Q 2819 -91 2034 -91 
Q 1250 -91 836 529 
Q 422 1150 422 2328 
Q 422 3509 836 4129 
Q 1250 4750 2034 4750 
z
" transform="scale(0.015625)"/>
       </defs>
       <use xlink:href="#DejaVuSans-30"/>
      </g>
     </g>
    </g>
    <g id="xtick_2">
     <g id="line2d_3">
      <path d="M 201.969647 534.04 
L 201.969647 26.88 
" clip-path="url(#p38b5e9f6fe)" style="fill: none; stroke: #b0b0b0; stroke-width: 0.8; stroke-linecap: square"/>
     </g>
     <g id="line2d_4">
      <g>
       <use xlink:href="#m33f7103d2d" x="201.969647" y="534.04" style="stroke: #000000; stroke-width: 0.8"/>
      </g>
     </g>
     <g id="text_2">
      <!-- 200 -->
      <g transform="translate(192.425897 548.638438) scale(0.1 -0.1)">
       <defs>
        <path id="DejaVuSans-32" d="M 1228 531 
L 3431 531 
L 3431 0 
L 469 0 
L 469 531 
Q 828 903 1448 1529 
Q 2069 2156 2228 2338 
Q 2531 2678 2651 2914 
Q 2772 3150 2772 3378 
Q 2772 3750 2511 3984 
Q 2250 4219 1831 4219 
Q 1534 4219 1204 4116 
Q 875 4013 500 3803 
L 500 4441 
Q 881 4594 1212 4672 
Q 1544 4750 1819 4750 
Q 2544 4750 2975 4387 
Q 3406 4025 3406 3419 
Q 3406 3131 3298 2873 
Q 3191 2616 2906 2266 
Q 2828 2175 2409 1742 
Q 1991 1309 1228 531 
z
" transform="scale(0.015625)"/>
       </defs>
       <use xlink:href="#DejaVuSans-32"/>
       <use xlink:href="#DejaVuSans-30" x="63.623047"/>
       <use xlink:href="#DejaVuSans-30" x="127.246094"/>
      </g>
     </g>
    </g>
    <g id="xtick_3">
     <g id="line2d_5">
      <path d="M 321.332008 534.04 
L 321.332008 26.88 
" clip-path="url(#p38b5e9f6fe)" style="fill: none; stroke: #b0b0b0; stroke-width: 0.8; stroke-linecap: square"/>
     </g>
     <g id="line2d_6">
      <g>
       <use xlink:href="#m33f7103d2d" x="321.332008" y="534.04" style="stroke: #000000; stroke-width: 0.8"/>
      </g>
     </g>
     <g id="text_3">
      <!-- 400 -->
      <g transform="translate(311.788258 548.638438) scale(0.1 -0.1)">
       <defs>
        <path id="DejaVuSans-34" d="M 2419 4116 
L 825 1625 
L 2419 1625 
L 2419 4116 
z
M 2253 4666 
L 3047 4666 
L 3047 1625 
L 3713 1625 
L 3713 1100 
L 3047 1100 
L 3047 0 
L 2419 0 
L 2419 1100 
L 313 1100 
L 313 1709 
L 2253 4666 
z
" transform="scale(0.015625)"/>
       </defs>
       <use xlink:href="#DejaVuSans-34"/>
       <use xlink:href="#DejaVuSans-30" x="63.623047"/>
       <use xlink:href="#DejaVuSans-30" x="127.246094"/>
      </g>
     </g>
    </g>
    <g id="xtick_4">
     <g id="line2d_7">
      <path d="M 440.694369 534.04 
L 440.694369 26.88 
" clip-path="url(#p38b5e9f6fe)" style="fill: none; stroke: #b0b0b0; stroke-width: 0.8; stroke-linecap: square"/>
     </g>
     <g id="line2d_8">
      <g>
       <use xlink:href="#m33f7103d2d" x="440.694369" y="534.04" style="stroke: #000000; stroke-width: 0.8"/>
      </g>
     </g>
     <g id="text_4">
      <!-- 600 -->
      <g transform="translate(431.150619 548.638438) scale(0.1 -0.1)">
       <defs>
        <path id="DejaVuSans-36" d="M 2113 2584 
Q 1688 2584 1439 2293 
Q 1191 2003 1191 1497 
Q 1191 994 1439 701 
Q 1688 409 2113 409 
Q 2538 409 2786 701 
Q 3034 994 3034 1497 
Q 3034 2003 2786 2293 
Q 2538 2584 2113 2584 
z
M 3366 4563 
L 3366 3988 
Q 3128 4100 2886 4159 
Q 2644 4219 2406 4219 
Q 1781 4219 1451 3797 
Q 1122 3375 1075 2522 
Q 1259 2794 1537 2939 
Q 1816 3084 2150 3084 
Q 2853 3084 3261 2657 
Q 3669 2231 3669 1497 
Q 3669 778 3244 343 
Q 2819 -91 2113 -91 
Q 1303 -91 875 529 
Q 447 1150 447 2328 
Q 447 3434 972 4092 
Q 1497 4750 2381 4750 
Q 2619 4750 2861 4703 
Q 3103 4656 3366 4563 
z
" transform="scale(0.015625)"/>
       </defs>
       <use xlink:href="#DejaVuSans-36"/>
       <use xlink:href="#DejaVuSans-30" x="63.623047"/>
       <use xlink:href="#DejaVuSans-30" x="127.246094"/>
      </g>
     </g>
    </g>
    <g id="xtick_5">
     <g id="line2d_9">
      <path d="M 560.05673 534.04 
L 560.05673 26.88 
" clip-path="url(#p38b5e9f6fe)" style="fill: none; stroke: #b0b0b0; stroke-width: 0.8; stroke-linecap: square"/>
     </g>
     <g id="line2d_10">
      <g>
       <use xlink:href="#m33f7103d2d" x="560.05673" y="534.04" style="stroke: #000000; stroke-width: 0.8"/>
      </g>
     </g>
     <g id="text_5">
      <!-- 800 -->
      <g transform="translate(550.51298 548.638438) scale(0.1 -0.1)">
       <defs>
        <path id="DejaVuSans-38" d="M 2034 2216 
Q 1584 2216 1326 1975 
Q 1069 1734 1069 1313 
Q 1069 891 1326 650 
Q 1584 409 2034 409 
Q 2484 409 2743 651 
Q 3003 894 3003 1313 
Q 3003 1734 2745 1975 
Q 2488 2216 2034 2216 
z
M 1403 2484 
Q 997 2584 770 2862 
Q 544 3141 544 3541 
Q 544 4100 942 4425 
Q 1341 4750 2034 4750 
Q 2731 4750 3128 4425 
Q 3525 4100 3525 3541 
Q 3525 3141 3298 2862 
Q 3072 2584 2669 2484 
Q 3125 2378 3379 2068 
Q 3634 1759 3634 1313 
Q 3634 634 3220 271 
Q 2806 -91 2034 -91 
Q 1263 -91 848 271 
Q 434 634 434 1313 
Q 434 1759 690 2068 
Q 947 2378 1403 2484 
z
M 1172 3481 
Q 1172 3119 1398 2916 
Q 1625 2713 2034 2713 
Q 2441 2713 2670 2916 
Q 2900 3119 2900 3481 
Q 2900 3844 2670 4047 
Q 2441 4250 2034 4250 
Q 1625 4250 1398 4047 
Q 1172 3844 1172 3481 
z
" transform="scale(0.015625)"/>
       </defs>
       <use xlink:href="#DejaVuSans-38"/>
       <use xlink:href="#DejaVuSans-30" x="63.623047"/>
       <use xlink:href="#DejaVuSans-30" x="127.246094"/>
      </g>
     </g>
    </g>
    <g id="xtick_6">
     <g id="line2d_11">
      <path d="M 679.419091 534.04 
L 679.419091 26.88 
" clip-path="url(#p38b5e9f6fe)" style="fill: none; stroke: #b0b0b0; stroke-width: 0.8; stroke-linecap: square"/>
     </g>
     <g id="line2d_12">
      <g>
       <use xlink:href="#m33f7103d2d" x="679.419091" y="534.04" style="stroke: #000000; stroke-width: 0.8"/>
      </g>
     </g>
     <g id="text_6">
      <!-- 1000 -->
      <g transform="translate(666.694091 548.638438) scale(0.1 -0.1)">
       <defs>
        <path id="DejaVuSans-31" d="M 794 531 
L 1825 531 
L 1825 4091 
L 703 3866 
L 703 4441 
L 1819 4666 
L 2450 4666 
L 2450 531 
L 3481 531 
L 3481 0 
L 794 0 
L 794 531 
z
" transform="scale(0.015625)"/>
       </defs>
       <use xlink:href="#DejaVuSans-31"/>
       <use xlink:href="#DejaVuSans-30" x="63.623047"/>
       <use xlink:href="#DejaVuSans-30" x="127.246094"/>
       <use xlink:href="#DejaVuSans-30" x="190.869141"/>
      </g>
     </g>
    </g>
    <g id="text_7">
     <!-- Episodes -->
     <g transform="translate(359.367813 562.316562) scale(0.1 -0.1)">
      <defs>
       <path id="DejaVuSans-45" d="M 628 4666 
L 3578 4666 
L 3578 4134 
L 1259 4134 
L 1259 2753 
L 3481 2753 
L 3481 2222 
L 1259 2222 
L 1259 531 
L 3634 531 
L 3634 0 
L 628 0 
L 628 4666 
z
" transform="scale(0.015625)"/>
       <path id="DejaVuSans-70" d="M 1159 525 
L 1159 -1331 
L 581 -1331 
L 581 3500 
L 1159 3500 
L 1159 2969 
Q 1341 3281 1617 3432 
Q 1894 3584 2278 3584 
Q 2916 3584 3314 3078 
Q 3713 2572 3713 1747 
Q 3713 922 3314 415 
Q 2916 -91 2278 -91 
Q 1894 -91 1617 61 
Q 1341 213 1159 525 
z
M 3116 1747 
Q 3116 2381 2855 2742 
Q 2594 3103 2138 3103 
Q 1681 3103 1420 2742 
Q 1159 2381 1159 1747 
Q 1159 1113 1420 752 
Q 1681 391 2138 391 
Q 2594 391 2855 752 
Q 3116 1113 3116 1747 
z
" transform="scale(0.015625)"/>
       <path id="DejaVuSans-69" d="M 603 3500 
L 1178 3500 
L 1178 0 
L 603 0 
L 603 3500 
z
M 603 4863 
L 1178 4863 
L 1178 4134 
L 603 4134 
L 603 4863 
z
" transform="scale(0.015625)"/>
       <path id="DejaVuSans-73" d="M 2834 3397 
L 2834 2853 
Q 2591 2978 2328 3040 
Q 2066 3103 1784 3103 
Q 1356 3103 1142 2972 
Q 928 2841 928 2578 
Q 928 2378 1081 2264 
Q 1234 2150 1697 2047 
L 1894 2003 
Q 2506 1872 2764 1633 
Q 3022 1394 3022 966 
Q 3022 478 2636 193 
Q 2250 -91 1575 -91 
Q 1294 -91 989 -36 
Q 684 19 347 128 
L 347 722 
Q 666 556 975 473 
Q 1284 391 1588 391 
Q 1994 391 2212 530 
Q 2431 669 2431 922 
Q 2431 1156 2273 1281 
Q 2116 1406 1581 1522 
L 1381 1569 
Q 847 1681 609 1914 
Q 372 2147 372 2553 
Q 372 3047 722 3315 
Q 1072 3584 1716 3584 
Q 2034 3584 2315 3537 
Q 2597 3491 2834 3397 
z
" transform="scale(0.015625)"/>
       <path id="DejaVuSans-6f" d="M 1959 3097 
Q 1497 3097 1228 2736 
Q 959 2375 959 1747 
Q 959 1119 1226 758 
Q 1494 397 1959 397 
Q 2419 397 2687 759 
Q 2956 1122 2956 1747 
Q 2956 2369 2687 2733 
Q 2419 3097 1959 3097 
z
M 1959 3584 
Q 2709 3584 3137 3096 
Q 3566 2609 3566 1747 
Q 3566 888 3137 398 
Q 2709 -91 1959 -91 
Q 1206 -91 779 398 
Q 353 888 353 1747 
Q 353 2609 779 3096 
Q 1206 3584 1959 3584 
z
" transform="scale(0.015625)"/>
       <path id="DejaVuSans-64" d="M 2906 2969 
L 2906 4863 
L 3481 4863 
L 3481 0 
L 2906 0 
L 2906 525 
Q 2725 213 2448 61 
Q 2172 -91 1784 -91 
Q 1150 -91 751 415 
Q 353 922 353 1747 
Q 353 2572 751 3078 
Q 1150 3584 1784 3584 
Q 2172 3584 2448 3432 
Q 2725 3281 2906 2969 
z
M 947 1747 
Q 947 1113 1208 752 
Q 1469 391 1925 391 
Q 2381 391 2643 752 
Q 2906 1113 2906 1747 
Q 2906 2381 2643 2742 
Q 2381 3103 1925 3103 
Q 1469 3103 1208 2742 
Q 947 2381 947 1747 
z
" transform="scale(0.015625)"/>
       <path id="DejaVuSans-65" d="M 3597 1894 
L 3597 1613 
L 953 1613 
Q 991 1019 1311 708 
Q 1631 397 2203 397 
Q 2534 397 2845 478 
Q 3156 559 3463 722 
L 3463 178 
Q 3153 47 2828 -22 
Q 2503 -91 2169 -91 
Q 1331 -91 842 396 
Q 353 884 353 1716 
Q 353 2575 817 3079 
Q 1281 3584 2069 3584 
Q 2775 3584 3186 3129 
Q 3597 2675 3597 1894 
z
M 3022 2063 
Q 3016 2534 2758 2815 
Q 2500 3097 2075 3097 
Q 1594 3097 1305 2825 
Q 1016 2553 972 2059 
L 3022 2063 
z
" transform="scale(0.015625)"/>
      </defs>
      <use xlink:href="#DejaVuSans-45"/>
      <use xlink:href="#DejaVuSans-70" x="63.183594"/>
      <use xlink:href="#DejaVuSans-69" x="126.660156"/>
      <use xlink:href="#DejaVuSans-73" x="154.443359"/>
      <use xlink:href="#DejaVuSans-6f" x="206.542969"/>
      <use xlink:href="#DejaVuSans-64" x="267.724609"/>
      <use xlink:href="#DejaVuSans-65" x="331.201172"/>
      <use xlink:href="#DejaVuSans-73" x="392.724609"/>
     </g>
    </g>
   </g>
   <g id="matplotlib.axis_2">
    <g id="ytick_1">
     <g id="line2d_13">
      <path d="M 54.02 509.823437 
L 709.2 509.823437 
" clip-path="url(#p38b5e9f6fe)" style="fill: none; stroke: #b0b0b0; stroke-width: 0.8; stroke-linecap: square"/>
     </g>
     <g id="line2d_14">
      <defs>
       <path id="m7eaeb13d28" d="M 0 0 
L -3.5 0 
" style="stroke: #000000; stroke-width: 0.8"/>
      </defs>
      <g>
       <use xlink:href="#m7eaeb13d28" x="54.02" y="509.823437" style="stroke: #000000; stroke-width: 0.8"/>
      </g>
     </g>
     <g id="text_8">
      <!-- 0.21 -->
      <g transform="translate(24.754375 513.622656) scale(0.1 -0.1)">
       <defs>
        <path id="DejaVuSans-2e" d="M 684 794 
L 1344 794 
L 1344 0 
L 684 0 
L 684 794 
z
" transform="scale(0.015625)"/>
       </defs>
       <use xlink:href="#DejaVuSans-30"/>
       <use xlink:href="#DejaVuSans-2e" x="63.623047"/>
       <use xlink:href="#DejaVuSans-32" x="95.410156"/>
       <use xlink:href="#DejaVuSans-31" x="159.033203"/>
      </g>
     </g>
    </g>
    <g id="ytick_2">
     <g id="line2d_15">
      <path d="M 54.02 439.881692 
L 709.2 439.881692 
" clip-path="url(#p38b5e9f6fe)" style="fill: none; stroke: #b0b0b0; stroke-width: 0.8; stroke-linecap: square"/>
     </g>
     <g id="line2d_16">
      <g>
       <use xlink:href="#m7eaeb13d28" x="54.02" y="439.881692" style="stroke: #000000; stroke-width: 0.8"/>
      </g>
     </g>
     <g id="text_9">
      <!-- 0.22 -->
      <g transform="translate(24.754375 443.68091) scale(0.1 -0.1)">
       <use xlink:href="#DejaVuSans-30"/>
       <use xlink:href="#DejaVuSans-2e" x="63.623047"/>
       <use xlink:href="#DejaVuSans-32" x="95.410156"/>
       <use xlink:href="#DejaVuSans-32" x="159.033203"/>
      </g>
     </g>
    </g>
    <g id="ytick_3">
     <g id="line2d_17">
      <path d="M 54.02 369.939946 
L 709.2 369.939946 
" clip-path="url(#p38b5e9f6fe)" style="fill: none; stroke: #b0b0b0; stroke-width: 0.8; stroke-linecap: square"/>
     </g>
     <g id="line2d_18">
      <g>
       <use xlink:href="#m7eaeb13d28" x="54.02" y="369.939946" style="stroke: #000000; stroke-width: 0.8"/>
      </g>
     </g>
     <g id="text_10">
      <!-- 0.23 -->
      <g transform="translate(24.754375 373.739165) scale(0.1 -0.1)">
       <defs>
        <path id="DejaVuSans-33" d="M 2597 2516 
Q 3050 2419 3304 2112 
Q 3559 1806 3559 1356 
Q 3559 666 3084 287 
Q 2609 -91 1734 -91 
Q 1441 -91 1130 -33 
Q 819 25 488 141 
L 488 750 
Q 750 597 1062 519 
Q 1375 441 1716 441 
Q 2309 441 2620 675 
Q 2931 909 2931 1356 
Q 2931 1769 2642 2001 
Q 2353 2234 1838 2234 
L 1294 2234 
L 1294 2753 
L 1863 2753 
Q 2328 2753 2575 2939 
Q 2822 3125 2822 3475 
Q 2822 3834 2567 4026 
Q 2313 4219 1838 4219 
Q 1578 4219 1281 4162 
Q 984 4106 628 3988 
L 628 4550 
Q 988 4650 1302 4700 
Q 1616 4750 1894 4750 
Q 2613 4750 3031 4423 
Q 3450 4097 3450 3541 
Q 3450 3153 3228 2886 
Q 3006 2619 2597 2516 
z
" transform="scale(0.015625)"/>
       </defs>
       <use xlink:href="#DejaVuSans-30"/>
       <use xlink:href="#DejaVuSans-2e" x="63.623047"/>
       <use xlink:href="#DejaVuSans-32" x="95.410156"/>
       <use xlink:href="#DejaVuSans-33" x="159.033203"/>
      </g>
     </g>
    </g>
    <g id="ytick_4">
     <g id="line2d_19">
      <path d="M 54.02 299.998201 
L 709.2 299.998201 
" clip-path="url(#p38b5e9f6fe)" style="fill: none; stroke: #b0b0b0; stroke-width: 0.8; stroke-linecap: square"/>
     </g>
     <g id="line2d_20">
      <g>
       <use xlink:href="#m7eaeb13d28" x="54.02" y="299.998201" style="stroke: #000000; stroke-width: 0.8"/>
      </g>
     </g>
     <g id="text_11">
      <!-- 0.24 -->
      <g transform="translate(24.754375 303.79742) scale(0.1 -0.1)">
       <use xlink:href="#DejaVuSans-30"/>
       <use xlink:href="#DejaVuSans-2e" x="63.623047"/>
       <use xlink:href="#DejaVuSans-32" x="95.410156"/>
       <use xlink:href="#DejaVuSans-34" x="159.033203"/>
      </g>
     </g>
    </g>
    <g id="ytick_5">
     <g id="line2d_21">
      <path d="M 54.02 230.056456 
L 709.2 230.056456 
" clip-path="url(#p38b5e9f6fe)" style="fill: none; stroke: #b0b0b0; stroke-width: 0.8; stroke-linecap: square"/>
     </g>
     <g id="line2d_22">
      <g>
       <use xlink:href="#m7eaeb13d28" x="54.02" y="230.056456" style="stroke: #000000; stroke-width: 0.8"/>
      </g>
     </g>
     <g id="text_12">
      <!-- 0.25 -->
      <g transform="translate(24.754375 233.855674) scale(0.1 -0.1)">
       <defs>
        <path id="DejaVuSans-35" d="M 691 4666 
L 3169 4666 
L 3169 4134 
L 1269 4134 
L 1269 2991 
Q 1406 3038 1543 3061 
Q 1681 3084 1819 3084 
Q 2600 3084 3056 2656 
Q 3513 2228 3513 1497 
Q 3513 744 3044 326 
Q 2575 -91 1722 -91 
Q 1428 -91 1123 -41 
Q 819 9 494 109 
L 494 744 
Q 775 591 1075 516 
Q 1375 441 1709 441 
Q 2250 441 2565 725 
Q 2881 1009 2881 1497 
Q 2881 1984 2565 2268 
Q 2250 2553 1709 2553 
Q 1456 2553 1204 2497 
Q 953 2441 691 2322 
L 691 4666 
z
" transform="scale(0.015625)"/>
       </defs>
       <use xlink:href="#DejaVuSans-30"/>
       <use xlink:href="#DejaVuSans-2e" x="63.623047"/>
       <use xlink:href="#DejaVuSans-32" x="95.410156"/>
       <use xlink:href="#DejaVuSans-35" x="159.033203"/>
      </g>
     </g>
    </g>
    <g id="ytick_6">
     <g id="line2d_23">
      <path d="M 54.02 160.11471 
L 709.2 160.11471 
" clip-path="url(#p38b5e9f6fe)" style="fill: none; stroke: #b0b0b0; stroke-width: 0.8; stroke-linecap: square"/>
     </g>
     <g id="line2d_24">
      <g>
       <use xlink:href="#m7eaeb13d28" x="54.02" y="160.11471" style="stroke: #000000; stroke-width: 0.8"/>
      </g>
     </g>
     <g id="text_13">
      <!-- 0.26 -->
      <g transform="translate(24.754375 163.913929) scale(0.1 -0.1)">
       <use xlink:href="#DejaVuSans-30"/>
       <use xlink:href="#DejaVuSans-2e" x="63.623047"/>
       <use xlink:href="#DejaVuSans-32" x="95.410156"/>
       <use xlink:href="#DejaVuSans-36" x="159.033203"/>
      </g>
     </g>
    </g>
    <g id="ytick_7">
     <g id="line2d_25">
      <path d="M 54.02 90.172965 
L 709.2 90.172965 
" clip-path="url(#p38b5e9f6fe)" style="fill: none; stroke: #b0b0b0; stroke-width: 0.8; stroke-linecap: square"/>
     </g>
     <g id="line2d_26">
      <g>
       <use xlink:href="#m7eaeb13d28" x="54.02" y="90.172965" style="stroke: #000000; stroke-width: 0.8"/>
      </g>
     </g>
     <g id="text_14">
      <!-- 0.27 -->
      <g transform="translate(24.754375 93.972184) scale(0.1 -0.1)">
       <defs>
        <path id="DejaVuSans-37" d="M 525 4666 
L 3525 4666 
L 3525 4397 
L 1831 0 
L 1172 0 
L 2766 4134 
L 525 4134 
L 525 4666 
z
" transform="scale(0.015625)"/>
       </defs>
       <use xlink:href="#DejaVuSans-30"/>
       <use xlink:href="#DejaVuSans-2e" x="63.623047"/>
       <use xlink:href="#DejaVuSans-32" x="95.410156"/>
       <use xlink:href="#DejaVuSans-37" x="159.033203"/>
      </g>
     </g>
    </g>
    <g id="text_15">
     <!-- Metric Value -->
     <g transform="translate(18.674688 311.324844) rotate(-90) scale(0.1 -0.1)">
      <defs>
       <path id="DejaVuSans-4d" d="M 628 4666 
L 1569 4666 
L 2759 1491 
L 3956 4666 
L 4897 4666 
L 4897 0 
L 4281 0 
L 4281 4097 
L 3078 897 
L 2444 897 
L 1241 4097 
L 1241 0 
L 628 0 
L 628 4666 
z
" transform="scale(0.015625)"/>
       <path id="DejaVuSans-74" d="M 1172 4494 
L 1172 3500 
L 2356 3500 
L 2356 3053 
L 1172 3053 
L 1172 1153 
Q 1172 725 1289 603 
Q 1406 481 1766 481 
L 2356 481 
L 2356 0 
L 1766 0 
Q 1100 0 847 248 
Q 594 497 594 1153 
L 594 3053 
L 172 3053 
L 172 3500 
L 594 3500 
L 594 4494 
L 1172 4494 
z
" transform="scale(0.015625)"/>
       <path id="DejaVuSans-72" d="M 2631 2963 
Q 2534 3019 2420 3045 
Q 2306 3072 2169 3072 
Q 1681 3072 1420 2755 
Q 1159 2438 1159 1844 
L 1159 0 
L 581 0 
L 581 3500 
L 1159 3500 
L 1159 2956 
Q 1341 3275 1631 3429 
Q 1922 3584 2338 3584 
Q 2397 3584 2469 3576 
Q 2541 3569 2628 3553 
L 2631 2963 
z
" transform="scale(0.015625)"/>
       <path id="DejaVuSans-63" d="M 3122 3366 
L 3122 2828 
Q 2878 2963 2633 3030 
Q 2388 3097 2138 3097 
Q 1578 3097 1268 2742 
Q 959 2388 959 1747 
Q 959 1106 1268 751 
Q 1578 397 2138 397 
Q 2388 397 2633 464 
Q 2878 531 3122 666 
L 3122 134 
Q 2881 22 2623 -34 
Q 2366 -91 2075 -91 
Q 1284 -91 818 406 
Q 353 903 353 1747 
Q 353 2603 823 3093 
Q 1294 3584 2113 3584 
Q 2378 3584 2631 3529 
Q 2884 3475 3122 3366 
z
" transform="scale(0.015625)"/>
       <path id="DejaVuSans-20" transform="scale(0.015625)"/>
       <path id="DejaVuSans-56" d="M 1831 0 
L 50 4666 
L 709 4666 
L 2188 738 
L 3669 4666 
L 4325 4666 
L 2547 0 
L 1831 0 
z
" transform="scale(0.015625)"/>
       <path id="DejaVuSans-61" d="M 2194 1759 
Q 1497 1759 1228 1600 
Q 959 1441 959 1056 
Q 959 750 1161 570 
Q 1363 391 1709 391 
Q 2188 391 2477 730 
Q 2766 1069 2766 1631 
L 2766 1759 
L 2194 1759 
z
M 3341 1997 
L 3341 0 
L 2766 0 
L 2766 531 
Q 2569 213 2275 61 
Q 1981 -91 1556 -91 
Q 1019 -91 701 211 
Q 384 513 384 1019 
Q 384 1609 779 1909 
Q 1175 2209 1959 2209 
L 2766 2209 
L 2766 2266 
Q 2766 2663 2505 2880 
Q 2244 3097 1772 3097 
Q 1472 3097 1187 3025 
Q 903 2953 641 2809 
L 641 3341 
Q 956 3463 1253 3523 
Q 1550 3584 1831 3584 
Q 2591 3584 2966 3190 
Q 3341 2797 3341 1997 
z
" transform="scale(0.015625)"/>
       <path id="DejaVuSans-6c" d="M 603 4863 
L 1178 4863 
L 1178 0 
L 603 0 
L 603 4863 
z
" transform="scale(0.015625)"/>
       <path id="DejaVuSans-75" d="M 544 1381 
L 544 3500 
L 1119 3500 
L 1119 1403 
Q 1119 906 1312 657 
Q 1506 409 1894 409 
Q 2359 409 2629 706 
Q 2900 1003 2900 1516 
L 2900 3500 
L 3475 3500 
L 3475 0 
L 2900 0 
L 2900 538 
Q 2691 219 2414 64 
Q 2138 -91 1772 -91 
Q 1169 -91 856 284 
Q 544 659 544 1381 
z
M 1991 3584 
L 1991 3584 
z
" transform="scale(0.015625)"/>
      </defs>
      <use xlink:href="#DejaVuSans-4d"/>
      <use xlink:href="#DejaVuSans-65" x="86.279297"/>
      <use xlink:href="#DejaVuSans-74" x="147.802734"/>
      <use xlink:href="#DejaVuSans-72" x="187.011719"/>
      <use xlink:href="#DejaVuSans-69" x="228.125"/>
      <use xlink:href="#DejaVuSans-63" x="255.908203"/>
      <use xlink:href="#DejaVuSans-20" x="310.888672"/>
      <use xlink:href="#DejaVuSans-56" x="342.675781"/>
      <use xlink:href="#DejaVuSans-61" x="403.333984"/>
      <use xlink:href="#DejaVuSans-6c" x="464.613281"/>
      <use xlink:href="#DejaVuSans-75" x="492.396484"/>
      <use xlink:href="#DejaVuSans-65" x="555.775391"/>
     </g>
    </g>
   </g>
   <g id="line2d_27">
    <path d="M 83.800909 509.198894 
L 84.397721 507.665219 
L 84.994533 503.012679 
L 85.591345 495.505052 
L 86.784968 474.454237 
L 87.978592 450.497889 
L 90.962651 384.404205 
L 92.753086 351.540635 
L 93.94671 333.043947 
L 95.140333 316.904918 
L 97.527581 250.369979 
L 98.721204 222.367503 
L 99.914828 198.872832 
L 101.108451 181.020944 
L 102.302075 167.392361 
L 103.495699 156.597669 
L 104.689322 147.873611 
L 106.479758 137.025772 
L 110.060629 118.428237 
L 111.851064 110.573233 
L 113.641499 104.026152 
L 115.431935 98.617727 
L 117.22237 94.138657 
L 119.012806 90.423993 
L 120.803241 87.334401 
L 122.593676 84.753064 
L 124.384112 82.592401 
L 126.174547 80.778384 
L 127.964983 79.251038 
L 129.755418 77.962388 
L 132.142665 76.550938 
L 134.529913 75.423363 
L 136.91716 74.518791 
L 139.901219 73.633678 
L 143.48209 72.842535 
L 147.659772 72.186922 
L 152.434267 71.679747 
L 158.402385 71.279213 
L 166.160938 70.986371 
L 178.097174 70.784495 
L 199.582399 70.684591 
L 278.361558 70.663278 
L 679.419091 70.663239 
L 679.419091 70.663239 
" clip-path="url(#p38b5e9f6fe)" style="fill: none; stroke: #1f77b4; stroke-width: 1.5; stroke-linecap: square"/>
   </g>
   <g id="patch_3">
    <path d="M 54.02 534.04 
L 54.02 26.88 
" style="fill: none; stroke: #000000; stroke-width: 0.8; stroke-linejoin: miter; stroke-linecap: square"/>
   </g>
   <g id="patch_4">
    <path d="M 709.2 534.04 
L 709.2 26.88 
" style="fill: none; stroke: #000000; stroke-width: 0.8; stroke-linejoin: miter; stroke-linecap: square"/>
   </g>
   <g id="patch_5">
    <path d="M 54.02 534.04 
L 709.2 534.04 
" style="fill: none; stroke: #000000; stroke-width: 0.8; stroke-linejoin: miter; stroke-linecap: square"/>
   </g>
   <g id="patch_6">
    <path d="M 54.02 26.88 
L 709.2 26.88 
" style="fill: none; stroke: #000000; stroke-width: 0.8; stroke-linejoin: miter; stroke-linecap: square"/>
   </g>
   <g id="text_16">
    <!-- Polarization Across Runs -->
    <g transform="translate(308.746562 20.88) scale(0.12 -0.12)">
     <defs>
      <path id="DejaVuSans-50" d="M 1259 4147 
L 1259 2394 
L 2053 2394 
Q 2494 2394 2734 2622 
Q 2975 2850 2975 3272 
Q 2975 3691 2734 3919 
Q 2494 4147 2053 4147 
L 1259 4147 
z
M 628 4666 
L 2053 4666 
Q 2838 4666 3239 4311 
Q 3641 3956 3641 3272 
Q 3641 2581 3239 2228 
Q 2838 1875 2053 1875 
L 1259 1875 
L 1259 0 
L 628 0 
L 628 4666 
z
" transform="scale(0.015625)"/>
      <path id="DejaVuSans-7a" d="M 353 3500 
L 3084 3500 
L 3084 2975 
L 922 459 
L 3084 459 
L 3084 0 
L 275 0 
L 275 525 
L 2438 3041 
L 353 3041 
L 353 3500 
z
" transform="scale(0.015625)"/>
      <path id="DejaVuSans-6e" d="M 3513 2113 
L 3513 0 
L 2938 0 
L 2938 2094 
Q 2938 2591 2744 2837 
Q 2550 3084 2163 3084 
Q 1697 3084 1428 2787 
Q 1159 2491 1159 1978 
L 1159 0 
L 581 0 
L 581 3500 
L 1159 3500 
L 1159 2956 
Q 1366 3272 1645 3428 
Q 1925 3584 2291 3584 
Q 2894 3584 3203 3211 
Q 3513 2838 3513 2113 
z
" transform="scale(0.015625)"/>
      <path id="DejaVuSans-41" d="M 2188 4044 
L 1331 1722 
L 3047 1722 
L 2188 4044 
z
M 1831 4666 
L 2547 4666 
L 4325 0 
L 3669 0 
L 3244 1197 
L 1141 1197 
L 716 0 
L 50 0 
L 1831 4666 
z
" transform="scale(0.015625)"/>
      <path id="DejaVuSans-52" d="M 2841 2188 
Q 3044 2119 3236 1894 
Q 3428 1669 3622 1275 
L 4263 0 
L 3584 0 
L 2988 1197 
Q 2756 1666 2539 1819 
Q 2322 1972 1947 1972 
L 1259 1972 
L 1259 0 
L 628 0 
L 628 4666 
L 2053 4666 
Q 2853 4666 3247 4331 
Q 3641 3997 3641 3322 
Q 3641 2881 3436 2590 
Q 3231 2300 2841 2188 
z
M 1259 4147 
L 1259 2491 
L 2053 2491 
Q 2509 2491 2742 2702 
Q 2975 2913 2975 3322 
Q 2975 3731 2742 3939 
Q 2509 4147 2053 4147 
L 1259 4147 
z
" transform="scale(0.015625)"/>
     </defs>
     <use xlink:href="#DejaVuSans-50"/>
     <use xlink:href="#DejaVuSans-6f" x="56.677734"/>
     <use xlink:href="#DejaVuSans-6c" x="117.859375"/>
     <use xlink:href="#DejaVuSans-61" x="145.642578"/>
     <use xlink:href="#DejaVuSans-72" x="206.921875"/>
     <use xlink:href="#DejaVuSans-69" x="248.035156"/>
     <use xlink:href="#DejaVuSans-7a" x="275.818359"/>
     <use xlink:href="#DejaVuSans-61" x="328.308594"/>
     <use xlink:href="#DejaVuSans-74" x="389.587891"/>
     <use xlink:href="#DejaVuSans-69" x="428.796875"/>
     <use xlink:href="#DejaVuSans-6f" x="456.580078"/>
     <use xlink:href="#DejaVuSans-6e" x="517.761719"/>
     <use xlink:href="#DejaVuSans-20" x="581.140625"/>
     <use xlink:href="#DejaVuSans-41" x="612.927734"/>
     <use xlink:href="#DejaVuSans-63" x="679.585938"/>
     <use xlink:href="#DejaVuSans-72" x="734.566406"/>
     <use xlink:href="#DejaVuSans-6f" x="773.429688"/>
     <use xlink:href="#DejaVuSans-73" x="834.611328"/>
     <use xlink:href="#DejaVuSans-73" x="886.710938"/>
     <use xlink:href="#DejaVuSans-20" x="938.810547"/>
     <use xlink:href="#DejaVuSans-52" x="970.597656"/>
     <use xlink:href="#DejaVuSans-75" x="1035.580078"/>
     <use xlink:href="#DejaVuSans-6e" x="1098.958984"/>
     <use xlink:href="#DejaVuSans-73" x="1162.337891"/>
    </g>
   </g>
  </g>
 </g>
 <defs>
  <clipPath id="p38b5e9f6fe">
   <rect x="54.02" y="26.88" width="655.18" height="507.16"/>
  </clipPath>
 </defs>
</svg>
